<?xml version="1.0" encoding="UTF-8"?>
<!-- Generator: visioncortex VTracer 0.6.3 -->
<svg version="1.1" xmlns="http://www.w3.org/2000/svg" width="500" height="500">
<path d="M0 0 C165 0 330 0 500 0 C500 165 500 330 500 500 C335 500 170 500 0 500 C0 335 0 170 0 0 Z " fill="#FEFEFE" transform="translate(0,0)"/>
<path d="M0 0 C1.31 -0.01 2.62 -0.01 3.97 -0.02 C4.65 -0.01 5.33 0 6.03 0.01 C8.09 0.03 10.15 0.01 12.21 -0.02 C13.52 -0.01 14.84 -0.01 16.19 0 C17.38 0 18.57 0.01 19.8 0.01 C29.82 1.56 36.71 12.13 42.64 19.51 C45.38 22.79 48.24 25.91 51.16 29.03 C55.71 33.89 59.99 38.87 64.12 44.09 C66.31 46.71 68.75 49.12 71.16 51.53 C71.16 36.35 71.16 21.17 71.16 5.53 C71.82 5.53 72.48 5.53 73.16 5.53 C73.43 4.89 73.7 4.25 73.97 3.59 C75.16 1.53 75.16 1.53 78.16 0.53 C80.92 0.42 83.65 0.37 86.41 0.36 C87.21 0.36 88.02 0.36 88.85 0.35 C90.56 0.35 92.27 0.35 93.97 0.35 C96.58 0.34 99.19 0.33 101.8 0.31 C103.46 0.3 105.12 0.3 106.78 0.3 C107.56 0.29 108.34 0.29 109.14 0.28 C116.08 0.31 116.08 0.31 119.16 2.53 C120.51 5.22 120.3 7.31 120.31 10.33 C120.32 12.18 120.32 12.18 120.33 14.06 C120.33 15.44 120.33 16.81 120.34 18.19 C120.34 19.63 120.35 21.07 120.36 22.52 C120.37 26.44 120.39 30.36 120.39 34.29 C120.4 36.74 120.4 39.19 120.41 41.64 C120.43 49.3 120.44 56.96 120.45 64.62 C120.46 73.47 120.49 82.32 120.53 91.18 C120.56 98.01 120.57 104.85 120.58 111.69 C120.58 115.77 120.59 119.86 120.61 123.95 C120.64 127.79 120.64 131.63 120.63 135.47 C120.63 136.89 120.64 138.3 120.65 139.71 C120.67 141.63 120.66 143.56 120.65 145.48 C120.65 146.56 120.65 147.64 120.66 148.75 C120.04 152.21 118.88 153.38 116.16 155.53 C114.19 156.05 114.19 156.05 112.1 156.06 C110.92 156.09 110.92 156.09 109.71 156.11 C108.87 156.11 108.03 156.1 107.16 156.1 C106.29 156.1 105.41 156.11 104.52 156.12 C102.67 156.12 100.83 156.12 98.99 156.11 C96.17 156.09 93.35 156.13 90.54 156.17 C88.74 156.17 86.95 156.17 85.16 156.16 C84.32 156.17 83.48 156.19 82.61 156.2 C78.59 156.14 76.78 156.05 73.62 153.41 C71.86 149.94 71.75 147.74 71.87 143.87 C71.88 141.94 71.88 141.94 71.89 139.96 C71.94 137.28 72.02 134.6 72.11 131.92 C72.13 121.57 69.35 116.77 62.16 109.53 C60.75 107.84 59.35 106.13 57.97 104.41 C55.18 100.98 52.37 97.57 49.55 94.16 C48.92 93.4 48.29 92.64 47.64 91.85 C46.38 90.32 45.12 88.8 43.86 87.28 C43.28 86.58 42.7 85.88 42.1 85.16 C41.58 84.53 41.06 83.9 40.53 83.26 C39.33 81.74 38.23 80.14 37.16 78.53 C37.15 79.42 37.14 80.32 37.14 81.24 C37.06 89.65 36.97 98.07 36.87 106.49 C36.82 110.81 36.78 115.14 36.74 119.47 C36.7 123.64 36.66 127.82 36.6 131.99 C36.58 133.59 36.57 135.18 36.56 136.77 C36.54 139.01 36.51 141.24 36.48 143.47 C36.47 144.74 36.45 146.01 36.44 147.32 C36.18 150.34 35.92 152.08 34.16 154.53 C30.27 155.83 26.54 155.73 22.48 155.77 C21.62 155.78 20.77 155.79 19.9 155.79 C18.09 155.81 16.29 155.82 14.49 155.83 C11.74 155.84 8.98 155.89 6.23 155.93 C4.48 155.94 2.73 155.95 0.98 155.96 C0.15 155.97 -0.67 155.99 -1.52 156.01 C-2.29 156.01 -3.06 156 -3.85 156 C-4.87 156.01 -4.87 156.01 -5.9 156.02 C-8.81 155.29 -9.96 153.84 -11.84 151.53 C-12.35 148.75 -12.35 148.75 -12.35 145.5 C-12.37 144.26 -12.38 143.02 -12.39 141.75 C-12.39 140.38 -12.38 139.01 -12.37 137.65 C-12.38 136.2 -12.39 134.76 -12.4 133.32 C-12.42 129.4 -12.42 125.49 -12.41 121.57 C-12.4 118.31 -12.41 115.04 -12.42 111.77 C-12.44 104.06 -12.43 96.35 -12.42 88.64 C-12.4 80.69 -12.42 72.73 -12.45 64.78 C-12.47 57.95 -12.48 51.12 -12.47 44.29 C-12.47 40.21 -12.47 36.13 -12.49 32.06 C-12.51 28.22 -12.5 24.39 -12.48 20.55 C-12.47 19.14 -12.48 17.74 -12.49 16.33 C-12.51 14.41 -12.49 12.49 -12.47 10.57 C-12.47 9.49 -12.47 8.42 -12.47 7.31 C-11.84 4.53 -11.84 4.53 -9.5 2.19 C-6.14 0.09 -3.95 0.01 0 0 Z " fill="#FEDD5A" transform="translate(45.83984375,81.46875)"/>
<path d="M0 0 C0.85 -0.01 1.7 -0.02 2.57 -0.02 C4.37 -0.04 6.17 -0.05 7.97 -0.06 C10.71 -0.07 13.45 -0.12 16.2 -0.16 C17.94 -0.17 19.69 -0.18 21.44 -0.19 C22.26 -0.21 23.07 -0.22 23.92 -0.24 C25.07 -0.24 25.07 -0.24 26.25 -0.23 C26.92 -0.24 27.6 -0.24 28.29 -0.25 C31.64 0.54 33.07 1.63 35.35 4.24 C36.09 7.61 36 10.92 35.95 14.36 C35.95 15.9 35.95 15.9 35.96 17.47 C35.97 19.71 35.96 21.94 35.94 24.17 C35.92 27.7 35.92 31.23 35.94 34.76 C35.96 42.25 35.94 49.75 35.91 57.24 C35.89 65.92 35.89 74.6 35.91 83.28 C35.92 86.76 35.9 90.25 35.87 93.73 C35.88 95.86 35.88 97.99 35.89 100.12 C35.87 101.09 35.86 102.06 35.85 103.06 C35.83 108.28 35.83 108.28 38.19 112.81 C42.47 115.64 46.65 115.42 51.6 115.43 C52.34 115.44 53.08 115.45 53.84 115.46 C58.71 115.48 62.78 114.99 67.35 113.24 C69.44 110.11 69.6 109.44 69.59 105.89 C69.59 105 69.6 104.12 69.6 103.2 C69.59 102.23 69.59 101.26 69.58 100.26 C69.58 99.23 69.58 98.21 69.58 97.15 C69.58 93.76 69.56 90.37 69.55 86.98 C69.54 84.63 69.54 82.28 69.54 79.93 C69.53 73.74 69.51 67.55 69.49 61.36 C69.47 55.04 69.46 48.73 69.45 42.42 C69.43 30.02 69.39 17.63 69.35 5.24 C70.01 5.24 70.67 5.24 71.35 5.24 C71.62 4.6 71.89 3.96 72.16 3.3 C73.35 1.24 73.35 1.24 76.35 0.24 C81.75 -0.04 87.14 -0.08 92.54 -0.11 C94.33 -0.13 96.12 -0.16 97.9 -0.19 C100.49 -0.25 103.07 -0.27 105.66 -0.29 C106.45 -0.31 107.25 -0.33 108.07 -0.35 C108.82 -0.35 109.57 -0.35 110.34 -0.35 C111.33 -0.36 111.33 -0.36 112.33 -0.37 C115.86 0.69 117.19 2.26 119.35 5.24 C120.08 8.88 120.01 12.46 119.97 16.16 C119.97 17.26 119.98 18.36 119.98 19.49 C120 23.14 119.97 26.78 119.95 30.43 C119.94 32.97 119.94 35.51 119.95 38.05 C119.94 43.38 119.93 48.71 119.89 54.03 C119.86 60.17 119.85 66.3 119.85 72.43 C119.86 78.35 119.85 84.27 119.83 90.2 C119.82 92.71 119.82 95.21 119.82 97.72 C119.8 131.79 119.8 131.79 108.61 144.17 C103.32 149.29 97.22 151.79 90.35 154.24 C89.44 154.57 88.53 154.9 87.59 155.23 C76.66 158.62 64.89 158.56 53.55 158.5 C51.22 158.49 48.89 158.5 46.56 158.51 C28.36 158.53 9.63 156.44 -4.39 143.65 C-10.53 137.16 -13.77 128.1 -13.78 119.22 C-13.79 117.71 -13.79 117.71 -13.8 116.16 C-13.79 115.06 -13.79 113.95 -13.79 112.82 C-13.8 111.65 -13.8 110.48 -13.8 109.28 C-13.81 105.42 -13.82 101.56 -13.82 97.7 C-13.82 95.7 -13.82 93.7 -13.82 91.7 C-13.83 85.41 -13.83 79.12 -13.83 72.83 C-13.83 66.34 -13.84 59.85 -13.86 53.36 C-13.87 47.79 -13.88 42.21 -13.88 36.64 C-13.88 33.31 -13.88 29.99 -13.89 26.66 C-13.9 22.95 -13.9 19.24 -13.89 15.53 C-13.9 14.43 -13.9 13.32 -13.91 12.18 C-13.9 11.17 -13.9 10.17 -13.9 9.13 C-13.9 8.25 -13.9 7.37 -13.9 6.47 C-13.65 4.24 -13.65 4.24 -11.65 1.24 C-7.76 -0.06 -4.05 0.04 0 0 Z " fill="#FDDD5A" transform="translate(208.6484375,81.76171875)"/>
<path d="M0 0 C0.7 -0.01 1.41 -0.02 2.14 -0.02 C4.45 -0.05 6.77 -0.07 9.09 -0.08 C9.89 -0.09 10.68 -0.09 11.5 -0.1 C15.7 -0.12 19.9 -0.14 24.1 -0.16 C27.57 -0.17 31.05 -0.2 34.52 -0.24 C38.72 -0.29 42.92 -0.31 47.12 -0.32 C48.72 -0.33 50.32 -0.34 51.92 -0.37 C54.15 -0.4 56.39 -0.4 58.62 -0.39 C59.89 -0.4 61.16 -0.41 62.47 -0.42 C66.72 0.36 68.19 1.83 70.81 5.19 C71.41 8.54 71.41 8.54 71.37 12.32 C71.37 13.33 71.37 13.33 71.36 14.36 C71.35 15.77 71.33 17.18 71.3 18.59 C71.25 20.75 71.24 22.91 71.23 25.07 C71.11 36.8 71.11 36.8 68.81 40.19 C66.24 41.48 64.37 41.33 61.49 41.35 C60.38 41.36 59.27 41.37 58.12 41.38 C56.32 41.39 56.32 41.39 54.47 41.4 C51.94 41.43 49.41 41.46 46.88 41.49 C42.87 41.53 38.86 41.57 34.85 41.59 C31 41.62 27.14 41.67 23.28 41.72 C22.08 41.72 20.88 41.72 19.64 41.73 C17.97 41.75 17.97 41.75 16.26 41.78 C15.28 41.78 14.3 41.79 13.28 41.8 C10.78 42.01 10.78 42.01 8.96 43.5 C7.46 45.34 7.46 45.34 8 48.76 C8.5 52.24 8.5 52.24 10.81 54.19 C13.41 54.66 15.95 55.02 18.57 55.31 C20.18 55.5 21.79 55.7 23.41 55.9 C25.93 56.2 28.46 56.5 30.98 56.79 C61.84 60.36 61.84 60.36 71.81 71.19 C77.11 78.65 77.97 85.33 78.05 94.26 C78.06 95.14 78.06 96.02 78.07 96.92 C78.09 98.77 78.1 100.63 78.11 102.48 C78.12 104.36 78.14 106.24 78.17 108.12 C78.56 132.97 78.56 132.97 69.69 142.57 C61.14 151.38 49.55 155.18 37.43 155.53 C33.26 155.59 29.08 155.58 24.9 155.56 C23.09 155.56 21.27 155.56 19.46 155.56 C15.68 155.56 11.89 155.55 8.11 155.53 C3.26 155.51 -1.59 155.51 -6.44 155.51 C-10.18 155.52 -13.92 155.51 -17.65 155.5 C-19.44 155.5 -21.23 155.49 -23.02 155.5 C-25.51 155.5 -28 155.48 -30.5 155.47 C-31.23 155.47 -31.97 155.47 -32.73 155.48 C-36.44 155.44 -38.02 155.3 -41.19 153.19 C-42.93 147.98 -42.41 142.4 -42.43 136.94 C-42.44 134.77 -42.47 132.59 -42.5 130.42 C-42.51 129.03 -42.51 127.65 -42.52 126.26 C-42.53 125 -42.54 123.74 -42.55 122.45 C-42.17 118.97 -41.67 117.6 -39.19 115.19 C-35.94 114.11 -33.49 114.04 -30.07 113.99 C-28.8 113.97 -27.54 113.95 -26.24 113.93 C-24.87 113.91 -23.49 113.89 -22.12 113.88 C-20.71 113.86 -19.3 113.83 -17.89 113.81 C-14.19 113.76 -10.48 113.71 -6.78 113.66 C-3 113.61 0.78 113.55 4.56 113.5 C11.98 113.39 19.39 113.29 26.81 113.19 C28.01 110.79 27.91 109.24 27.87 106.57 C27.86 105.75 27.86 104.93 27.85 104.09 C27.83 103.46 27.82 102.84 27.81 102.19 C25.99 101.95 25.99 101.95 24.13 101.71 C19.57 101.1 15.02 100.48 10.47 99.85 C8.51 99.58 6.55 99.32 4.58 99.06 C-27.58 94.8 -27.58 94.8 -37.06 83.01 C-42.88 73.41 -42.69 62.58 -42.64 51.73 C-42.63 49.2 -42.66 46.66 -42.69 44.13 C-42.74 31.69 -41.34 20.48 -32.19 11.19 C-23.03 3.48 -11.81 0.12 0 0 Z " fill="#FDDD5A" transform="translate(394.189453125,81.80712890625)"/>
<path d="M0 0 C1.12 -0.01 2.24 -0.02 3.39 -0.04 C11.55 -0.01 19.47 0.5 26.06 5.69 C30.77 11.82 31.58 16.58 31.56 24.09 C31.56 25.01 31.57 25.94 31.57 26.89 C31.58 28.85 31.58 30.8 31.57 32.76 C31.56 35.73 31.59 38.71 31.62 41.68 C31.62 43.59 31.62 45.49 31.62 47.4 C31.64 48.72 31.64 48.72 31.66 50.07 C31.59 55.93 30.51 60.5 27.12 65.38 C24.69 67.21 24.69 67.21 22.12 68.31 C21.28 68.69 20.43 69.07 19.56 69.46 C13.24 71.82 7.12 71.63 0.44 71.69 C-1.28 71.73 -1.28 71.73 -3.04 71.78 C-11.74 71.84 -17.99 70.52 -24.81 65 C-29.2 59.42 -29.18 53.64 -29.18 46.85 C-29.18 45.94 -29.18 45.03 -29.19 44.1 C-29.19 42.19 -29.2 40.27 -29.19 38.36 C-29.19 35.45 -29.21 32.54 -29.24 29.63 C-29.24 27.76 -29.24 25.9 -29.24 24.04 C-29.25 23.17 -29.26 22.31 -29.27 21.42 C-29.22 14.99 -28.34 9.91 -23.69 5.12 C-15.87 0.26 -9.02 -0.09 0 0 Z " fill="#9DFE86" transform="translate(113.875,251.625)"/>
<path d="M0 0 C4.55 0.13 7.31 0.55 10.65 3.9 C11.88 5.43 13.07 7 14.22 8.59 C15.82 10.53 17.42 12.47 19.03 14.4 C19.76 15.31 20.49 16.23 21.24 17.17 C22.82 19.11 24.43 20.84 26.22 22.59 C26.25 21.64 26.25 21.64 26.29 20.68 C26.41 17.83 26.53 14.99 26.65 12.15 C26.69 11.16 26.73 10.16 26.77 9.14 C26.84 7.72 26.84 7.72 26.9 6.28 C26.94 5.4 26.97 4.53 27.01 3.63 C27.22 1.59 27.22 1.59 28.22 0.59 C29.62 0.49 31.03 0.46 32.44 0.45 C33.71 0.45 33.71 0.45 35.01 0.45 C36.35 0.46 36.35 0.46 37.72 0.46 C38.61 0.46 39.5 0.45 40.42 0.45 C41.27 0.45 42.12 0.45 43 0.45 C43.78 0.46 44.57 0.46 45.37 0.46 C47.22 0.59 47.22 0.59 48.22 1.59 C48.32 3.67 48.34 5.75 48.35 7.84 C48.35 8.49 48.35 9.14 48.35 9.81 C48.36 11.98 48.35 14.14 48.35 16.31 C48.35 17.8 48.35 19.3 48.35 20.8 C48.35 23.94 48.35 27.09 48.35 30.23 C48.34 34.27 48.34 38.31 48.35 42.35 C48.35 45.44 48.35 48.54 48.35 51.64 C48.35 53.12 48.35 54.61 48.35 56.1 C48.36 58.18 48.35 60.26 48.35 62.34 C48.35 63.52 48.34 64.71 48.34 65.93 C48.22 68.59 48.22 68.59 47.22 69.59 C45.81 69.69 44.4 69.72 43 69.72 C41.72 69.72 41.72 69.72 40.42 69.72 C39.53 69.72 38.64 69.72 37.72 69.71 C36.82 69.72 35.93 69.72 35.01 69.72 C34.16 69.72 33.31 69.72 32.44 69.72 C31.65 69.72 30.87 69.72 30.06 69.72 C28.22 69.59 28.22 69.59 27.22 68.59 C27.27 67.16 27.27 67.16 27.32 65.7 C27.54 55.82 25.16 51.02 18.43 43.81 C17.05 42.38 15.64 40.98 14.22 39.59 C14.21 40.39 14.2 41.19 14.19 42.02 C14.13 45.65 14.05 49.27 13.97 52.9 C13.95 54.79 13.95 54.79 13.92 56.73 C13.89 57.93 13.86 59.14 13.83 60.39 C13.79 62.06 13.79 62.06 13.76 63.77 C13.22 66.59 13.22 66.59 11.46 68.45 C8.98 69.71 7.47 69.95 4.7 69.92 C3.87 69.91 3.03 69.9 2.16 69.9 C1.29 69.88 0.42 69.86 -0.47 69.84 C-1.79 69.83 -1.79 69.83 -3.14 69.82 C-9.63 69.74 -9.63 69.74 -10.78 68.59 C-10.88 66.51 -10.91 64.42 -10.91 62.34 C-10.91 61.69 -10.92 61.04 -10.92 60.36 C-10.92 58.2 -10.92 56.03 -10.92 53.87 C-10.92 52.37 -10.92 50.87 -10.92 49.37 C-10.92 46.23 -10.92 43.09 -10.91 39.94 C-10.91 35.9 -10.91 31.86 -10.92 27.82 C-10.92 24.73 -10.92 21.63 -10.92 18.54 C-10.92 17.05 -10.92 15.56 -10.92 14.07 C-10.92 11.99 -10.92 9.91 -10.91 7.84 C-10.91 6.65 -10.91 5.47 -10.91 4.24 C-10.64 -1.46 -4.53 0.05 0 0 Z " fill="#9EFE85" transform="translate(239.783447265625,252.412841796875)"/>
<path d="M0 0 C5.46 0.2 8.28 1.79 12.05 5.69 C14.16 8.11 16.18 10.58 18.12 13.14 C20.11 15.72 22.29 18.13 24.47 20.55 C25.57 22.02 25.57 22.02 25.57 24.02 C26.23 24.02 26.89 24.02 27.57 24.02 C27.57 23.36 27.56 22.7 27.56 22.01 C27.54 19.04 27.53 16.06 27.51 13.08 C27.5 12.04 27.5 11 27.49 9.93 C27.48 8.94 27.48 7.95 27.48 6.93 C27.47 6.01 27.47 5.1 27.46 4.15 C27.57 2.02 27.57 2.02 28.57 1.02 C29.98 0.92 31.39 0.89 32.79 0.89 C34.07 0.88 34.07 0.88 35.37 0.88 C36.71 0.89 36.71 0.89 38.07 0.89 C38.97 0.89 39.86 0.89 40.78 0.88 C41.63 0.88 42.48 0.88 43.36 0.89 C44.14 0.89 44.92 0.89 45.73 0.89 C47.57 1.02 47.57 1.02 48.57 2.02 C48.67 4.1 48.7 6.18 48.7 8.27 C48.71 8.92 48.71 9.57 48.71 10.24 C48.71 12.41 48.71 14.57 48.71 16.74 C48.71 18.23 48.71 19.73 48.71 21.23 C48.71 24.38 48.71 27.52 48.71 30.66 C48.7 34.7 48.7 38.74 48.71 42.78 C48.71 45.88 48.71 48.97 48.71 52.07 C48.71 53.56 48.71 55.04 48.71 56.53 C48.71 58.61 48.71 60.69 48.7 62.77 C48.7 63.95 48.7 65.14 48.7 66.36 C48.57 69.02 48.57 69.02 47.57 70.02 C46.17 70.12 44.76 70.15 43.36 70.15 C42.08 70.15 42.08 70.15 40.78 70.15 C39.89 70.15 39 70.15 38.07 70.14 C37.18 70.15 36.29 70.15 35.37 70.15 C34.52 70.15 33.67 70.15 32.79 70.15 C32.01 70.15 31.22 70.15 30.42 70.15 C28.57 70.02 28.57 70.02 27.57 69.02 C27.59 68.03 27.6 67.04 27.61 66.03 C27.66 58.32 27.34 53.89 21.82 48.02 C20.96 47.21 20.1 46.41 19.22 45.58 C16.16 42.61 13.97 39.53 11.57 36.02 C11.55 37.01 11.52 38.01 11.5 39.03 C11.4 42.71 11.3 46.39 11.2 50.06 C11.16 51.66 11.12 53.25 11.08 54.84 C11.02 57.13 10.96 59.42 10.89 61.7 C10.87 62.78 10.87 62.78 10.84 63.87 C10.69 68.9 10.69 68.9 9.57 70.02 C8.17 70.12 6.76 70.15 5.36 70.15 C4.08 70.15 4.08 70.15 2.78 70.15 C1.89 70.15 1 70.15 0.07 70.14 C-0.82 70.15 -1.71 70.15 -2.63 70.15 C-3.48 70.15 -4.33 70.15 -5.21 70.15 C-5.99 70.15 -6.78 70.15 -7.58 70.15 C-9.43 70.02 -9.43 70.02 -10.43 69.02 C-10.52 66.94 -10.55 64.85 -10.55 62.77 C-10.56 62.12 -10.56 61.47 -10.56 60.79 C-10.56 58.63 -10.56 56.46 -10.56 54.3 C-10.56 52.8 -10.56 51.3 -10.56 49.8 C-10.56 46.66 -10.56 43.52 -10.56 40.37 C-10.55 36.33 -10.55 32.29 -10.56 28.26 C-10.56 25.16 -10.56 22.07 -10.56 18.97 C-10.56 17.48 -10.56 15.99 -10.56 14.5 C-10.56 12.42 -10.56 10.34 -10.55 8.27 C-10.55 7.08 -10.55 5.9 -10.55 4.67 C-10.29 -0.9 -4.5 0.17 0 0 Z " fill="#9DFE85" transform="translate(167.42529296875,251.982177734375)"/>
<path d="M0 0 C7.1 -0.03 14.2 -0.04 21.31 -0.05 C23.73 -0.06 26.14 -0.07 28.56 -0.08 C32.03 -0.09 35.5 -0.09 38.96 -0.1 C40.05 -0.1 41.14 -0.11 42.26 -0.11 C43.76 -0.11 43.76 -0.11 45.3 -0.11 C46.63 -0.12 46.63 -0.12 47.98 -0.12 C50 0 50 0 51 1 C51.13 3.49 51.19 5.94 51.19 8.44 C51.2 9.13 51.21 9.83 51.22 10.54 C51.23 12.36 51.12 14.18 51 16 C49 18 49 18 46.2 18.23 C45.04 18.22 43.88 18.21 42.68 18.2 C40.79 18.19 40.79 18.19 38.87 18.18 C37.55 18.16 36.23 18.14 34.88 18.12 C33.54 18.11 32.2 18.11 30.86 18.1 C27.57 18.07 24.29 18.04 21 18 C21 20.31 21 22.62 21 25 C21.6 24.99 22.19 24.99 22.8 24.98 C25.49 24.96 28.18 24.95 30.88 24.94 C31.81 24.93 32.75 24.92 33.71 24.91 C35.06 24.91 35.06 24.91 36.43 24.9 C37.67 24.89 37.67 24.89 38.94 24.89 C41 25 41 25 43 26 C43.03 28.48 43.05 30.96 43.06 33.44 C43.07 34.14 43.08 34.85 43.09 35.58 C43.1 37.39 43.05 39.19 43 41 C41.38 42.62 39.54 42.22 37.31 42.32 C35.89 42.38 35.89 42.38 34.45 42.44 C33.45 42.48 32.46 42.52 31.44 42.56 C30.44 42.61 29.44 42.65 28.42 42.69 C25.94 42.8 23.47 42.9 21 43 C21 45.64 21 48.28 21 51 C21.87 50.99 22.75 50.99 23.65 50.98 C26.88 50.97 30.11 50.95 33.34 50.95 C34.73 50.94 36.13 50.93 37.53 50.92 C39.54 50.91 41.55 50.91 43.56 50.9 C45.37 50.89 45.37 50.89 47.22 50.89 C50 51 50 51 51 52 C51.1 54.68 51.14 57.32 51.12 60 C51.13 61.13 51.13 61.13 51.14 62.27 C51.13 67.87 51.13 67.87 50 69 C48.48 69.1 46.95 69.14 45.42 69.15 C43.96 69.15 43.96 69.15 42.47 69.16 C40.88 69.17 40.88 69.17 39.25 69.17 C38.17 69.17 37.09 69.17 35.98 69.18 C33.68 69.18 31.39 69.19 29.1 69.19 C25.58 69.19 22.06 69.21 18.54 69.22 C16.32 69.23 14.1 69.23 11.88 69.23 C10.82 69.24 9.76 69.24 8.67 69.25 C7.21 69.25 7.21 69.25 5.71 69.24 C4.41 69.25 4.41 69.25 3.09 69.25 C1 69 1 69 -1 67 C-1.25 64.35 -1.25 64.35 -1.24 60.95 C-1.25 59.67 -1.25 58.4 -1.25 57.09 C-1.25 55.7 -1.24 54.3 -1.23 52.91 C-1.23 51.49 -1.23 50.06 -1.23 48.64 C-1.23 45.65 -1.22 42.66 -1.21 39.67 C-1.19 35.84 -1.18 32.01 -1.19 28.18 C-1.19 25.23 -1.18 22.29 -1.17 19.35 C-1.17 17.93 -1.17 16.52 -1.17 15.11 C-1.16 13.13 -1.16 11.16 -1.15 9.18 C-1.14 8.06 -1.14 6.94 -1.13 5.78 C-1 3 -1 3 0 0 Z " fill="#9DFD86" transform="translate(302,253)"/>
<path d="M0 0 C1.11 -0 1.11 -0 2.24 -0.01 C3.79 -0.01 5.34 -0 6.89 0 C9.27 0.02 11.65 0 14.03 -0.01 C15.54 -0.01 17.05 -0 18.56 0 C19.63 -0.01 19.63 -0.01 20.72 -0.01 C25.72 0.04 25.72 0.04 27.95 2.27 C28.12 4.83 28.18 7.27 28.14 9.83 C28.14 10.53 28.14 11.22 28.13 11.94 C28.09 17.13 28.09 17.13 26.95 18.27 C25.12 18.4 23.29 18.47 21.45 18.51 C19.78 18.56 19.78 18.56 18.07 18.61 C15.7 18.67 13.33 18.73 10.96 18.78 C9.85 18.82 8.73 18.85 7.58 18.89 C6.03 18.92 6.03 18.92 4.46 18.96 C1.78 19.02 1.78 19.02 -0.05 21.27 C-0.36 24.05 -0.36 24.05 -0.32 27.3 C-0.32 28.5 -0.32 29.7 -0.32 30.94 C-0.32 32.2 -0.31 33.47 -0.3 34.77 C-0.31 36.03 -0.32 37.29 -0.32 38.59 C-0.32 40.39 -0.32 40.39 -0.32 42.23 C-0.31 43.34 -0.31 44.45 -0.31 45.59 C-0.32 48.42 -0.32 48.42 1.95 50.27 C4.55 50.62 4.55 50.62 7.58 50.64 C9.25 50.7 9.25 50.7 10.96 50.75 C12.13 50.77 13.31 50.8 14.51 50.83 C16.83 50.89 19.14 50.95 21.45 51.02 C22.48 51.04 23.51 51.07 24.57 51.09 C26.95 51.27 26.95 51.27 27.95 52.27 C28.19 54.79 28.37 57.3 28.51 59.83 C28.55 60.54 28.6 61.25 28.64 61.98 C28.75 63.74 28.85 65.5 28.95 67.27 C25.35 69.66 22.7 69.59 18.54 69.6 C17.81 69.61 17.08 69.61 16.33 69.62 C14.78 69.63 13.24 69.64 11.69 69.64 C9.35 69.64 7.02 69.68 4.68 69.71 C-10.43 69.83 -10.43 69.83 -17.05 65.27 C-21.98 60.34 -23.27 55.53 -23.33 48.75 C-23.32 47.92 -23.32 47.09 -23.32 46.24 C-23.32 45.37 -23.32 44.51 -23.32 43.61 C-23.32 41.78 -23.32 39.96 -23.31 38.13 C-23.3 35.34 -23.31 32.55 -23.32 29.77 C-23.32 27.99 -23.32 26.21 -23.32 24.43 C-23.32 23.6 -23.32 22.77 -23.33 21.92 C-23.28 15.71 -22.47 10.42 -18.36 5.52 C-17.91 4.94 -17.45 4.37 -16.98 3.78 C-12.15 -0.02 -5.9 -0.03 0 0 Z " fill="#9DFD86" transform="translate(386.05078125,252.734375)"/>
<path d="M0 0 C0.72 -0 1.45 -0 2.2 -0 C3.72 -0 5.25 -0 6.77 0 C9.12 0.01 11.46 0 13.8 -0 C15.29 -0 16.77 -0 18.25 0 C18.95 -0 19.66 -0 20.38 -0.01 C25.31 0.02 25.31 0.02 26.43 1.13 C26.53 3.81 26.56 6.46 26.55 9.13 C26.56 10.26 26.56 10.26 26.56 11.41 C26.55 17.01 26.55 17.01 25.43 18.13 C23.67 18.28 21.91 18.36 20.15 18.41 C19.08 18.45 18.01 18.49 16.9 18.53 C15.78 18.56 14.65 18.6 13.49 18.63 C11.27 18.7 9.05 18.77 6.84 18.85 C5.35 18.9 5.35 18.9 3.84 18.94 C1.42 18.98 1.42 18.98 -0.57 20.13 C-0.6 24.24 -0.62 28.36 -0.63 32.47 C-0.63 33.87 -0.64 35.27 -0.65 36.67 C-0.66 38.68 -0.67 40.68 -0.67 42.69 C-0.68 43.9 -0.68 45.11 -0.69 46.36 C-0.89 49.04 -0.89 49.04 0.43 50.13 C2.27 50.28 4.11 50.36 5.96 50.41 C7.08 50.45 8.2 50.49 9.35 50.53 C11.12 50.58 11.12 50.58 12.93 50.63 C15.25 50.7 17.57 50.77 19.89 50.85 C20.93 50.88 21.97 50.91 23.03 50.94 C25.43 51.13 25.43 51.13 26.43 52.13 C26.53 54.81 26.56 57.46 26.55 60.13 C26.56 61.26 26.56 61.26 26.56 62.41 C26.55 68.01 26.55 68.01 25.43 69.13 C23.08 69.26 20.77 69.32 18.43 69.34 C17.72 69.34 17.01 69.35 16.28 69.35 C14.77 69.36 13.26 69.37 11.75 69.37 C9.46 69.38 7.18 69.41 4.9 69.45 C-12.26 69.57 -12.26 69.57 -18.73 64.41 C-19.17 63.83 -19.62 63.24 -20.07 62.63 C-20.54 62.05 -21 61.46 -21.48 60.85 C-23.37 57.88 -23.71 55.29 -23.75 51.86 C-23.76 51.01 -23.78 50.15 -23.79 49.26 C-23.8 48.34 -23.8 47.41 -23.81 46.46 C-23.82 45.51 -23.83 44.55 -23.84 43.56 C-23.85 41.54 -23.86 39.52 -23.87 37.49 C-23.89 34.41 -23.93 31.33 -23.97 28.24 C-23.98 26.27 -23.99 24.3 -24 22.34 C-24.02 21.42 -24.04 20.5 -24.05 19.56 C-24.03 13.55 -23.07 10.05 -19.57 5.13 C-17.57 3.61 -17.57 3.61 -15.57 2.76 C-14.91 2.46 -14.25 2.16 -13.57 1.86 C-9.02 0.21 -4.82 -0.01 0 0 Z " fill="#9DFE86" transform="translate(48.57421875,252.8671875)"/>
<path d="M0 0 C1.1 -0 2.2 -0.01 3.33 -0.01 C5.12 -0.01 5.12 -0.01 6.95 -0 C8.16 -0 9.38 -0.01 10.64 -0.01 C13.21 -0.01 15.79 -0.01 18.37 -0 C22.34 0 26.3 -0 30.26 -0.01 C32.76 -0.01 35.26 -0.01 37.76 -0 C38.95 -0.01 40.15 -0.01 41.38 -0.01 C42.48 -0.01 43.58 -0 44.71 0 C46.16 0 46.16 0 47.65 0 C49.85 0.13 49.85 0.13 50.85 1.13 C50.93 3.99 50.95 6.83 50.92 9.69 C50.9 12.48 50.87 15.26 50.85 18.13 C42.44 18.62 42.44 18.62 33.85 19.13 C33.87 21.29 33.87 21.29 33.89 23.5 C33.92 28.85 33.94 34.19 33.96 39.53 C33.97 41.84 33.99 44.16 34 46.47 C34.03 49.79 34.04 53.11 34.05 56.43 C34.06 57.47 34.07 58.51 34.08 59.58 C34.08 61.03 34.08 61.03 34.08 62.5 C34.09 63.34 34.09 64.19 34.09 65.07 C33.85 67.13 33.85 67.13 31.85 69.13 C29.81 69.37 29.81 69.37 27.32 69.36 C26.43 69.36 25.54 69.36 24.62 69.35 C23.68 69.34 22.75 69.33 21.79 69.32 C20.39 69.32 20.39 69.32 18.95 69.31 C11.99 69.27 11.99 69.27 10.85 68.13 C10.76 66.59 10.74 65.06 10.74 63.52 C10.74 62.54 10.74 61.56 10.74 60.55 C10.75 59.48 10.75 58.41 10.76 57.31 C10.76 56.23 10.76 55.14 10.76 54.02 C10.77 50.54 10.78 47.05 10.79 43.57 C10.8 41.21 10.8 38.85 10.8 36.5 C10.82 30.71 10.83 24.92 10.85 19.13 C9.79 19.14 8.73 19.15 7.64 19.16 C6.25 19.17 4.87 19.18 3.48 19.19 C2.78 19.2 2.08 19.21 1.36 19.22 C-3.92 19.24 -3.92 19.24 -6.15 18.13 C-6.17 15.32 -6.19 12.5 -6.21 9.69 C-6.22 8.89 -6.23 8.09 -6.23 7.26 C-6.24 5.22 -6.2 3.17 -6.15 1.13 C-4.45 -0.56 -2.32 0 0 0 Z " fill="#9EFC86" transform="translate(427.146484375,252.87060546875)"/>
<path d="M0 0 C2.5 0.25 2.5 0.25 4.5 2.25 C5.58 9 4.48 14.72 0.5 20.25 C-6.49 28.46 -6.49 28.46 -11.5 29.25 C-11.55 29.86 -11.6 30.48 -11.65 31.11 C-11.72 31.92 -11.8 32.73 -11.88 33.56 C-11.94 34.36 -12.01 35.16 -12.09 35.99 C-12.5 38.25 -12.5 38.25 -14.5 41.25 C-19.77 43.01 -25.36 42.56 -30.88 42.62 C-32.72 42.68 -32.72 42.68 -34.61 42.74 C-43.61 42.83 -43.61 42.83 -47.82 40.11 C-51.23 34.31 -50.28 27.78 -48.87 21.39 C-46.73 15.06 -43.31 11.48 -37.5 8.25 C-32.64 6.63 -27.86 6.14 -23.12 8.37 C-21.6 9.28 -20.08 10.2 -18.57 11.13 C-14.45 13.36 -10.79 12.37 -6.5 11.25 C-6.32 10.31 -6.32 10.31 -6.13 9.35 C-5.88 8.13 -5.88 8.13 -5.62 6.88 C-5.46 6.06 -5.3 5.25 -5.13 4.41 C-4.21 1.25 -3.3 0.33 0 0 Z " fill="#FFFCFE" transform="translate(185.5,368.75)"/>
<path d="M0 0 C0 0.9 0 0.9 0 1.81 C0.04 16.38 0.1 30.96 0.18 45.53 C0.22 52.58 0.26 59.63 0.27 66.68 C0.29 73.49 0.32 80.3 0.37 87.1 C0.38 89.7 0.39 92.29 0.39 94.88 C0.39 98.52 0.42 102.16 0.45 105.81 C0.45 106.87 0.44 107.93 0.44 109.02 C0.58 119.42 3.14 129.77 10.42 137.51 C22.06 148.52 39.71 151.14 55.13 151.17 C55.88 151.17 56.63 151.17 57.41 151.18 C58.99 151.18 60.58 151.19 62.16 151.19 C64.53 151.19 66.9 151.21 69.28 151.22 C81.66 151.27 94.19 151.04 105.81 146.31 C107.86 145.49 109.91 144.71 112 144 C112.66 144.33 113.32 144.66 114 145 C97.01 156.58 78.19 157.27 58.25 157.38 C57.52 157.38 56.78 157.39 56.02 157.4 C38.48 157.54 18.82 155.74 4.93 143.94 C-3.39 135.58 -6.31 125.79 -6.41 114.17 C-6.4 113.09 -6.39 112.01 -6.39 110.9 C-6.39 109.73 -6.4 108.56 -6.4 107.36 C-6.42 103.53 -6.41 99.71 -6.4 95.88 C-6.4 93.21 -6.4 90.54 -6.41 87.87 C-6.41 82.29 -6.41 76.72 -6.39 71.14 C-6.37 64.69 -6.38 58.25 -6.4 51.8 C-6.41 46.25 -6.41 40.71 -6.4 35.16 C-6.4 31.85 -6.4 28.54 -6.41 25.24 C-6.42 21.56 -6.4 17.88 -6.39 14.2 C-6.39 13.1 -6.4 12.01 -6.41 10.88 C-6.4 9.88 -6.39 8.88 -6.38 7.85 C-6.38 6.98 -6.38 6.11 -6.38 5.22 C-5.69 1.17 -4.01 0 0 0 Z " fill="#FF0BF9" transform="translate(195,88)"/>
<path d="M0 0 C2.5 0.25 2.5 0.25 4.5 2.25 C5.3 4.27 5.96 6.31 6.62 8.38 C7.47 10.6 7.47 10.6 10.5 12.25 C16.1 13.01 18.88 11.07 23.5 8.25 C28.01 6.5 33.21 6.25 37.66 8.19 C44 11.97 47.51 16.06 49.5 23.25 C49.8 27.01 49.8 27.01 49.81 30.94 C49.83 32.24 49.85 33.54 49.86 34.89 C49.5 38.25 49.5 38.25 48.17 40.14 C42.97 43.59 36.04 42.52 30.06 42.56 C28.82 42.59 27.58 42.62 26.3 42.65 C24.52 42.66 24.52 42.66 22.69 42.68 C21.05 42.7 21.05 42.7 19.39 42.72 C15.8 42.14 14.63 41.15 12.5 38.25 C12.38 36.33 12.38 36.33 12.25 34.38 C12.05 31.58 11.83 30.57 9.81 28.57 C8.39 27.56 6.95 26.57 5.5 25.6 C0.19 22.01 -2.58 16.21 -4.5 10.25 C-4.9 7.38 -4.81 5.18 -4.5 2.25 C-2.5 0.25 -2.5 0.25 0 0 Z " fill="#FEFFFC" transform="translate(316.5,368.75)"/>
<path d="M0 0 C2.5 0.25 2.5 0.25 4.5 2.25 C5.63 8.52 4.53 13.7 1.2 19.07 C-2.2 23.43 -6.51 27.76 -11.5 30.25 C-12.1 32.79 -12.46 35.32 -12.84 37.9 C-13.5 40.25 -13.5 40.25 -16.5 42.25 C-21.11 42.75 -25.74 42.67 -30.38 42.69 C-31.66 42.72 -32.94 42.75 -34.25 42.79 C-43.58 42.84 -43.58 42.84 -47.85 40.11 C-51.21 34.29 -50.28 27.78 -48.87 21.39 C-46.73 15.06 -43.31 11.48 -37.5 8.25 C-32.64 6.63 -27.86 6.14 -23.12 8.37 C-21.6 9.28 -20.08 10.2 -18.57 11.13 C-14.45 13.36 -10.79 12.37 -6.5 11.25 C-6.32 10.31 -6.32 10.31 -6.13 9.35 C-5.88 8.13 -5.88 8.13 -5.62 6.88 C-5.46 6.06 -5.3 5.25 -5.13 4.41 C-4.21 1.25 -3.3 0.33 0 0 Z " fill="#FDFFFC" transform="translate(302.5,368.75)"/>
<path d="M0 0 C2.5 0.25 2.5 0.25 4.5 2.25 C4.79 3.2 5.08 4.15 5.38 5.12 C6.61 8.56 7.55 10.12 10.5 12.25 C14.91 13.2 17.57 11.8 21.38 9.75 C26.24 7.19 29.03 6.46 34.5 7.25 C40.53 9.19 45.22 12.79 48.5 18.25 C49.69 22.41 49.7 26.57 49.75 30.88 C49.78 32.19 49.8 33.5 49.83 34.85 C49.5 38.25 49.5 38.25 48.17 40.15 C43.08 43.5 36.47 42.52 30.62 42.56 C28.85 42.61 28.85 42.61 27.04 42.65 C25.89 42.66 24.75 42.67 23.57 42.68 C22 42.7 22 42.7 20.41 42.72 C16.73 42.13 15.07 40.91 12.5 38.25 C12.34 36.26 12.18 34.26 12.06 32.27 C11.1 28.82 8.37 27.52 5.5 25.61 C0.51 22.21 -2.21 16.9 -4.19 11.31 C-4.65 8.25 -4.67 5.34 -4.5 2.25 C-2.5 0.25 -2.5 0.25 0 0 Z " fill="#FFFEFC" transform="translate(82.5,368.75)"/>
<path d="M0 0 C2.5 0.25 2.5 0.25 4.5 2.25 C4.79 3.38 5.08 4.52 5.38 5.69 C6.21 9.2 6.21 9.2 8.25 11.19 C11.41 12.68 13 12.77 16.5 12.25 C18.12 11.45 19.73 10.62 21.31 9.75 C26.18 7.2 30.06 6.02 35.5 7.25 C40.53 9.44 44.64 12.52 47.5 17.25 C49.89 23.95 50.4 31.19 49.5 38.25 C47.63 40.81 46.57 41.23 43.5 42.25 C39.03 42.56 34.55 42.57 30.06 42.62 C28.82 42.66 27.58 42.7 26.3 42.74 C25.11 42.75 23.92 42.76 22.69 42.77 C21.05 42.8 21.05 42.8 19.39 42.83 C16.5 42.25 16.5 42.25 14.13 39.93 C12.5 37.25 12.5 37.25 12.25 33.81 C11.27 29.15 9.44 28.41 5.64 25.84 C0.05 21.68 -3.26 16.08 -4.5 9.25 C-4.75 5.44 -4.75 5.44 -4.5 2.25 C-2.5 0.25 -2.5 0.25 0 0 Z " fill="#FFFCFE" transform="translate(199.5,368.75)"/>
<path d="M0 0 C2.56 0.19 2.56 0.19 4.56 2.19 C5.9 10.56 3.28 16.2 -1.31 22.94 C-3.79 25.56 -6.34 27.37 -9.44 29.19 C-10.1 29.19 -10.76 29.19 -11.44 29.19 C-11.38 30.43 -11.31 31.66 -11.25 32.94 C-11.25 35.82 -11.35 37.03 -12.75 39.62 C-17.33 43.87 -25.05 42.41 -30.88 42.44 C-32.12 42.46 -33.36 42.48 -34.63 42.5 C-35.83 42.51 -37.02 42.51 -38.25 42.52 C-39.34 42.52 -40.43 42.53 -41.55 42.54 C-44.81 42.14 -46.19 41.56 -48.44 39.19 C-49.26 36.18 -49.04 33.11 -49 30 C-49.02 29.17 -49.05 28.35 -49.07 27.5 C-49.06 21.31 -47.54 16.89 -43.44 12.19 C-41.16 10.49 -39.03 9.41 -36.44 8.19 C-35.78 7.86 -35.12 7.53 -34.44 7.19 C-29.09 6.62 -26.2 7.11 -21.5 9.75 C-17.09 12.15 -14.18 12.58 -9.25 11.88 C-7.05 11.24 -7.05 11.24 -5.44 8.19 C-4.75 5.86 -4.09 3.53 -3.44 1.19 C-2.44 0.19 -2.44 0.19 0 0 Z " fill="#FFFEFC" transform="translate(68.4375,368.8125)"/>
<path d="M0 0 C1.23 0.02 1.23 0.02 2.47 0.04 C3.32 0.04 4.17 0.04 5.05 0.03 C6.84 0.03 8.63 0.05 10.42 0.07 C13.15 0.11 15.89 0.09 18.62 0.07 C20.36 0.08 22.11 0.09 23.85 0.1 C24.66 0.1 25.48 0.09 26.32 0.09 C27.09 0.1 27.85 0.12 28.64 0.14 C29.31 0.14 29.98 0.15 30.67 0.15 C33.79 0.93 35.44 2.45 37.73 4.67 C38.35 7.43 38.35 7.43 38.34 10.67 C38.35 11.89 38.36 13.12 38.37 14.39 C38.36 15.75 38.34 17.1 38.33 18.46 C38.33 19.89 38.33 21.33 38.34 22.76 C38.35 26.65 38.33 30.54 38.3 34.42 C38.28 38.49 38.28 42.56 38.28 46.63 C38.28 53.46 38.25 60.3 38.22 67.13 C38.17 75.03 38.16 82.93 38.15 90.83 C38.15 99.24 38.13 107.65 38.11 116.06 C38.1 118.48 38.1 120.91 38.09 123.33 C38.09 127.14 38.07 130.95 38.05 134.76 C38.04 136.15 38.04 137.55 38.03 138.95 C38.03 140.86 38.02 142.76 38 144.67 C38 145.74 37.99 146.81 37.99 147.91 C37.72 150.73 37.4 152.38 35.73 154.67 C33.6 155.42 33.6 155.42 31.73 155.67 C31.72 154.92 31.72 154.17 31.72 153.39 C31.61 135.15 31.5 116.91 31.39 98.66 C31.33 89.84 31.28 81.02 31.23 72.2 C31.19 64.51 31.14 56.82 31.09 49.14 C31.07 45.06 31.04 40.99 31.02 36.92 C31 33.09 30.98 29.26 30.95 25.43 C30.94 24.02 30.93 22.61 30.93 21.2 C30.92 19.29 30.9 17.37 30.89 15.45 C30.88 14.38 30.87 13.3 30.87 12.2 C30.9 9.67 30.9 9.67 29.73 7.67 C25.93 6.4 22.3 6.44 18.34 6.35 C17.53 6.33 16.71 6.31 15.87 6.29 C13.26 6.22 10.65 6.17 8.04 6.11 C6.27 6.06 4.5 6.02 2.73 5.98 C-1.6 5.87 -5.94 5.77 -10.27 5.67 C-7.42 0.84 -5.29 0.09 0 0 Z " fill="#14FDF9" transform="translate(134.27110290527344,76.33091735839844)"/>
<path d="M0 0 C0 0.74 0 1.49 0.01 2.26 C0.07 20.36 0.14 38.46 0.24 56.56 C0.28 65.32 0.32 74.07 0.35 82.82 C0.37 90.45 0.4 98.08 0.45 105.71 C0.47 109.75 0.49 113.79 0.5 117.83 C0.5 121.63 0.52 125.43 0.55 129.23 C0.56 130.63 0.57 132.03 0.57 133.42 C0.56 135.33 0.58 137.23 0.6 139.13 C0.61 140.2 0.61 141.27 0.62 142.37 C0.8 145.01 0.8 145.01 2.29 146.84 C5.34 148.91 9.03 148.48 12.61 148.51 C13.44 148.53 14.28 148.55 15.15 148.57 C17.83 148.62 20.51 148.65 23.19 148.69 C25 148.72 26.82 148.76 28.64 148.79 C33.09 148.88 37.55 148.94 42 149 C41.19 150.94 41.19 150.94 40 153 C33.88 155.04 26.76 154.31 20.33 154.35 C18.49 154.37 16.64 154.39 14.8 154.43 C12.14 154.49 9.48 154.51 6.82 154.52 C5.99 154.55 5.17 154.57 4.32 154.59 C3.55 154.59 2.78 154.59 1.99 154.58 C0.97 154.6 0.97 154.6 -0.06 154.61 C-3.16 153.64 -4.22 151.64 -6 149 C-6.5 146.13 -6.5 146.13 -6.5 142.92 C-6.52 141.09 -6.52 141.09 -6.53 139.22 C-6.52 137.88 -6.51 136.53 -6.5 135.19 C-6.51 133.76 -6.51 132.34 -6.52 130.92 C-6.53 127.06 -6.52 123.2 -6.5 119.35 C-6.49 115.31 -6.5 111.27 -6.5 107.23 C-6.5 100.45 -6.49 93.67 -6.47 86.89 C-6.44 79.05 -6.44 71.22 -6.45 63.38 C-6.46 55.83 -6.45 48.29 -6.44 40.75 C-6.43 37.54 -6.43 34.33 -6.44 31.12 C-6.44 27.35 -6.43 23.57 -6.41 19.79 C-6.41 18.4 -6.41 17.02 -6.41 15.63 C-6.42 13.74 -6.4 11.84 -6.39 9.95 C-6.38 8.36 -6.38 8.36 -6.38 6.74 C-5.77 2.36 -4.6 0 0 0 Z " fill="#FF0BFE" transform="translate(34,88)"/>
<path d="M0 0 C0.87 -0.01 1.75 -0.01 2.65 -0.02 C4.51 -0.03 6.36 -0.03 8.22 -0.04 C11.05 -0.05 13.89 -0.08 16.72 -0.11 C18.52 -0.12 20.32 -0.12 22.12 -0.12 C22.97 -0.14 23.82 -0.15 24.69 -0.16 C29.39 -0.14 32.52 0.13 36.33 3.2 C37.48 5.51 37.46 6.83 37.46 9.4 C37.46 10.28 37.47 11.16 37.47 12.07 C37.47 13.04 37.47 14.01 37.47 15.01 C37.47 16.02 37.48 17.04 37.48 18.09 C37.49 20.31 37.49 22.52 37.5 24.74 C37.5 28.24 37.52 31.75 37.54 35.25 C37.59 45.22 37.64 55.18 37.65 65.15 C37.66 71.24 37.69 77.33 37.74 83.42 C37.75 85.75 37.75 88.07 37.75 90.4 C37.75 93.64 37.77 96.89 37.8 100.14 C37.79 101.11 37.78 102.07 37.78 103.06 C37.79 108.29 37.79 108.29 40.24 112.77 C43.47 114.98 45.23 115.32 49.12 115.3 C50.53 115.3 50.53 115.3 51.97 115.29 C52.95 115.28 53.94 115.27 54.95 115.27 C55.95 115.26 56.94 115.26 57.96 115.25 C60.42 115.24 62.87 115.22 65.33 115.2 C64.52 117.13 64.52 117.13 63.33 119.2 C58.13 121.27 53.21 121.54 47.7 121.52 C46.97 121.53 46.23 121.55 45.47 121.56 C39.9 121.57 36.92 120.35 32.72 116.87 C30.94 114.73 30.95 113.6 30.96 110.84 C30.95 109.95 30.94 109.06 30.94 108.14 C30.94 107.16 30.95 106.18 30.96 105.18 C30.96 104.15 30.95 103.12 30.95 102.06 C30.94 99.82 30.94 97.58 30.95 95.35 C30.96 91.81 30.95 88.27 30.93 84.73 C30.89 74.67 30.89 64.61 30.89 54.55 C30.89 48.4 30.87 42.25 30.84 36.1 C30.83 32.61 30.84 29.12 30.86 25.63 C30.85 23.49 30.84 21.36 30.83 19.23 C30.84 18.25 30.85 17.28 30.86 16.27 C30.85 15.38 30.84 14.49 30.83 13.57 C30.83 12.79 30.83 12.02 30.83 11.22 C30.48 9.04 30.48 9.04 28.54 7.46 C25.09 5.5 21.5 5.72 17.62 5.69 C16.79 5.67 15.95 5.66 15.09 5.64 C12.42 5.58 9.75 5.55 7.08 5.52 C5.27 5.48 3.45 5.45 1.64 5.41 C-2.8 5.33 -7.23 5.26 -11.67 5.2 C-8.8 -0.74 -6.34 0.03 0 0 Z " fill="#11FEFD" transform="translate(212.671875,76.796875)"/>
<path d="M0 0 C0.85 -0 1.71 -0.01 2.59 -0.01 C4.39 -0.02 6.2 -0.02 8.01 -0.02 C10.77 -0.02 13.53 -0.04 16.3 -0.06 C18.05 -0.06 19.81 -0.06 21.56 -0.06 C22.39 -0.07 23.21 -0.08 24.07 -0.08 C31.39 -0.06 31.39 -0.06 34.41 2.17 C35.62 4.58 35.55 6.11 35.55 8.81 C35.56 9.79 35.57 10.76 35.57 11.77 C35.57 12.85 35.57 13.93 35.58 15.04 C35.58 16.73 35.58 16.73 35.59 18.47 C35.6 22.23 35.61 25.99 35.62 29.75 C35.62 32.37 35.63 34.98 35.63 37.6 C35.64 42.39 35.65 47.18 35.65 51.97 C35.66 58.99 35.67 66.02 35.7 73.05 C35.73 79.15 35.74 85.25 35.74 91.35 C35.74 93.94 35.75 96.52 35.76 99.11 C35.78 102.74 35.78 106.37 35.77 110.01 C35.78 111.59 35.78 111.59 35.8 113.21 C35.74 124.29 33.82 134.57 26.41 143.17 C25.42 143.83 24.43 144.49 23.41 145.17 C23.68 144.53 23.95 143.89 24.23 143.23 C25.19 140.74 26.11 138.25 26.98 135.73 C27.23 135.01 27.47 134.29 27.73 133.55 C29.6 127.06 29.57 120.69 29.59 113.99 C29.6 112.88 29.6 111.76 29.61 110.61 C29.63 106.93 29.64 103.25 29.65 99.57 C29.66 98.31 29.66 97.05 29.66 95.75 C29.68 89.79 29.7 83.82 29.71 77.85 C29.72 70.98 29.74 64.1 29.78 57.22 C29.82 51.25 29.83 45.28 29.83 39.31 C29.84 36.78 29.85 34.24 29.87 31.71 C29.89 28.16 29.89 24.62 29.88 21.08 C29.9 20.03 29.91 18.98 29.92 17.9 C29.95 12.38 29.95 12.38 27.63 7.52 C24.17 5.41 20.65 5.56 16.71 5.56 C15.87 5.54 15.04 5.53 14.17 5.51 C11.5 5.46 8.83 5.44 6.16 5.42 C4.35 5.39 2.54 5.36 0.73 5.33 C-3.71 5.25 -8.15 5.2 -12.59 5.17 C-9.85 -0.89 -6.11 0.01 0 0 Z " fill="#05FEFE" transform="translate(297.5859375,76.83203125)"/>
<path d="M0 0 C0.66 2.31 1.32 4.62 2 7 C11.19 9.26 20.51 10.29 29.9 11.41 C44.4 13.24 56.37 16.4 66.53 27.48 C71.7 36.31 71.44 45.73 71.34 55.64 C71.31 58.06 71.32 60.48 71.32 62.9 C71.3 74.64 70.43 84.82 64 95 C61.19 97.62 61.19 97.62 59 99 C59.27 98.36 59.54 97.72 59.81 97.06 C60.2 96.05 60.6 95.04 61 94 C61.38 93.04 61.38 93.04 61.76 92.07 C63.83 86.41 64.44 81.46 64.4 75.47 C64.4 74.59 64.4 73.72 64.41 72.81 C64.41 70.98 64.4 69.14 64.39 67.3 C64.38 64.51 64.39 61.72 64.41 58.93 C64.41 57.13 64.4 55.33 64.4 53.53 C64.4 52.71 64.41 51.89 64.42 51.04 C64.32 42.94 62.3 35.28 57 29 C44.97 18.59 28.5 17.89 13.4 16.29 C10.94 16.03 8.48 15.74 6.03 15.44 C5.28 15.37 4.53 15.3 3.76 15.23 C0.07 14.77 -1.77 14.22 -4.51 11.64 C-6 9 -6 9 -5.94 5.31 C-4.92 1.72 -4 0 0 0 Z " fill="#0EFDF9" transform="translate(407,123)"/>
<path d="M0 0 C0 3.17 -0.48 4.23 -1.94 6.94 C-4.85 12.36 -5.18 17.14 -5.24 23.25 C-5.25 24.05 -5.25 24.86 -5.26 25.69 C-5.28 27.4 -5.29 29.11 -5.3 30.82 C-5.31 32.55 -5.33 34.28 -5.36 36 C-5.7 54.81 -5.7 54.81 3 71 C5.23 72.74 5.23 72.74 7.69 74.12 C8.48 74.6 9.26 75.08 10.07 75.57 C18.16 79.52 26.38 80.86 35.25 82.06 C38.68 82.55 42.12 83.03 45.55 83.52 C47.92 83.85 50.28 84.16 52.65 84.46 C53.81 84.62 54.97 84.77 56.17 84.93 C57.22 85.07 58.27 85.2 59.35 85.34 C62.2 86.05 63.3 86.63 65 89 C65.19 91.69 65.19 91.69 65 94 C61.51 94.25 59.43 94.23 56.3 92.56 C52.48 90.75 48.93 90.23 44.78 89.79 C43.17 89.59 41.56 89.4 39.96 89.2 C37.46 88.91 34.96 88.63 32.46 88.35 C17.41 86.64 3.22 84.42 -7 72 C-11.22 64.55 -12.15 56.79 -12.2 48.33 C-12.21 47.61 -12.21 46.88 -12.22 46.14 C-12.23 44.62 -12.24 43.09 -12.24 41.57 C-12.25 39.27 -12.28 36.97 -12.31 34.67 C-12.41 21.82 -10.67 11.21 -1.69 1.5 C-1.13 1 -0.57 0.51 0 0 Z " fill="#FF0CFC" transform="translate(358,97)"/>
<path d="M0 0 C3.65 3.56 7.04 7.28 10.31 11.19 C10.79 11.76 11.27 12.33 11.76 12.91 C15.92 17.87 20 22.9 24 28 C24.58 28.58 25.16 29.16 25.76 29.76 C32.13 36.64 31.93 43.31 31.75 52.31 C31.73 55 31.73 57.68 31.73 60.36 C31.72 61.54 31.7 62.72 31.68 63.93 C31.85 66.95 31.85 66.95 32.98 69.38 C36.18 71.95 39.67 71.6 43.61 71.61 C44.44 71.63 45.28 71.64 46.15 71.66 C48.83 71.71 51.51 71.73 54.19 71.75 C56 71.78 57.82 71.81 59.64 71.84 C64.09 71.91 68.55 71.96 73 72 C71.12 75.88 71.12 75.88 70 77 C67.01 77.14 64.04 77.21 61.04 77.24 C59.69 77.25 59.69 77.25 58.31 77.26 C56.4 77.28 54.48 77.29 52.57 77.3 C49.64 77.31 46.72 77.36 43.79 77.4 C41.93 77.41 40.08 77.42 38.23 77.43 C37.35 77.44 36.47 77.46 35.57 77.48 C29.59 77.46 29.59 77.46 26.94 75.4 C25.69 72.19 25.72 69.62 25.8 66.18 C25.81 64.83 25.82 63.47 25.82 62.12 C25.84 60 25.87 57.89 25.94 55.78 C26.16 48.16 26.09 42.28 20.73 36.36 C19.18 34.88 17.6 33.43 16 32 C15.11 31 14.23 29.98 13.4 28.93 C12.73 28.11 12.06 27.29 11.38 26.44 C10.64 25.52 9.91 24.6 9.15 23.65 C7.78 21.96 6.36 20.32 4.88 18.73 C0.9 14.3 -0.42 11.48 -0.44 5.44 C-0.33 3.62 -0.19 1.81 0 0 Z " fill="#FD06FD" transform="translate(87,165)"/>
<path d="M0 0 C0.03 0.89 0.05 1.79 0.08 2.71 C0.17 6.02 0.27 9.34 0.37 12.65 C0.42 14.09 0.46 15.52 0.5 16.96 C0.56 19.02 0.62 21.08 0.68 23.14 C0.72 24.39 0.76 25.63 0.79 26.91 C0.87 30.04 0.87 30.04 2 33 C5.03 34.51 8.18 34.16 11.5 34.18 C12.27 34.18 13.05 34.19 13.85 34.2 C16.42 34.22 19 34.23 21.57 34.24 C22.45 34.24 23.34 34.25 24.25 34.25 C28.93 34.27 33.62 34.29 38.31 34.3 C43.11 34.31 47.91 34.34 52.72 34.38 C56.44 34.41 60.16 34.41 63.88 34.42 C65.65 34.42 67.42 34.43 69.18 34.45 C80.74 34.57 90.93 33.38 102 30 C98.75 33.42 96.13 35.03 91.69 36.69 C90.6 37.1 89.51 37.52 88.39 37.95 C82.3 39.84 76.26 40.16 69.93 40.19 C68.76 40.21 68.76 40.21 67.58 40.22 C65.04 40.24 62.5 40.26 59.96 40.27 C58.65 40.28 58.65 40.28 57.32 40.29 C52.72 40.32 48.11 40.34 43.51 40.35 C39.71 40.36 35.9 40.39 32.1 40.43 C27.49 40.48 22.89 40.51 18.28 40.51 C16.53 40.52 14.78 40.54 13.02 40.56 C10.58 40.59 8.13 40.59 5.69 40.58 C4.96 40.6 4.24 40.62 3.5 40.63 C-0.22 40.59 -1.72 40.27 -4.45 37.67 C-6.45 34.23 -6.5 31.84 -6.5 27.87 C-6.5 27.2 -6.5 26.53 -6.5 25.84 C-6.5 24.42 -6.49 23.01 -6.47 21.6 C-6.44 19.44 -6.45 17.28 -6.46 15.13 C-6.41 4.75 -6.41 4.75 -4.66 1.56 C-3 0 -3 0 0 0 Z " fill="#FF08FE" transform="translate(352,202)"/>
<path d="M0 0 C1.39 -0.02 2.77 -0.04 4.16 -0.08 C14.58 -0.37 20.35 0.53 27.9 7.64 C28.57 8.41 29.23 9.18 29.91 9.98 C30.66 10.85 31.42 11.72 32.2 12.62 C35.17 16.19 38.09 19.8 41.01 23.42 C43.8 26.74 46.71 29.92 49.66 33.1 C50.17 33.66 50.68 34.22 51.21 34.79 C53.29 37.04 55.35 39.24 57.57 41.34 C61.16 44.89 61.81 47.18 61.85 52.29 C61.75 53.98 61.64 55.67 61.47 57.35 C56.69 53.47 52.57 49.4 48.66 44.66 C47.62 43.42 46.57 42.18 45.53 40.94 C45.01 40.34 44.5 39.73 43.97 39.1 C41.8 36.57 39.55 34.11 37.28 31.66 C33.98 28.07 30.84 24.4 27.78 20.6 C21.24 12.12 21.24 12.12 12.47 6.35 C9.28 5.98 9.28 5.98 5.74 5.94 C4.44 5.9 3.15 5.86 1.81 5.82 C0.45 5.79 -0.92 5.76 -2.28 5.73 C-3.66 5.69 -5.04 5.65 -6.42 5.61 C-9.79 5.51 -13.16 5.43 -16.53 5.35 C-13.33 -1.72 -7 0.06 0 0 Z " fill="#09FEFC" transform="translate(56.52880859375,76.64990234375)"/>
<path d="M0 0 C0.69 -0 1.37 -0.01 2.08 -0.01 C4.33 -0.02 6.58 -0.02 8.83 -0.02 C10.4 -0.03 11.97 -0.03 13.54 -0.03 C16.83 -0.04 20.11 -0.04 23.39 -0.04 C27.6 -0.04 31.81 -0.05 36.01 -0.07 C39.26 -0.08 42.5 -0.08 45.74 -0.08 C47.29 -0.08 48.84 -0.09 50.39 -0.1 C52.56 -0.11 54.72 -0.1 56.89 -0.1 C58.74 -0.1 58.74 -0.1 60.62 -0.1 C63.61 0.13 65.29 0.47 67.75 2.15 C69.24 5.12 68.93 8.16 68.95 11.42 C68.96 12.14 68.97 12.86 68.97 13.6 C68.98 15.13 68.99 16.65 68.99 18.18 C69 20.5 69.03 22.83 69.06 25.16 C69.07 26.64 69.08 28.12 69.08 29.61 C69.09 30.3 69.1 31 69.12 31.71 C69.1 34.82 68.9 36.88 67.36 39.62 C65.75 41.15 65.75 41.15 63.75 41.15 C63.74 40.23 63.73 39.31 63.72 38.36 C63.68 34.95 63.62 31.53 63.54 28.12 C63.52 26.64 63.49 25.17 63.48 23.69 C63.46 21.57 63.41 19.44 63.36 17.32 C63.34 16.04 63.32 14.76 63.3 13.45 C62.64 9.49 61.91 8.55 58.75 6.15 C55.5 5.54 55.5 5.54 51.82 5.63 C51.13 5.62 50.44 5.61 49.73 5.61 C47.45 5.59 45.17 5.6 42.88 5.61 C41.29 5.61 39.69 5.61 38.09 5.6 C34.74 5.6 31.38 5.61 28.03 5.62 C23.77 5.65 19.51 5.63 15.25 5.61 C11.94 5.59 8.64 5.6 5.33 5.61 C3.76 5.61 2.2 5.61 0.63 5.6 C-9.77 5.55 -18.32 6.82 -28.25 10.15 C-29.58 10.49 -30.91 10.84 -32.25 11.15 C-24.34 1.92 -11.5 0.04 0 0 Z " fill="#0AFEFE" transform="translate(401.248779296875,76.854736328125)"/>
<path d="M0 0 C0.87 -0.02 1.73 -0.03 2.62 -0.05 C5 0.31 5 0.31 6.62 1.43 C8.65 4.21 8.39 6.43 8.4 9.84 C8.4 11.77 8.4 11.77 8.41 13.74 C8.4 14.41 8.4 15.08 8.39 15.76 C8.38 17.81 8.39 19.85 8.41 21.89 C8.41 23.17 8.4 24.46 8.4 25.78 C8.4 26.96 8.39 28.14 8.39 29.36 C8 32.31 8 32.31 6.62 34.2 C4.36 35.75 2.72 35.68 0 35.62 C-0.87 35.62 -1.73 35.62 -2.62 35.61 C-5 35.31 -5 35.31 -8 33.31 C-8.39 30.27 -8.39 30.27 -8.4 26.41 C-8.4 25.73 -8.4 25.05 -8.41 24.34 C-8.41 22.91 -8.4 21.47 -8.39 20.03 C-8.38 17.82 -8.39 15.62 -8.41 13.41 C-8.41 12.01 -8.4 10.62 -8.4 9.22 C-8.4 7.94 -8.39 6.67 -8.39 5.35 C-8.26 4.35 -8.13 3.35 -8 2.31 C-4.78 0.17 -3.73 0.02 0 0 Z " fill="#F3FCFF" transform="translate(115,269.6875)"/>
<path d="M0 0 C3.46 2.05 4.78 3.67 7 7 C7.6 11.18 7.46 14.91 5.81 18.81 C0.98 24.64 0.98 24.64 -3.34 25.42 C-7.72 25.66 -10.99 25.54 -14.5 22.75 C-17.81 19.11 -18.83 17.51 -19.38 12.62 C-18.86 7.63 -16.88 4.72 -13.2 1.36 C-9.15 -1.14 -4.59 -0.63 0 0 Z " fill="#FDFFFA" transform="translate(353,346)"/>
<path d="M0 0 C3.46 2.05 4.78 3.67 7 7 C7.59 11.52 7.53 15.7 5.81 19.94 C3.14 22.98 0.98 24.7 -3.11 25.32 C-7.19 25.53 -9.64 25.17 -13.38 23.38 C-17.13 19.97 -18.71 17.01 -19.44 12 C-18.77 7.42 -16.58 4.44 -13.2 1.35 C-9.14 -1.14 -4.59 -0.63 0 0 Z " fill="#FFFBFD" transform="translate(236,346)"/>
<path d="M0 0 C4.15 2.07 6.26 3.75 8 8 C8.77 12 8.86 15.54 6.76 19.11 C3.8 22.67 1.73 24.64 -3.05 25.27 C-7.22 25.46 -10.09 25.43 -13.44 22.75 C-16.85 19.09 -17.86 17.54 -18.31 12.56 C-17.88 7.59 -16.2 5.34 -12.94 1.69 C-8.65 -0.78 -4.84 -0.77 0 0 Z " fill="#FFFBFD" transform="translate(160,346)"/>
<path d="M0 0 C3.21 1.61 5.17 2.94 7.38 5.75 C8.68 10.44 8.72 14.45 6.69 18.81 C3.76 22.61 1.92 24.61 -3.05 25.27 C-7.18 25.46 -10.1 25.44 -13.44 22.81 C-16.73 19.2 -17.76 16.86 -18.38 12.06 C-17.81 7.42 -15.61 4.44 -12.16 1.35 C-8.35 -1.03 -4.35 -0.62 0 0 Z " fill="#FFFEFA" transform="translate(43,346)"/>
<path d="M0 0 C3.24 1.31 4.6 2.52 6.81 5.19 C8.36 8.86 8.69 12.11 8 16 C5.78 20.36 3.58 23.17 -1 25 C-4.83 25.64 -8.34 25.89 -11.84 24.02 C-14.67 21.78 -16.98 19.47 -18 16 C-18.46 10.98 -18.13 7.99 -15 4 C-10.67 -0.85 -6.11 -0.83 0 0 Z " fill="#FDFFFB" transform="translate(277,346)"/>
<path d="M0 0 C3.18 1.64 5.38 3.76 7 7 C7.42 11.55 7.54 15.67 5.81 19.94 C3.14 22.98 0.98 24.7 -3.11 25.32 C-8.55 25.59 -11.79 24.7 -16 21 C-18.73 16.58 -18.8 12.04 -18 7 C-13.94 -0.52 -7.85 -1.02 0 0 Z " fill="#FFFEFB" transform="translate(119,346)"/>
<path d="M0 0 C0.99 0 1.98 0 3 0 C3 34.32 3 68.64 3 104 C1.35 104 -0.3 104 -2 104 C-2.05 90.74 -2.08 77.47 -2.1 64.21 C-2.11 58.05 -2.13 51.89 -2.15 45.73 C-2.17 39.79 -2.18 33.85 -2.19 27.91 C-2.19 25.64 -2.2 23.37 -2.21 21.1 C-2.23 17.93 -2.23 14.76 -2.23 11.59 C-2.23 10.64 -2.24 9.7 -2.25 8.72 C-2.25 7.86 -2.24 7 -2.24 6.11 C-2.24 5.36 -2.24 4.61 -2.25 3.84 C-2 2 -2 2 0 0 Z " fill="#FE00FE" transform="translate(276,88)"/>
<path d="M0 0 C2.5 0.25 2.5 0.25 4.5 2.25 C5.3 4.27 5.96 6.31 6.62 8.38 C7.47 10.6 7.47 10.6 10.5 12.25 C16.1 13.01 18.88 11.07 23.5 8.25 C28.01 6.5 33.21 6.25 37.66 8.19 C44 11.97 47.51 16.06 49.5 23.25 C49.8 27.01 49.8 27.01 49.81 30.94 C49.83 32.24 49.85 33.54 49.86 34.89 C49.5 38.25 49.5 38.25 48.17 40.14 C42.97 43.59 36.04 42.52 30.06 42.56 C28.82 42.59 27.58 42.62 26.3 42.65 C24.52 42.66 24.52 42.66 22.69 42.68 C21.05 42.7 21.05 42.7 19.39 42.72 C15.8 42.14 14.63 41.15 12.5 38.25 C12.38 36.33 12.38 36.33 12.25 34.38 C12.05 31.58 11.83 30.57 9.81 28.57 C8.39 27.56 6.95 26.57 5.5 25.6 C0.19 22.01 -2.58 16.21 -4.5 10.25 C-4.9 7.38 -4.81 5.18 -4.5 2.25 C-2.5 0.25 -2.5 0.25 0 0 Z M-1.5 3.25 C-2.27 11.18 -0.51 16.03 4.5 22.25 C8.89 26.57 8.89 26.57 14.5 28.25 C14.83 31.55 15.16 34.85 15.5 38.25 C20.48 40.91 25.51 40.55 31 40.5 C31.94 40.51 32.87 40.52 33.84 40.52 C38.47 40.51 42.31 40.49 46.5 38.25 C46.61 35.54 46.69 32.84 46.75 30.12 C46.78 29.36 46.82 28.6 46.85 27.82 C46.94 22.45 46.04 19.52 42.5 15.25 C37.82 11.03 34.15 9.86 27.97 9.88 C24.31 10.43 21.69 12.22 18.56 14.12 C15.64 15.72 13.75 15.9 10.5 15.25 C7.23 13.74 5.06 12.65 3.68 9.2 C3.19 7.24 2.83 5.25 2.5 3.25 C1.18 3.25 -0.14 3.25 -1.5 3.25 Z " fill="#C7FF80" transform="translate(316.5,368.75)"/>
<path d="M0 0 C2.5 0.25 2.5 0.25 4.5 2.25 C4.79 3.38 5.08 4.52 5.38 5.69 C6.21 9.2 6.21 9.2 8.25 11.19 C11.41 12.68 13 12.77 16.5 12.25 C18.14 11.46 19.77 10.62 21.38 9.75 C26.24 7.19 29.03 6.46 34.5 7.25 C40.27 9.17 44.17 12.07 47.5 17.25 C49.95 23.71 50.45 31.45 49.5 38.25 C47.62 40.78 46.56 41.23 43.5 42.25 C39.03 42.54 34.55 42.53 30.06 42.56 C28.82 42.59 27.58 42.62 26.3 42.65 C24.52 42.66 24.52 42.66 22.69 42.68 C21.05 42.7 21.05 42.7 19.39 42.72 C15.8 42.14 14.63 41.15 12.5 38.25 C12.38 36.33 12.38 36.33 12.25 34.38 C12.04 31.65 11.87 30.61 9.88 28.68 C8.47 27.71 7.06 26.75 5.64 25.81 C0.02 21.71 -3.27 16.04 -4.5 9.25 C-4.75 5.44 -4.75 5.44 -4.5 2.25 C-2.5 0.25 -2.5 0.25 0 0 Z M-1.5 3.25 C-2.27 11.18 -0.51 16.03 4.5 22.25 C8.89 26.57 8.89 26.57 14.5 28.25 C14.83 31.55 15.16 34.85 15.5 38.25 C20.24 40.69 24.67 40.55 29.88 40.5 C30.7 40.51 31.52 40.52 32.38 40.52 C37.46 40.51 41.68 39.89 46.5 38.25 C47.29 26.76 47.29 26.76 43.5 16.25 C39.67 12.37 36.42 10.1 30.94 9.88 C25.81 9.89 22.82 11.48 18.53 14.12 C15.63 15.73 13.74 15.9 10.5 15.25 C7.23 13.74 5.06 12.65 3.68 9.2 C3.19 7.24 2.83 5.25 2.5 3.25 C1.18 3.25 -0.14 3.25 -1.5 3.25 Z " fill="#6CE4E8" transform="translate(433.5,368.75)"/>
<path d="M0 0 C2.5 0.25 2.5 0.25 4.5 2.25 C4.79 3.2 5.08 4.15 5.38 5.12 C6.61 8.56 7.55 10.12 10.5 12.25 C14.91 13.2 17.57 11.8 21.38 9.75 C26.24 7.19 29.03 6.46 34.5 7.25 C40.53 9.19 45.22 12.79 48.5 18.25 C49.69 22.41 49.7 26.57 49.75 30.88 C49.78 32.19 49.8 33.5 49.83 34.85 C49.5 38.25 49.5 38.25 48.17 40.15 C43.08 43.5 36.47 42.52 30.62 42.56 C28.85 42.61 28.85 42.61 27.04 42.65 C25.89 42.66 24.75 42.67 23.57 42.68 C22 42.7 22 42.7 20.41 42.72 C16.73 42.13 15.07 40.91 12.5 38.25 C12.34 36.26 12.18 34.26 12.06 32.27 C11.1 28.82 8.37 27.52 5.5 25.61 C0.51 22.21 -2.21 16.9 -4.19 11.31 C-4.65 8.25 -4.67 5.34 -4.5 2.25 C-2.5 0.25 -2.5 0.25 0 0 Z M-1.5 3.25 C-2.06 11.09 -0.27 16.04 4.88 22 C7.45 24.37 7.45 24.37 10.69 25.94 C13.95 28.62 13.95 29.38 14.56 33.38 C14.64 34.24 14.71 35.11 14.79 36.01 C15.29 38.41 15.29 38.41 17.47 39.54 C21.64 40.52 25.61 40.54 29.88 40.5 C30.7 40.51 31.53 40.52 32.38 40.52 C40.49 40.65 40.49 40.65 47.5 37.25 C48.24 29.52 47.68 21.51 42.69 15.31 C39.1 11.56 36.31 10.42 31.12 9.94 C25.81 10.4 21.9 12.32 17.5 15.25 C13.39 15.72 10.97 15.46 7.19 13.75 C3.58 10.39 3.3 8.05 2.5 3.25 C1.18 3.25 -0.14 3.25 -1.5 3.25 Z " fill="#FFE16A" transform="translate(82.5,368.75)"/>
<path d="M0 0 C2.5 0.25 2.5 0.25 4.5 2.25 C4.79 3.38 5.08 4.52 5.38 5.69 C6.21 9.2 6.21 9.2 8.25 11.19 C11.41 12.68 13 12.77 16.5 12.25 C18.12 11.45 19.73 10.62 21.31 9.75 C26.18 7.2 30.06 6.02 35.5 7.25 C40.53 9.44 44.64 12.52 47.5 17.25 C49.89 23.95 50.4 31.19 49.5 38.25 C47.63 40.81 46.57 41.23 43.5 42.25 C39.03 42.56 34.55 42.57 30.06 42.62 C28.82 42.66 27.58 42.7 26.3 42.74 C25.11 42.75 23.92 42.76 22.69 42.77 C21.05 42.8 21.05 42.8 19.39 42.83 C16.5 42.25 16.5 42.25 14.13 39.93 C12.5 37.25 12.5 37.25 12.25 33.81 C11.27 29.15 9.44 28.41 5.64 25.84 C0.05 21.68 -3.26 16.08 -4.5 9.25 C-4.75 5.44 -4.75 5.44 -4.5 2.25 C-2.5 0.25 -2.5 0.25 0 0 Z M-1.5 3.25 C-2.16 10.33 -0.6 15.4 3.5 21.25 C5.45 23.06 7.41 24.54 9.63 26 C12.31 27.8 14.21 29.07 15.01 32.29 C15.17 34.28 15.34 36.26 15.5 38.25 C20.81 40.01 25.42 40.56 31 40.5 C32.08 40.51 32.08 40.51 33.18 40.52 C40.89 40.55 40.89 40.55 47.5 37.25 C48.24 29.52 47.68 21.51 42.69 15.31 C39.1 11.56 36.31 10.42 31.12 9.94 C26.31 10.35 22.6 12.04 18.44 14.44 C15.59 15.63 13.57 15.62 10.5 15.25 C7.23 13.74 5.06 12.65 3.68 9.2 C3.19 7.24 2.83 5.25 2.5 3.25 C1.18 3.25 -0.14 3.25 -1.5 3.25 Z " fill="#FF75CA" transform="translate(199.5,368.75)"/>
<path d="M0 0 C2.5 0.25 2.5 0.25 4.5 2.25 C5.58 9 4.48 14.72 0.5 20.25 C-6.49 28.46 -6.49 28.46 -11.5 29.25 C-11.55 29.86 -11.6 30.48 -11.65 31.11 C-11.72 31.92 -11.8 32.73 -11.88 33.56 C-11.94 34.36 -12.01 35.16 -12.09 35.99 C-12.5 38.25 -12.5 38.25 -14.5 41.25 C-19.77 43.01 -25.36 42.56 -30.88 42.62 C-32.72 42.68 -32.72 42.68 -34.61 42.74 C-43.61 42.83 -43.61 42.83 -47.82 40.11 C-51.23 34.31 -50.28 27.78 -48.87 21.39 C-46.73 15.06 -43.31 11.48 -37.5 8.25 C-32.64 6.63 -27.86 6.14 -23.12 8.37 C-21.6 9.28 -20.08 10.2 -18.57 11.13 C-14.45 13.36 -10.79 12.37 -6.5 11.25 C-6.32 10.31 -6.32 10.31 -6.13 9.35 C-5.88 8.13 -5.88 8.13 -5.62 6.88 C-5.46 6.06 -5.3 5.25 -5.13 4.41 C-4.21 1.25 -3.3 0.33 0 0 Z M-0.5 2.25 C-0.74 2.86 -0.98 3.48 -1.23 4.11 C-1.57 4.92 -1.9 5.73 -2.25 6.56 C-2.57 7.36 -2.9 8.16 -3.23 8.99 C-4.7 11.61 -5.9 12.76 -8.5 14.25 C-13.33 15.15 -17.85 15.02 -22 12.25 C-26.26 9.43 -30.54 9.44 -35.5 10.25 C-40.13 12.56 -44.34 15.9 -46.09 20.96 C-46.65 24.11 -46.67 27.17 -46.69 30.38 C-46.7 31.62 -46.72 32.86 -46.73 34.13 C-46.83 37.35 -46.83 37.35 -44.5 39.25 C-40.14 40.7 -35.67 40.43 -31.12 40.44 C-29.87 40.46 -29.87 40.46 -28.59 40.47 C-23.83 40.49 -19.95 40.15 -15.5 38.25 C-15.17 37.92 -14.84 37.59 -14.5 37.25 C-14.5 36.05 -14.5 34.86 -14.5 33.62 C-14.18 30.67 -13.82 29.56 -11.64 27.48 C-10.05 26.34 -8.46 25.21 -6.86 24.09 C-2.28 20.53 0.89 16.17 2.09 10.45 C2.34 8.04 2.49 5.68 2.5 3.25 C1.51 2.92 0.52 2.59 -0.5 2.25 Z " fill="#FF76CA" transform="translate(185.5,368.75)"/>
<path d="M0 0 C2.5 0.25 2.5 0.25 4.5 2.25 C5.96 9.4 3.39 15.35 -0.5 21.25 C-3.15 24.46 -5.74 27.53 -9.65 29.12 C-11.74 30.12 -11.74 30.12 -12.22 32.56 C-12.33 33.45 -12.45 34.34 -12.56 35.25 C-12.91 37.94 -12.91 37.94 -13.5 40.25 C-18.55 43.62 -24.45 42.62 -30.38 42.62 C-31.66 42.65 -32.94 42.67 -34.25 42.7 C-35.49 42.7 -36.72 42.71 -37.99 42.71 C-39.12 42.72 -40.25 42.73 -41.41 42.74 C-45.18 42.14 -46.84 40.94 -49.5 38.25 C-51.03 30.15 -49.9 20.92 -45.38 14 C-40.84 9.67 -36.41 7.1 -30.06 6.69 C-25.47 6.87 -22.41 8.76 -18.57 11.13 C-14.45 13.36 -10.79 12.37 -6.5 11.25 C-6.32 10.31 -6.32 10.31 -6.13 9.35 C-5.88 8.13 -5.88 8.13 -5.62 6.88 C-5.46 6.06 -5.3 5.25 -5.13 4.41 C-4.21 1.25 -3.3 0.33 0 0 Z M-0.5 2.25 C-0.79 2.94 -1.08 3.62 -1.38 4.33 C-4.71 11.65 -4.71 11.65 -8.38 14.44 C-12.27 15.45 -14.61 15.27 -18.5 14.25 C-19.59 13.57 -20.69 12.89 -21.81 12.19 C-26.19 9.5 -30.51 9.43 -35.5 10.25 C-39.92 12.46 -42.69 15.2 -45.5 19.25 C-46.75 23.01 -46.61 26.52 -46.56 30.44 C-46.56 31.19 -46.55 31.94 -46.55 32.71 C-46.54 34.56 -46.52 36.4 -46.5 38.25 C-41.23 40.4 -36.59 40.55 -31 40.5 C-30.17 40.51 -29.34 40.52 -28.49 40.52 C-20.94 40.64 -20.94 40.64 -14.5 37.25 C-14.5 36.05 -14.5 34.86 -14.5 33.62 C-14.18 30.64 -13.79 29.53 -11.61 27.41 C-10.02 26.25 -8.41 25.1 -6.79 23.97 C-1.82 20.24 1.09 15.29 2.5 9.25 C2.67 6 2.67 6 2.5 3.25 C1.51 2.92 0.52 2.59 -0.5 2.25 Z " fill="#6CE4E8" transform="translate(419.5,368.75)"/>
<path d="M0 0 C2.5 0.25 2.5 0.25 4.5 2.25 C5.63 8.52 4.53 13.7 1.2 19.07 C-2.2 23.43 -6.51 27.76 -11.5 30.25 C-12.1 32.79 -12.46 35.32 -12.84 37.9 C-13.5 40.25 -13.5 40.25 -16.5 42.25 C-21.11 42.75 -25.74 42.67 -30.38 42.69 C-31.66 42.72 -32.94 42.75 -34.25 42.79 C-43.58 42.84 -43.58 42.84 -47.85 40.11 C-51.21 34.29 -50.28 27.78 -48.87 21.39 C-46.73 15.06 -43.31 11.48 -37.5 8.25 C-32.64 6.63 -27.86 6.14 -23.12 8.37 C-21.6 9.28 -20.08 10.2 -18.57 11.13 C-14.45 13.36 -10.79 12.37 -6.5 11.25 C-6.32 10.31 -6.32 10.31 -6.13 9.35 C-5.88 8.13 -5.88 8.13 -5.62 6.88 C-5.46 6.06 -5.3 5.25 -5.13 4.41 C-4.21 1.25 -3.3 0.33 0 0 Z M-0.5 2.25 C-0.83 2.95 -1.15 3.65 -1.49 4.37 C-1.93 5.28 -2.36 6.19 -2.81 7.12 C-3.24 8.03 -3.67 8.93 -4.11 9.87 C-5.5 12.25 -5.5 12.25 -8.5 14.25 C-13.36 14.98 -17.84 15.05 -22 12.25 C-26.26 9.43 -30.54 9.44 -35.5 10.25 C-39.92 12.46 -42.69 15.2 -45.5 19.25 C-46.75 23.01 -46.61 26.52 -46.56 30.44 C-46.56 31.19 -46.55 31.94 -46.55 32.71 C-46.54 34.56 -46.52 36.4 -46.5 38.25 C-41.23 40.4 -36.59 40.55 -31 40.5 C-30.17 40.51 -29.34 40.52 -28.49 40.52 C-20.94 40.64 -20.94 40.64 -14.5 37.25 C-14.5 36.05 -14.5 34.86 -14.5 33.62 C-14.18 30.64 -13.79 29.53 -11.61 27.41 C-10.02 26.25 -8.41 25.1 -6.79 23.97 C-2.26 20.57 0.99 15.73 2.5 10.25 C2.58 7.92 2.59 5.58 2.5 3.25 C1.51 2.92 0.52 2.59 -0.5 2.25 Z " fill="#C7FF7F" transform="translate(302.5,368.75)"/>
<path d="M0 0 C2.56 0.19 2.56 0.19 4.56 2.19 C5.9 10.56 3.28 16.2 -1.31 22.94 C-3.79 25.56 -6.34 27.37 -9.44 29.19 C-10.1 29.19 -10.76 29.19 -11.44 29.19 C-11.38 30.43 -11.31 31.66 -11.25 32.94 C-11.25 35.82 -11.35 37.03 -12.75 39.62 C-17.33 43.87 -25.05 42.41 -30.88 42.44 C-32.12 42.46 -33.36 42.48 -34.63 42.5 C-35.83 42.51 -37.02 42.51 -38.25 42.52 C-39.34 42.52 -40.43 42.53 -41.55 42.54 C-44.81 42.14 -46.19 41.56 -48.44 39.19 C-49.26 36.18 -49.04 33.11 -49 30 C-49.02 29.17 -49.05 28.35 -49.07 27.5 C-49.06 21.31 -47.54 16.89 -43.44 12.19 C-41.16 10.49 -39.03 9.41 -36.44 8.19 C-35.78 7.86 -35.12 7.53 -34.44 7.19 C-29.09 6.62 -26.2 7.11 -21.5 9.75 C-17.09 12.15 -14.18 12.58 -9.25 11.88 C-7.05 11.24 -7.05 11.24 -5.44 8.19 C-4.75 5.86 -4.09 3.53 -3.44 1.19 C-2.44 0.19 -2.44 0.19 0 0 Z M-0.44 2.19 C-0.76 2.89 -1.09 3.58 -1.43 4.3 C-1.86 5.21 -2.3 6.12 -2.75 7.06 C-3.18 7.97 -3.61 8.87 -4.05 9.8 C-5.44 12.19 -5.44 12.19 -8.44 14.19 C-13.3 14.92 -17.77 14.98 -21.94 12.19 C-26.2 9.36 -30.48 9.38 -35.44 10.19 C-40.31 12.54 -42.84 15.48 -45.44 20.19 C-46.4 23.94 -46.6 27.51 -46.62 31.38 C-46.64 32.42 -46.65 33.47 -46.67 34.54 C-46.71 37.34 -46.71 37.34 -44.44 39.19 C-40.07 40.63 -35.61 40.37 -31.06 40.38 C-29.81 40.39 -29.81 40.39 -28.52 40.41 C-23.77 40.42 -19.89 40.09 -15.44 38.19 C-15.11 37.86 -14.78 37.53 -14.44 37.19 C-14.44 35.99 -14.44 34.8 -14.44 33.56 C-14.12 30.54 -13.7 29.45 -11.51 27.28 C-9.91 26.08 -8.29 24.91 -6.66 23.77 C-1.47 20.08 0.98 15.21 2.56 9.19 C2.82 5.85 2.82 5.85 2.56 3.19 C1.57 2.86 0.58 2.53 -0.44 2.19 Z " fill="#FFE168" transform="translate(68.4375,368.8125)"/>
<path d="M0 0 C5 5 5 5 5.62 8.05 C5.62 9.75 5.62 9.75 5.62 11.49 C5.62 12.78 5.63 14.07 5.64 15.4 C5.63 16.8 5.61 18.2 5.59 19.6 C5.59 21.04 5.59 22.49 5.59 23.93 C5.59 26.95 5.57 29.97 5.54 32.98 C5.5 36.85 5.5 40.72 5.51 44.59 C5.51 47.56 5.5 50.54 5.48 53.52 C5.47 54.94 5.47 56.37 5.47 57.8 C5.47 59.79 5.44 61.78 5.42 63.77 C5.41 64.9 5.4 66.04 5.39 67.21 C5 70 5 70 3.6 71.89 C2 73 2 73 0 73 C0 48.91 0 24.82 0 0 Z " fill="#02FEFE" transform="translate(82,159)"/>
<path d="M0 0 C1.22 0 2.44 0 3.7 0 C5.04 0.01 6.38 0.01 7.71 0.02 C9.08 0.02 10.44 0.02 11.81 0.02 C15.4 0.02 18.99 0.03 22.59 0.04 C26.25 0.06 29.92 0.06 33.59 0.06 C40.78 0.08 47.98 0.09 55.17 0.11 C54.51 1.76 53.85 3.41 53.17 5.11 C32.38 5.11 11.59 5.11 -9.83 5.11 C-7.07 -0.4 -5.79 -0.01 0 0 Z " fill="#13FDFE" transform="translate(367.82666015625,190.886474609375)"/>
<path d="M0 0 C0.33 0 0.66 0 1 0 C1.01 1.3 1.03 2.6 1.04 3.94 C1.1 8.79 1.18 13.63 1.26 18.47 C1.3 20.56 1.32 22.66 1.35 24.75 C1.38 27.76 1.43 30.78 1.49 33.79 C1.49 34.72 1.5 35.65 1.51 36.61 C1.65 43.02 2.55 47.55 7.25 52.25 C12.63 55.68 18.19 56.26 24.46 56.41 C25.14 56.43 25.82 56.45 26.52 56.47 C28.66 56.53 30.8 56.58 32.94 56.62 C34.4 56.66 35.86 56.7 37.32 56.74 C40.88 56.84 44.44 56.92 48 57 C47.67 57.99 47.34 58.98 47 60 C42.32 60.1 37.65 60.17 32.97 60.22 C31.38 60.24 29.79 60.27 28.21 60.3 C10.77 60.67 10.77 60.67 4 56 C-0.47 51.65 -2.06 46.78 -2.26 40.62 C-2.27 38.94 -2.27 37.26 -2.27 35.59 C-2.27 34.69 -2.27 33.8 -2.27 32.88 C-2.27 31.01 -2.27 29.13 -2.26 27.25 C-2.25 24.38 -2.26 21.51 -2.27 18.63 C-2.27 16.8 -2.27 14.98 -2.27 13.15 C-2.27 12.29 -2.27 11.43 -2.28 10.55 C-2.27 9.75 -2.27 8.95 -2.26 8.12 C-2.26 7.42 -2.26 6.72 -2.25 6 C-1.96 3.67 -1.15 2.03 0 0 Z " fill="#F81AF6" transform="translate(24,265)"/>
<path d="M0 0 C0.33 0 0.66 0 1 0 C1.01 0.8 1.02 1.6 1.03 2.42 C1.13 9.94 1.23 17.46 1.34 24.98 C1.39 28.85 1.45 32.71 1.5 36.58 C1.54 40.31 1.6 44.04 1.65 47.77 C1.67 49.19 1.69 50.62 1.71 52.04 C1.73 54.03 1.76 56.02 1.79 58.01 C1.81 59.15 1.83 60.28 1.84 61.45 C1.71 63.93 1.71 63.93 3 65 C4.47 65.12 5.95 65.18 7.43 65.21 C8.84 65.24 8.84 65.24 10.28 65.27 C11.3 65.28 12.33 65.3 13.38 65.32 C14.42 65.34 15.46 65.36 16.54 65.38 C19.88 65.44 23.22 65.5 26.56 65.56 C28.82 65.61 31.08 65.65 33.34 65.69 C38.89 65.8 44.45 65.9 50 66 C49.5 67.49 49.5 67.49 49 69 C42.04 69.03 35.08 69.04 28.12 69.05 C25.75 69.06 23.38 69.07 21.01 69.08 C17.61 69.09 14.21 69.09 10.82 69.1 C9.75 69.1 8.68 69.11 7.58 69.11 C6.6 69.11 5.62 69.11 4.61 69.11 C3.74 69.12 2.88 69.12 1.98 69.12 C0 69 0 69 -1 68 C-1.1 65.92 -1.13 63.84 -1.13 61.75 C-1.13 61.1 -1.13 60.45 -1.13 59.78 C-1.14 57.61 -1.14 55.45 -1.13 53.28 C-1.13 51.78 -1.13 50.28 -1.14 48.79 C-1.14 45.64 -1.14 42.5 -1.13 39.35 C-1.12 35.32 -1.13 31.28 -1.13 27.24 C-1.14 24.14 -1.14 21.05 -1.13 17.95 C-1.13 16.46 -1.13 14.97 -1.14 13.48 C-1.14 11.4 -1.13 9.33 -1.13 7.25 C-1.13 6.06 -1.13 4.88 -1.13 3.66 C-1 1 -1 1 0 0 Z " fill="#FE01FE" transform="translate(300,256)"/>
<path d="M0 0 C0.92 2.75 1.11 4.25 1.07 7.07 C1.05 8.29 1.05 8.29 1.04 9.54 C1.02 10.42 1.01 11.29 0.99 12.2 C0.97 14.07 0.96 15.93 0.94 17.8 C0.91 20.74 0.88 23.68 0.83 26.62 C0.79 29.46 0.76 32.3 0.74 35.14 C0.72 36 0.7 36.87 0.69 37.77 C0.66 43.53 1.54 47.76 4 53 C11.47 59.3 19.29 59.36 28.62 59.38 C29.74 59.4 30.85 59.42 32 59.45 C40.01 59.48 46.57 57.97 54 55 C54 55.66 54 56.32 54 57 C52.59 57.82 51.17 58.63 49.75 59.44 C48.96 59.89 48.17 60.34 47.36 60.81 C41.24 63.9 34.58 63.26 27.88 63.31 C26.1 63.36 26.1 63.36 24.28 63.4 C16.41 63.46 8.5 62.97 2.32 57.52 C-1.03 53.69 -2.12 50.47 -2.15 45.5 C-2.15 44.59 -2.16 43.68 -2.16 42.75 C-2.17 41.77 -2.17 40.79 -2.17 39.79 C-2.17 38.78 -2.17 37.77 -2.18 36.73 C-2.18 34.6 -2.19 32.47 -2.19 30.34 C-2.19 27.08 -2.21 23.82 -2.22 20.56 C-2.23 18.49 -2.23 16.42 -2.23 14.35 C-2.24 13.37 -2.24 12.4 -2.25 11.39 C-2.25 10.48 -2.25 9.57 -2.24 8.63 C-2.24 7.83 -2.25 7.03 -2.25 6.21 C-1.97 3.76 -1.22 2.12 0 0 Z " fill="#FB10FA" transform="translate(85,263)"/>
<path d="M0 0 C1.22 4.29 1.05 8.44 0.96 12.86 C0.93 14.63 0.91 16.41 0.89 18.18 C0.86 20.96 0.81 23.74 0.75 26.53 C0.7 29.22 0.67 31.91 0.64 34.61 C0.62 35.43 0.6 36.25 0.57 37.1 C0.55 42.77 1.61 47.35 5 52 C10.38 56.25 15.86 57.16 22.51 57.32 C23.6 57.35 23.6 57.35 24.72 57.38 C27.04 57.44 29.36 57.5 31.69 57.56 C33.26 57.61 34.84 57.65 36.42 57.69 C40.28 57.8 44.14 57.9 48 58 C47.67 58.99 47.34 59.98 47 61 C42.47 61.07 37.93 61.13 33.4 61.16 C31.86 61.18 30.32 61.2 28.78 61.23 C9.45 61.55 9.45 61.55 2.84 56.28 C2.4 55.69 1.96 55.11 1.5 54.5 C1.04 53.91 0.57 53.32 0.09 52.72 C-1.81 49.72 -2.13 47.14 -2.15 43.68 C-2.15 42.82 -2.16 41.95 -2.16 41.05 C-2.17 40.12 -2.17 39.19 -2.17 38.22 C-2.17 37.26 -2.17 36.3 -2.18 35.3 C-2.18 33.27 -2.19 31.23 -2.19 29.19 C-2.19 26.08 -2.21 22.96 -2.22 19.85 C-2.23 17.87 -2.23 15.89 -2.23 13.91 C-2.24 12.98 -2.24 12.05 -2.25 11.08 C-2.25 10.21 -2.25 9.34 -2.24 8.45 C-2.24 7.68 -2.25 6.92 -2.25 6.13 C-1.97 3.72 -1.2 2.09 0 0 Z " fill="#FD08FD" transform="translate(363,264)"/>
<path d="M0 0 C0.66 0 1.32 0 2 0 C2.33 21.45 2.66 42.9 3 65 C8.61 65.33 14.22 65.66 20 66 C19.67 66.99 19.34 67.98 19 69 C16.04 69.05 13.08 69.09 10.12 69.12 C9.28 69.14 8.44 69.16 7.57 69.18 C6.77 69.18 5.96 69.19 5.13 69.2 C4.39 69.21 3.65 69.22 2.88 69.23 C1 69 1 69 -1 67 C-1.25 64.26 -1.25 64.26 -1.24 60.73 C-1.25 59.41 -1.25 58.09 -1.25 56.74 C-1.25 55.29 -1.24 53.85 -1.23 52.4 C-1.23 50.93 -1.23 49.45 -1.23 47.98 C-1.23 44.89 -1.22 41.8 -1.21 38.71 C-1.19 34.74 -1.18 30.77 -1.19 26.79 C-1.19 23.75 -1.18 20.71 -1.17 17.66 C-1.17 16.2 -1.17 14.73 -1.17 13.27 C-1.16 11.23 -1.16 9.18 -1.15 7.14 C-1.14 5.98 -1.14 4.81 -1.13 3.61 C-1 1 -1 1 0 0 Z " fill="#FB22FA" transform="translate(155,256)"/>
<path d="M0 0 C17.16 0 34.32 0 52 0 C50 4 50 4 48 5 C46.46 5.09 44.91 5.12 43.37 5.11 C42.41 5.11 41.45 5.11 40.46 5.11 C39.42 5.11 38.38 5.1 37.3 5.1 C36.24 5.1 35.18 5.09 34.08 5.09 C30.68 5.09 27.28 5.08 23.88 5.06 C21.57 5.06 19.27 5.05 16.96 5.05 C11.31 5.04 5.65 5.02 0 5 C0 3.35 0 1.7 0 0 Z " fill="#FE11F2" transform="translate(407,123)"/>
<path d="M0 0 C0.66 0 1.32 0 2 0 C2 4.95 2 9.9 2 15 C7.61 15.33 13.22 15.66 19 16 C19.33 32.17 19.66 48.34 20 65 C26.27 65.33 32.54 65.66 39 66 C38.5 67.49 38.5 67.49 38 69 C34.69 69.03 31.38 69.05 28.06 69.06 C27.12 69.07 26.17 69.08 25.2 69.09 C23.85 69.09 23.85 69.09 22.47 69.1 C21.22 69.11 21.22 69.11 19.95 69.11 C18 69 18 69 17 68 C16.91 66.43 16.88 64.86 16.89 63.3 C16.89 62.3 16.89 61.29 16.89 60.26 C16.89 59.17 16.9 58.09 16.9 56.96 C16.9 55.86 16.91 54.75 16.91 53.61 C16.91 50.05 16.92 46.49 16.94 42.94 C16.94 40.53 16.95 38.13 16.95 35.72 C16.96 29.82 16.98 23.91 17 18 C15.78 18.01 14.57 18.02 13.32 18.04 C11.73 18.04 10.15 18.05 8.56 18.06 C7.76 18.07 6.96 18.08 6.13 18.09 C4.09 18.1 2.04 18.05 0 18 C-1.82 16.18 -1.13 13.69 -1.14 11.27 C-1.13 10.52 -1.13 9.77 -1.12 9 C-1.13 8.25 -1.13 7.5 -1.14 6.73 C-1.13 1.13 -1.13 1.13 0 0 Z " fill="#FD0AFC" transform="translate(419,256)"/>
<path d="M0 0 C3.31 -0.03 6.62 -0.05 9.94 -0.06 C10.88 -0.07 11.83 -0.08 12.8 -0.09 C14.15 -0.09 14.15 -0.09 15.53 -0.1 C16.78 -0.11 16.78 -0.11 18.05 -0.11 C20 0 20 0 21 1 C21.1 3.04 21.13 5.09 21.13 7.14 C21.13 8.46 21.14 9.77 21.14 11.12 C21.14 12.57 21.14 14.02 21.13 15.46 C21.13 16.94 21.13 18.41 21.14 19.89 C21.14 22.98 21.14 26.07 21.13 29.16 C21.12 33.13 21.13 37.1 21.13 41.07 C21.14 44.12 21.14 47.16 21.13 50.21 C21.13 51.67 21.13 53.13 21.14 54.6 C21.14 56.64 21.13 58.69 21.13 60.73 C21.13 61.9 21.13 63.06 21.13 64.26 C21 67 21 67 20 69 C19.34 69 18.68 69 18 69 C17.67 47.22 17.34 25.44 17 3 C11.39 2.67 5.78 2.34 0 2 C0 1.34 0 0.68 0 0 Z " fill="#20FFF5" transform="translate(270,251)"/>
<path d="M0 0 C3.12 -0.06 6.25 -0.09 9.38 -0.12 C10.26 -0.14 11.15 -0.16 12.07 -0.18 C12.92 -0.18 13.77 -0.19 14.65 -0.2 C15.83 -0.21 15.83 -0.21 17.03 -0.23 C19 0 19 0 21 2 C21.26 4.69 21.26 4.69 21.27 8.16 C21.29 10.1 21.29 10.1 21.3 12.09 C21.3 13.5 21.3 14.92 21.3 16.34 C21.3 17.79 21.31 19.24 21.31 20.69 C21.32 23.73 21.32 26.77 21.32 29.81 C21.31 33.71 21.33 37.61 21.35 41.51 C21.36 44.51 21.37 47.5 21.36 50.5 C21.36 51.93 21.37 53.37 21.38 54.81 C21.39 56.82 21.38 58.83 21.37 60.84 C21.37 61.98 21.37 63.13 21.37 64.31 C21.25 65.19 21.13 66.08 21 67 C19.51 67.99 19.51 67.99 18 69 C17.67 47.22 17.34 25.44 17 3 C11.06 2.67 5.12 2.34 -1 2 C-0.67 1.34 -0.34 0.68 0 0 Z " fill="#26FFFD" transform="translate(198,251)"/>
<path d="M0 0 C1.22 -0.02 2.45 -0.05 3.71 -0.07 C11.64 -0.1 19.76 0.31 25.93 5.89 C29.09 9.56 30.37 12.08 30.41 16.82 C30.42 17.74 30.43 18.66 30.44 19.61 C30.44 20.61 30.45 21.61 30.45 22.64 C30.46 23.67 30.46 24.69 30.47 25.75 C30.48 27.93 30.49 30.1 30.49 32.28 C30.5 35.6 30.53 38.92 30.56 42.24 C30.57 44.35 30.57 46.46 30.58 48.58 C30.59 49.57 30.6 50.56 30.62 51.58 C30.6 56.96 30.23 60.69 27.25 65.38 C26.26 64.88 26.26 64.88 25.25 64.38 C25.57 63.75 25.9 63.12 26.23 62.48 C27.63 58.21 27.57 54.23 27.59 49.76 C27.59 48.83 27.6 47.9 27.61 46.95 C27.62 44.99 27.62 43.03 27.62 41.07 C27.62 38.08 27.66 35.1 27.7 32.12 C27.71 30.21 27.71 28.3 27.71 26.39 C27.73 25.5 27.74 24.62 27.75 23.71 C27.71 17.8 26.61 13.3 23.25 8.38 C16.08 2.4 5.98 3.07 -2.81 3.12 C-3.96 3.12 -5.1 3.11 -6.28 3.1 C-12.15 3.12 -17.22 3.35 -22.75 5.38 C-17.29 -1.3 -7.76 0.01 0 0 Z " fill="#15FFF6" transform="translate(116.75,249.625)"/>
<path d="M0 0 C0.33 0 0.66 0 1 0 C1.33 21.45 1.66 42.9 2 65 C7.94 65.33 13.88 65.66 20 66 C19.67 66.99 19.34 67.98 19 69 C15.85 69.03 12.71 69.05 9.56 69.06 C8.66 69.07 7.77 69.08 6.84 69.09 C5.56 69.09 5.56 69.09 4.25 69.1 C3.46 69.1 2.67 69.11 1.86 69.11 C0 69 0 69 -1 68 C-1.1 65.92 -1.13 63.84 -1.13 61.75 C-1.13 61.1 -1.13 60.45 -1.13 59.78 C-1.14 57.61 -1.14 55.45 -1.13 53.28 C-1.13 51.78 -1.13 50.28 -1.14 48.79 C-1.14 45.64 -1.14 42.5 -1.13 39.35 C-1.12 35.32 -1.13 31.28 -1.13 27.24 C-1.14 24.14 -1.14 21.05 -1.13 17.95 C-1.13 16.46 -1.13 14.97 -1.14 13.48 C-1.14 11.4 -1.13 9.33 -1.13 7.25 C-1.13 6.06 -1.13 4.88 -1.13 3.66 C-1 1 -1 1 0 0 Z " fill="#FE02FE" transform="translate(228,256)"/>
<path d="M0 0 C4.15 2.07 6.26 3.75 8 8 C8.77 12 8.86 15.54 6.76 19.11 C3.8 22.67 1.73 24.64 -3.05 25.27 C-7.22 25.46 -10.09 25.43 -13.44 22.75 C-16.85 19.09 -17.86 17.54 -18.31 12.56 C-17.88 7.59 -16.2 5.34 -12.94 1.69 C-8.65 -0.78 -4.84 -0.77 0 0 Z M-14 6 C-15.61 9.23 -15.6 12.51 -15 16 C-13.26 19.03 -11.16 21.42 -8 23 C-2.73 23.6 -0.12 22.25 4 19 C5.73 15.54 5.49 11.78 5 8 C3.21 5.13 2.02 3.51 -1 2 C-6.87 1.52 -9.71 1.58 -14 6 Z " fill="#FF75C9" transform="translate(160,346)"/>
<path d="M0 0 C3.46 2.05 4.78 3.67 7 7 C7.59 11.52 7.53 15.7 5.81 19.94 C3.14 22.98 0.98 24.7 -3.11 25.32 C-7.19 25.53 -9.64 25.17 -13.38 23.38 C-17.13 19.97 -18.71 17.01 -19.44 12 C-18.77 7.42 -16.58 4.44 -13.2 1.35 C-9.14 -1.14 -4.59 -0.63 0 0 Z M-15 7 C-16.57 10.15 -16.35 12.52 -16 16 C-14.23 18.98 -12.14 21.43 -9 23 C-5.09 23.44 -3.25 23.14 0.25 21.25 C3.89 18.28 4.74 16.7 5.44 12.12 C4.82 7.73 3.08 6.15 0 3 C-6.32 -0.16 -10.93 1.81 -15 7 Z " fill="#FF74C9" transform="translate(236,346)"/>
<path d="M0 0 C3.46 2.05 4.78 3.67 7 7 C7.78 11.28 7.97 15.35 5.73 19.18 C1 24.75 1 24.75 -3.17 25.27 C-10.99 25.58 -10.99 25.58 -14.5 22.75 C-17.81 19.11 -18.83 17.51 -19.38 12.62 C-18.86 7.63 -16.88 4.72 -13.2 1.36 C-9.15 -1.14 -4.59 -0.63 0 0 Z M-15 6 C-16.61 9.23 -16.6 12.51 -16 16 C-14.26 19.03 -12.16 21.42 -9 23 C-5.09 23.44 -3.25 23.14 0.25 21.25 C3.89 18.28 4.74 16.7 5.44 12.12 C4.82 7.7 3.14 6.14 0 3 C-6.2 0.93 -10.32 1.32 -15 6 Z " fill="#6BE3E8" transform="translate(470,346)"/>
<path d="M0 0 C3.24 1.31 4.6 2.52 6.81 5.19 C8.36 8.86 8.69 12.11 8 16 C5.78 20.36 3.58 23.17 -1 25 C-4.83 25.64 -8.34 25.89 -11.84 24.02 C-14.67 21.78 -16.98 19.47 -18 16 C-18.46 10.98 -18.13 7.99 -15 4 C-10.67 -0.85 -6.11 -0.83 0 0 Z M-14 6 C-15.87 9.74 -15.49 14.37 -14.31 18.31 C-12.4 20.77 -10.9 21.8 -8 23 C-3.17 23 -1.01 22.67 3 20 C5.37 16.45 5.66 14.34 5.43 10.16 C4.79 6.97 3.33 5.2 1 3 C-4.72 0.14 -9.78 1.65 -14 6 Z " fill="#C6FF7E" transform="translate(277,346)"/>
<path d="M0 0 C3.46 2.05 4.78 3.67 7 7 C7.6 11.18 7.46 14.91 5.81 18.81 C0.98 24.64 0.98 24.64 -3.34 25.42 C-7.72 25.66 -10.99 25.54 -14.5 22.75 C-17.81 19.11 -18.83 17.51 -19.38 12.62 C-18.86 7.63 -16.88 4.72 -13.2 1.36 C-9.15 -1.14 -4.59 -0.63 0 0 Z M-15 6 C-16.61 9.23 -16.6 12.51 -16 16 C-14.26 19.03 -12.16 21.42 -9 23 C-5.09 23.44 -3.25 23.14 0.25 21.25 C3.89 18.28 4.74 16.7 5.44 12.12 C4.82 7.73 3.08 6.15 0 3 C-5.72 0.14 -10.78 1.65 -15 6 Z " fill="#C6FF7F" transform="translate(353,346)"/>
<path d="M0 0 C1.11 1.08 2.22 2.17 3.29 3.28 C4.58 4.58 5.93 5.82 7.3 7.03 C12.61 12.11 14.81 15.88 15.06 23.12 C15.04 25.39 15.02 27.66 15 30 C20.61 30.33 26.22 30.66 32 31 C31.67 31.99 31.34 32.98 31 34 C27.85 34.03 24.71 34.05 21.56 34.06 C20.22 34.08 20.22 34.08 18.84 34.09 C17.56 34.09 17.56 34.09 16.25 34.1 C15.46 34.1 14.67 34.11 13.86 34.11 C12 34 12 34 11 33 C11.01 32.02 11.02 31.05 11.04 30.04 C11.09 22.11 10.48 17.34 4.94 11.44 C4.02 10.53 3.1 9.62 2.15 8.68 C0 6 0 6 -0.31 2.66 C-0.21 1.78 -0.1 0.9 0 0 Z " fill="#FA13F9" transform="translate(181,291)"/>
<path d="M0 0 C4.2 1.7 6.2 3.84 8 8 C8.57 13.21 7.92 16.63 5 21 C0.93 24.68 -2.46 25.7 -7.82 25.46 C-12.25 24.53 -14.68 21.74 -17.38 18.19 C-18.37 14.69 -18.78 11.54 -18 8 C-13.26 0.41 -8.64 -0.75 0 0 Z M-14 6 C-15.74 9.47 -15.6 13.21 -15 17 C-12.82 19.76 -11.13 21.44 -8 23 C-2.73 23.6 -0.12 22.25 4 19 C5.73 15.54 5.49 11.78 5 8 C3.21 5.13 2.02 3.51 -1 2 C-6.87 1.52 -9.71 1.58 -14 6 Z " fill="#6AE3E8" transform="translate(394,346)"/>
<path d="M0 0 C3.18 1.64 5.38 3.76 7 7 C7.42 11.55 7.54 15.67 5.81 19.94 C3.14 22.98 0.98 24.7 -3.11 25.32 C-8.55 25.59 -11.79 24.7 -16 21 C-18.73 16.58 -18.8 12.04 -18 7 C-13.94 -0.52 -7.85 -1.02 0 0 Z M-12.94 4 C-15.69 8.01 -16 10.13 -16 15 C-14.45 18.67 -12.54 21.13 -9 23 C-4.85 23.53 -2.77 23.48 0.81 21.25 C3.79 18.18 4.8 16.35 5.44 12.12 C4.82 7.73 3.08 6.15 0 3 C-4.63 0.69 -8.85 1.22 -12.94 4 Z " fill="#FFE067" transform="translate(119,346)"/>
<path d="M0 0 C6.41 4.94 13.59 10.6 14.8 19.05 C15.16 22.74 15.03 26.26 15 30 C20.61 30.33 26.22 30.66 32 31 C31.67 31.99 31.34 32.98 31 34 C28.04 34.05 25.08 34.09 22.12 34.12 C20.86 34.15 20.86 34.15 19.57 34.18 C18.77 34.18 17.96 34.19 17.13 34.2 C16.39 34.21 15.65 34.22 14.88 34.23 C13 34 13 34 11 32 C10.93 29.86 10.92 27.71 10.94 25.56 C10.51 17.15 6.82 12.77 1 7 C0 6 0 6 -0.06 2.94 C-0.04 1.97 -0.02 1 0 0 Z " fill="#FC11FB" transform="translate(253,291)"/>
<path d="M0 0 C0.33 0 0.66 0 1 0 C1.03 0.84 1.05 1.69 1.08 2.55 C1.17 5.67 1.27 8.79 1.37 11.91 C1.42 13.26 1.46 14.61 1.5 15.96 C1.55 17.9 1.62 19.84 1.68 21.78 C1.72 22.95 1.76 24.11 1.79 25.32 C1.7 27.92 1.7 27.92 3 29 C4.84 29.15 6.69 29.23 8.53 29.28 C9.65 29.32 10.77 29.36 11.93 29.39 C13.11 29.43 14.28 29.46 15.5 29.5 C17.82 29.57 20.15 29.64 22.47 29.72 C24.02 29.76 24.02 29.76 25.61 29.81 C28 30 28 30 29 31 C29.07 33.7 29.09 36.37 29.06 39.06 C29.06 39.82 29.05 40.58 29.05 41.36 C29.04 43.24 29.02 45.12 29 47 C28.34 47 27.68 47 27 47 C26.67 42.38 26.34 37.76 26 33 C24.23 32.96 22.46 32.93 20.64 32.89 C18.32 32.82 16 32.75 13.69 32.69 C12.52 32.66 11.35 32.64 10.15 32.62 C8.47 32.57 8.47 32.57 6.76 32.51 C5.73 32.49 4.7 32.46 3.64 32.43 C1 32 1 32 -0.84 30.85 C-2.53 28.16 -2.37 26.03 -2.36 22.87 C-2.36 21.67 -2.36 20.47 -2.36 19.24 C-2.35 17.98 -2.33 16.73 -2.31 15.44 C-2.32 14.18 -2.32 12.92 -2.32 11.63 C-2.27 2.27 -2.27 2.27 0 0 Z " fill="#23FDF6" transform="translate(387,272)"/>
<path d="M0 0 C3.21 1.61 5.17 2.94 7.38 5.75 C8.68 10.44 8.72 14.45 6.69 18.81 C3.76 22.61 1.92 24.61 -3.05 25.27 C-7.18 25.46 -10.1 25.44 -13.44 22.81 C-16.73 19.2 -17.76 16.86 -18.38 12.06 C-17.81 7.42 -15.61 4.44 -12.16 1.35 C-8.35 -1.03 -4.35 -0.62 0 0 Z M-14 6 C-15.61 9.23 -15.6 12.51 -15 16 C-13.26 19.03 -11.16 21.42 -8 23 C-4.09 23.44 -2.25 23.14 1.25 21.25 C4.89 18.28 5.74 16.7 6.44 12.12 C5.82 7.73 4.08 6.15 1 3 C-4.72 0.14 -9.78 1.65 -14 6 Z " fill="#FFE066" transform="translate(43,346)"/>
<path d="M0 0 C0.33 0 0.66 0 1 0 C1.02 0.81 1.04 1.61 1.06 2.45 C1.16 6.09 1.26 9.73 1.38 13.38 C1.42 15.28 1.42 15.28 1.47 17.23 C1.51 18.44 1.55 19.65 1.59 20.9 C1.62 22.02 1.65 23.14 1.68 24.29 C1.73 27.15 1.73 27.15 4 29 C6.6 29.36 6.6 29.36 9.63 29.38 C10.75 29.41 11.86 29.45 13.01 29.48 C14.18 29.51 15.36 29.54 16.56 29.56 C18.88 29.62 21.19 29.69 23.5 29.75 C25.05 29.79 25.05 29.79 26.62 29.83 C29 30 29 30 30 31 C30.15 33.49 30.23 35.94 30.25 38.44 C30.27 39.13 30.29 39.83 30.31 40.54 C30.33 42.56 30.33 42.56 30 46 C29.01 46.66 28.02 47.32 27 48 C26.67 43.05 26.34 38.1 26 33 C23.33 32.93 23.33 32.93 20.6 32.85 C18.28 32.78 15.95 32.7 13.62 32.62 C12.45 32.59 11.27 32.56 10.06 32.53 C8.94 32.49 7.82 32.45 6.66 32.41 C5.63 32.38 4.59 32.35 3.52 32.32 C1 32 1 32 -1 30 C-1.24 27.13 -1.24 27.13 -1.23 23.5 C-1.23 22.2 -1.23 20.9 -1.22 19.56 C-1.22 18.89 -1.21 18.21 -1.21 17.51 C-1.19 15.44 -1.19 13.37 -1.19 11.3 C-1.14 1.14 -1.14 1.14 0 0 Z " fill="#05FEFE" transform="translate(48,272)"/>
<path d="M0 0 C7.28 -0.02 14.57 -0.04 21.85 -0.05 C25.23 -0.06 28.62 -0.06 32 -0.08 C35.88 -0.09 39.77 -0.09 43.65 -0.1 C44.87 -0.1 46.09 -0.11 47.35 -0.11 C49.03 -0.11 49.03 -0.11 50.75 -0.11 C51.74 -0.12 52.73 -0.12 53.75 -0.12 C56 0 56 0 57 1 C57.07 3.7 57.09 6.37 57.06 9.06 C57.06 9.82 57.05 10.58 57.05 11.36 C57.04 13.24 57.02 15.12 57 17 C56.01 17.33 55.02 17.66 54 18 C53.5 10.57 53.5 10.57 53 3 C35.18 2.67 17.36 2.34 -1 2 C-0.67 1.34 -0.34 0.68 0 0 Z " fill="#15FFF4" transform="translate(424,251)"/>
<path d="M0 0 C0.99 0 1.98 0 3 0 C3 11.55 3 23.1 3 35 C-2 31 -2 31 -2.6 28.02 C-2.59 26.89 -2.57 25.76 -2.56 24.59 C-2.55 23.35 -2.54 22.12 -2.54 20.84 C-2.5 19.55 -2.47 18.26 -2.44 16.94 C-2.43 15.65 -2.43 14.35 -2.42 13.02 C-2.3 3.44 -2.3 3.44 0 0 Z " fill="#FD02FF" transform="translate(115,88)"/>
<path d="M0 0 C1.15 0 1.15 0 2.32 0 C3.93 0 5.54 0.01 7.15 0.02 C9.62 0.04 12.08 0.05 14.55 0.04 C16.12 0.05 17.68 0.06 19.25 0.06 C19.99 0.06 20.73 0.06 21.49 0.07 C26.69 0.11 26.69 0.11 28.93 1.23 C28.93 6.51 28.93 11.79 28.93 17.23 C27.94 17.56 26.95 17.89 25.93 18.23 C25.43 10.81 25.43 10.81 24.93 3.23 C20.37 3.18 15.82 3.14 11.27 3.12 C9.72 3.11 8.17 3.1 6.63 3.08 C4.39 3.06 2.16 3.04 -0.07 3.04 C-0.75 3.02 -1.44 3.01 -2.14 3 C-7.11 3 -11.32 3.89 -16.07 5.23 C-11.65 0.11 -6.41 -0.06 0 0 Z " fill="#20FFF6" transform="translate(49.07421875,250.76953125)"/>
<path d="M0 0 C6.96 -0.03 13.92 -0.04 20.88 -0.05 C23.25 -0.06 25.62 -0.07 27.99 -0.08 C31.39 -0.09 34.79 -0.09 38.18 -0.1 C39.25 -0.1 40.32 -0.11 41.42 -0.11 C42.89 -0.11 42.89 -0.11 44.39 -0.11 C45.26 -0.12 46.12 -0.12 47.02 -0.12 C49 0 49 0 50 1 C50.07 3.7 50.09 6.37 50.06 9.06 C50.06 9.82 50.05 10.58 50.05 11.36 C50.04 13.24 50.02 15.12 50 17 C49.01 17.5 49.01 17.5 48 18 C47.5 10.57 47.5 10.57 47 3 C31.16 2.67 15.32 2.34 -1 2 C-0.67 1.34 -0.34 0.68 0 0 Z " fill="#0BFFF7" transform="translate(305,251)"/>
<path d="M0 0 C1.6 -0.08 3.21 -0.14 4.81 -0.19 C6.15 -0.24 6.15 -0.24 7.52 -0.29 C10 0 10 0 11.64 1.1 C13.67 3.93 13.34 6.2 13.29 9.64 C13.28 10.94 13.27 12.23 13.26 13.57 C13.24 14.94 13.21 16.32 13.19 17.69 C13.17 19.07 13.16 20.45 13.15 21.84 C13.11 25.23 13.06 28.61 13 32 C11.52 32.5 11.52 32.5 10 33 C9.67 23.76 9.34 14.52 9 5 C4.55 4.01 4.55 4.01 0 3 C0 2.01 0 1.02 0 0 Z " fill="#FA25FA" transform="translate(110,270)"/>
<path d="M0 0 C2.56 -0.14 5.12 -0.23 7.69 -0.31 C8.41 -0.35 9.13 -0.4 9.87 -0.44 C13.81 -0.53 15.46 -0.43 18.63 2.11 C19.41 3.06 20.2 4.02 21 5 C22.01 6.08 23.02 7.16 24.04 8.23 C25.09 9.36 26.14 10.49 27.19 11.62 C27.72 12.2 28.25 12.77 28.8 13.36 C35 20.06 35 20.06 35 25 C34.34 25 33.68 25 33 25 C31.61 23.45 30.29 21.83 29 20.19 C28.19 19.19 27.38 18.2 26.54 17.18 C24.86 15.1 23.27 13.01 21.68 10.86 C17.02 4.95 17.02 4.95 10.25 2.09 C6.79 1.84 3.46 1.79 0 2 C0 1.34 0 0.68 0 0 Z " fill="#11FEF7" transform="translate(160,251)"/>
<path d="M0 0 C2.4 -0.11 4.79 -0.19 7.19 -0.25 C7.86 -0.28 8.53 -0.32 9.23 -0.35 C12.68 -0.42 14.75 -0.16 17.71 1.68 C20.15 4.15 22.35 6.7 24.5 9.44 C26.82 12.37 29.07 15.07 31.76 17.67 C34 20 34 20 34.31 22.81 C34.21 23.53 34.11 24.26 34 25 C29.86 21.93 26.74 18.58 23.5 14.56 C22.72 13.61 21.94 12.65 21.14 11.67 C19.91 10.14 18.71 8.59 17.58 6.99 C15.1 3.83 13.58 3.1 9.52 2.42 C6 2.15 2.53 2.01 -1 2 C-0.67 1.34 -0.34 0.68 0 0 Z " fill="#10FDF8" transform="translate(233,251)"/>
<path d="M0 0 C0.77 -0 1.54 -0 2.33 -0 C3.96 -0 5.59 -0 7.21 0 C9.71 0.01 12.21 0 14.7 -0 C16.28 -0 17.86 -0 19.44 0 C20.19 -0 20.94 -0 21.71 -0.01 C26.97 0.02 26.97 0.02 28.09 1.13 C28.16 3.83 28.18 6.5 28.15 9.2 C28.14 9.95 28.14 10.71 28.13 11.49 C28.12 13.37 28.11 15.25 28.09 17.13 C27.1 17.63 27.1 17.63 26.09 18.13 C26.03 17.13 25.96 16.13 25.9 15.11 C25.82 13.82 25.73 12.52 25.65 11.2 C25.57 9.91 25.49 8.62 25.4 7.29 C25.44 4.27 25.44 4.27 24.09 3.13 C21.35 3.04 18.63 3.02 15.89 3.04 C15.07 3.04 14.25 3.04 13.41 3.04 C10.78 3.05 8.15 3.06 5.52 3.07 C3.75 3.08 1.97 3.08 0.19 3.08 C-4.18 3.1 -8.55 3.11 -12.91 3.13 C-9.19 -0.59 -4.94 -0.01 0 0 Z " fill="#0FFFF8" transform="translate(387.9140625,250.8671875)"/>
<path d="M0 0 C0.99 0 1.98 0 3 0 C3 1.65 3 3.3 3 5 C3.6 4.99 4.19 4.98 4.8 4.97 C7.49 4.93 10.18 4.9 12.88 4.88 C13.81 4.86 14.75 4.84 15.71 4.82 C16.61 4.82 17.51 4.81 18.43 4.8 C19.26 4.79 20.08 4.78 20.94 4.77 C23 5 23 5 25 7 C25.2 10.26 25.2 10.26 25.12 14.12 C25.11 15.41 25.09 16.69 25.07 18.01 C25.05 19 25.02 19.98 25 21 C24.01 21.33 23.02 21.66 22 22 C22 17.38 22 12.76 22 8 C14.74 7.67 7.48 7.34 0 7 C0 4.69 0 2.38 0 0 Z " fill="#28FBFD" transform="translate(323,271)"/>
<path d="M0 0 C0.66 0 1.32 0 2 0 C2 1.98 2 3.96 2 6 C3.31 5.99 3.31 5.99 4.65 5.98 C7.88 5.97 11.11 5.95 14.34 5.95 C15.73 5.94 17.13 5.93 18.53 5.92 C20.54 5.91 22.55 5.91 24.56 5.9 C26.37 5.89 26.37 5.89 28.22 5.89 C31 6 31 6 32 7 C32.07 9.7 32.09 12.37 32.06 15.06 C32.06 15.82 32.05 16.58 32.05 17.36 C32.04 19.24 32.02 21.12 32 23 C31.34 23.33 30.68 23.66 30 24 C29.67 19.05 29.34 14.1 29 9 C19.43 8.67 9.86 8.34 0 8 C0 5.36 0 2.72 0 0 Z " fill="#08FFF9" transform="translate(323,296)"/>
<path d="M0 0 C1.49 0.99 1.49 0.99 3 2 C3.34 4.98 3.34 4.98 3.29 8.76 C3.29 9.42 3.28 10.08 3.28 10.77 C3.26 12.89 3.23 15.01 3.19 17.12 C3.17 18.56 3.16 20 3.15 21.43 C3.11 24.96 3.06 28.48 3 32 C1.51 32.5 1.51 32.5 0 33 C0 22.11 0 11.22 0 0 Z " fill="#21FEE8" transform="translate(250,287)"/>
<path d="M0 0 C3 3 3 3 3.36 5.88 C3.35 7.02 3.34 8.17 3.33 9.35 C3.32 10.59 3.32 11.84 3.31 13.12 C3.29 14.42 3.27 15.72 3.25 17.06 C3.24 18.37 3.24 19.67 3.23 21.02 C3.15 30.69 3.15 30.69 2 33 C1.34 33 0.68 33 0 33 C0 22.11 0 11.22 0 0 Z " fill="#24FAF3" transform="translate(178,287)"/>
<path d="M0 0 C0.33 0 0.66 0 1 0 C1.02 0.87 1.04 1.74 1.06 2.63 C1.14 5.85 1.22 9.06 1.32 12.28 C1.36 13.67 1.39 15.07 1.42 16.46 C1.47 18.46 1.53 20.46 1.59 22.46 C1.62 23.67 1.65 24.87 1.68 26.11 C1.71 29.13 1.71 29.13 4 31 C6.43 31.46 6.43 31.46 9.12 31.62 C10.04 31.7 10.95 31.77 11.88 31.85 C12.58 31.9 13.28 31.95 14 32 C12 34 12 34 9.72 34.27 C8.84 34.26 7.97 34.26 7.06 34.25 C6.19 34.26 5.31 34.26 4.41 34.27 C2 34 2 34 -1 32 C-1.36 28.94 -1.36 28.94 -1.33 25.06 C-1.33 24.38 -1.32 23.69 -1.32 22.99 C-1.32 21.55 -1.3 20.1 -1.28 18.66 C-1.25 16.44 -1.24 14.23 -1.23 12.01 C-1.16 1.16 -1.16 1.16 0 0 Z " fill="#09FFF8" transform="translate(108,271)"/>
<path d="M0 0 C0.08 2.46 0.14 4.92 0.19 7.38 C0.21 8.07 0.24 8.77 0.26 9.49 C0.29 11.52 0.29 11.52 0 15 C-0.99 15.66 -1.98 16.32 -3 17 C-3.33 12.05 -3.66 7.1 -4 2 C-12.25 1.67 -20.5 1.34 -29 1 C-29 0.67 -29 0.34 -29 0 C-24.92 -0.2 -20.83 -0.38 -16.75 -0.56 C-15.59 -0.62 -14.43 -0.67 -13.24 -0.73 C-12.12 -0.78 -11.01 -0.83 -9.86 -0.88 C-8.32 -0.95 -8.32 -0.95 -6.75 -1.02 C-4.28 -1 -2.34 -0.73 0 0 Z " fill="#2CFFED" transform="translate(78,303)"/>
<path d="M0 0 C7.92 0 15.84 0 24 0 C23.67 0.99 23.34 1.98 23 3 C15.41 3 7.82 3 0 3 C0 2.01 0 1.02 0 0 Z " fill="#FF01FF" transform="translate(326,271)"/>
<path d="M0 0 C7.59 0 15.18 0 23 0 C22.67 0.99 22.34 1.98 22 3 C14.74 3 7.48 3 0 3 C0 2.01 0 1.02 0 0 Z " fill="#F027EC" transform="translate(388,271)"/>
<path d="M0 0 C7.26 0 14.52 0 22 0 C22 0.99 22 1.98 22 3 C14.41 3 6.82 3 -1 3 C-0.67 2.01 -0.34 1.02 0 0 Z " fill="#F026ED" transform="translate(50,271)"/>
<path d="M0 0 C5.28 0 10.56 0 16 0 C15.67 0.99 15.34 1.98 15 3 C10.05 3 5.1 3 0 3 C0 2.01 0 1.02 0 0 Z " fill="#FF21FF" transform="translate(326,296)"/>
<path d="M0 0 C0.66 0 1.32 0 2 0 C2 5.28 2 10.56 2 16 C-1 13 -1 13 -1.33 10.12 C-1.3 9.05 -1.28 7.98 -1.25 6.88 C-1.23 5.8 -1.22 4.72 -1.2 3.62 C-1 1 -1 1 0 0 Z " fill="#EC38EC" transform="translate(193,256)"/>
<path d="M0 0 C0.66 0 1.32 0 2 0 C2 4.95 2 9.9 2 15 C1.01 14.34 0.02 13.68 -1 13 C-1.33 10.21 -1.33 10.21 -1.25 6.94 C-1.23 5.85 -1.22 4.77 -1.2 3.65 C-1 1 -1 1 0 0 Z " fill="#F92FF8" transform="translate(265,256)"/>
<path d="M0 0 C1.32 0.33 2.64 0.66 4 1 C4 6.28 4 11.56 4 17 C3.34 17 2.68 17 2 17 C1.94 16.02 1.88 15.05 1.82 14.04 C1.73 12.77 1.65 11.5 1.56 10.19 C1.48 8.92 1.4 7.66 1.32 6.36 C1.13 3.01 1.13 3.01 0 0 Z " fill="#03FFFE" transform="translate(412,302)"/>
<path d="M0 0 C4.29 0 8.58 0 13 0 C12.67 0.99 12.34 1.98 12 3 C8.04 3 4.08 3 0 3 C0 2.01 0 1.02 0 0 Z " fill="#EC2FED" transform="translate(463,271)"/>
<path d="M0 0 C0.33 0.66 0.66 1.32 1 2 C-5.28 6.06 -5.28 6.06 -8.94 5.75 C-9.62 5.5 -10.3 5.25 -11 5 C-7.41 3.13 -3.72 1.57 0 0 Z " fill="#F141ED" transform="translate(138,318)"/>
<path d="M0 0 C1.32 0.66 2.64 1.32 4 2 C0.31 4.46 -2.7 5.01 -7 6 C-4.74 3.66 -2.72 1.81 0 0 Z " fill="#32FAE9" transform="translate(376,82)"/>
</svg>
