<svg xmlns="http://www.w3.org/2000/svg" xmlns:xlink="http://www.w3.org/1999/xlink" width="500" zoomAndPan="magnify" viewBox="0 0 375 374.999991" height="500" preserveAspectRatio="xMidYMid meet" version="1.0"><defs><clipPath id="abc1b12f39"><path d="M 137 258 L 249 258 L 249 292.96875 L 137 292.96875 Z M 137 258 " clip-rule="nonzero"/></clipPath><clipPath id="c164e4fe30"><path d="M 67 209 L 173 209 L 173 292.96875 L 67 292.96875 Z M 67 209 " clip-rule="nonzero"/></clipPath><clipPath id="47831e9f35"><path d="M 18 252 L 86 252 L 86 292.96875 L 18 292.96875 Z M 18 252 " clip-rule="nonzero"/></clipPath><clipPath id="5b8e39b4b7"><path d="M 203 202 L 299 202 L 299 292.96875 L 203 292.96875 Z M 203 202 " clip-rule="nonzero"/></clipPath><clipPath id="b89c28b245"><path d="M 227 244 L 322 244 L 322 292.96875 L 227 292.96875 Z M 227 244 " clip-rule="nonzero"/></clipPath><clipPath id="e637ddf86b"><path d="M 271 218 L 364 218 L 364 292.96875 L 271 292.96875 Z M 271 218 " clip-rule="nonzero"/></clipPath><clipPath id="704e585f7d"><path d="M 144 82.03125 L 248 82.03125 L 248 193 L 144 193 Z M 144 82.03125 " clip-rule="nonzero"/></clipPath><clipPath id="946258e3c0"><path d="M 73 82.03125 L 167 82.03125 L 167 148 L 73 148 Z M 73 82.03125 " clip-rule="nonzero"/></clipPath><clipPath id="8fd8a4ad91"><path d="M 197 82.03125 L 304 82.03125 L 304 142 L 197 142 Z M 197 82.03125 " clip-rule="nonzero"/></clipPath><clipPath id="d5f30537aa"><path d="M 274 82.03125 L 362 82.03125 L 362 148 L 274 148 Z M 274 82.03125 " clip-rule="nonzero"/></clipPath><clipPath id="c43f80d17e"><path d="M 169 82.03125 L 242 82.03125 L 242 105 L 169 105 Z M 169 82.03125 " clip-rule="nonzero"/></clipPath><clipPath id="8283893519"><path d="M 118 82.03125 L 209 82.03125 L 209 119 L 118 119 Z M 118 82.03125 " clip-rule="nonzero"/></clipPath></defs><g clip-path="url(#abc1b12f39)"><path stroke-linecap="butt" transform="matrix(-0.185858, 0.0600324, -0.0600324, -0.185858, 191.183502, 301.822948)" fill="none" stroke-linejoin="miter" d="M -54.565325 -99.284224 C -58.131202 -90.326629 -75.13397 7.145802 -28.176668 -8.939812 C 18.786782 -25.044458 15.269569 -96.988222 4.019336 -97.490472 C -36.678726 -99.286612 -38.899803 99.283182 75.122926 -34.443657 " stroke="#ffab34" stroke-width="15" stroke-opacity="1" stroke-miterlimit="10"/></g><path stroke-linecap="butt" transform="matrix(-0.00508444, 0.195246, -0.195246, -0.00508444, 96.614449, 199.600828)" fill="none" stroke-linejoin="miter" d="M -57.517306 -20.803765 C -54.721695 -14.094267 -43.996596 18.997752 -27.897049 11.856222 C -11.798023 4.694698 -15.145519 -27.048919 4.523853 -20.79884 C 24.213739 -14.529289 8.334311 22.576668 20.856732 24.811437 C 33.379154 27.046207 57.516918 10.512239 57.516918 10.512239 " stroke="#5ce1e6" stroke-width="15" stroke-opacity="1" stroke-miterlimit="10"/><g clip-path="url(#c164e4fe30)"><path stroke-linecap="butt" transform="matrix(-0.13136, 0.144539, -0.144539, -0.13136, 120.164461, 253.755365)" fill="none" stroke-linejoin="miter" d="M -40.704114 -41.594898 C -39.354515 -33.984077 -35.328764 -0.887975 -2.242125 4.472751 C 30.857965 9.848277 40.697157 41.579715 40.697157 41.579715 " stroke="#ffab34" stroke-width="15" stroke-opacity="1" stroke-miterlimit="10"/></g><g clip-path="url(#47831e9f35)"><path stroke-linecap="butt" transform="matrix(-0.185858, -0.0600324, 0.0600324, -0.185858, 51.330078, 292.029005)" fill="none" stroke-linejoin="miter" d="M -44.057653 -67.98052 C -40.924787 -46.503799 -38.231413 26.838758 -19.908262 26.826243 C -1.559933 26.826612 -14.091515 -14.313124 -4.245694 -12.070847 C 5.59398 -9.847601 -11.409537 50.079691 1.567813 59.023873 C 14.526131 67.974202 31.089717 36.226251 44.043595 41.584034 " stroke="#5ce1e6" stroke-width="10" stroke-opacity="1" stroke-miterlimit="10"/></g><g clip-path="url(#5b8e39b4b7)"><path stroke-linecap="butt" transform="matrix(-0.126264, -0.149011, 0.149011, -0.126264, 250.818914, 254.190687)" fill="none" stroke-linejoin="miter" d="M -57.521777 -20.78698 C -54.72657 -14.093071 -44.002304 19.006615 -27.892209 11.843171 C -11.795045 4.694985 -15.142412 -27.056004 4.532158 -20.791934 C 24.206728 -14.527863 8.329463 22.586333 20.859196 24.814749 C 33.375999 27.058424 57.522283 10.503873 57.522283 10.503873 " stroke="#ffab34" stroke-width="15" stroke-opacity="1" stroke-miterlimit="10"/></g><g clip-path="url(#b89c28b245)"><path stroke-linecap="butt" transform="matrix(-0.185858, -0.0600324, 0.0600324, -0.185858, 274.368942, 295.747569)" fill="none" stroke-linejoin="miter" d="M -40.706202 -41.59427 C -39.360467 -33.979272 -35.336549 -0.894501 -2.244511 4.474022 C 30.866559 9.836397 40.702761 41.590244 40.702761 41.590244 " stroke="#ffffff" stroke-width="15" stroke-opacity="1" stroke-miterlimit="10"/></g><g clip-path="url(#e637ddf86b)"><path stroke-linecap="butt" transform="matrix(-0.133849, -0.142237, 0.142237, -0.133849, 317.903508, 260.308459)" fill="none" stroke-linejoin="miter" d="M -18.564289 15.203213 C -18.564289 15.203213 18.55775 -15.19828 18.55775 -15.19828 " stroke="#5ce1e6" stroke-width="15" stroke-opacity="1" stroke-miterlimit="10"/></g><path fill="#ffffff" d="M 231.960938 277.039062 C 231.460938 277.429688 230.957031 278.136719 230.390625 278.851562 C 229.824219 279.574219 229.152344 280.328125 228.34375 280.929688 C 227.359375 281.667969 226.25 282.089844 225.105469 282.355469 C 223.136719 282.996094 221.644531 284.691406 220.519531 286.386719 C 220.09375 287.046875 219.726562 287.746094 219.441406 288.460938 C 219.207031 289.078125 218.941406 289.867188 219.011719 290.480469 C 219.011719 290.480469 215.484375 289.609375 215.484375 289.609375 C 216.320312 287.847656 217.503906 286.476562 218.710938 285.023438 C 220.160156 283.390625 221.734375 281.695312 223.757812 280.648438 C 224.066406 280.488281 224.449219 280.347656 224.785156 280.230469 C 226.804688 279.574219 227.554688 278.054688 228.203125 276.136719 C 228.351562 275.726562 228.511719 275.285156 228.734375 274.796875 C 228.734375 274.796875 231.960938 277.039062 231.960938 277.039062 Z M 231.960938 277.039062 " fill-opacity="1" fill-rule="nonzero"/><path fill="#5ce1e6" d="M 303.289062 217.554688 C 301.507812 215.945312 300.136719 214.199219 298.894531 212.519531 C 297.8125 211.105469 296.664062 209.160156 294.945312 208.769531 C 294.15625 208.582031 293.3125 208.9375 292.597656 209.261719 C 292.09375 209.472656 291.566406 209.660156 291.011719 209.824219 C 287.167969 210.984375 285.003906 209.433594 282.574219 206.636719 C 282.574219 206.636719 286.164062 204.25 286.164062 204.25 C 286.75 205.480469 287.152344 206.429688 288.167969 207.03125 C 289.539062 207.660156 291.152344 207.15625 292.582031 206.757812 C 293.511719 206.503906 294.539062 206.457031 295.480469 206.75 C 296.679688 207.109375 297.617188 207.890625 298.496094 208.679688 C 299.308594 209.425781 300.042969 210.175781 300.773438 210.882812 C 302.152344 212.238281 303.640625 213.523438 305.441406 214.140625 C 305.441406 214.140625 303.289062 217.554688 303.289062 217.554688 Z M 303.289062 217.554688 " fill-opacity="1" fill-rule="nonzero"/><path fill="#ffffff" d="M 141.847656 261.53125 C 142.574219 260.824219 143.734375 260.839844 144.441406 261.5625 C 145.148438 262.289062 145.136719 263.449219 144.410156 264.15625 C 143.683594 264.863281 142.523438 264.847656 141.816406 264.125 C 141.109375 263.398438 141.125 262.238281 141.847656 261.53125 Z M 141.847656 261.53125 " fill-opacity="1" fill-rule="nonzero"/><path fill="#ffffff" d="M 303.722656 262.78125 C 302.984375 262.085938 302.949219 260.925781 303.644531 260.1875 C 304.335938 259.449219 305.5 259.414062 306.234375 260.109375 C 306.972656 260.800781 307.007812 261.964844 306.316406 262.699219 C 305.621094 263.4375 304.460938 263.472656 303.722656 262.78125 Z M 303.722656 262.78125 " fill-opacity="1" fill-rule="nonzero"/><path fill="#ffab34" d="M 310.949219 228.191406 C 309.988281 227.871094 309.46875 226.832031 309.789062 225.871094 C 310.109375 224.910156 311.148438 224.390625 312.109375 224.710938 C 313.070312 225.03125 313.589844 226.066406 313.269531 227.027344 C 312.949219 227.992188 311.914062 228.511719 310.949219 228.191406 Z M 310.949219 228.191406 " fill-opacity="1" fill-rule="nonzero"/><g clip-path="url(#704e585f7d)"><path stroke-linecap="butt" transform="matrix(0.126264, 0.149011, -0.149011, 0.126264, 190.44887, 144.69673)" fill="none" stroke-linejoin="miter" d="M -54.553813 -99.28663 C -58.127995 -90.335181 -75.131308 7.166806 -28.171828 -8.931448 C 18.772393 -25.042632 15.281544 -96.997181 4.030742 -97.486534 C -36.674124 -99.288276 -38.912255 99.277578 75.126257 -34.438859 " stroke="#ffab34" stroke-width="15" stroke-opacity="1" stroke-miterlimit="10"/></g><g clip-path="url(#946258e3c0)"><path stroke-linecap="butt" transform="matrix(0.183662, 0.0664467, -0.0664467, 0.183662, 120.164447, 95.584827)" fill="none" stroke-linejoin="miter" d="M -40.698549 -41.589148 C -39.354236 -33.99341 -35.331321 -0.887269 -2.233673 4.472371 C 30.863975 9.832011 40.69191 41.58237 40.69191 41.58237 " stroke="#ffab34" stroke-width="15" stroke-opacity="1" stroke-miterlimit="10"/></g><path stroke-linecap="butt" transform="matrix(0.126264, -0.149011, 0.149011, 0.126264, 51.330078, 133.858453)" fill="none" stroke-linejoin="miter" d="M -44.046061 -67.968174 C -40.909458 -46.508625 -38.242921 26.834524 -19.894633 26.832321 C -1.574533 26.827789 -14.096872 -14.308855 -4.24997 -12.061958 C 5.584002 -9.830319 -11.401324 50.096779 1.568373 59.029943 C 14.522812 67.976036 31.081463 36.224071 44.047506 41.595158 " stroke="#5ce1e6" stroke-width="10" stroke-opacity="1" stroke-miterlimit="10"/><g clip-path="url(#8fd8a4ad91)"><path stroke-linecap="butt" transform="matrix(0.185858, -0.0600324, 0.0600324, 0.185858, 250.818914, 96.020113)" fill="none" stroke-linejoin="miter" d="M -57.527106 -20.791319 C -54.732254 -14.087768 -43.987503 19.017373 -27.888002 11.859296 C -11.7885 4.70122 -15.152192 -27.049679 4.538424 -20.794661 C 24.203861 -14.526759 8.326868 22.589964 20.84559 24.826035 C 33.364311 27.062107 57.522537 10.506064 57.522537 10.506064 " stroke="#ffab34" stroke-width="15" stroke-opacity="1" stroke-miterlimit="10"/></g><path stroke-linecap="butt" transform="matrix(0.126264, -0.149011, 0.149011, 0.126264, 274.368942, 137.577003)" fill="none" stroke-linejoin="miter" d="M -40.692402 -41.579385 C -39.347082 -33.98991 -35.341513 -0.893432 -2.239679 4.481254 C 30.849225 9.840682 40.684953 41.588367 40.684953 41.588367 " stroke="#ffffff" stroke-width="15" stroke-opacity="1" stroke-miterlimit="10"/><g clip-path="url(#d5f30537aa)"><path stroke-linecap="butt" transform="matrix(0.182481, -0.0696244, 0.0696244, 0.182481, 317.903508, 102.137878)" fill="none" stroke-linejoin="miter" d="M -18.562208 15.195339 C -18.562208 15.195339 18.555297 -15.210683 18.555297 -15.210683 " stroke="#5ce1e6" stroke-width="15" stroke-opacity="1" stroke-miterlimit="10"/></g><path fill="#ffffff" d="M 226.136719 107.890625 C 225.964844 107.28125 225.507812 106.546875 225.058594 105.75 C 224.609375 104.949219 224.167969 104.042969 223.917969 103.066406 C 223.605469 101.875 223.640625 100.6875 223.832031 99.527344 C 223.988281 97.460938 222.988281 95.4375 221.847656 93.753906 C 221.402344 93.109375 220.894531 92.503906 220.34375 91.96875 C 219.859375 91.515625 219.230469 90.96875 218.640625 90.800781 C 218.640625 90.800781 220.785156 87.867188 220.785156 87.867188 C 222.097656 89.3125 222.914062 90.929688 223.800781 92.601562 C 224.757812 94.5625 225.726562 96.664062 225.921875 98.929688 C 225.953125 99.277344 225.9375 99.683594 225.917969 100.042969 C 225.753906 102.160156 226.875 103.429688 228.402344 104.757812 C 228.726562 105.054688 229.070312 105.371094 229.441406 105.761719 C 229.441406 105.761719 226.136719 107.890625 226.136719 107.890625 Z M 226.136719 107.890625 " fill-opacity="1" fill-rule="nonzero"/><path fill="#ffffff" d="M 144.832031 103.988281 C 145.210938 104.929688 144.753906 105.996094 143.8125 106.375 C 142.871094 106.753906 141.804688 106.296875 141.425781 105.355469 C 141.050781 104.417969 141.507812 103.347656 142.445312 102.972656 C 143.386719 102.59375 144.453125 103.050781 144.832031 103.988281 Z M 144.832031 103.988281 " fill-opacity="1" fill-rule="nonzero"/><path fill="#5ce1e6" d="M 158.4375 145.265625 C 157.664062 145.921875 156.503906 145.824219 155.851562 145.050781 C 155.195312 144.277344 155.292969 143.121094 156.0625 142.464844 C 156.835938 141.8125 157.996094 141.90625 158.648438 142.679688 C 159.304688 143.453125 159.207031 144.609375 158.4375 145.265625 Z M 158.4375 145.265625 " fill-opacity="1" fill-rule="nonzero"/><path fill="#ffffff" d="M 306.691406 103.925781 C 306.332031 104.875 305.269531 105.347656 304.324219 104.988281 C 303.378906 104.625 302.902344 103.566406 303.265625 102.621094 C 303.625 101.671875 304.6875 101.199219 305.632812 101.558594 C 306.578125 101.921875 307.054688 102.980469 306.691406 103.925781 Z M 306.691406 103.925781 " fill-opacity="1" fill-rule="nonzero"/><g clip-path="url(#c43f80d17e)"><path stroke-linecap="butt" transform="matrix(0.195283, 0.00338984, -0.00338984, 0.195283, 205.534561, 65.271221)" fill="none" stroke-linejoin="miter" d="M -44.043351 -67.974479 C -40.910265 -46.505622 -38.236894 26.83903 -19.894101 26.840673 C -1.571653 26.822666 -14.087373 -14.306308 -4.247194 -12.076758 C 5.592984 -9.847209 -11.409188 50.096913 1.567863 59.03303 C 14.524916 67.969494 31.076322 36.217443 44.051576 41.593055 " stroke="#ffffff" stroke-width="10" stroke-opacity="1" stroke-miterlimit="10"/></g><g clip-path="url(#8283893519)"><path stroke-linecap="butt" transform="matrix(0.195283, 0.00338984, -0.00338984, 0.195283, 163.699007, 74.143092)" fill="none" stroke-linejoin="miter" d="M -18.557695 15.211748 C -18.557695 15.211748 18.560123 -15.19705 18.560123 -15.19705 " stroke="#ffffff" stroke-width="15" stroke-opacity="1" stroke-miterlimit="10"/></g><path stroke-linecap="butt" transform="matrix(-0.0867011, 0.175014, -0.175014, -0.0867011, 205.534561, 227.640995)" fill="none" stroke-linejoin="miter" d="M -44.053489 -67.971464 C -40.921675 -46.511392 -38.240767 26.842044 -19.895923 26.838193 C -1.569 26.843221 -14.082258 -14.320066 -4.242834 -12.074501 C 5.587713 -9.846858 -11.413061 50.088993 1.567923 59.036514 C 14.540029 67.966113 31.087931 36.221133 44.05532 41.581926 " stroke="#ffffff" stroke-width="10" stroke-opacity="1" stroke-miterlimit="10"/><path fill="#5ce1e6" d="M 229.714844 190.449219 C 224.96875 189.027344 222.304688 185.550781 221.804688 180.652344 C 221.691406 179.722656 221.699219 178.753906 221.691406 177.824219 C 221.679688 176.5625 221.613281 175.242188 221.417969 174.027344 C 221.289062 173.226562 221.085938 172.464844 220.804688 171.875 C 220.4375 171.070312 219.867188 170.683594 218.976562 170.734375 C 217.160156 170.847656 215.085938 171.8125 213.273438 170.777344 C 210.722656 169.289062 210.808594 165.421875 210.867188 162.9375 C 210.933594 161.105469 211.167969 159.253906 211.441406 157.449219 C 211.441406 157.449219 213.535156 157.671875 213.535156 157.671875 C 213.441406 159.449219 213.375 161.222656 213.410156 162.960938 C 213.445312 164.148438 213.546875 167.8125 214.753906 168.289062 C 215.546875 168.453125 216.417969 168.113281 217.292969 167.945312 C 218.378906 167.707031 219.574219 167.589844 220.734375 167.964844 C 224.164062 169.144531 224.558594 173.375 224.695312 176.410156 C 224.753906 177.722656 224.652344 179.074219 224.753906 180.382812 C 224.785156 180.976562 224.882812 181.601562 224.980469 182.183594 C 225.160156 182.949219 225.363281 183.714844 225.699219 184.421875 C 226.265625 185.699219 227.136719 186.765625 228.222656 187.671875 C 228.894531 188.226562 229.597656 188.671875 230.339844 189.160156 C 230.339844 189.160156 229.714844 190.449219 229.714844 190.449219 Z M 229.714844 190.449219 " fill-opacity="1" fill-rule="nonzero"/><path fill="#ffab34" d="M 349.410156 236.003906 C 350.316406 235.554688 351.417969 235.925781 351.867188 236.835938 C 352.316406 237.742188 351.945312 238.84375 351.039062 239.292969 C 350.128906 239.742188 349.03125 239.371094 348.582031 238.460938 C 348.128906 237.554688 348.5 236.453125 349.410156 236.003906 Z M 349.410156 236.003906 " fill-opacity="1" fill-rule="nonzero"/><path fill="#5ce1e6" d="M 36.652344 236.003906 C 37.558594 235.554688 38.660156 235.925781 39.109375 236.835938 C 39.558594 237.742188 39.1875 238.84375 38.277344 239.292969 C 37.371094 239.742188 36.269531 239.371094 35.820312 238.460938 C 35.371094 237.554688 35.742188 236.453125 36.652344 236.003906 Z M 36.652344 236.003906 " fill-opacity="1" fill-rule="nonzero"/><path fill="#5ce1e6" d="M 231.261719 222.628906 C 230.28125 222.375 229.691406 221.375 229.941406 220.394531 C 230.195312 219.414062 231.195312 218.824219 232.175781 219.074219 C 233.15625 219.328125 233.746094 220.328125 233.496094 221.308594 C 233.242188 222.289062 232.242188 222.878906 231.261719 222.628906 Z M 231.261719 222.628906 " fill-opacity="1" fill-rule="nonzero"/><path fill="#ffab34" d="M 15.484375 208.683594 C 14.476562 208.605469 13.722656 207.722656 13.800781 206.710938 C 13.878906 205.703125 14.761719 204.945312 15.773438 205.023438 C 16.78125 205.105469 17.535156 205.988281 17.457031 206.996094 C 17.378906 208.007812 16.496094 208.761719 15.484375 208.683594 Z M 15.484375 208.683594 " fill-opacity="1" fill-rule="nonzero"/><path fill="#ffffff" d="M 34.3125 163.59375 C 39.246094 163.144531 43.011719 165.375 45.304688 169.734375 C 45.753906 170.554688 46.109375 171.457031 46.460938 172.320312 C 46.941406 173.484375 47.496094 174.683594 48.128906 175.742188 C 48.546875 176.433594 49.019531 177.066406 49.5 177.507812 C 50.140625 178.117188 50.8125 178.261719 51.625 177.886719 C 53.269531 177.105469 54.832031 175.4375 56.902344 175.722656 C 59.820312 176.148438 61.183594 179.773438 62.050781 182.101562 C 62.675781 183.820312 63.144531 185.628906 63.5625 187.40625 C 63.5625 187.40625 61.539062 187.980469 61.539062 187.980469 C 60.964844 186.292969 60.363281 184.625 59.683594 183.027344 C 59.207031 181.9375 57.75 178.574219 56.453125 178.582031 C 55.65625 178.722656 54.976562 179.367188 54.222656 179.847656 C 53.308594 180.472656 52.242188 181.027344 51.023438 181.109375 C 47.402344 181.292969 45.460938 177.515625 44.199219 174.75 C 43.65625 173.550781 43.246094 172.261719 42.664062 171.085938 C 42.414062 170.546875 42.089844 170.003906 41.78125 169.496094 C 41.332031 168.851562 40.859375 168.21875 40.28125 167.6875 C 39.285156 166.714844 38.078125 166.050781 36.730469 165.613281 C 35.902344 165.347656 35.082031 165.199219 34.210938 165.023438 C 34.210938 165.023438 34.3125 163.59375 34.3125 163.59375 Z M 34.3125 163.59375 " fill-opacity="1" fill-rule="nonzero"/><path stroke-linecap="butt" transform="matrix(-0.0867011, 0.175014, -0.175014, -0.0867011, 163.699007, 236.512866)" fill="none" stroke-linejoin="miter" d="M -18.56767 15.201107 C -18.56767 15.201107 18.556178 -15.197839 18.556178 -15.197839 " stroke="#ffffff" stroke-width="15" stroke-opacity="1" stroke-miterlimit="10"/><path stroke-linecap="butt" transform="matrix(-0.0648503, -0.184232, 0.184232, -0.0648503, 70.152926, 226.714701)" fill="none" stroke-linejoin="miter" d="M 18.56438 15.203555 C 18.56438 15.203555 -18.563778 -15.209667 -18.563778 -15.209667 " stroke="#ffffff" stroke-width="15" stroke-opacity="1" stroke-miterlimit="10"/><path fill="#ffab34" d="M 107.84375 232.167969 C 107.21875 232.082031 106.359375 232.210938 105.453125 232.304688 C 104.539062 232.402344 103.53125 232.449219 102.539062 232.289062 C 101.320312 232.101562 100.246094 231.601562 99.253906 230.964844 C 97.421875 230 95.167969 230.117188 93.167969 230.496094 C 92.398438 230.652344 91.640625 230.875 90.929688 231.167969 C 90.324219 231.429688 89.570312 231.792969 89.183594 232.269531 C 89.183594 232.269531 87.34375 229.136719 87.34375 229.136719 C 89.191406 228.503906 91 228.394531 92.882812 228.246094 C 95.066406 228.144531 97.375 228.089844 99.535156 228.808594 C 99.867188 228.917969 100.234375 229.09375 100.554688 229.253906 C 102.433594 230.246094 104.046875 229.71875 105.871094 228.84375 C 106.269531 228.664062 106.695312 228.472656 107.203125 228.289062 C 107.203125 228.289062 107.84375 232.167969 107.84375 232.167969 Z M 107.84375 232.167969 " fill-opacity="1" fill-rule="nonzero"/><path fill="#5ce1e6" d="M 147.097656 198.6875 C 145.792969 196.675781 144.914062 194.632812 144.148438 192.691406 C 143.464844 191.046875 142.859375 188.871094 141.296875 188.050781 C 140.582031 187.667969 139.679688 187.792969 138.902344 187.921875 C 138.359375 187.996094 137.804688 188.042969 137.226562 188.058594 C 133.214844 188.191406 131.519531 186.136719 129.894531 182.808594 C 129.894531 182.808594 133.976562 181.421875 133.976562 181.421875 C 134.226562 182.765625 134.371094 183.785156 135.195312 184.628906 C 136.359375 185.585938 138.050781 185.515625 139.53125 185.5 C 140.496094 185.492188 141.5 185.710938 142.332031 186.238281 C 143.402344 186.890625 144.105469 187.890625 144.75 188.878906 C 145.34375 189.808594 145.859375 190.722656 146.382812 191.59375 C 147.371094 193.257812 148.476562 194.882812 150.058594 195.941406 C 150.058594 195.941406 147.097656 198.6875 147.097656 198.6875 Z M 147.097656 198.6875 " fill-opacity="1" fill-rule="nonzero"/><path stroke-linecap="butt" transform="matrix(-0.00169498, 0.195305, -0.195305, -0.00169498, 345.579063, 200.770036)" fill="none" stroke-linejoin="miter" d="M -54.566272 -99.285398 C -58.128725 -90.334144 -75.123306 7.157019 -28.181325 -8.950966 C 18.780829 -25.039126 15.276271 -96.991427 4.031487 -97.493861 C -36.665556 -99.280746 -38.902413 99.286159 75.121471 -34.428423 " stroke="#ffffff" stroke-width="15" stroke-opacity="1" stroke-miterlimit="10"/><path stroke-linecap="butt" transform="matrix(0.0836505, -0.176492, 0.176492, 0.0836505, 267.809166, 148.882665)" fill="none" stroke-linejoin="miter" d="M 18.563325 15.212428 C 18.563325 15.212428 -18.558631 -15.199007 -18.558631 -15.199007 " stroke="#ffffff" stroke-width="15" stroke-opacity="1" stroke-miterlimit="10"/><path fill="#ffab34" d="M 302.503906 171.011719 C 302.050781 170.566406 301.285156 170.160156 300.503906 169.691406 C 299.714844 169.222656 298.878906 168.65625 298.175781 167.933594 C 297.316406 167.050781 296.753906 166.007812 296.34375 164.902344 C 295.449219 163.035156 293.578125 161.777344 291.75 160.882812 C 291.042969 160.546875 290.300781 160.273438 289.554688 160.082031 C 288.910156 159.929688 288.09375 159.765625 287.496094 159.917969 C 287.496094 159.917969 287.898438 156.308594 287.898438 156.308594 C 289.753906 156.90625 291.269531 157.902344 292.867188 158.910156 C 294.675781 160.136719 296.558594 161.476562 297.859375 163.347656 C 298.0625 163.632812 298.25 163.992188 298.40625 164.3125 C 299.320312 166.230469 300.925781 166.773438 302.910156 167.167969 C 303.335938 167.265625 303.792969 167.367188 304.308594 167.523438 C 304.308594 167.523438 302.503906 171.011719 302.503906 171.011719 Z M 302.503906 171.011719 " fill-opacity="1" fill-rule="nonzero"/></svg>