<svg xmlns="http://www.w3.org/2000/svg" xmlns:xlink="http://www.w3.org/1999/xlink" width="500" zoomAndPan="magnify" viewBox="0 0 375 374.999991" height="500" preserveAspectRatio="xMidYMid meet" version="1.0"><defs><clipPath id="6d5c403181"><path d="M 102 31.65625 L 173 31.65625 L 173 102 L 102 102 Z M 102 31.65625 " clip-rule="nonzero"/></clipPath><clipPath id="12a58708a2"><path d="M 76 106 L 199 106 L 199 196.664062 L 76 196.664062 Z M 76 106 " clip-rule="nonzero"/></clipPath><clipPath id="a42d91d462"><path d="M 235 31.65625 L 307 31.65625 L 307 102 L 235 102 Z M 235 31.65625 " clip-rule="nonzero"/></clipPath><clipPath id="1609548eff"><path d="M 209 106 L 332 106 L 332 196.664062 L 209 196.664062 Z M 209 106 " clip-rule="nonzero"/></clipPath><clipPath id="f4bd51f402"><path d="M 102 290 L 174 290 L 174 361.101562 L 102 361.101562 Z M 102 290 " clip-rule="nonzero"/></clipPath><clipPath id="a3a5db3f3c"><path d="M 76.273438 196.09375 L 200 196.09375 L 200 287 L 76.273438 287 Z M 76.273438 196.09375 " clip-rule="nonzero"/></clipPath><clipPath id="a3687b21eb"><path d="M 236 290 L 307 290 L 307 355.859375 L 236 355.859375 Z M 236 290 " clip-rule="nonzero"/></clipPath><clipPath id="171f3e543b"><path d="M 210 201.550781 L 333 201.550781 L 333 287 L 210 287 Z M 210 201.550781 " clip-rule="nonzero"/></clipPath><clipPath id="ad900aeb7c"><path d="M 158 149 L 250 149 L 250 241 L 158 241 Z M 158 149 " clip-rule="nonzero"/></clipPath><clipPath id="46f7283508"><path d="M 204.261719 278.730469 L 121.074219 195.546875 L 204.261719 112.359375 L 287.445312 195.546875 Z M 204.261719 278.730469 " clip-rule="nonzero"/></clipPath><clipPath id="4bdcccd4ab"><path d="M 287.640625 195.351562 L 204.453125 112.164062 L 121.269531 195.351562 L 204.453125 278.539062 Z M 287.640625 195.351562 " clip-rule="nonzero"/></clipPath></defs><g clip-path="url(#6d5c403181)"><path fill="#5ce1e6" d="M 102.519531 66.832031 C 102.519531 86.175781 118.300781 101.953125 137.695312 101.953125 C 157.089844 101.953125 172.871094 86.175781 172.871094 66.832031 C 172.871094 47.4375 157.089844 31.65625 137.695312 31.65625 C 118.300781 31.65625 102.519531 47.4375 102.519531 66.832031 Z M 102.519531 66.832031 " fill-opacity="1" fill-rule="nonzero"/></g><g clip-path="url(#12a58708a2)"><path fill="#5ce1e6" d="M 76.589844 167.152344 L 76.589844 177.777344 C 76.589844 188.035156 84.933594 196.375 95.1875 196.375 L 180.203125 196.375 C 190.457031 196.375 198.800781 188.035156 198.800781 177.777344 L 198.800781 167.152344 C 198.800781 133.464844 171.382812 106.046875 137.695312 106.046875 C 104.007812 106.046875 76.589844 133.464844 76.589844 167.152344 Z M 76.589844 167.152344 " fill-opacity="1" fill-rule="nonzero"/></g><path fill="#5ce1e6" d="M 212.3125 110.554688 L 212.3125 101.96875 L 220.902344 101.96875 C 225.300781 101.96875 228.871094 98.398438 228.871094 93.996094 C 228.871094 89.597656 225.300781 86.027344 220.902344 86.027344 L 212.3125 86.027344 L 212.3125 77.441406 C 212.3125 73.039062 208.742188 69.46875 204.34375 69.46875 C 199.941406 69.46875 196.371094 73.039062 196.371094 77.441406 L 196.371094 86.027344 L 187.789062 86.027344 C 183.390625 86.027344 179.820312 89.597656 179.820312 93.996094 C 179.820312 98.398438 183.390625 101.96875 187.789062 101.96875 L 196.371094 101.96875 L 196.371094 110.554688 C 196.371094 114.957031 199.941406 118.527344 204.34375 118.527344 C 208.742188 118.527344 212.3125 114.957031 212.3125 110.554688 Z M 212.3125 110.554688 " fill-opacity="1" fill-rule="nonzero"/><g clip-path="url(#a42d91d462)"><path fill="#ff66c4" d="M 306.007812 66.832031 C 306.007812 86.175781 290.226562 101.953125 270.832031 101.953125 C 251.4375 101.953125 235.65625 86.175781 235.65625 66.832031 C 235.65625 47.4375 251.4375 31.65625 270.832031 31.65625 C 290.226562 31.65625 306.007812 47.4375 306.007812 66.832031 Z M 306.007812 66.832031 " fill-opacity="1" fill-rule="nonzero"/></g><g clip-path="url(#1609548eff)"><path fill="#ff66c4" d="M 331.9375 167.152344 L 331.9375 177.777344 C 331.9375 188.035156 323.59375 196.375 313.339844 196.375 L 228.324219 196.375 C 218.070312 196.375 209.726562 188.035156 209.726562 177.777344 L 209.726562 167.152344 C 209.726562 133.464844 237.144531 106.046875 270.832031 106.046875 C 304.519531 106.046875 331.9375 133.464844 331.9375 167.152344 Z M 331.9375 167.152344 " fill-opacity="1" fill-rule="nonzero"/></g><path fill="#ff66c4" d="M 196.214844 110.554688 L 196.214844 101.96875 L 187.625 101.96875 C 183.226562 101.96875 179.65625 98.398438 179.65625 93.996094 C 179.65625 89.597656 183.226562 86.027344 187.625 86.027344 L 196.214844 86.027344 L 196.214844 77.441406 C 196.214844 73.039062 199.785156 69.46875 204.183594 69.46875 C 208.585938 69.46875 212.15625 73.039062 212.15625 77.441406 L 212.15625 86.027344 L 220.738281 86.027344 C 225.136719 86.027344 228.707031 89.597656 228.707031 93.996094 C 228.707031 98.398438 225.136719 101.96875 220.738281 101.96875 L 212.15625 101.96875 L 212.15625 110.554688 C 212.15625 114.957031 208.585938 118.527344 204.183594 118.527344 C 199.785156 118.527344 196.214844 114.957031 196.214844 110.554688 Z M 196.214844 110.554688 " fill-opacity="1" fill-rule="nonzero"/><g clip-path="url(#f4bd51f402)"><path fill="#ff66c4" d="M 102.914062 325.925781 C 102.914062 306.582031 118.695312 290.800781 138.089844 290.800781 C 157.484375 290.800781 173.261719 306.582031 173.261719 325.925781 C 173.261719 345.320312 157.484375 361.101562 138.089844 361.101562 C 118.695312 361.101562 102.914062 345.320312 102.914062 325.925781 Z M 102.914062 325.925781 " fill-opacity="1" fill-rule="nonzero"/></g><g clip-path="url(#a3a5db3f3c)"><path fill="#ff66c4" d="M 76.984375 225.605469 L 76.984375 214.976562 C 76.984375 204.722656 85.324219 196.382812 95.578125 196.382812 L 180.597656 196.382812 C 190.851562 196.382812 199.195312 204.722656 199.195312 214.976562 L 199.195312 225.605469 C 199.195312 259.292969 171.777344 286.710938 138.089844 286.710938 C 104.402344 286.710938 76.984375 259.292969 76.984375 225.605469 Z M 76.984375 225.605469 " fill-opacity="1" fill-rule="nonzero"/></g><path fill="#ff66c4" d="M 212.707031 282.203125 L 212.707031 290.789062 L 221.292969 290.789062 C 225.695312 290.789062 229.265625 294.359375 229.265625 298.757812 C 229.265625 303.160156 225.695312 306.730469 221.292969 306.730469 L 212.707031 306.730469 L 212.707031 315.316406 C 212.707031 319.71875 209.136719 323.289062 204.734375 323.289062 C 200.335938 323.289062 196.765625 319.71875 196.765625 315.316406 L 196.765625 306.730469 L 188.183594 306.730469 C 183.78125 306.730469 180.214844 303.160156 180.214844 298.757812 C 180.214844 294.359375 183.78125 290.789062 188.183594 290.789062 L 196.765625 290.789062 L 196.765625 282.203125 C 196.765625 277.800781 200.335938 274.230469 204.734375 274.230469 C 209.136719 274.230469 212.707031 277.800781 212.707031 282.203125 Z M 212.707031 282.203125 " fill-opacity="1" fill-rule="nonzero"/><g clip-path="url(#a3687b21eb)"><path fill="#5ce1e6" d="M 306.402344 325.925781 C 306.402344 306.585938 290.621094 290.804688 271.226562 290.804688 C 251.832031 290.804688 236.050781 306.585938 236.050781 325.925781 C 236.050781 345.320312 251.832031 361.101562 271.226562 361.101562 C 290.621094 361.101562 306.402344 345.320312 306.402344 325.925781 Z M 306.402344 325.925781 " fill-opacity="1" fill-rule="nonzero"/></g><g clip-path="url(#171f3e543b)"><path fill="#5ce1e6" d="M 332.332031 225.609375 L 332.332031 214.980469 C 332.332031 204.726562 323.988281 196.382812 313.734375 196.382812 L 228.71875 196.382812 C 218.460938 196.382812 210.121094 204.726562 210.121094 214.980469 L 210.121094 225.609375 C 210.121094 259.296875 237.539062 286.714844 271.226562 286.714844 C 304.914062 286.714844 332.332031 259.296875 332.332031 225.609375 Z M 332.332031 225.609375 " fill-opacity="1" fill-rule="nonzero"/></g><path fill="#5ce1e6" d="M 196.605469 282.203125 L 196.605469 290.792969 L 188.019531 290.792969 C 183.621094 290.792969 180.050781 294.363281 180.050781 298.761719 C 180.050781 303.164062 183.621094 306.730469 188.019531 306.730469 L 196.605469 306.730469 L 196.605469 315.320312 C 196.605469 319.71875 200.175781 323.289062 204.578125 323.289062 C 208.976562 323.289062 212.546875 319.71875 212.546875 315.320312 L 212.546875 306.730469 L 221.128906 306.730469 C 225.53125 306.730469 229.101562 303.164062 229.101562 298.761719 C 229.101562 294.363281 225.53125 290.792969 221.128906 290.792969 L 212.546875 290.792969 L 212.546875 282.203125 C 212.546875 277.804688 208.976562 274.234375 204.578125 274.234375 C 200.175781 274.234375 196.605469 277.804688 196.605469 282.203125 Z M 196.605469 282.203125 " fill-opacity="1" fill-rule="nonzero"/><g clip-path="url(#ad900aeb7c)"><g clip-path="url(#46f7283508)"><g clip-path="url(#4bdcccd4ab)"><path fill="#ffde59" d="M 180.480469 153.476562 C 175.582031 148.582031 167.640625 148.582031 162.742188 153.476562 C 157.847656 158.375 157.847656 166.316406 162.742188 171.210938 L 186.71875 195.191406 L 162.578125 219.332031 C 157.679688 224.230469 157.679688 232.167969 162.578125 237.066406 C 167.476562 241.964844 175.414062 241.964844 180.3125 237.066406 L 204.457031 212.925781 L 228.390625 236.859375 C 233.285156 241.753906 241.226562 241.753906 246.125 236.859375 C 251.019531 231.960938 251.019531 224.019531 246.125 219.125 L 222.191406 195.191406 L 245.957031 171.421875 C 250.855469 166.523438 250.855469 158.582031 245.957031 153.6875 C 241.0625 148.789062 233.121094 148.789062 228.222656 153.6875 L 204.457031 177.453125 Z M 180.480469 153.476562 " fill-opacity="1" fill-rule="evenodd"/></g></g></g></svg>