<svg xmlns="http://www.w3.org/2000/svg" xmlns:xlink="http://www.w3.org/1999/xlink" width="500" zoomAndPan="magnify" viewBox="0 0 375 374.999991" height="500" preserveAspectRatio="xMidYMid meet" version="1.0"><defs><g/><clipPath id="d075827323"><path d="M 14.347656 258.972656 L 99.316406 258.972656 L 99.316406 308.816406 L 14.347656 308.816406 Z M 14.347656 258.972656 " clip-rule="nonzero"/></clipPath><clipPath id="b17a1786f4"><path d="M 102.050781 258.972656 L 187.015625 258.972656 L 187.015625 308.816406 L 102.050781 308.816406 Z M 102.050781 258.972656 " clip-rule="nonzero"/></clipPath><clipPath id="09cb6045b5"><path d="M 189.765625 258.972656 L 274.730469 258.972656 L 274.730469 308.816406 L 189.765625 308.816406 Z M 189.765625 258.972656 " clip-rule="nonzero"/></clipPath><clipPath id="8ea3759729"><path d="M 277.480469 258.972656 L 362.445312 258.972656 L 362.445312 308.816406 L 277.480469 308.816406 Z M 277.480469 258.972656 " clip-rule="nonzero"/></clipPath></defs><g clip-path="url(#d075827323)"><path fill="#ffde59" d="M 51.917969 276.753906 C 50.59375 276.753906 49.410156 277.464844 48.746094 278.648438 L 48.699219 278.695312 C 48.464844 279.261719 48.320312 279.828125 48.367188 280.445312 C 48.367188 280.871094 48.320312 281.25 48.226562 281.675781 C 48.085938 282.382812 47.800781 283.09375 47.375 283.753906 C 46.996094 284.371094 46.476562 284.9375 45.910156 285.410156 C 45.625 285.648438 45.292969 285.882812 44.964844 286.027344 C 43.921875 286.59375 42.691406 286.875 41.464844 286.875 C 41.320312 286.875 41.179688 286.875 41.085938 286.828125 L 40.847656 286.78125 C 40.753906 286.78125 40.613281 286.78125 40.515625 286.734375 C 40.375 286.734375 40.234375 286.734375 40.140625 286.6875 C 39.714844 286.59375 39.289062 286.449219 38.910156 286.261719 C 38.246094 285.929688 37.585938 285.503906 36.96875 285.078125 C 35.835938 284.226562 34.558594 283.566406 33.1875 283.09375 C 32.996094 283.046875 32.808594 283 32.667969 282.949219 C 32.523438 282.902344 32.429688 282.902344 32.289062 282.855469 C 31.910156 282.761719 31.484375 282.667969 31.105469 282.621094 C 30.347656 282.476562 29.542969 282.429688 28.742188 282.429688 C 28.691406 282.429688 28.691406 282.429688 28.644531 282.429688 C 23.015625 282.429688 18.003906 285.789062 15.875 290.992188 C 15.640625 291.605469 15.402344 292.269531 15.261719 292.976562 L 15.261719 293.027344 C 15.164062 293.59375 15.070312 294.207031 14.976562 294.824219 C 14.644531 297.140625 14.503906 299.550781 14.503906 301.917969 C 14.503906 302.25 14.503906 302.578125 14.503906 302.910156 C 14.503906 303.242188 14.503906 303.527344 14.503906 303.902344 C 14.597656 306.078125 16.160156 307.925781 18.335938 308.351562 C 21.03125 308.871094 23.773438 309.152344 26.46875 309.25 C 27.226562 309.296875 27.984375 309.296875 28.691406 309.296875 C 29.496094 309.296875 30.253906 309.296875 30.917969 309.25 C 33.46875 309.152344 36.070312 308.871094 38.625 308.398438 C 40.800781 307.972656 42.363281 306.175781 42.457031 303.953125 C 42.503906 303.242188 42.503906 302.53125 42.503906 301.871094 L 42.503906 300.546875 C 42.503906 299.882812 42.882812 299.316406 43.449219 299.03125 C 50.640625 295.578125 55.320312 288.199219 55.367188 280.207031 C 55.367188 279.261719 54.992188 278.410156 54.328125 277.75 C 53.714844 277.085938 52.816406 276.753906 51.917969 276.753906 Z M 42.691406 297.328125 C 41.464844 297.945312 40.660156 299.222656 40.660156 300.59375 L 40.660156 301.871094 C 40.660156 302.53125 40.660156 303.195312 40.613281 303.855469 C 40.566406 305.179688 39.617188 306.269531 38.34375 306.503906 C 35.882812 306.929688 33.375 307.214844 30.917969 307.308594 C 30.300781 307.308594 29.542969 307.355469 28.742188 307.355469 C 27.984375 307.355469 27.320312 307.355469 26.613281 307.308594 C 23.964844 307.214844 21.316406 306.929688 18.714844 306.410156 C 17.4375 306.175781 16.488281 305.039062 16.441406 303.761719 C 16.441406 303.429688 16.441406 303.101562 16.441406 302.769531 C 16.441406 302.4375 16.441406 302.152344 16.441406 301.824219 C 16.441406 299.550781 16.585938 297.234375 16.914062 295.011719 C 17.011719 294.445312 17.105469 293.875 17.199219 293.308594 C 17.339844 292.742188 17.484375 292.222656 17.71875 291.652344 C 19.566406 287.160156 23.867188 284.273438 28.742188 284.273438 C 28.789062 284.273438 28.789062 284.273438 28.835938 284.273438 C 29.496094 284.273438 30.207031 284.324219 30.867188 284.464844 C 31.199219 284.511719 31.53125 284.605469 31.863281 284.652344 C 32.003906 284.699219 32.144531 284.75 32.289062 284.75 C 32.429688 284.796875 32.617188 284.84375 32.714844 284.890625 C 33.894531 285.316406 34.984375 285.882812 35.976562 286.640625 C 36.6875 287.160156 37.394531 287.585938 38.152344 287.964844 C 38.671875 288.25 39.289062 288.4375 39.855469 288.53125 C 40.09375 288.578125 40.28125 288.578125 40.46875 288.578125 C 40.566406 288.578125 40.613281 288.578125 40.707031 288.578125 L 40.894531 288.625 C 41.085938 288.625 41.273438 288.675781 41.511719 288.675781 C 43.070312 288.722656 44.585938 288.34375 45.910156 287.632812 C 46.335938 287.398438 46.761719 287.113281 47.140625 286.828125 C 47.894531 286.214844 48.511719 285.503906 49.03125 284.699219 C 49.550781 283.898438 49.929688 283 50.117188 282.003906 C 50.214844 281.484375 50.308594 280.964844 50.308594 280.398438 L 50.308594 280.300781 C 50.308594 279.972656 50.355469 279.6875 50.449219 279.402344 C 50.734375 278.882812 51.300781 278.550781 51.917969 278.550781 C 52.34375 278.550781 52.769531 278.695312 53.050781 279.023438 C 53.335938 279.308594 53.523438 279.734375 53.523438 280.113281 C 53.523438 287.492188 49.21875 294.207031 42.691406 297.328125 Z M 28.742188 278.648438 C 34.179688 278.648438 38.578125 274.25 38.578125 268.808594 C 38.578125 263.371094 34.132812 258.972656 28.742188 258.972656 C 23.347656 258.972656 18.902344 263.371094 18.902344 268.808594 C 18.902344 274.25 23.300781 278.648438 28.742188 278.648438 Z M 28.742188 260.863281 C 33.140625 260.863281 36.6875 264.410156 36.6875 268.808594 C 36.6875 273.207031 33.140625 276.753906 28.742188 276.753906 C 24.339844 276.753906 20.792969 273.207031 20.792969 268.808594 C 20.792969 264.410156 24.339844 260.863281 28.742188 260.863281 Z M 99.167969 294.777344 C 99.074219 294.160156 98.976562 293.59375 98.882812 293.027344 L 98.882812 292.976562 C 98.742188 292.316406 98.503906 291.652344 98.269531 290.992188 C 96.140625 285.789062 91.125 282.429688 85.496094 282.429688 C 84.648438 282.429688 83.84375 282.476562 83.039062 282.621094 C 82.660156 282.667969 82.234375 282.761719 81.855469 282.855469 C 81.714844 282.902344 81.621094 282.902344 81.476562 282.949219 C 81.289062 283 81.097656 283.046875 80.910156 283.09375 C 79.585938 283.566406 78.308594 284.226562 77.171875 285.078125 C 76.558594 285.503906 75.894531 285.929688 75.234375 286.261719 C 74.855469 286.449219 74.429688 286.59375 74.003906 286.6875 C 73.910156 286.6875 73.769531 286.734375 73.625 286.734375 C 73.53125 286.734375 73.390625 286.734375 73.296875 286.78125 L 73.058594 286.828125 C 72.917969 286.828125 72.820312 286.875 72.679688 286.875 C 71.449219 286.875 70.269531 286.59375 69.226562 286.027344 C 68.894531 285.835938 68.566406 285.648438 68.28125 285.363281 C 67.714844 284.890625 67.195312 284.324219 66.816406 283.707031 C 66.4375 283.09375 66.152344 282.382812 65.964844 281.675781 C 65.871094 281.296875 65.820312 280.871094 65.820312 280.445312 C 65.820312 279.828125 65.726562 279.261719 65.492188 278.695312 L 65.445312 278.648438 C 64.828125 277.464844 63.597656 276.753906 62.320312 276.753906 C 62.320312 276.753906 62.273438 276.753906 62.273438 276.753906 C 60.382812 276.753906 58.820312 278.269531 58.773438 280.207031 C 58.820312 288.199219 63.503906 295.578125 70.695312 298.984375 C 71.261719 299.269531 71.640625 299.882812 71.640625 300.546875 L 71.640625 301.824219 C 71.640625 302.484375 71.640625 303.195312 71.6875 303.902344 C 71.78125 306.128906 73.34375 307.972656 75.519531 308.351562 C 78.070312 308.824219 80.625 309.058594 83.226562 309.203125 C 83.890625 309.203125 84.648438 309.25 85.449219 309.25 C 86.160156 309.25 86.917969 309.25 87.671875 309.203125 C 90.417969 309.105469 93.160156 308.777344 95.855469 308.300781 C 97.984375 307.878906 99.546875 306.03125 99.640625 303.808594 C 99.640625 303.476562 99.640625 303.195312 99.640625 302.863281 C 99.640625 302.53125 99.640625 302.203125 99.640625 301.871094 C 99.640625 299.503906 99.5 297.09375 99.167969 294.777344 Z M 97.75 302.816406 C 97.75 303.148438 97.75 303.476562 97.75 303.761719 C 97.699219 305.085938 96.753906 306.175781 95.476562 306.410156 C 92.875 306.882812 90.226562 307.167969 87.53125 307.308594 C 86.820312 307.355469 86.160156 307.355469 85.402344 307.355469 C 84.648438 307.355469 83.890625 307.355469 83.273438 307.308594 C 80.769531 307.214844 78.308594 306.929688 75.847656 306.503906 C 74.523438 306.269531 73.578125 305.179688 73.53125 303.808594 C 73.484375 303.148438 73.484375 302.53125 73.484375 301.824219 L 73.484375 300.59375 C 73.53125 299.222656 72.726562 297.945312 71.449219 297.328125 C 64.921875 294.160156 60.667969 287.492188 60.621094 280.253906 C 60.621094 279.355469 61.328125 278.695312 62.226562 278.695312 C 62.84375 278.695312 63.410156 279.023438 63.695312 279.546875 C 63.835938 279.828125 63.882812 280.160156 63.835938 280.445312 L 63.835938 280.539062 C 63.835938 281.058594 63.882812 281.625 64.023438 282.148438 C 64.214844 283.09375 64.59375 283.992188 65.113281 284.796875 C 65.632812 285.601562 66.246094 286.308594 67.003906 286.925781 C 67.382812 287.253906 67.808594 287.492188 68.234375 287.777344 C 69.605469 288.484375 71.121094 288.863281 72.632812 288.816406 C 72.820312 288.816406 73.011719 288.769531 73.246094 288.769531 L 73.4375 288.722656 C 73.53125 288.722656 73.578125 288.722656 73.671875 288.722656 C 73.863281 288.722656 74.050781 288.675781 74.289062 288.675781 C 74.902344 288.578125 75.472656 288.34375 75.992188 288.105469 C 76.746094 287.726562 77.457031 287.253906 78.167969 286.734375 C 79.160156 285.976562 80.246094 285.410156 81.382812 285.03125 C 81.523438 284.984375 81.714844 284.9375 81.855469 284.890625 C 81.996094 284.84375 82.140625 284.796875 82.234375 284.796875 C 82.566406 284.699219 82.898438 284.652344 83.226562 284.605469 C 83.9375 284.511719 84.648438 284.417969 85.355469 284.417969 C 90.226562 284.417969 94.53125 287.300781 96.375 291.796875 C 96.613281 292.316406 96.753906 292.882812 96.898438 293.449219 C 96.992188 294.019531 97.085938 294.585938 97.179688 295.152344 C 97.511719 297.425781 97.652344 299.695312 97.652344 301.964844 C 97.75 302.152344 97.75 302.484375 97.75 302.816406 Z M 85.449219 278.648438 C 90.890625 278.648438 95.289062 274.25 95.289062 268.808594 C 95.289062 263.371094 90.84375 258.972656 85.449219 258.972656 C 80.058594 258.972656 75.613281 263.371094 75.613281 268.808594 C 75.613281 274.25 80.011719 278.648438 85.449219 278.648438 Z M 85.449219 260.863281 C 89.847656 260.863281 93.398438 264.410156 93.398438 268.808594 C 93.398438 273.207031 89.847656 276.753906 85.449219 276.753906 C 81.050781 276.753906 77.503906 273.207031 77.503906 268.808594 C 77.503906 264.410156 81.050781 260.863281 85.449219 260.863281 Z M 85.449219 260.863281 " fill-opacity="1" fill-rule="nonzero"/></g><g fill="#ff00ff" fill-opacity="1"><g transform="translate(10.151031, 181.531377)"><g><path d="M 41.09375 0 L 16.921875 0 C 14.878906 0 13.398438 -0.453125 12.484375 -1.359375 C 11.578125 -2.273438 11.125 -3.753906 11.125 -5.796875 L 11.125 -110.21875 C 11.125 -112.257812 11.578125 -113.734375 12.484375 -114.640625 C 13.398438 -115.554688 14.878906 -116.015625 16.921875 -116.015625 L 33.671875 -116.015625 C 35.710938 -116.015625 37.457031 -115.691406 38.90625 -115.046875 C 40.363281 -114.410156 41.789062 -113.285156 43.1875 -111.671875 L 74.453125 -75.890625 L 74.453125 -110.21875 C 74.453125 -112.257812 74.90625 -113.734375 75.8125 -114.640625 C 76.726562 -115.554688 78.207031 -116.015625 80.25 -116.015625 L 104.421875 -116.015625 C 106.460938 -116.015625 107.9375 -115.554688 108.84375 -114.640625 C 109.757812 -113.734375 110.21875 -112.257812 110.21875 -110.21875 L 110.21875 -5.796875 C 110.21875 -3.753906 109.757812 -2.273438 108.84375 -1.359375 C 107.9375 -0.453125 106.460938 0 104.421875 0 L 80.25 0 C 78.207031 0 76.726562 -0.453125 75.8125 -1.359375 C 74.90625 -2.273438 74.453125 -3.753906 74.453125 -5.796875 L 74.453125 -25.625 L 46.890625 -58.984375 L 46.890625 -5.796875 C 46.890625 -3.753906 46.429688 -2.273438 45.515625 -1.359375 C 44.609375 -0.453125 43.132812 0 41.09375 0 Z M 41.09375 0 "/></g></g></g><g fill="#ff00ff" fill-opacity="1"><g transform="translate(131.48611, 181.531377)"><g><path d="M 109.890625 -30.453125 C 109.890625 -25.515625 109.164062 -21.03125 107.71875 -17 C 106.269531 -12.96875 103.691406 -9.53125 99.984375 -6.6875 C 96.273438 -3.84375 91.195312 -1.613281 84.75 0 C 78.3125 1.613281 70.097656 2.421875 60.109375 2.421875 C 50.117188 2.421875 41.898438 1.613281 35.453125 0 C 29.003906 -1.613281 23.925781 -3.84375 20.21875 -6.6875 C 16.507812 -9.53125 13.929688 -12.96875 12.484375 -17 C 11.035156 -21.03125 10.3125 -25.515625 10.3125 -30.453125 L 10.3125 -110.21875 C 10.3125 -112.257812 10.765625 -113.734375 11.671875 -114.640625 C 12.585938 -115.554688 14.066406 -116.015625 16.109375 -116.015625 L 41.40625 -116.015625 C 43.445312 -116.015625 44.925781 -115.554688 45.84375 -114.640625 C 46.757812 -113.734375 47.21875 -112.257812 47.21875 -110.21875 L 47.21875 -36.734375 C 47.21875 -34.585938 48.019531 -32.789062 49.625 -31.34375 C 51.238281 -29.894531 54.835938 -29.171875 60.421875 -29.171875 C 66.117188 -29.171875 69.769531 -29.894531 71.375 -31.34375 C 72.988281 -32.789062 73.796875 -34.585938 73.796875 -36.734375 L 73.796875 -110.21875 C 73.796875 -112.257812 74.253906 -113.734375 75.171875 -114.640625 C 76.085938 -115.554688 77.566406 -116.015625 79.609375 -116.015625 L 104.09375 -116.015625 C 106.132812 -116.015625 107.609375 -115.554688 108.515625 -114.640625 C 109.429688 -113.734375 109.890625 -112.257812 109.890625 -110.21875 Z M 109.890625 -30.453125 "/></g></g></g><g fill="#ff00ff" fill-opacity="1"><g transform="translate(251.693245, 181.531377)"><g><path d="M 64.9375 0 L 14.015625 0 C 11.972656 0 10.492188 -0.453125 9.578125 -1.359375 C 8.671875 -2.273438 8.21875 -3.753906 8.21875 -5.796875 L 8.21875 -24.65625 C 8.21875 -26.695312 8.671875 -28.171875 9.578125 -29.078125 C 10.492188 -29.992188 11.972656 -30.453125 14.015625 -30.453125 L 57.359375 -30.453125 C 58.753906 -30.453125 59.800781 -30.90625 60.5 -31.8125 C 61.207031 -32.726562 61.5625 -33.832031 61.5625 -35.125 C 61.5625 -36.957031 61.207031 -38.300781 60.5 -39.15625 C 59.800781 -40.019531 58.753906 -40.503906 57.359375 -40.609375 L 33.1875 -43.984375 C 25.675781 -45.066406 19.632812 -47.539062 15.0625 -51.40625 C 10.5 -55.269531 8.21875 -61.710938 8.21875 -70.734375 L 8.21875 -87.65625 C 8.21875 -96.789062 11.171875 -103.800781 17.078125 -108.6875 C 22.984375 -113.570312 31.148438 -116.015625 41.578125 -116.015625 L 86.6875 -116.015625 C 88.726562 -116.015625 90.207031 -115.554688 91.125 -114.640625 C 92.039062 -113.734375 92.5 -112.257812 92.5 -110.21875 L 92.5 -91.046875 C 92.5 -89.003906 92.039062 -87.523438 91.125 -86.609375 C 90.207031 -85.703125 88.726562 -85.25 86.6875 -85.25 L 49.140625 -85.25 C 47.742188 -85.25 46.671875 -84.789062 45.921875 -83.875 C 45.171875 -82.957031 44.796875 -81.800781 44.796875 -80.40625 C 44.796875 -79.007812 45.171875 -77.828125 45.921875 -76.859375 C 46.671875 -75.890625 47.742188 -75.351562 49.140625 -75.25 L 73.15625 -72.03125 C 80.675781 -70.957031 86.742188 -68.484375 91.359375 -64.609375 C 95.984375 -60.742188 98.296875 -54.300781 98.296875 -45.28125 L 98.296875 -28.359375 C 98.296875 -19.222656 95.3125 -12.210938 89.34375 -7.328125 C 83.382812 -2.441406 75.25 0 64.9375 0 Z M 64.9375 0 "/></g></g></g><g fill="#00ffff" fill-opacity="1"><g transform="translate(18.548148, 173.700936)"><g><path d="M 41.09375 0 L 16.921875 0 C 14.878906 0 13.398438 -0.453125 12.484375 -1.359375 C 11.578125 -2.273438 11.125 -3.753906 11.125 -5.796875 L 11.125 -110.21875 C 11.125 -112.257812 11.578125 -113.734375 12.484375 -114.640625 C 13.398438 -115.554688 14.878906 -116.015625 16.921875 -116.015625 L 33.671875 -116.015625 C 35.710938 -116.015625 37.457031 -115.691406 38.90625 -115.046875 C 40.363281 -114.410156 41.789062 -113.285156 43.1875 -111.671875 L 74.453125 -75.890625 L 74.453125 -110.21875 C 74.453125 -112.257812 74.90625 -113.734375 75.8125 -114.640625 C 76.726562 -115.554688 78.207031 -116.015625 80.25 -116.015625 L 104.421875 -116.015625 C 106.460938 -116.015625 107.9375 -115.554688 108.84375 -114.640625 C 109.757812 -113.734375 110.21875 -112.257812 110.21875 -110.21875 L 110.21875 -5.796875 C 110.21875 -3.753906 109.757812 -2.273438 108.84375 -1.359375 C 107.9375 -0.453125 106.460938 0 104.421875 0 L 80.25 0 C 78.207031 0 76.726562 -0.453125 75.8125 -1.359375 C 74.90625 -2.273438 74.453125 -3.753906 74.453125 -5.796875 L 74.453125 -25.625 L 46.890625 -58.984375 L 46.890625 -5.796875 C 46.890625 -3.753906 46.429688 -2.273438 45.515625 -1.359375 C 44.609375 -0.453125 43.132812 0 41.09375 0 Z M 41.09375 0 "/></g></g></g><g fill="#00ffff" fill-opacity="1"><g transform="translate(139.883227, 173.700936)"><g><path d="M 109.890625 -30.453125 C 109.890625 -25.515625 109.164062 -21.03125 107.71875 -17 C 106.269531 -12.96875 103.691406 -9.53125 99.984375 -6.6875 C 96.273438 -3.84375 91.195312 -1.613281 84.75 0 C 78.3125 1.613281 70.097656 2.421875 60.109375 2.421875 C 50.117188 2.421875 41.898438 1.613281 35.453125 0 C 29.003906 -1.613281 23.925781 -3.84375 20.21875 -6.6875 C 16.507812 -9.53125 13.929688 -12.96875 12.484375 -17 C 11.035156 -21.03125 10.3125 -25.515625 10.3125 -30.453125 L 10.3125 -110.21875 C 10.3125 -112.257812 10.765625 -113.734375 11.671875 -114.640625 C 12.585938 -115.554688 14.066406 -116.015625 16.109375 -116.015625 L 41.40625 -116.015625 C 43.445312 -116.015625 44.925781 -115.554688 45.84375 -114.640625 C 46.757812 -113.734375 47.21875 -112.257812 47.21875 -110.21875 L 47.21875 -36.734375 C 47.21875 -34.585938 48.019531 -32.789062 49.625 -31.34375 C 51.238281 -29.894531 54.835938 -29.171875 60.421875 -29.171875 C 66.117188 -29.171875 69.769531 -29.894531 71.375 -31.34375 C 72.988281 -32.789062 73.796875 -34.585938 73.796875 -36.734375 L 73.796875 -110.21875 C 73.796875 -112.257812 74.253906 -113.734375 75.171875 -114.640625 C 76.085938 -115.554688 77.566406 -116.015625 79.609375 -116.015625 L 104.09375 -116.015625 C 106.132812 -116.015625 107.609375 -115.554688 108.515625 -114.640625 C 109.429688 -113.734375 109.890625 -112.257812 109.890625 -110.21875 Z M 109.890625 -30.453125 "/></g></g></g><g fill="#00ffff" fill-opacity="1"><g transform="translate(260.090361, 173.700936)"><g><path d="M 64.9375 0 L 14.015625 0 C 11.972656 0 10.492188 -0.453125 9.578125 -1.359375 C 8.671875 -2.273438 8.21875 -3.753906 8.21875 -5.796875 L 8.21875 -24.65625 C 8.21875 -26.695312 8.671875 -28.171875 9.578125 -29.078125 C 10.492188 -29.992188 11.972656 -30.453125 14.015625 -30.453125 L 57.359375 -30.453125 C 58.753906 -30.453125 59.800781 -30.90625 60.5 -31.8125 C 61.207031 -32.726562 61.5625 -33.832031 61.5625 -35.125 C 61.5625 -36.957031 61.207031 -38.300781 60.5 -39.15625 C 59.800781 -40.019531 58.753906 -40.503906 57.359375 -40.609375 L 33.1875 -43.984375 C 25.675781 -45.066406 19.632812 -47.539062 15.0625 -51.40625 C 10.5 -55.269531 8.21875 -61.710938 8.21875 -70.734375 L 8.21875 -87.65625 C 8.21875 -96.789062 11.171875 -103.800781 17.078125 -108.6875 C 22.984375 -113.570312 31.148438 -116.015625 41.578125 -116.015625 L 86.6875 -116.015625 C 88.726562 -116.015625 90.207031 -115.554688 91.125 -114.640625 C 92.039062 -113.734375 92.5 -112.257812 92.5 -110.21875 L 92.5 -91.046875 C 92.5 -89.003906 92.039062 -87.523438 91.125 -86.609375 C 90.207031 -85.703125 88.726562 -85.25 86.6875 -85.25 L 49.140625 -85.25 C 47.742188 -85.25 46.671875 -84.789062 45.921875 -83.875 C 45.171875 -82.957031 44.796875 -81.800781 44.796875 -80.40625 C 44.796875 -79.007812 45.171875 -77.828125 45.921875 -76.859375 C 46.671875 -75.890625 47.742188 -75.351562 49.140625 -75.25 L 73.15625 -72.03125 C 80.675781 -70.957031 86.742188 -68.484375 91.359375 -64.609375 C 95.984375 -60.742188 98.296875 -54.300781 98.296875 -45.28125 L 98.296875 -28.359375 C 98.296875 -19.222656 95.3125 -12.210938 89.34375 -7.328125 C 83.382812 -2.441406 75.25 0 64.9375 0 Z M 64.9375 0 "/></g></g></g><g fill="#ffde59" fill-opacity="1"><g transform="translate(14.34959, 177.616157)"><g><path d="M 41.09375 0 L 16.921875 0 C 14.878906 0 13.398438 -0.453125 12.484375 -1.359375 C 11.578125 -2.273438 11.125 -3.753906 11.125 -5.796875 L 11.125 -110.21875 C 11.125 -112.257812 11.578125 -113.734375 12.484375 -114.640625 C 13.398438 -115.554688 14.878906 -116.015625 16.921875 -116.015625 L 33.671875 -116.015625 C 35.710938 -116.015625 37.457031 -115.691406 38.90625 -115.046875 C 40.363281 -114.410156 41.789062 -113.285156 43.1875 -111.671875 L 74.453125 -75.890625 L 74.453125 -110.21875 C 74.453125 -112.257812 74.90625 -113.734375 75.8125 -114.640625 C 76.726562 -115.554688 78.207031 -116.015625 80.25 -116.015625 L 104.421875 -116.015625 C 106.460938 -116.015625 107.9375 -115.554688 108.84375 -114.640625 C 109.757812 -113.734375 110.21875 -112.257812 110.21875 -110.21875 L 110.21875 -5.796875 C 110.21875 -3.753906 109.757812 -2.273438 108.84375 -1.359375 C 107.9375 -0.453125 106.460938 0 104.421875 0 L 80.25 0 C 78.207031 0 76.726562 -0.453125 75.8125 -1.359375 C 74.90625 -2.273438 74.453125 -3.753906 74.453125 -5.796875 L 74.453125 -25.625 L 46.890625 -58.984375 L 46.890625 -5.796875 C 46.890625 -3.753906 46.429688 -2.273438 45.515625 -1.359375 C 44.609375 -0.453125 43.132812 0 41.09375 0 Z M 41.09375 0 "/></g></g></g><g fill="#ffde59" fill-opacity="1"><g transform="translate(135.684669, 177.616157)"><g><path d="M 109.890625 -30.453125 C 109.890625 -25.515625 109.164062 -21.03125 107.71875 -17 C 106.269531 -12.96875 103.691406 -9.53125 99.984375 -6.6875 C 96.273438 -3.84375 91.195312 -1.613281 84.75 0 C 78.3125 1.613281 70.097656 2.421875 60.109375 2.421875 C 50.117188 2.421875 41.898438 1.613281 35.453125 0 C 29.003906 -1.613281 23.925781 -3.84375 20.21875 -6.6875 C 16.507812 -9.53125 13.929688 -12.96875 12.484375 -17 C 11.035156 -21.03125 10.3125 -25.515625 10.3125 -30.453125 L 10.3125 -110.21875 C 10.3125 -112.257812 10.765625 -113.734375 11.671875 -114.640625 C 12.585938 -115.554688 14.066406 -116.015625 16.109375 -116.015625 L 41.40625 -116.015625 C 43.445312 -116.015625 44.925781 -115.554688 45.84375 -114.640625 C 46.757812 -113.734375 47.21875 -112.257812 47.21875 -110.21875 L 47.21875 -36.734375 C 47.21875 -34.585938 48.019531 -32.789062 49.625 -31.34375 C 51.238281 -29.894531 54.835938 -29.171875 60.421875 -29.171875 C 66.117188 -29.171875 69.769531 -29.894531 71.375 -31.34375 C 72.988281 -32.789062 73.796875 -34.585938 73.796875 -36.734375 L 73.796875 -110.21875 C 73.796875 -112.257812 74.253906 -113.734375 75.171875 -114.640625 C 76.085938 -115.554688 77.566406 -116.015625 79.609375 -116.015625 L 104.09375 -116.015625 C 106.132812 -116.015625 107.609375 -115.554688 108.515625 -114.640625 C 109.429688 -113.734375 109.890625 -112.257812 109.890625 -110.21875 Z M 109.890625 -30.453125 "/></g></g></g><g fill="#ffde59" fill-opacity="1"><g transform="translate(255.891803, 177.616157)"><g><path d="M 64.9375 0 L 14.015625 0 C 11.972656 0 10.492188 -0.453125 9.578125 -1.359375 C 8.671875 -2.273438 8.21875 -3.753906 8.21875 -5.796875 L 8.21875 -24.65625 C 8.21875 -26.695312 8.671875 -28.171875 9.578125 -29.078125 C 10.492188 -29.992188 11.972656 -30.453125 14.015625 -30.453125 L 57.359375 -30.453125 C 58.753906 -30.453125 59.800781 -30.90625 60.5 -31.8125 C 61.207031 -32.726562 61.5625 -33.832031 61.5625 -35.125 C 61.5625 -36.957031 61.207031 -38.300781 60.5 -39.15625 C 59.800781 -40.019531 58.753906 -40.503906 57.359375 -40.609375 L 33.1875 -43.984375 C 25.675781 -45.066406 19.632812 -47.539062 15.0625 -51.40625 C 10.5 -55.269531 8.21875 -61.710938 8.21875 -70.734375 L 8.21875 -87.65625 C 8.21875 -96.789062 11.171875 -103.800781 17.078125 -108.6875 C 22.984375 -113.570312 31.148438 -116.015625 41.578125 -116.015625 L 86.6875 -116.015625 C 88.726562 -116.015625 90.207031 -115.554688 91.125 -114.640625 C 92.039062 -113.734375 92.5 -112.257812 92.5 -110.21875 L 92.5 -91.046875 C 92.5 -89.003906 92.039062 -87.523438 91.125 -86.609375 C 90.207031 -85.703125 88.726562 -85.25 86.6875 -85.25 L 49.140625 -85.25 C 47.742188 -85.25 46.671875 -84.789062 45.921875 -83.875 C 45.171875 -82.957031 44.796875 -81.800781 44.796875 -80.40625 C 44.796875 -79.007812 45.171875 -77.828125 45.921875 -76.859375 C 46.671875 -75.890625 47.742188 -75.351562 49.140625 -75.25 L 73.15625 -72.03125 C 80.675781 -70.957031 86.742188 -68.484375 91.359375 -64.609375 C 95.984375 -60.742188 98.296875 -54.300781 98.296875 -45.28125 L 98.296875 -28.359375 C 98.296875 -19.222656 95.3125 -12.210938 89.34375 -7.328125 C 83.382812 -2.441406 75.25 0 64.9375 0 Z M 64.9375 0 "/></g></g></g><g fill="#ff00ff" fill-opacity="1"><g transform="translate(12.430608, 243.379842)"><g><path d="M 39.46875 0 L 21.890625 0 C 15.890625 0 11.4375 -1.195312 8.53125 -3.59375 C 5.625 -6 4.171875 -9.695312 4.171875 -14.6875 L 4.171875 -37.09375 C 4.171875 -42.09375 5.625 -45.800781 8.53125 -48.21875 C 11.4375 -50.644531 15.890625 -51.859375 21.890625 -51.859375 L 39.46875 -51.859375 C 40.382812 -51.859375 41.046875 -51.65625 41.453125 -51.25 C 41.859375 -50.84375 42.0625 -50.179688 42.0625 -49.265625 L 42.0625 -40.546875 C 42.0625 -39.640625 41.859375 -38.976562 41.453125 -38.5625 C 41.046875 -38.15625 40.382812 -37.953125 39.46875 -37.953125 L 25 -37.953125 C 23.507812 -37.953125 22.398438 -37.648438 21.671875 -37.046875 C 20.953125 -36.453125 20.59375 -35.554688 20.59375 -34.359375 L 20.59375 -17.21875 C 20.59375 -16.019531 20.953125 -15.144531 21.671875 -14.59375 C 22.398438 -14.039062 23.507812 -13.765625 25 -13.765625 L 39.46875 -13.765625 C 40.382812 -13.765625 41.046875 -13.554688 41.453125 -13.140625 C 41.859375 -12.734375 42.0625 -12.078125 42.0625 -11.171875 L 42.0625 -2.59375 C 42.0625 -1.675781 41.859375 -1.015625 41.453125 -0.609375 C 41.046875 -0.203125 40.382812 0 39.46875 0 Z M 39.46875 0 "/></g></g></g><g fill="#ff00ff" fill-opacity="1"><g transform="translate(57.663499, 243.379842)"><g><path d="M 48.90625 -13.609375 C 48.90625 -11.398438 48.582031 -9.394531 47.9375 -7.59375 C 47.289062 -5.789062 46.140625 -4.253906 44.484375 -2.984375 C 42.828125 -1.710938 40.546875 -0.71875 37.640625 0 C 34.734375 0.71875 31.046875 1.078125 26.578125 1.078125 C 22.109375 1.078125 18.410156 0.71875 15.484375 0 C 12.554688 -0.71875 10.265625 -1.710938 8.609375 -2.984375 C 6.953125 -4.253906 5.796875 -5.789062 5.140625 -7.59375 C 4.492188 -9.394531 4.171875 -11.398438 4.171875 -13.609375 L 4.171875 -38.171875 C 4.171875 -40.378906 4.492188 -42.382812 5.140625 -44.1875 C 5.796875 -45.988281 6.953125 -47.535156 8.609375 -48.828125 C 10.265625 -50.128906 12.554688 -51.140625 15.484375 -51.859375 C 18.410156 -52.578125 22.109375 -52.9375 26.578125 -52.9375 C 31.046875 -52.9375 34.734375 -52.578125 37.640625 -51.859375 C 40.546875 -51.140625 42.828125 -50.128906 44.484375 -48.828125 C 46.140625 -47.535156 47.289062 -45.988281 47.9375 -44.1875 C 48.582031 -42.382812 48.90625 -40.378906 48.90625 -38.171875 Z M 20.53125 -16.203125 C 20.53125 -15.242188 20.890625 -14.441406 21.609375 -13.796875 C 22.328125 -13.148438 23.984375 -12.828125 26.578125 -12.828125 C 29.171875 -12.828125 30.828125 -13.148438 31.546875 -13.796875 C 32.265625 -14.441406 32.625 -15.242188 32.625 -16.203125 L 32.625 -35.578125 C 32.625 -36.492188 32.265625 -37.273438 31.546875 -37.921875 C 30.828125 -38.566406 29.171875 -38.890625 26.578125 -38.890625 C 23.984375 -38.890625 22.328125 -38.566406 21.609375 -37.921875 C 20.890625 -37.273438 20.53125 -36.492188 20.53125 -35.578125 Z M 20.53125 -16.203125 "/></g></g></g><g fill="#ff00ff" fill-opacity="1"><g transform="translate(110.747329, 243.379842)"><g><path d="M 18.375 0 L 7.5625 0 C 6.644531 0 5.984375 -0.203125 5.578125 -0.609375 C 5.171875 -1.015625 4.96875 -1.675781 4.96875 -2.59375 L 4.96875 -49.265625 C 4.96875 -50.179688 5.171875 -50.84375 5.578125 -51.25 C 5.984375 -51.65625 6.644531 -51.859375 7.5625 -51.859375 L 15.046875 -51.859375 C 15.960938 -51.859375 16.742188 -51.710938 17.390625 -51.421875 C 18.046875 -51.140625 18.679688 -50.640625 19.296875 -49.921875 L 33.28125 -33.921875 L 33.28125 -49.265625 C 33.28125 -50.179688 33.484375 -50.84375 33.890625 -51.25 C 34.296875 -51.65625 34.957031 -51.859375 35.875 -51.859375 L 46.671875 -51.859375 C 47.585938 -51.859375 48.25 -51.65625 48.65625 -51.25 C 49.0625 -50.84375 49.265625 -50.179688 49.265625 -49.265625 L 49.265625 -2.59375 C 49.265625 -1.675781 49.0625 -1.015625 48.65625 -0.609375 C 48.25 -0.203125 47.585938 0 46.671875 0 L 35.875 0 C 34.957031 0 34.296875 -0.203125 33.890625 -0.609375 C 33.484375 -1.015625 33.28125 -1.675781 33.28125 -2.59375 L 33.28125 -11.453125 L 20.96875 -26.359375 L 20.96875 -2.59375 C 20.96875 -1.675781 20.757812 -1.015625 20.34375 -0.609375 C 19.9375 -0.203125 19.28125 0 18.375 0 Z M 18.375 0 "/></g></g></g><g fill="#ff00ff" fill-opacity="1"><g transform="translate(164.983583, 243.379842)"><g><path d="M 18.375 0 L 7.5625 0 C 6.644531 0 5.984375 -0.203125 5.578125 -0.609375 C 5.171875 -1.015625 4.96875 -1.675781 4.96875 -2.59375 L 4.96875 -49.265625 C 4.96875 -50.179688 5.171875 -50.84375 5.578125 -51.25 C 5.984375 -51.65625 6.644531 -51.859375 7.5625 -51.859375 L 15.046875 -51.859375 C 15.960938 -51.859375 16.742188 -51.710938 17.390625 -51.421875 C 18.046875 -51.140625 18.679688 -50.640625 19.296875 -49.921875 L 33.28125 -33.921875 L 33.28125 -49.265625 C 33.28125 -50.179688 33.484375 -50.84375 33.890625 -51.25 C 34.296875 -51.65625 34.957031 -51.859375 35.875 -51.859375 L 46.671875 -51.859375 C 47.585938 -51.859375 48.25 -51.65625 48.65625 -51.25 C 49.0625 -50.84375 49.265625 -50.179688 49.265625 -49.265625 L 49.265625 -2.59375 C 49.265625 -1.675781 49.0625 -1.015625 48.65625 -0.609375 C 48.25 -0.203125 47.585938 0 46.671875 0 L 35.875 0 C 34.957031 0 34.296875 -0.203125 33.890625 -0.609375 C 33.484375 -1.015625 33.28125 -1.675781 33.28125 -2.59375 L 33.28125 -11.453125 L 20.96875 -26.359375 L 20.96875 -2.59375 C 20.96875 -1.675781 20.757812 -1.015625 20.34375 -0.609375 C 19.9375 -0.203125 19.28125 0 18.375 0 Z M 18.375 0 "/></g></g></g><g fill="#ff00ff" fill-opacity="1"><g transform="translate(219.219836, 243.379842)"><g><path d="M 40.984375 0 L 7.5625 0 C 6.644531 0 5.984375 -0.203125 5.578125 -0.609375 C 5.171875 -1.015625 4.96875 -1.675781 4.96875 -2.59375 L 4.96875 -49.265625 C 4.96875 -50.179688 5.171875 -50.84375 5.578125 -51.25 C 5.984375 -51.65625 6.644531 -51.859375 7.5625 -51.859375 L 40.984375 -51.859375 C 41.898438 -51.859375 42.5625 -51.65625 42.96875 -51.25 C 43.375 -50.84375 43.578125 -50.179688 43.578125 -49.265625 L 43.578125 -40.84375 C 43.578125 -39.925781 43.375 -39.265625 42.96875 -38.859375 C 42.5625 -38.453125 41.898438 -38.25 40.984375 -38.25 L 21.109375 -38.25 L 21.109375 -32.703125 L 35.15625 -32.703125 C 36.0625 -32.703125 36.71875 -32.5 37.125 -32.09375 C 37.539062 -31.6875 37.75 -31.023438 37.75 -30.109375 L 37.75 -22.40625 C 37.75 -21.488281 37.539062 -20.828125 37.125 -20.421875 C 36.71875 -20.015625 36.0625 -19.8125 35.15625 -19.8125 L 21.109375 -19.8125 L 21.109375 -13.609375 L 40.984375 -13.609375 C 41.898438 -13.609375 42.5625 -13.40625 42.96875 -13 C 43.375 -12.59375 43.578125 -11.929688 43.578125 -11.015625 L 43.578125 -2.59375 C 43.578125 -1.675781 43.375 -1.015625 42.96875 -0.609375 C 42.5625 -0.203125 41.898438 0 40.984375 0 Z M 40.984375 0 "/></g></g></g><g fill="#ff00ff" fill-opacity="1"><g transform="translate(266.325424, 243.379842)"><g><path d="M 39.46875 0 L 21.890625 0 C 15.890625 0 11.4375 -1.195312 8.53125 -3.59375 C 5.625 -6 4.171875 -9.695312 4.171875 -14.6875 L 4.171875 -37.09375 C 4.171875 -42.09375 5.625 -45.800781 8.53125 -48.21875 C 11.4375 -50.644531 15.890625 -51.859375 21.890625 -51.859375 L 39.46875 -51.859375 C 40.382812 -51.859375 41.046875 -51.65625 41.453125 -51.25 C 41.859375 -50.84375 42.0625 -50.179688 42.0625 -49.265625 L 42.0625 -40.546875 C 42.0625 -39.640625 41.859375 -38.976562 41.453125 -38.5625 C 41.046875 -38.15625 40.382812 -37.953125 39.46875 -37.953125 L 25 -37.953125 C 23.507812 -37.953125 22.398438 -37.648438 21.671875 -37.046875 C 20.953125 -36.453125 20.59375 -35.554688 20.59375 -34.359375 L 20.59375 -17.21875 C 20.59375 -16.019531 20.953125 -15.144531 21.671875 -14.59375 C 22.398438 -14.039062 23.507812 -13.765625 25 -13.765625 L 39.46875 -13.765625 C 40.382812 -13.765625 41.046875 -13.554688 41.453125 -13.140625 C 41.859375 -12.734375 42.0625 -12.078125 42.0625 -11.171875 L 42.0625 -2.59375 C 42.0625 -1.675781 41.859375 -1.015625 41.453125 -0.609375 C 41.046875 -0.203125 40.382812 0 39.46875 0 Z M 39.46875 0 "/></g></g></g><g fill="#ff00ff" fill-opacity="1"><g transform="translate(311.558332, 243.379842)"><g><path d="M 29.453125 0 L 17.796875 0 C 16.878906 0 16.21875 -0.203125 15.8125 -0.609375 C 15.40625 -1.015625 15.203125 -1.675781 15.203125 -2.59375 L 15.203125 -37.953125 L 4.609375 -37.953125 C 3.691406 -37.953125 3.03125 -38.15625 2.625 -38.5625 C 2.21875 -38.976562 2.015625 -39.640625 2.015625 -40.546875 L 2.015625 -49.265625 C 2.015625 -50.179688 2.21875 -50.84375 2.625 -51.25 C 3.03125 -51.65625 3.691406 -51.859375 4.609375 -51.859375 L 42.640625 -51.859375 C 43.554688 -51.859375 44.21875 -51.65625 44.625 -51.25 C 45.03125 -50.84375 45.234375 -50.179688 45.234375 -49.265625 L 45.234375 -40.546875 C 45.234375 -39.640625 45.03125 -38.976562 44.625 -38.5625 C 44.21875 -38.15625 43.554688 -37.953125 42.640625 -37.953125 L 32.046875 -37.953125 L 32.046875 -2.59375 C 32.046875 -1.675781 31.84375 -1.015625 31.4375 -0.609375 C 31.03125 -0.203125 30.367188 0 29.453125 0 Z M 29.453125 0 "/></g></g></g><g fill="#00ffff" fill-opacity="1"><g transform="translate(16.184417, 239.879363)"><g><path d="M 39.46875 0 L 21.890625 0 C 15.890625 0 11.4375 -1.195312 8.53125 -3.59375 C 5.625 -6 4.171875 -9.695312 4.171875 -14.6875 L 4.171875 -37.09375 C 4.171875 -42.09375 5.625 -45.800781 8.53125 -48.21875 C 11.4375 -50.644531 15.890625 -51.859375 21.890625 -51.859375 L 39.46875 -51.859375 C 40.382812 -51.859375 41.046875 -51.65625 41.453125 -51.25 C 41.859375 -50.84375 42.0625 -50.179688 42.0625 -49.265625 L 42.0625 -40.546875 C 42.0625 -39.640625 41.859375 -38.976562 41.453125 -38.5625 C 41.046875 -38.15625 40.382812 -37.953125 39.46875 -37.953125 L 25 -37.953125 C 23.507812 -37.953125 22.398438 -37.648438 21.671875 -37.046875 C 20.953125 -36.453125 20.59375 -35.554688 20.59375 -34.359375 L 20.59375 -17.21875 C 20.59375 -16.019531 20.953125 -15.144531 21.671875 -14.59375 C 22.398438 -14.039062 23.507812 -13.765625 25 -13.765625 L 39.46875 -13.765625 C 40.382812 -13.765625 41.046875 -13.554688 41.453125 -13.140625 C 41.859375 -12.734375 42.0625 -12.078125 42.0625 -11.171875 L 42.0625 -2.59375 C 42.0625 -1.675781 41.859375 -1.015625 41.453125 -0.609375 C 41.046875 -0.203125 40.382812 0 39.46875 0 Z M 39.46875 0 "/></g></g></g><g fill="#00ffff" fill-opacity="1"><g transform="translate(61.417307, 239.879363)"><g><path d="M 48.90625 -13.609375 C 48.90625 -11.398438 48.582031 -9.394531 47.9375 -7.59375 C 47.289062 -5.789062 46.140625 -4.253906 44.484375 -2.984375 C 42.828125 -1.710938 40.546875 -0.71875 37.640625 0 C 34.734375 0.71875 31.046875 1.078125 26.578125 1.078125 C 22.109375 1.078125 18.410156 0.71875 15.484375 0 C 12.554688 -0.71875 10.265625 -1.710938 8.609375 -2.984375 C 6.953125 -4.253906 5.796875 -5.789062 5.140625 -7.59375 C 4.492188 -9.394531 4.171875 -11.398438 4.171875 -13.609375 L 4.171875 -38.171875 C 4.171875 -40.378906 4.492188 -42.382812 5.140625 -44.1875 C 5.796875 -45.988281 6.953125 -47.535156 8.609375 -48.828125 C 10.265625 -50.128906 12.554688 -51.140625 15.484375 -51.859375 C 18.410156 -52.578125 22.109375 -52.9375 26.578125 -52.9375 C 31.046875 -52.9375 34.734375 -52.578125 37.640625 -51.859375 C 40.546875 -51.140625 42.828125 -50.128906 44.484375 -48.828125 C 46.140625 -47.535156 47.289062 -45.988281 47.9375 -44.1875 C 48.582031 -42.382812 48.90625 -40.378906 48.90625 -38.171875 Z M 20.53125 -16.203125 C 20.53125 -15.242188 20.890625 -14.441406 21.609375 -13.796875 C 22.328125 -13.148438 23.984375 -12.828125 26.578125 -12.828125 C 29.171875 -12.828125 30.828125 -13.148438 31.546875 -13.796875 C 32.265625 -14.441406 32.625 -15.242188 32.625 -16.203125 L 32.625 -35.578125 C 32.625 -36.492188 32.265625 -37.273438 31.546875 -37.921875 C 30.828125 -38.566406 29.171875 -38.890625 26.578125 -38.890625 C 23.984375 -38.890625 22.328125 -38.566406 21.609375 -37.921875 C 20.890625 -37.273438 20.53125 -36.492188 20.53125 -35.578125 Z M 20.53125 -16.203125 "/></g></g></g><g fill="#00ffff" fill-opacity="1"><g transform="translate(114.501138, 239.879363)"><g><path d="M 18.375 0 L 7.5625 0 C 6.644531 0 5.984375 -0.203125 5.578125 -0.609375 C 5.171875 -1.015625 4.96875 -1.675781 4.96875 -2.59375 L 4.96875 -49.265625 C 4.96875 -50.179688 5.171875 -50.84375 5.578125 -51.25 C 5.984375 -51.65625 6.644531 -51.859375 7.5625 -51.859375 L 15.046875 -51.859375 C 15.960938 -51.859375 16.742188 -51.710938 17.390625 -51.421875 C 18.046875 -51.140625 18.679688 -50.640625 19.296875 -49.921875 L 33.28125 -33.921875 L 33.28125 -49.265625 C 33.28125 -50.179688 33.484375 -50.84375 33.890625 -51.25 C 34.296875 -51.65625 34.957031 -51.859375 35.875 -51.859375 L 46.671875 -51.859375 C 47.585938 -51.859375 48.25 -51.65625 48.65625 -51.25 C 49.0625 -50.84375 49.265625 -50.179688 49.265625 -49.265625 L 49.265625 -2.59375 C 49.265625 -1.675781 49.0625 -1.015625 48.65625 -0.609375 C 48.25 -0.203125 47.585938 0 46.671875 0 L 35.875 0 C 34.957031 0 34.296875 -0.203125 33.890625 -0.609375 C 33.484375 -1.015625 33.28125 -1.675781 33.28125 -2.59375 L 33.28125 -11.453125 L 20.96875 -26.359375 L 20.96875 -2.59375 C 20.96875 -1.675781 20.757812 -1.015625 20.34375 -0.609375 C 19.9375 -0.203125 19.28125 0 18.375 0 Z M 18.375 0 "/></g></g></g><g fill="#00ffff" fill-opacity="1"><g transform="translate(168.737391, 239.879363)"><g><path d="M 18.375 0 L 7.5625 0 C 6.644531 0 5.984375 -0.203125 5.578125 -0.609375 C 5.171875 -1.015625 4.96875 -1.675781 4.96875 -2.59375 L 4.96875 -49.265625 C 4.96875 -50.179688 5.171875 -50.84375 5.578125 -51.25 C 5.984375 -51.65625 6.644531 -51.859375 7.5625 -51.859375 L 15.046875 -51.859375 C 15.960938 -51.859375 16.742188 -51.710938 17.390625 -51.421875 C 18.046875 -51.140625 18.679688 -50.640625 19.296875 -49.921875 L 33.28125 -33.921875 L 33.28125 -49.265625 C 33.28125 -50.179688 33.484375 -50.84375 33.890625 -51.25 C 34.296875 -51.65625 34.957031 -51.859375 35.875 -51.859375 L 46.671875 -51.859375 C 47.585938 -51.859375 48.25 -51.65625 48.65625 -51.25 C 49.0625 -50.84375 49.265625 -50.179688 49.265625 -49.265625 L 49.265625 -2.59375 C 49.265625 -1.675781 49.0625 -1.015625 48.65625 -0.609375 C 48.25 -0.203125 47.585938 0 46.671875 0 L 35.875 0 C 34.957031 0 34.296875 -0.203125 33.890625 -0.609375 C 33.484375 -1.015625 33.28125 -1.675781 33.28125 -2.59375 L 33.28125 -11.453125 L 20.96875 -26.359375 L 20.96875 -2.59375 C 20.96875 -1.675781 20.757812 -1.015625 20.34375 -0.609375 C 19.9375 -0.203125 19.28125 0 18.375 0 Z M 18.375 0 "/></g></g></g><g fill="#00ffff" fill-opacity="1"><g transform="translate(222.973644, 239.879363)"><g><path d="M 40.984375 0 L 7.5625 0 C 6.644531 0 5.984375 -0.203125 5.578125 -0.609375 C 5.171875 -1.015625 4.96875 -1.675781 4.96875 -2.59375 L 4.96875 -49.265625 C 4.96875 -50.179688 5.171875 -50.84375 5.578125 -51.25 C 5.984375 -51.65625 6.644531 -51.859375 7.5625 -51.859375 L 40.984375 -51.859375 C 41.898438 -51.859375 42.5625 -51.65625 42.96875 -51.25 C 43.375 -50.84375 43.578125 -50.179688 43.578125 -49.265625 L 43.578125 -40.84375 C 43.578125 -39.925781 43.375 -39.265625 42.96875 -38.859375 C 42.5625 -38.453125 41.898438 -38.25 40.984375 -38.25 L 21.109375 -38.25 L 21.109375 -32.703125 L 35.15625 -32.703125 C 36.0625 -32.703125 36.71875 -32.5 37.125 -32.09375 C 37.539062 -31.6875 37.75 -31.023438 37.75 -30.109375 L 37.75 -22.40625 C 37.75 -21.488281 37.539062 -20.828125 37.125 -20.421875 C 36.71875 -20.015625 36.0625 -19.8125 35.15625 -19.8125 L 21.109375 -19.8125 L 21.109375 -13.609375 L 40.984375 -13.609375 C 41.898438 -13.609375 42.5625 -13.40625 42.96875 -13 C 43.375 -12.59375 43.578125 -11.929688 43.578125 -11.015625 L 43.578125 -2.59375 C 43.578125 -1.675781 43.375 -1.015625 42.96875 -0.609375 C 42.5625 -0.203125 41.898438 0 40.984375 0 Z M 40.984375 0 "/></g></g></g><g fill="#00ffff" fill-opacity="1"><g transform="translate(270.079233, 239.879363)"><g><path d="M 39.46875 0 L 21.890625 0 C 15.890625 0 11.4375 -1.195312 8.53125 -3.59375 C 5.625 -6 4.171875 -9.695312 4.171875 -14.6875 L 4.171875 -37.09375 C 4.171875 -42.09375 5.625 -45.800781 8.53125 -48.21875 C 11.4375 -50.644531 15.890625 -51.859375 21.890625 -51.859375 L 39.46875 -51.859375 C 40.382812 -51.859375 41.046875 -51.65625 41.453125 -51.25 C 41.859375 -50.84375 42.0625 -50.179688 42.0625 -49.265625 L 42.0625 -40.546875 C 42.0625 -39.640625 41.859375 -38.976562 41.453125 -38.5625 C 41.046875 -38.15625 40.382812 -37.953125 39.46875 -37.953125 L 25 -37.953125 C 23.507812 -37.953125 22.398438 -37.648438 21.671875 -37.046875 C 20.953125 -36.453125 20.59375 -35.554688 20.59375 -34.359375 L 20.59375 -17.21875 C 20.59375 -16.019531 20.953125 -15.144531 21.671875 -14.59375 C 22.398438 -14.039062 23.507812 -13.765625 25 -13.765625 L 39.46875 -13.765625 C 40.382812 -13.765625 41.046875 -13.554688 41.453125 -13.140625 C 41.859375 -12.734375 42.0625 -12.078125 42.0625 -11.171875 L 42.0625 -2.59375 C 42.0625 -1.675781 41.859375 -1.015625 41.453125 -0.609375 C 41.046875 -0.203125 40.382812 0 39.46875 0 Z M 39.46875 0 "/></g></g></g><g fill="#00ffff" fill-opacity="1"><g transform="translate(315.312141, 239.879363)"><g><path d="M 29.453125 0 L 17.796875 0 C 16.878906 0 16.21875 -0.203125 15.8125 -0.609375 C 15.40625 -1.015625 15.203125 -1.675781 15.203125 -2.59375 L 15.203125 -37.953125 L 4.609375 -37.953125 C 3.691406 -37.953125 3.03125 -38.15625 2.625 -38.5625 C 2.21875 -38.976562 2.015625 -39.640625 2.015625 -40.546875 L 2.015625 -49.265625 C 2.015625 -50.179688 2.21875 -50.84375 2.625 -51.25 C 3.03125 -51.65625 3.691406 -51.859375 4.609375 -51.859375 L 42.640625 -51.859375 C 43.554688 -51.859375 44.21875 -51.65625 44.625 -51.25 C 45.03125 -50.84375 45.234375 -50.179688 45.234375 -49.265625 L 45.234375 -40.546875 C 45.234375 -39.640625 45.03125 -38.976562 44.625 -38.5625 C 44.21875 -38.15625 43.554688 -37.953125 42.640625 -37.953125 L 32.046875 -37.953125 L 32.046875 -2.59375 C 32.046875 -1.675781 31.84375 -1.015625 31.4375 -0.609375 C 31.03125 -0.203125 30.367188 0 29.453125 0 Z M 29.453125 0 "/></g></g></g><g fill="#9eff85" fill-opacity="1"><g transform="translate(14.307511, 241.629604)"><g><path d="M 39.46875 0 L 21.890625 0 C 15.890625 0 11.4375 -1.195312 8.53125 -3.59375 C 5.625 -6 4.171875 -9.695312 4.171875 -14.6875 L 4.171875 -37.09375 C 4.171875 -42.09375 5.625 -45.800781 8.53125 -48.21875 C 11.4375 -50.644531 15.890625 -51.859375 21.890625 -51.859375 L 39.46875 -51.859375 C 40.382812 -51.859375 41.046875 -51.65625 41.453125 -51.25 C 41.859375 -50.84375 42.0625 -50.179688 42.0625 -49.265625 L 42.0625 -40.546875 C 42.0625 -39.640625 41.859375 -38.976562 41.453125 -38.5625 C 41.046875 -38.15625 40.382812 -37.953125 39.46875 -37.953125 L 25 -37.953125 C 23.507812 -37.953125 22.398438 -37.648438 21.671875 -37.046875 C 20.953125 -36.453125 20.59375 -35.554688 20.59375 -34.359375 L 20.59375 -17.21875 C 20.59375 -16.019531 20.953125 -15.144531 21.671875 -14.59375 C 22.398438 -14.039062 23.507812 -13.765625 25 -13.765625 L 39.46875 -13.765625 C 40.382812 -13.765625 41.046875 -13.554688 41.453125 -13.140625 C 41.859375 -12.734375 42.0625 -12.078125 42.0625 -11.171875 L 42.0625 -2.59375 C 42.0625 -1.675781 41.859375 -1.015625 41.453125 -0.609375 C 41.046875 -0.203125 40.382812 0 39.46875 0 Z M 39.46875 0 "/></g></g></g><g fill="#9eff85" fill-opacity="1"><g transform="translate(59.540402, 241.629604)"><g><path d="M 48.90625 -13.609375 C 48.90625 -11.398438 48.582031 -9.394531 47.9375 -7.59375 C 47.289062 -5.789062 46.140625 -4.253906 44.484375 -2.984375 C 42.828125 -1.710938 40.546875 -0.71875 37.640625 0 C 34.734375 0.71875 31.046875 1.078125 26.578125 1.078125 C 22.109375 1.078125 18.410156 0.71875 15.484375 0 C 12.554688 -0.71875 10.265625 -1.710938 8.609375 -2.984375 C 6.953125 -4.253906 5.796875 -5.789062 5.140625 -7.59375 C 4.492188 -9.394531 4.171875 -11.398438 4.171875 -13.609375 L 4.171875 -38.171875 C 4.171875 -40.378906 4.492188 -42.382812 5.140625 -44.1875 C 5.796875 -45.988281 6.953125 -47.535156 8.609375 -48.828125 C 10.265625 -50.128906 12.554688 -51.140625 15.484375 -51.859375 C 18.410156 -52.578125 22.109375 -52.9375 26.578125 -52.9375 C 31.046875 -52.9375 34.734375 -52.578125 37.640625 -51.859375 C 40.546875 -51.140625 42.828125 -50.128906 44.484375 -48.828125 C 46.140625 -47.535156 47.289062 -45.988281 47.9375 -44.1875 C 48.582031 -42.382812 48.90625 -40.378906 48.90625 -38.171875 Z M 20.53125 -16.203125 C 20.53125 -15.242188 20.890625 -14.441406 21.609375 -13.796875 C 22.328125 -13.148438 23.984375 -12.828125 26.578125 -12.828125 C 29.171875 -12.828125 30.828125 -13.148438 31.546875 -13.796875 C 32.265625 -14.441406 32.625 -15.242188 32.625 -16.203125 L 32.625 -35.578125 C 32.625 -36.492188 32.265625 -37.273438 31.546875 -37.921875 C 30.828125 -38.566406 29.171875 -38.890625 26.578125 -38.890625 C 23.984375 -38.890625 22.328125 -38.566406 21.609375 -37.921875 C 20.890625 -37.273438 20.53125 -36.492188 20.53125 -35.578125 Z M 20.53125 -16.203125 "/></g></g></g><g fill="#9eff85" fill-opacity="1"><g transform="translate(112.624233, 241.629604)"><g><path d="M 18.375 0 L 7.5625 0 C 6.644531 0 5.984375 -0.203125 5.578125 -0.609375 C 5.171875 -1.015625 4.96875 -1.675781 4.96875 -2.59375 L 4.96875 -49.265625 C 4.96875 -50.179688 5.171875 -50.84375 5.578125 -51.25 C 5.984375 -51.65625 6.644531 -51.859375 7.5625 -51.859375 L 15.046875 -51.859375 C 15.960938 -51.859375 16.742188 -51.710938 17.390625 -51.421875 C 18.046875 -51.140625 18.679688 -50.640625 19.296875 -49.921875 L 33.28125 -33.921875 L 33.28125 -49.265625 C 33.28125 -50.179688 33.484375 -50.84375 33.890625 -51.25 C 34.296875 -51.65625 34.957031 -51.859375 35.875 -51.859375 L 46.671875 -51.859375 C 47.585938 -51.859375 48.25 -51.65625 48.65625 -51.25 C 49.0625 -50.84375 49.265625 -50.179688 49.265625 -49.265625 L 49.265625 -2.59375 C 49.265625 -1.675781 49.0625 -1.015625 48.65625 -0.609375 C 48.25 -0.203125 47.585938 0 46.671875 0 L 35.875 0 C 34.957031 0 34.296875 -0.203125 33.890625 -0.609375 C 33.484375 -1.015625 33.28125 -1.675781 33.28125 -2.59375 L 33.28125 -11.453125 L 20.96875 -26.359375 L 20.96875 -2.59375 C 20.96875 -1.675781 20.757812 -1.015625 20.34375 -0.609375 C 19.9375 -0.203125 19.28125 0 18.375 0 Z M 18.375 0 "/></g></g></g><g fill="#9eff85" fill-opacity="1"><g transform="translate(166.860486, 241.629604)"><g><path d="M 18.375 0 L 7.5625 0 C 6.644531 0 5.984375 -0.203125 5.578125 -0.609375 C 5.171875 -1.015625 4.96875 -1.675781 4.96875 -2.59375 L 4.96875 -49.265625 C 4.96875 -50.179688 5.171875 -50.84375 5.578125 -51.25 C 5.984375 -51.65625 6.644531 -51.859375 7.5625 -51.859375 L 15.046875 -51.859375 C 15.960938 -51.859375 16.742188 -51.710938 17.390625 -51.421875 C 18.046875 -51.140625 18.679688 -50.640625 19.296875 -49.921875 L 33.28125 -33.921875 L 33.28125 -49.265625 C 33.28125 -50.179688 33.484375 -50.84375 33.890625 -51.25 C 34.296875 -51.65625 34.957031 -51.859375 35.875 -51.859375 L 46.671875 -51.859375 C 47.585938 -51.859375 48.25 -51.65625 48.65625 -51.25 C 49.0625 -50.84375 49.265625 -50.179688 49.265625 -49.265625 L 49.265625 -2.59375 C 49.265625 -1.675781 49.0625 -1.015625 48.65625 -0.609375 C 48.25 -0.203125 47.585938 0 46.671875 0 L 35.875 0 C 34.957031 0 34.296875 -0.203125 33.890625 -0.609375 C 33.484375 -1.015625 33.28125 -1.675781 33.28125 -2.59375 L 33.28125 -11.453125 L 20.96875 -26.359375 L 20.96875 -2.59375 C 20.96875 -1.675781 20.757812 -1.015625 20.34375 -0.609375 C 19.9375 -0.203125 19.28125 0 18.375 0 Z M 18.375 0 "/></g></g></g><g fill="#9eff85" fill-opacity="1"><g transform="translate(221.096739, 241.629604)"><g><path d="M 40.984375 0 L 7.5625 0 C 6.644531 0 5.984375 -0.203125 5.578125 -0.609375 C 5.171875 -1.015625 4.96875 -1.675781 4.96875 -2.59375 L 4.96875 -49.265625 C 4.96875 -50.179688 5.171875 -50.84375 5.578125 -51.25 C 5.984375 -51.65625 6.644531 -51.859375 7.5625 -51.859375 L 40.984375 -51.859375 C 41.898438 -51.859375 42.5625 -51.65625 42.96875 -51.25 C 43.375 -50.84375 43.578125 -50.179688 43.578125 -49.265625 L 43.578125 -40.84375 C 43.578125 -39.925781 43.375 -39.265625 42.96875 -38.859375 C 42.5625 -38.453125 41.898438 -38.25 40.984375 -38.25 L 21.109375 -38.25 L 21.109375 -32.703125 L 35.15625 -32.703125 C 36.0625 -32.703125 36.71875 -32.5 37.125 -32.09375 C 37.539062 -31.6875 37.75 -31.023438 37.75 -30.109375 L 37.75 -22.40625 C 37.75 -21.488281 37.539062 -20.828125 37.125 -20.421875 C 36.71875 -20.015625 36.0625 -19.8125 35.15625 -19.8125 L 21.109375 -19.8125 L 21.109375 -13.609375 L 40.984375 -13.609375 C 41.898438 -13.609375 42.5625 -13.40625 42.96875 -13 C 43.375 -12.59375 43.578125 -11.929688 43.578125 -11.015625 L 43.578125 -2.59375 C 43.578125 -1.675781 43.375 -1.015625 42.96875 -0.609375 C 42.5625 -0.203125 41.898438 0 40.984375 0 Z M 40.984375 0 "/></g></g></g><g fill="#9eff85" fill-opacity="1"><g transform="translate(268.202327, 241.629604)"><g><path d="M 39.46875 0 L 21.890625 0 C 15.890625 0 11.4375 -1.195312 8.53125 -3.59375 C 5.625 -6 4.171875 -9.695312 4.171875 -14.6875 L 4.171875 -37.09375 C 4.171875 -42.09375 5.625 -45.800781 8.53125 -48.21875 C 11.4375 -50.644531 15.890625 -51.859375 21.890625 -51.859375 L 39.46875 -51.859375 C 40.382812 -51.859375 41.046875 -51.65625 41.453125 -51.25 C 41.859375 -50.84375 42.0625 -50.179688 42.0625 -49.265625 L 42.0625 -40.546875 C 42.0625 -39.640625 41.859375 -38.976562 41.453125 -38.5625 C 41.046875 -38.15625 40.382812 -37.953125 39.46875 -37.953125 L 25 -37.953125 C 23.507812 -37.953125 22.398438 -37.648438 21.671875 -37.046875 C 20.953125 -36.453125 20.59375 -35.554688 20.59375 -34.359375 L 20.59375 -17.21875 C 20.59375 -16.019531 20.953125 -15.144531 21.671875 -14.59375 C 22.398438 -14.039062 23.507812 -13.765625 25 -13.765625 L 39.46875 -13.765625 C 40.382812 -13.765625 41.046875 -13.554688 41.453125 -13.140625 C 41.859375 -12.734375 42.0625 -12.078125 42.0625 -11.171875 L 42.0625 -2.59375 C 42.0625 -1.675781 41.859375 -1.015625 41.453125 -0.609375 C 41.046875 -0.203125 40.382812 0 39.46875 0 Z M 39.46875 0 "/></g></g></g><g fill="#9eff85" fill-opacity="1"><g transform="translate(313.435235, 241.629604)"><g><path d="M 29.453125 0 L 17.796875 0 C 16.878906 0 16.21875 -0.203125 15.8125 -0.609375 C 15.40625 -1.015625 15.203125 -1.675781 15.203125 -2.59375 L 15.203125 -37.953125 L 4.609375 -37.953125 C 3.691406 -37.953125 3.03125 -38.15625 2.625 -38.5625 C 2.21875 -38.976562 2.015625 -39.640625 2.015625 -40.546875 L 2.015625 -49.265625 C 2.015625 -50.179688 2.21875 -50.84375 2.625 -51.25 C 3.03125 -51.65625 3.691406 -51.859375 4.609375 -51.859375 L 42.640625 -51.859375 C 43.554688 -51.859375 44.21875 -51.65625 44.625 -51.25 C 45.03125 -50.84375 45.234375 -50.179688 45.234375 -49.265625 L 45.234375 -40.546875 C 45.234375 -39.640625 45.03125 -38.976562 44.625 -38.5625 C 44.21875 -38.15625 43.554688 -37.953125 42.640625 -37.953125 L 32.046875 -37.953125 L 32.046875 -2.59375 C 32.046875 -1.675781 31.84375 -1.015625 31.4375 -0.609375 C 31.03125 -0.203125 30.367188 0 29.453125 0 Z M 29.453125 0 "/></g></g></g><g clip-path="url(#b17a1786f4)"><path fill="#ff66c4" d="M 139.617188 276.753906 C 138.292969 276.753906 137.109375 277.464844 136.449219 278.648438 L 136.402344 278.695312 C 136.164062 279.261719 136.023438 279.828125 136.070312 280.445312 C 136.070312 280.871094 136.023438 281.25 135.929688 281.675781 C 135.785156 282.382812 135.503906 283.09375 135.078125 283.753906 C 134.699219 284.371094 134.179688 284.9375 133.609375 285.410156 C 133.328125 285.648438 132.996094 285.882812 132.664062 286.027344 C 131.625 286.59375 130.394531 286.875 129.164062 286.875 C 129.023438 286.875 128.882812 286.875 128.785156 286.828125 L 128.550781 286.78125 C 128.457031 286.78125 128.3125 286.78125 128.21875 286.734375 C 128.078125 286.734375 127.933594 286.734375 127.839844 286.6875 C 127.414062 286.59375 126.988281 286.449219 126.609375 286.261719 C 125.949219 285.929688 125.285156 285.503906 124.671875 285.078125 C 123.535156 284.226562 122.257812 283.566406 120.886719 283.09375 C 120.699219 283.046875 120.507812 283 120.367188 282.949219 C 120.226562 282.902344 120.132812 282.902344 119.988281 282.855469 C 119.609375 282.761719 119.183594 282.667969 118.808594 282.621094 C 118.050781 282.476562 117.246094 282.429688 116.441406 282.429688 C 116.394531 282.429688 116.394531 282.429688 116.347656 282.429688 C 110.71875 282.429688 105.707031 285.789062 103.578125 290.992188 C 103.339844 291.605469 103.105469 292.269531 102.960938 292.976562 L 102.960938 293.027344 C 102.867188 293.59375 102.773438 294.207031 102.679688 294.824219 C 102.347656 297.140625 102.207031 299.550781 102.207031 301.917969 C 102.207031 302.25 102.207031 302.578125 102.207031 302.910156 C 102.207031 303.242188 102.207031 303.527344 102.207031 303.902344 C 102.300781 306.078125 103.859375 307.925781 106.035156 308.351562 C 108.730469 308.871094 111.476562 309.152344 114.171875 309.25 C 114.929688 309.296875 115.683594 309.296875 116.394531 309.296875 C 117.199219 309.296875 117.957031 309.296875 118.617188 309.25 C 121.171875 309.152344 123.773438 308.871094 126.328125 308.398438 C 128.503906 307.972656 130.0625 306.175781 130.15625 303.953125 C 130.207031 303.242188 130.207031 302.53125 130.207031 301.871094 L 130.207031 300.546875 C 130.207031 299.882812 130.582031 299.316406 131.152344 299.03125 C 138.339844 295.578125 143.023438 288.199219 143.070312 280.207031 C 143.070312 279.261719 142.691406 278.410156 142.03125 277.75 C 141.414062 277.085938 140.515625 276.753906 139.617188 276.753906 Z M 130.394531 297.328125 C 129.164062 297.945312 128.359375 299.222656 128.359375 300.59375 L 128.359375 301.871094 C 128.359375 302.53125 128.359375 303.195312 128.3125 303.855469 C 128.265625 305.179688 127.320312 306.269531 126.042969 306.503906 C 123.582031 306.929688 121.078125 307.214844 118.617188 307.308594 C 118.003906 307.308594 117.246094 307.355469 116.441406 307.355469 C 115.683594 307.355469 115.023438 307.355469 114.3125 307.308594 C 111.664062 307.214844 109.015625 306.929688 106.414062 306.410156 C 105.136719 306.175781 104.191406 305.039062 104.144531 303.761719 C 104.144531 303.429688 104.144531 303.101562 104.144531 302.769531 C 104.144531 302.4375 104.144531 302.152344 104.144531 301.824219 C 104.144531 299.550781 104.285156 297.234375 104.617188 295.011719 C 104.710938 294.445312 104.804688 293.875 104.902344 293.308594 C 105.042969 292.742188 105.183594 292.222656 105.421875 291.652344 C 107.265625 287.160156 111.570312 284.273438 116.441406 284.273438 C 116.488281 284.273438 116.488281 284.273438 116.535156 284.273438 C 117.199219 284.273438 117.90625 284.324219 118.570312 284.464844 C 118.902344 284.511719 119.230469 284.605469 119.5625 284.652344 C 119.707031 284.699219 119.847656 284.75 119.988281 284.75 C 120.132812 284.796875 120.320312 284.84375 120.414062 284.890625 C 121.597656 285.316406 122.683594 285.882812 123.679688 286.640625 C 124.386719 287.160156 125.097656 287.585938 125.855469 287.964844 C 126.375 288.25 126.988281 288.4375 127.558594 288.53125 C 127.792969 288.578125 127.984375 288.578125 128.171875 288.578125 C 128.265625 288.578125 128.3125 288.578125 128.40625 288.578125 L 128.597656 288.625 C 128.785156 288.625 128.976562 288.675781 129.210938 288.675781 C 130.773438 288.722656 132.285156 288.34375 133.609375 287.632812 C 134.035156 287.398438 134.460938 287.113281 134.839844 286.828125 C 135.597656 286.214844 136.210938 285.503906 136.734375 284.699219 C 137.253906 283.898438 137.632812 283 137.820312 282.003906 C 137.914062 281.484375 138.007812 280.964844 138.007812 280.398438 L 138.007812 280.300781 C 138.007812 279.972656 138.058594 279.6875 138.152344 279.402344 C 138.433594 278.882812 139.003906 278.550781 139.617188 278.550781 C 140.042969 278.550781 140.46875 278.695312 140.753906 279.023438 C 141.035156 279.308594 141.226562 279.734375 141.226562 280.113281 C 141.226562 287.492188 136.921875 294.207031 130.394531 297.328125 Z M 116.441406 278.648438 C 121.882812 278.648438 126.28125 274.25 126.28125 268.808594 C 126.28125 263.371094 121.832031 258.972656 116.441406 258.972656 C 111.050781 258.972656 106.605469 263.371094 106.605469 268.808594 C 106.605469 274.25 111.003906 278.648438 116.441406 278.648438 Z M 116.441406 260.863281 C 120.839844 260.863281 124.386719 264.410156 124.386719 268.808594 C 124.386719 273.207031 120.839844 276.753906 116.441406 276.753906 C 112.042969 276.753906 108.496094 273.207031 108.496094 268.808594 C 108.496094 264.410156 112.042969 260.863281 116.441406 260.863281 Z M 186.867188 294.777344 C 186.773438 294.160156 186.679688 293.59375 186.585938 293.027344 L 186.585938 292.976562 C 186.441406 292.316406 186.207031 291.652344 185.96875 290.992188 C 183.839844 285.789062 178.828125 282.429688 173.199219 282.429688 C 172.347656 282.429688 171.542969 282.476562 170.738281 282.621094 C 170.363281 282.667969 169.9375 282.761719 169.558594 282.855469 C 169.414062 282.902344 169.320312 282.902344 169.179688 282.949219 C 168.988281 283 168.800781 283.046875 168.613281 283.09375 C 167.285156 283.566406 166.011719 284.226562 164.875 285.078125 C 164.261719 285.503906 163.597656 285.929688 162.9375 286.261719 C 162.558594 286.449219 162.132812 286.59375 161.707031 286.6875 C 161.609375 286.6875 161.46875 286.734375 161.328125 286.734375 C 161.234375 286.734375 161.089844 286.734375 160.996094 286.78125 L 160.761719 286.828125 C 160.617188 286.828125 160.523438 286.875 160.382812 286.875 C 159.152344 286.875 157.96875 286.59375 156.929688 286.027344 C 156.597656 285.835938 156.265625 285.648438 155.984375 285.363281 C 155.414062 284.890625 154.894531 284.324219 154.515625 283.707031 C 154.136719 283.09375 153.855469 282.382812 153.664062 281.675781 C 153.570312 281.296875 153.523438 280.871094 153.523438 280.445312 C 153.523438 279.828125 153.429688 279.261719 153.191406 278.695312 L 153.144531 278.648438 C 152.53125 277.464844 151.300781 276.753906 150.023438 276.753906 C 150.023438 276.753906 149.976562 276.753906 149.976562 276.753906 C 148.085938 276.753906 146.523438 278.269531 146.476562 280.207031 C 146.523438 288.199219 151.207031 295.578125 158.394531 298.984375 C 158.960938 299.269531 159.339844 299.882812 159.339844 300.546875 L 159.339844 301.824219 C 159.339844 302.484375 159.339844 303.195312 159.386719 303.902344 C 159.484375 306.128906 161.042969 307.972656 163.21875 308.351562 C 165.773438 308.824219 168.328125 309.058594 170.929688 309.203125 C 171.589844 309.203125 172.347656 309.25 173.152344 309.25 C 173.863281 309.25 174.617188 309.25 175.375 309.203125 C 178.117188 309.105469 180.863281 308.777344 183.558594 308.300781 C 185.6875 307.878906 187.246094 306.03125 187.339844 303.808594 C 187.339844 303.476562 187.339844 303.195312 187.339844 302.863281 C 187.339844 302.53125 187.339844 302.203125 187.339844 301.871094 C 187.339844 299.503906 187.199219 297.09375 186.867188 294.777344 Z M 185.449219 302.816406 C 185.449219 303.148438 185.449219 303.476562 185.449219 303.761719 C 185.402344 305.085938 184.457031 306.175781 183.179688 306.410156 C 180.578125 306.882812 177.929688 307.167969 175.234375 307.308594 C 174.523438 307.355469 173.863281 307.355469 173.105469 307.355469 C 172.347656 307.355469 171.589844 307.355469 170.976562 307.308594 C 168.46875 307.214844 166.011719 306.929688 163.550781 306.503906 C 162.226562 306.269531 161.28125 305.179688 161.234375 303.808594 C 161.1875 303.148438 161.1875 302.53125 161.1875 301.824219 L 161.1875 300.59375 C 161.234375 299.222656 160.429688 297.945312 159.152344 297.328125 C 152.625 294.160156 148.367188 287.492188 148.320312 280.253906 C 148.320312 279.355469 149.03125 278.695312 149.929688 278.695312 C 150.542969 278.695312 151.109375 279.023438 151.394531 279.546875 C 151.535156 279.828125 151.585938 280.160156 151.535156 280.445312 L 151.535156 280.539062 C 151.535156 281.058594 151.585938 281.625 151.726562 282.148438 C 151.914062 283.09375 152.292969 283.992188 152.8125 284.796875 C 153.335938 285.601562 153.949219 286.308594 154.707031 286.925781 C 155.085938 287.253906 155.511719 287.492188 155.9375 287.777344 C 157.308594 288.484375 158.820312 288.863281 160.335938 288.816406 C 160.523438 288.816406 160.710938 288.769531 160.949219 288.769531 L 161.136719 288.722656 C 161.234375 288.722656 161.28125 288.722656 161.375 288.722656 C 161.5625 288.722656 161.753906 288.675781 161.988281 288.675781 C 162.605469 288.578125 163.171875 288.34375 163.691406 288.105469 C 164.449219 287.726562 165.160156 287.253906 165.867188 286.734375 C 166.863281 285.976562 167.949219 285.410156 169.085938 285.03125 C 169.226562 284.984375 169.414062 284.9375 169.558594 284.890625 C 169.699219 284.84375 169.839844 284.796875 169.9375 284.796875 C 170.265625 284.699219 170.597656 284.652344 170.929688 284.605469 C 171.636719 284.511719 172.347656 284.417969 173.058594 284.417969 C 177.929688 284.417969 182.234375 287.300781 184.078125 291.796875 C 184.3125 292.316406 184.457031 292.882812 184.597656 293.449219 C 184.691406 294.019531 184.789062 294.585938 184.882812 295.152344 C 185.214844 297.425781 185.355469 299.695312 185.355469 301.964844 C 185.449219 302.152344 185.449219 302.484375 185.449219 302.816406 Z M 173.152344 278.648438 C 178.589844 278.648438 182.988281 274.25 182.988281 268.808594 C 182.988281 263.371094 178.542969 258.972656 173.152344 258.972656 C 167.761719 258.972656 163.3125 263.371094 163.3125 268.808594 C 163.3125 274.25 167.710938 278.648438 173.152344 278.648438 Z M 173.152344 260.863281 C 177.550781 260.863281 181.097656 264.410156 181.097656 268.808594 C 181.097656 273.207031 177.550781 276.753906 173.152344 276.753906 C 168.753906 276.753906 165.207031 273.207031 165.207031 268.808594 C 165.207031 264.410156 168.753906 260.863281 173.152344 260.863281 Z M 173.152344 260.863281 " fill-opacity="1" fill-rule="nonzero"/></g><g clip-path="url(#09cb6045b5)"><path fill="#c1ff72" d="M 227.332031 276.753906 C 226.007812 276.753906 224.824219 277.464844 224.164062 278.648438 L 224.117188 278.695312 C 223.878906 279.261719 223.738281 279.828125 223.785156 280.445312 C 223.785156 280.871094 223.738281 281.25 223.644531 281.675781 C 223.5 282.382812 223.21875 283.09375 222.792969 283.753906 C 222.414062 284.371094 221.894531 284.9375 221.324219 285.410156 C 221.042969 285.648438 220.710938 285.882812 220.378906 286.027344 C 219.339844 286.59375 218.109375 286.875 216.878906 286.875 C 216.738281 286.875 216.597656 286.875 216.5 286.828125 L 216.265625 286.78125 C 216.171875 286.78125 216.027344 286.78125 215.933594 286.734375 C 215.792969 286.734375 215.648438 286.734375 215.554688 286.6875 C 215.128906 286.59375 214.703125 286.449219 214.324219 286.261719 C 213.664062 285.929688 213 285.503906 212.386719 285.078125 C 211.25 284.226562 209.972656 283.566406 208.601562 283.09375 C 208.414062 283.046875 208.222656 283 208.082031 282.949219 C 207.941406 282.902344 207.847656 282.902344 207.703125 282.855469 C 207.324219 282.761719 206.898438 282.667969 206.523438 282.621094 C 205.765625 282.476562 204.960938 282.429688 204.15625 282.429688 C 204.109375 282.429688 204.109375 282.429688 204.0625 282.429688 C 198.433594 282.429688 193.421875 285.789062 191.292969 290.992188 C 191.054688 291.605469 190.820312 292.269531 190.675781 292.976562 L 190.675781 293.027344 C 190.582031 293.59375 190.488281 294.207031 190.394531 294.824219 C 190.0625 297.140625 189.921875 299.550781 189.921875 301.917969 C 189.921875 302.25 189.921875 302.578125 189.921875 302.910156 C 189.921875 303.242188 189.921875 303.527344 189.921875 303.902344 C 190.015625 306.078125 191.574219 307.925781 193.75 308.351562 C 196.445312 308.871094 199.191406 309.152344 201.886719 309.25 C 202.644531 309.296875 203.398438 309.296875 204.109375 309.296875 C 204.914062 309.296875 205.671875 309.296875 206.332031 309.25 C 208.886719 309.152344 211.488281 308.871094 214.042969 308.398438 C 216.21875 307.972656 217.777344 306.175781 217.871094 303.953125 C 217.921875 303.242188 217.921875 302.53125 217.921875 301.871094 L 217.921875 300.546875 C 217.921875 299.882812 218.296875 299.316406 218.867188 299.03125 C 226.054688 295.578125 230.738281 288.199219 230.785156 280.207031 C 230.785156 279.261719 230.40625 278.410156 229.746094 277.75 C 229.128906 277.085938 228.230469 276.753906 227.332031 276.753906 Z M 218.109375 297.328125 C 216.878906 297.945312 216.074219 299.222656 216.074219 300.59375 L 216.074219 301.871094 C 216.074219 302.53125 216.074219 303.195312 216.027344 303.855469 C 215.980469 305.179688 215.035156 306.269531 213.757812 306.503906 C 211.296875 306.929688 208.792969 307.214844 206.332031 307.308594 C 205.71875 307.308594 204.960938 307.355469 204.15625 307.355469 C 203.398438 307.355469 202.738281 307.355469 202.027344 307.308594 C 199.378906 307.214844 196.730469 306.929688 194.128906 306.410156 C 192.851562 306.175781 191.90625 305.039062 191.859375 303.761719 C 191.859375 303.429688 191.859375 303.101562 191.859375 302.769531 C 191.859375 302.4375 191.859375 302.152344 191.859375 301.824219 C 191.859375 299.550781 192 297.234375 192.332031 295.011719 C 192.425781 294.445312 192.519531 293.875 192.617188 293.308594 C 192.757812 292.742188 192.898438 292.222656 193.136719 291.652344 C 194.980469 287.160156 199.285156 284.273438 204.15625 284.273438 C 204.203125 284.273438 204.203125 284.273438 204.25 284.273438 C 204.914062 284.273438 205.621094 284.324219 206.285156 284.464844 C 206.617188 284.511719 206.945312 284.605469 207.277344 284.652344 C 207.421875 284.699219 207.5625 284.75 207.703125 284.75 C 207.847656 284.796875 208.035156 284.84375 208.128906 284.890625 C 209.3125 285.316406 210.398438 285.882812 211.394531 286.640625 C 212.101562 287.160156 212.8125 287.585938 213.570312 287.964844 C 214.089844 288.25 214.703125 288.4375 215.273438 288.53125 C 215.507812 288.578125 215.699219 288.578125 215.886719 288.578125 C 215.980469 288.578125 216.027344 288.578125 216.121094 288.578125 L 216.3125 288.625 C 216.5 288.625 216.691406 288.675781 216.925781 288.675781 C 218.488281 288.722656 220 288.34375 221.324219 287.632812 C 221.75 287.398438 222.175781 287.113281 222.554688 286.828125 C 223.3125 286.214844 223.925781 285.503906 224.449219 284.699219 C 224.96875 283.898438 225.347656 283 225.535156 282.003906 C 225.628906 281.484375 225.722656 280.964844 225.722656 280.398438 L 225.722656 280.300781 C 225.722656 279.972656 225.773438 279.6875 225.867188 279.402344 C 226.148438 278.882812 226.71875 278.550781 227.332031 278.550781 C 227.757812 278.550781 228.183594 278.695312 228.46875 279.023438 C 228.75 279.308594 228.941406 279.734375 228.941406 280.113281 C 228.941406 287.492188 224.636719 294.207031 218.109375 297.328125 Z M 204.15625 278.648438 C 209.597656 278.648438 213.996094 274.25 213.996094 268.808594 C 213.996094 263.371094 209.546875 258.972656 204.15625 258.972656 C 198.765625 258.972656 194.320312 263.371094 194.320312 268.808594 C 194.320312 274.25 198.71875 278.648438 204.15625 278.648438 Z M 204.15625 260.863281 C 208.554688 260.863281 212.101562 264.410156 212.101562 268.808594 C 212.101562 273.207031 208.554688 276.753906 204.15625 276.753906 C 199.757812 276.753906 196.210938 273.207031 196.210938 268.808594 C 196.210938 264.410156 199.757812 260.863281 204.15625 260.863281 Z M 274.582031 294.777344 C 274.488281 294.160156 274.394531 293.59375 274.300781 293.027344 L 274.300781 292.976562 C 274.15625 292.316406 273.921875 291.652344 273.683594 290.992188 C 271.554688 285.789062 266.542969 282.429688 260.914062 282.429688 C 260.0625 282.429688 259.257812 282.476562 258.453125 282.621094 C 258.078125 282.667969 257.652344 282.761719 257.273438 282.855469 C 257.128906 282.902344 257.035156 282.902344 256.894531 282.949219 C 256.703125 283 256.515625 283.046875 256.328125 283.09375 C 255 283.566406 253.726562 284.226562 252.589844 285.078125 C 251.976562 285.503906 251.3125 285.929688 250.652344 286.261719 C 250.273438 286.449219 249.847656 286.59375 249.421875 286.6875 C 249.324219 286.6875 249.183594 286.734375 249.042969 286.734375 C 248.949219 286.734375 248.804688 286.734375 248.710938 286.78125 L 248.476562 286.828125 C 248.332031 286.828125 248.238281 286.875 248.097656 286.875 C 246.867188 286.875 245.683594 286.59375 244.644531 286.027344 C 244.3125 285.835938 243.980469 285.648438 243.699219 285.363281 C 243.128906 284.890625 242.609375 284.324219 242.230469 283.707031 C 241.851562 283.09375 241.570312 282.382812 241.378906 281.675781 C 241.285156 281.296875 241.238281 280.871094 241.238281 280.445312 C 241.238281 279.828125 241.144531 279.261719 240.90625 278.695312 L 240.859375 278.648438 C 240.246094 277.464844 239.015625 276.753906 237.738281 276.753906 C 237.738281 276.753906 237.691406 276.753906 237.691406 276.753906 C 235.800781 276.753906 234.238281 278.269531 234.191406 280.207031 C 234.238281 288.199219 238.921875 295.578125 246.109375 298.984375 C 246.675781 299.269531 247.054688 299.882812 247.054688 300.546875 L 247.054688 301.824219 C 247.054688 302.484375 247.054688 303.195312 247.101562 303.902344 C 247.199219 306.128906 248.757812 307.972656 250.933594 308.351562 C 253.488281 308.824219 256.042969 309.058594 258.644531 309.203125 C 259.304688 309.203125 260.0625 309.25 260.867188 309.25 C 261.578125 309.25 262.332031 309.25 263.089844 309.203125 C 265.832031 309.105469 268.578125 308.777344 271.273438 308.300781 C 273.402344 307.878906 274.960938 306.03125 275.054688 303.808594 C 275.054688 303.476562 275.054688 303.195312 275.054688 302.863281 C 275.054688 302.53125 275.054688 302.203125 275.054688 301.871094 C 275.054688 299.503906 274.914062 297.09375 274.582031 294.777344 Z M 273.164062 302.816406 C 273.164062 303.148438 273.164062 303.476562 273.164062 303.761719 C 273.117188 305.085938 272.171875 306.175781 270.894531 306.410156 C 268.292969 306.882812 265.644531 307.167969 262.949219 307.308594 C 262.238281 307.355469 261.578125 307.355469 260.820312 307.355469 C 260.0625 307.355469 259.304688 307.355469 258.691406 307.308594 C 256.183594 307.214844 253.726562 306.929688 251.265625 306.503906 C 249.941406 306.269531 248.996094 305.179688 248.949219 303.808594 C 248.902344 303.148438 248.902344 302.53125 248.902344 301.824219 L 248.902344 300.59375 C 248.949219 299.222656 248.144531 297.945312 246.867188 297.328125 C 240.339844 294.160156 236.082031 287.492188 236.035156 280.253906 C 236.035156 279.355469 236.746094 278.695312 237.644531 278.695312 C 238.257812 278.695312 238.824219 279.023438 239.109375 279.546875 C 239.25 279.828125 239.300781 280.160156 239.25 280.445312 L 239.25 280.539062 C 239.25 281.058594 239.300781 281.625 239.441406 282.148438 C 239.628906 283.09375 240.007812 283.992188 240.527344 284.796875 C 241.050781 285.601562 241.664062 286.308594 242.421875 286.925781 C 242.800781 287.253906 243.226562 287.492188 243.652344 287.777344 C 245.023438 288.484375 246.535156 288.863281 248.050781 288.816406 C 248.238281 288.816406 248.425781 288.769531 248.664062 288.769531 L 248.851562 288.722656 C 248.949219 288.722656 248.996094 288.722656 249.089844 288.722656 C 249.277344 288.722656 249.46875 288.675781 249.703125 288.675781 C 250.320312 288.578125 250.886719 288.34375 251.40625 288.105469 C 252.164062 287.726562 252.875 287.253906 253.582031 286.734375 C 254.578125 285.976562 255.664062 285.410156 256.800781 285.03125 C 256.941406 284.984375 257.128906 284.9375 257.273438 284.890625 C 257.414062 284.84375 257.554688 284.796875 257.652344 284.796875 C 257.980469 284.699219 258.3125 284.652344 258.644531 284.605469 C 259.351562 284.511719 260.0625 284.417969 260.773438 284.417969 C 265.644531 284.417969 269.949219 287.300781 271.792969 291.796875 C 272.027344 292.316406 272.171875 292.882812 272.3125 293.449219 C 272.40625 294.019531 272.503906 294.585938 272.597656 295.152344 C 272.929688 297.425781 273.070312 299.695312 273.070312 301.964844 C 273.164062 302.152344 273.164062 302.484375 273.164062 302.816406 Z M 260.867188 278.648438 C 266.304688 278.648438 270.703125 274.25 270.703125 268.808594 C 270.703125 263.371094 266.257812 258.972656 260.867188 258.972656 C 255.476562 258.972656 251.027344 263.371094 251.027344 268.808594 C 251.027344 274.25 255.425781 278.648438 260.867188 278.648438 Z M 260.867188 260.863281 C 265.265625 260.863281 268.8125 264.410156 268.8125 268.808594 C 268.8125 273.207031 265.265625 276.753906 260.867188 276.753906 C 256.46875 276.753906 252.921875 273.207031 252.921875 268.808594 C 252.921875 264.410156 256.46875 260.863281 260.867188 260.863281 Z M 260.867188 260.863281 " fill-opacity="1" fill-rule="nonzero"/></g><g clip-path="url(#8ea3759729)"><path fill="#5ce1e6" d="M 315.046875 276.753906 C 313.722656 276.753906 312.539062 277.464844 311.878906 278.648438 L 311.832031 278.695312 C 311.59375 279.261719 311.453125 279.828125 311.5 280.445312 C 311.5 280.871094 311.453125 281.25 311.359375 281.675781 C 311.214844 282.382812 310.933594 283.09375 310.507812 283.753906 C 310.128906 284.371094 309.609375 284.9375 309.039062 285.410156 C 308.757812 285.648438 308.425781 285.882812 308.09375 286.027344 C 307.054688 286.59375 305.824219 286.875 304.59375 286.875 C 304.453125 286.875 304.3125 286.875 304.214844 286.828125 L 303.980469 286.78125 C 303.886719 286.78125 303.742188 286.78125 303.648438 286.734375 C 303.507812 286.734375 303.363281 286.734375 303.269531 286.6875 C 302.84375 286.59375 302.417969 286.449219 302.039062 286.261719 C 301.378906 285.929688 300.714844 285.503906 300.101562 285.078125 C 298.964844 284.226562 297.6875 283.566406 296.316406 283.09375 C 296.128906 283.046875 295.9375 283 295.796875 282.949219 C 295.65625 282.902344 295.5625 282.902344 295.417969 282.855469 C 295.039062 282.761719 294.613281 282.667969 294.238281 282.621094 C 293.480469 282.476562 292.675781 282.429688 291.871094 282.429688 C 291.824219 282.429688 291.824219 282.429688 291.777344 282.429688 C 286.148438 282.429688 281.136719 285.789062 279.007812 290.992188 C 278.769531 291.605469 278.535156 292.269531 278.390625 292.976562 L 278.390625 293.027344 C 278.296875 293.59375 278.203125 294.207031 278.109375 294.824219 C 277.777344 297.140625 277.636719 299.550781 277.636719 301.917969 C 277.636719 302.25 277.636719 302.578125 277.636719 302.910156 C 277.636719 303.242188 277.636719 303.527344 277.636719 303.902344 C 277.730469 306.078125 279.289062 307.925781 281.464844 308.351562 C 284.160156 308.871094 286.90625 309.152344 289.601562 309.25 C 290.359375 309.296875 291.113281 309.296875 291.824219 309.296875 C 292.628906 309.296875 293.386719 309.296875 294.046875 309.25 C 296.601562 309.152344 299.203125 308.871094 301.757812 308.398438 C 303.933594 307.972656 305.492188 306.175781 305.585938 303.953125 C 305.636719 303.242188 305.636719 302.53125 305.636719 301.871094 L 305.636719 300.546875 C 305.636719 299.882812 306.011719 299.316406 306.582031 299.03125 C 313.769531 295.578125 318.453125 288.199219 318.5 280.207031 C 318.5 279.261719 318.121094 278.410156 317.460938 277.75 C 316.84375 277.085938 315.945312 276.753906 315.046875 276.753906 Z M 305.824219 297.328125 C 304.59375 297.945312 303.789062 299.222656 303.789062 300.59375 L 303.789062 301.871094 C 303.789062 302.53125 303.789062 303.195312 303.742188 303.855469 C 303.695312 305.179688 302.75 306.269531 301.472656 306.503906 C 299.011719 306.929688 296.507812 307.214844 294.046875 307.308594 C 293.433594 307.308594 292.675781 307.355469 291.871094 307.355469 C 291.113281 307.355469 290.453125 307.355469 289.742188 307.308594 C 287.09375 307.214844 284.445312 306.929688 281.84375 306.410156 C 280.566406 306.175781 279.621094 305.039062 279.574219 303.761719 C 279.574219 303.429688 279.574219 303.101562 279.574219 302.769531 C 279.574219 302.4375 279.574219 302.152344 279.574219 301.824219 C 279.574219 299.550781 279.714844 297.234375 280.046875 295.011719 C 280.140625 294.445312 280.234375 293.875 280.332031 293.308594 C 280.472656 292.742188 280.613281 292.222656 280.851562 291.652344 C 282.695312 287.160156 287 284.273438 291.871094 284.273438 C 291.917969 284.273438 291.917969 284.273438 291.964844 284.273438 C 292.628906 284.273438 293.335938 284.324219 294 284.464844 C 294.332031 284.511719 294.660156 284.605469 294.992188 284.652344 C 295.136719 284.699219 295.277344 284.75 295.417969 284.75 C 295.5625 284.796875 295.75 284.84375 295.84375 284.890625 C 297.027344 285.316406 298.113281 285.882812 299.109375 286.640625 C 299.816406 287.160156 300.527344 287.585938 301.285156 287.964844 C 301.804688 288.25 302.417969 288.4375 302.988281 288.53125 C 303.222656 288.578125 303.414062 288.578125 303.601562 288.578125 C 303.695312 288.578125 303.742188 288.578125 303.835938 288.578125 L 304.027344 288.625 C 304.214844 288.625 304.40625 288.675781 304.640625 288.675781 C 306.203125 288.722656 307.714844 288.34375 309.039062 287.632812 C 309.464844 287.398438 309.890625 287.113281 310.269531 286.828125 C 311.027344 286.214844 311.640625 285.503906 312.164062 284.699219 C 312.683594 283.898438 313.0625 283 313.25 282.003906 C 313.34375 281.484375 313.4375 280.964844 313.4375 280.398438 L 313.4375 280.300781 C 313.4375 279.972656 313.488281 279.6875 313.582031 279.402344 C 313.863281 278.882812 314.433594 278.550781 315.046875 278.550781 C 315.472656 278.550781 315.898438 278.695312 316.183594 279.023438 C 316.464844 279.308594 316.65625 279.734375 316.65625 280.113281 C 316.65625 287.492188 312.351562 294.207031 305.824219 297.328125 Z M 291.871094 278.648438 C 297.3125 278.648438 301.710938 274.25 301.710938 268.808594 C 301.710938 263.371094 297.261719 258.972656 291.871094 258.972656 C 286.480469 258.972656 282.035156 263.371094 282.035156 268.808594 C 282.035156 274.25 286.433594 278.648438 291.871094 278.648438 Z M 291.871094 260.863281 C 296.269531 260.863281 299.816406 264.410156 299.816406 268.808594 C 299.816406 273.207031 296.269531 276.753906 291.871094 276.753906 C 287.472656 276.753906 283.925781 273.207031 283.925781 268.808594 C 283.925781 264.410156 287.472656 260.863281 291.871094 260.863281 Z M 362.296875 294.777344 C 362.203125 294.160156 362.109375 293.59375 362.015625 293.027344 L 362.015625 292.976562 C 361.871094 292.316406 361.636719 291.652344 361.398438 290.992188 C 359.269531 285.789062 354.257812 282.429688 348.628906 282.429688 C 347.777344 282.429688 346.972656 282.476562 346.167969 282.621094 C 345.792969 282.667969 345.367188 282.761719 344.988281 282.855469 C 344.84375 282.902344 344.75 282.902344 344.609375 282.949219 C 344.417969 283 344.230469 283.046875 344.042969 283.09375 C 342.714844 283.566406 341.441406 284.226562 340.304688 285.078125 C 339.691406 285.503906 339.027344 285.929688 338.367188 286.261719 C 337.988281 286.449219 337.5625 286.59375 337.136719 286.6875 C 337.039062 286.6875 336.898438 286.734375 336.757812 286.734375 C 336.664062 286.734375 336.519531 286.734375 336.425781 286.78125 L 336.191406 286.828125 C 336.046875 286.828125 335.953125 286.875 335.8125 286.875 C 334.582031 286.875 333.398438 286.59375 332.359375 286.027344 C 332.027344 285.835938 331.695312 285.648438 331.414062 285.363281 C 330.84375 284.890625 330.324219 284.324219 329.945312 283.707031 C 329.566406 283.09375 329.285156 282.382812 329.09375 281.675781 C 329 281.296875 328.953125 280.871094 328.953125 280.445312 C 328.953125 279.828125 328.859375 279.261719 328.621094 278.695312 L 328.574219 278.648438 C 327.960938 277.464844 326.730469 276.753906 325.453125 276.753906 C 325.453125 276.753906 325.40625 276.753906 325.40625 276.753906 C 323.515625 276.753906 321.953125 278.269531 321.90625 280.207031 C 321.953125 288.199219 326.636719 295.578125 333.824219 298.984375 C 334.390625 299.269531 334.769531 299.882812 334.769531 300.546875 L 334.769531 301.824219 C 334.769531 302.484375 334.769531 303.195312 334.816406 303.902344 C 334.914062 306.128906 336.472656 307.972656 338.648438 308.351562 C 341.203125 308.824219 343.757812 309.058594 346.359375 309.203125 C 347.019531 309.203125 347.777344 309.25 348.582031 309.25 C 349.292969 309.25 350.046875 309.25 350.804688 309.203125 C 353.546875 309.105469 356.292969 308.777344 358.988281 308.300781 C 361.117188 307.878906 362.675781 306.03125 362.769531 303.808594 C 362.769531 303.476562 362.769531 303.195312 362.769531 302.863281 C 362.769531 302.53125 362.769531 302.203125 362.769531 301.871094 C 362.769531 299.503906 362.628906 297.09375 362.296875 294.777344 Z M 360.878906 302.816406 C 360.878906 303.148438 360.878906 303.476562 360.878906 303.761719 C 360.832031 305.085938 359.886719 306.175781 358.609375 306.410156 C 356.007812 306.882812 353.359375 307.167969 350.664062 307.308594 C 349.953125 307.355469 349.292969 307.355469 348.535156 307.355469 C 347.777344 307.355469 347.019531 307.355469 346.40625 307.308594 C 343.898438 307.214844 341.441406 306.929688 338.980469 306.503906 C 337.65625 306.269531 336.710938 305.179688 336.664062 303.808594 C 336.617188 303.148438 336.617188 302.53125 336.617188 301.824219 L 336.617188 300.59375 C 336.664062 299.222656 335.859375 297.945312 334.582031 297.328125 C 328.054688 294.160156 323.796875 287.492188 323.75 280.253906 C 323.75 279.355469 324.460938 278.695312 325.359375 278.695312 C 325.972656 278.695312 326.539062 279.023438 326.824219 279.546875 C 326.964844 279.828125 327.015625 280.160156 326.964844 280.445312 L 326.964844 280.539062 C 326.964844 281.058594 327.015625 281.625 327.15625 282.148438 C 327.34375 283.09375 327.722656 283.992188 328.242188 284.796875 C 328.765625 285.601562 329.378906 286.308594 330.136719 286.925781 C 330.515625 287.253906 330.941406 287.492188 331.367188 287.777344 C 332.738281 288.484375 334.25 288.863281 335.765625 288.816406 C 335.953125 288.816406 336.140625 288.769531 336.378906 288.769531 L 336.566406 288.722656 C 336.664062 288.722656 336.710938 288.722656 336.804688 288.722656 C 336.992188 288.722656 337.183594 288.675781 337.417969 288.675781 C 338.035156 288.578125 338.601562 288.34375 339.121094 288.105469 C 339.878906 287.726562 340.589844 287.253906 341.296875 286.734375 C 342.292969 285.976562 343.378906 285.410156 344.515625 285.03125 C 344.65625 284.984375 344.84375 284.9375 344.988281 284.890625 C 345.128906 284.84375 345.269531 284.796875 345.367188 284.796875 C 345.695312 284.699219 346.027344 284.652344 346.359375 284.605469 C 347.066406 284.511719 347.777344 284.417969 348.488281 284.417969 C 353.359375 284.417969 357.664062 287.300781 359.507812 291.796875 C 359.742188 292.316406 359.886719 292.882812 360.027344 293.449219 C 360.121094 294.019531 360.21875 294.585938 360.3125 295.152344 C 360.644531 297.425781 360.785156 299.695312 360.785156 301.964844 C 360.878906 302.152344 360.878906 302.484375 360.878906 302.816406 Z M 348.582031 278.648438 C 354.019531 278.648438 358.417969 274.25 358.417969 268.808594 C 358.417969 263.371094 353.972656 258.972656 348.582031 258.972656 C 343.191406 258.972656 338.742188 263.371094 338.742188 268.808594 C 338.742188 274.25 343.140625 278.648438 348.582031 278.648438 Z M 348.582031 260.863281 C 352.980469 260.863281 356.527344 264.410156 356.527344 268.808594 C 356.527344 273.207031 352.980469 276.753906 348.582031 276.753906 C 344.183594 276.753906 340.636719 273.207031 340.636719 268.808594 C 340.636719 264.410156 344.183594 260.863281 348.582031 260.863281 Z M 348.582031 260.863281 " fill-opacity="1" fill-rule="nonzero"/></g></svg>