<svg xmlns="http://www.w3.org/2000/svg" xmlns:xlink="http://www.w3.org/1999/xlink" width="500" zoomAndPan="magnify" viewBox="0 0 375 374.999991" height="500" preserveAspectRatio="xMidYMid meet" version="1.0"><defs><clipPath id="cd2b3f83d9"><path d="M 31.378906 62.390625 L 351.628906 62.390625 L 351.628906 320.390625 L 31.378906 320.390625 Z M 31.378906 62.390625 " clip-rule="nonzero"/></clipPath></defs><path fill="#ffffff" d="M 187.5 0 C 291.074219 0 375 83.925781 375 187.5 C 375 291.074219 291.074219 375 187.5 375 C 83.925781 375 0 291.074219 0 187.5 C 0 83.925781 83.925781 0 187.5 0 Z M 187.5 0 " fill-opacity="1" fill-rule="nonzero"/><g clip-path="url(#cd2b3f83d9)"><path fill="#ffffff" d="M 132.375 165.292969 L 134.863281 145.085938 C 134.863281 145.085938 134.242188 125.191406 134.863281 123.324219 C 135.484375 121.457031 136.109375 98.355469 136.109375 98.355469 L 128.640625 74.402344 L 106.859375 64.253906 L 81.96875 62.390625 C 81.96875 62.390625 58.636719 68.917969 57.390625 69.851562 C 56.144531 70.78125 38.410156 87.261719 38.410156 87.261719 L 31.566406 108.089844 L 36.855469 122.390625 L 50.855469 133.273438 L 68.902344 141.976562 L 81.660156 142.601562 L 80.726562 165.292969 C 80.726562 165.292969 78.859375 197.464844 78.859375 199.566406 C 78.859375 201.667969 79.792969 235.558594 79.792969 235.558594 L 80.726562 272.554688 L 81.96875 302.710938 L 86.324219 314.082031 C 86.324219 314.082031 101.882812 316.390625 102.816406 316.390625 L 116.195312 316.390625 L 118.0625 296.492188 L 123.351562 316.390625 L 136.105469 318.566406 L 146.683594 316.699219 L 152.910156 296.800781 C 152.910156 296.800781 163.488281 297.113281 165.042969 297.113281 C 166.597656 297.113281 183.089844 299.289062 185.578125 299.601562 C 188.066406 299.910156 201.445312 300.222656 204.558594 300.222656 L 217.964844 300.222656 L 217.964844 314.078125 C 217.964844 314.078125 220.425781 319.808594 223.226562 320.121094 C 226.027344 320.429688 240.019531 320.121094 240.019531 320.121094 L 247.742188 317.320312 L 249.589844 303.019531 L 255.273438 317.941406 L 272.078125 320.257812 L 276.121094 318.253906 L 279.542969 303.953125 L 281.101562 286.851562 L 300.082031 286.851562 L 323.105469 284.367188 L 343.015625 274.726562 L 351.417969 261.050781 L 350.171875 251.558594 L 335.238281 248.613281 C 330.46875 246.539062 325.699219 244.46875 320.925781 242.394531 C 318.957031 238.351562 316.984375 234.3125 315.015625 230.269531 C 313.042969 227.160156 311.074219 224.050781 309.105469 220.941406 C 306.199219 216.277344 303.296875 211.613281 300.390625 206.953125 L 291.992188 192.960938 L 281.101562 179.28125 L 263.9375 165.601562 L 238.476562 152.542969 L 213.894531 148.8125 L 191.492188 151.921875 L 174.070312 155.652344 L 148.867188 164.046875 L 132.378906 173.0625 L 132.378906 165.292969 Z M 132.375 165.292969 " fill-opacity="1" fill-rule="nonzero"/></g><path fill="#000000" d="M 131.460938 207.34375 C 130.269531 205.042969 129.320312 202.589844 128.5625 200.117188 C 127.378906 196.28125 126.027344 190.886719 128.480469 187.253906 C 133.402344 179.96875 141.359375 190.527344 143.777344 194.875 C 144.457031 196.089844 146.519531 195.273438 146.066406 193.910156 C 145.339844 191.738281 144.820312 189.472656 144.457031 187.210938 C 143.917969 183.878906 143.273438 178.71875 145.972656 176.089844 C 151.140625 171.050781 157.929688 181.941406 159.867188 185.738281 C 160.554688 187.089844 162.375 186.082031 162.15625 184.777344 C 161.761719 182.441406 161.628906 180.03125 161.652344 177.671875 C 161.691406 174.195312 161.957031 168.976562 165.238281 166.863281 C 171.464844 162.855469 176.425781 173.859375 177.796875 178.296875 C 178.210938 179.632812 180.238281 179.402344 180.257812 177.964844 C 180.285156 175.683594 180.527344 173.382812 180.945312 171.144531 C 181.480469 168.261719 182.46875 163.082031 185.839844 162.175781 C 189.761719 161.121094 193 166.164062 194.59375 168.949219 C 195.898438 171.222656 197.007812 173.65625 197.820312 176.152344 C 198.171875 177.230469 200 177.445312 200.234375 176.152344 C 200.660156 173.789062 201.355469 171.445312 202.210938 169.207031 C 203.441406 165.988281 205.660156 161.113281 209.605469 160.679688 C 214.492188 160.140625 217.28125 165.246094 218.09375 169.257812 C 218.464844 171.09375 218.570312 172.976562 218.527344 174.847656 C 218.515625 175.46875 218.472656 176.089844 218.429688 176.710938 C 218.417969 176.882812 218.28125 177.964844 218.378906 177.273438 C 218.15625 178.855469 220.203125 179.464844 220.792969 177.9375 C 221.820312 175.269531 223.148438 172.671875 224.628906 170.230469 C 226.367188 167.363281 229.71875 161.953125 233.769531 162.746094 C 238.308594 163.632812 238.554688 169.992188 238.417969 173.570312 C 238.304688 176.429688 237.886719 179.328125 237.152344 182.09375 C 236.785156 183.476562 238.691406 184.265625 239.4375 183.058594 C 240.910156 180.691406 242.65625 178.457031 244.574219 176.4375 C 246.886719 174.003906 251.125 169.945312 254.761719 172.140625 C 258.925781 174.65625 257.640625 180.832031 256.457031 184.621094 C 255.5625 187.472656 254.34375 190.285156 252.828125 192.871094 C 252.105469 194.109375 253.769531 195.363281 254.796875 194.386719 C 256.65625 192.613281 258.710938 191.011719 260.855469 189.597656 C 263.636719 187.765625 268.675781 184.578125 271.972656 186.933594 C 275.382812 189.371094 273.183594 194.910156 271.808594 197.875 C 270.714844 200.242188 269.382812 202.550781 267.847656 204.660156 C 267.113281 205.671875 268.554688 207.050781 269.558594 206.371094 C 271.757812 204.886719 274.25 203.699219 276.792969 202.964844 C 280.527344 201.886719 286.027344 202.109375 286.832031 206.933594 C 287.457031 210.65625 284.875 214.582031 282.808594 217.449219 C 281.441406 219.347656 279.90625 221.171875 278.234375 222.804688 C 277.238281 223.78125 278.542969 225.566406 279.75 224.769531 C 281.695312 223.484375 283.773438 222.363281 285.890625 221.382812 C 288.585938 220.132812 293.042969 218.0625 296.007812 219.542969 C 300.070312 221.570312 297.402344 228.222656 295.867188 231.007812 C 294.4375 233.59375 292.636719 236.054688 290.570312 238.167969 C 289.4375 239.324219 291.15625 241.023438 292.339844 239.9375 C 295.703125 236.851562 300.316406 232.84375 304.96875 232.152344 C 313.332031 230.902344 305.363281 248.101562 303.960938 250.925781 L 305.375 250.351562 L 294.980469 246.292969 C 293.515625 245.722656 291.722656 244.640625 290.15625 244.410156 C 289.429688 244.304688 290.484375 245.03125 290.441406 244.664062 C 290.398438 244.28125 289.75 243.621094 289.535156 243.300781 C 285.6875 237.503906 281.804688 231.730469 277.992188 225.910156 C 273.464844 219 268.96875 212.070312 264.457031 205.148438 C 263.945312 204.363281 263.480469 203.429688 262.871094 202.714844 C 262.1875 201.917969 261.125 201.417969 260.25 200.855469 C 256.476562 198.425781 252.75 195.875 248.875 193.609375 C 246.859375 192.429688 244.492188 191.773438 242.316406 190.945312 C 237.699219 189.191406 233.085938 187.4375 228.46875 185.679688 C 226.570312 184.957031 224.546875 183.839844 222.507812 183.640625 C 219.152344 183.316406 215.769531 183.171875 212.410156 182.9375 L 197.707031 181.910156 C 195.125 181.730469 192.328125 181.207031 189.738281 181.355469 C 188.675781 181.414062 187.558594 181.816406 186.527344 182.050781 L 179.410156 183.664062 C 177.03125 184.207031 174.609375 184.582031 172.351562 185.511719 L 159.9375 190.613281 C 157.140625 191.761719 153.996094 192.675781 151.347656 194.144531 C 150.167969 194.796875 149.121094 195.875 148.074219 196.71875 L 142.433594 201.261719 C 141.765625 201.800781 141.054688 202.3125 140.417969 202.882812 C 140.261719 203.027344 140.082031 203.152344 139.917969 203.289062 C 139.957031 203.257812 140.730469 203.003906 140.164062 203.101562 C 138.253906 203.4375 136.234375 204.523438 134.414062 205.183594 L 130.042969 206.761719 C 128.542969 207.308594 129.191406 209.726562 130.710938 209.175781 C 134.0625 207.960938 137.566406 206.945312 140.828125 205.515625 C 141.789062 205.09375 142.542969 204.367188 143.363281 203.703125 L 148.878906 199.257812 C 150.136719 198.246094 151.433594 197.269531 152.660156 196.214844 C 152.089844 196.703125 152.121094 196.472656 152.699219 196.269531 C 153.324219 196.046875 153.9375 195.761719 154.546875 195.507812 L 167.460938 190.203125 C 169.816406 189.238281 172.1875 188.027344 174.632812 187.3125 C 178.613281 186.148438 182.796875 185.457031 186.84375 184.539062 L 189.160156 184.011719 C 189.421875 183.953125 190.421875 183.835938 189.761719 183.855469 C 190.574219 183.832031 191.421875 183.96875 192.234375 184.027344 L 205.25 184.9375 L 218.816406 185.882812 C 220.0625 185.96875 221.316406 186.015625 222.558594 186.144531 C 222.808594 186.171875 223.222656 186.300781 222.671875 186.136719 C 222.988281 186.230469 223.300781 186.378906 223.613281 186.496094 C 231.242188 189.398438 238.855469 192.359375 246.503906 195.203125 C 246.828125 195.324219 247.226562 195.515625 246.945312 195.371094 C 247.476562 195.648438 247.976562 195.992188 248.480469 196.308594 C 250.394531 197.5 252.292969 198.71875 254.191406 199.9375 C 256.046875 201.125 257.898438 202.316406 259.753906 203.507812 C 260.183594 203.785156 260.609375 204.105469 261.058594 204.351562 C 260.847656 204.234375 260.628906 203.683594 260.929688 204.320312 C 261.515625 205.554688 262.488281 206.710938 263.234375 207.851562 L 267.050781 213.707031 L 274.46875 225.082031 C 277.960938 230.441406 281.523438 235.75 285.058594 241.078125 C 286.238281 242.851562 287.5 245.972656 289.558594 246.847656 C 293.449219 248.5 297.445312 249.925781 301.378906 251.460938 L 304.703125 252.761719 C 305.183594 252.949219 305.890625 252.640625 306.117188 252.1875 C 308.347656 247.695312 310.5625 242.851562 311.128906 237.824219 C 311.503906 234.476562 310.648438 230.28125 306.726562 229.65625 C 303.265625 229.101562 299.578125 231.414062 296.84375 233.246094 C 294.644531 234.722656 292.515625 236.371094 290.566406 238.164062 L 292.335938 239.933594 C 294.890625 237.320312 297.164062 234.1875 298.734375 230.890625 C 300.539062 227.09375 302.015625 220.96875 298.070312 217.910156 C 294.804688 215.375 289.875 217.019531 286.488281 218.40625 C 283.707031 219.542969 280.992188 220.953125 278.484375 222.609375 L 280 224.570312 C 284.542969 220.128906 291.464844 211.949219 288.917969 205.105469 C 285.640625 196.300781 273.855469 200.457031 268.292969 204.207031 L 270.003906 205.917969 C 273.214844 201.511719 276.941406 195.15625 276.117188 189.507812 C 275.640625 186.234375 273.085938 183.84375 269.765625 183.679688 C 266.128906 183.5 262.523438 185.503906 259.589844 187.4375 C 257.269531 188.960938 255.03125 190.699219 253.023438 192.613281 L 254.988281 194.128906 C 258.121094 188.78125 261.460938 181.121094 259.644531 174.871094 C 258.652344 171.449219 255.601562 168.703125 251.898438 169.066406 C 248.21875 169.425781 245.066406 172.25 242.652344 174.824219 C 240.65625 176.953125 238.8125 179.3125 237.273438 181.792969 L 239.5625 182.753906 C 241.070312 177.078125 242.285156 169.195312 239.117188 163.894531 C 237.269531 160.808594 233.660156 159.320312 230.285156 160.792969 C 226.742188 162.335938 224.269531 165.949219 222.351562 169.148438 C 220.808594 171.726562 219.460938 174.460938 218.375 177.265625 L 220.789062 177.933594 C 221.585938 172.199219 220.972656 164.710938 216.34375 160.65625 C 213.597656 158.257812 209.613281 157.289062 206.347656 159.199219 C 203.222656 161.027344 201.390625 164.570312 200.082031 167.804688 C 199.082031 170.269531 198.292969 172.863281 197.816406 175.480469 L 200.230469 175.480469 C 198.519531 170.210938 195.601562 163.683594 190.667969 160.730469 C 183.457031 156.417969 179.609375 164.65625 178.527344 170.472656 C 178.070312 172.929688 177.78125 175.457031 177.75 177.957031 L 180.207031 177.625 C 178.648438 172.582031 175.53125 165.8125 170.148438 163.996094 C 161.8125 161.179688 159.242188 171.441406 159.148438 177.453125 C 159.105469 180.113281 159.292969 182.8125 159.738281 185.433594 L 162.023438 184.472656 C 159.3125 179.160156 152.054688 168.605469 145.019531 173.628906 C 139.046875 177.890625 141.726562 188.808594 143.648438 194.570312 L 145.933594 193.605469 C 143.347656 188.953125 138.535156 182.285156 132.601562 182.320312 C 128.898438 182.339844 126.023438 185.347656 125.121094 188.753906 C 124.101562 192.597656 124.957031 196.835938 126.078125 200.558594 C 126.90625 203.308594 127.972656 206.046875 129.292969 208.601562 C 130.035156 210.03125 132.195312 208.765625 131.453125 207.339844 Z M 131.460938 207.34375 " fill-opacity="1" fill-rule="nonzero"/><path fill="#f8b9b8" d="M 90.511719 131.160156 C 90.511719 131.160156 49.394531 134.019531 47.605469 106.867188 C 45.820312 79.714844 81.929688 67.925781 110.890625 77.929688 C 110.890625 77.929688 124.835938 83.285156 125.550781 107.582031 C 126.265625 131.875 119.472656 219.050781 119.472656 219.050781 C 119.472656 219.050781 142.714844 177.25 193.484375 173.320312 C 244.257812 169.386719 267.140625 194.039062 280.011719 219.050781 C 292.882812 244.058594 320.769531 258.347656 340.792969 260.851562 C 340.792969 260.851562 337.574219 270.855469 314.335938 276.570312 C 291.09375 282.285156 274.648438 280.144531 274.648438 280.144531 C 274.648438 280.144531 275.003906 304.4375 271.070312 312.652344 L 258.199219 314.082031 C 258.199219 314.082031 253.910156 297.648438 253.550781 287.644531 L 246.757812 287.644531 C 246.757812 287.644531 246.042969 307.292969 242.109375 314.082031 L 227.808594 314.082031 C 227.808594 314.082031 224.949219 296.933594 225.304688 288 C 225.304688 288 174.535156 293.003906 146.644531 284.070312 C 146.644531 284.070312 144.5 300.148438 142.355469 308.367188 C 142.355469 308.367188 130.554688 310.152344 124.476562 308.367188 L 124.835938 283.355469 C 124.835938 283.355469 116.253906 282.644531 113.75 280.855469 C 113.75 280.855469 113.394531 302.648438 111.246094 306.578125 C 111.246094 306.578125 96.945312 308.363281 93.367188 304.078125 C 93.367188 304.078125 91.582031 220.832031 91.582031 196.898438 C 91.582031 172.960938 91.9375 141.164062 90.507812 131.160156 Z M 90.511719 131.160156 " fill-opacity="1" fill-rule="nonzero"/><path fill="#000000" d="M 231.417969 197.558594 L 231.460938 197.425781 L 231.113281 198.019531 L 231.21875 197.929688 L 230.625 198.273438 L 230.550781 198.289062 L 229.871094 198.105469 L 229.996094 198.175781 L 229.511719 197.695312 L 229.601562 197.851562 L 229.417969 197.171875 L 229.410156 197.171875 L 229.757812 196.574219 L 229.738281 196.578125 L 230.417969 196.398438 C 230.5 196.386719 230.613281 196.625 230.679688 196.601562 C 230.652344 196.609375 230.714844 196.386719 230.664062 196.484375 C 230.667969 196.472656 230.675781 196.015625 230.671875 196.015625 L 230.226562 196.628906 L 230.328125 196.660156 C 230.34375 196.675781 231.015625 197.101562 231.058594 197.101562 C 231.011719 197.101562 230.980469 196.882812 230.980469 196.882812 C 230.871094 196.890625 231.085938 196.917969 230.957031 196.917969 C 230.683594 196.914062 230.449219 197.054688 230.132812 197.015625 C 230.085938 197.007812 229.871094 196.9375 229.855469 196.953125 L 229.792969 196.933594 C 229.910156 197.15625 229.960938 197.222656 229.941406 197.136719 C 229.933594 197.140625 230 196.460938 230.003906 196.40625 C 230.015625 196.179688 230.109375 196.417969 229.867188 196.289062 C 231.398438 197.101562 232.761719 194.777344 231.226562 193.96875 C 230.175781 193.410156 228.957031 193.601562 228.113281 194.453125 C 227.308594 195.269531 227.0625 196.675781 227.328125 197.765625 C 227.914062 200.164062 231.664062 200.289062 233.046875 198.59375 C 234.808594 196.433594 232.378906 193.796875 230 193.949219 C 227.441406 194.117188 227.328125 197.910156 229.375 198.898438 C 230.75 199.566406 232.5 198.394531 232.066406 196.816406 C 231.601562 195.125 229.332031 195.320312 228.824219 196.84375 C 228.273438 198.492188 230.875 199.199219 231.421875 197.5625 Z M 231.417969 197.558594 " fill-opacity="1" fill-rule="nonzero"/><path fill="#000000" d="M 241.992188 210.847656 C 241.992188 210.859375 241.703125 211.148438 241.699219 211.148438 C 241.558594 211.222656 241.460938 211.105469 241.398438 210.804688 C 241.125 210.664062 241.046875 210.476562 241.167969 210.242188 C 241.125 210.203125 241.3125 210.167969 241.246094 210.140625 C 241.15625 210.171875 241.066406 210.199219 240.972656 210.222656 C 240.832031 210.253906 240.851562 210.25 241.023438 210.210938 L 241.617188 210.554688 C 241.710938 210.785156 241.722656 210.8125 241.664062 210.644531 C 241.625 210.542969 241.59375 210.4375 241.5625 210.335938 C 241.5 210.128906 241.449219 209.910156 241.414062 209.699219 C 241.355469 209.34375 241.347656 208.964844 241.382812 208.609375 L 241.203125 209.289062 L 241.265625 209.160156 L 240.785156 209.640625 C 240.441406 209.835938 240.859375 209.707031 241.070312 209.714844 C 241.222656 209.722656 241.367188 209.742188 241.519531 209.769531 C 241.648438 209.796875 241.773438 209.863281 241.894531 209.890625 C 241.722656 209.851562 241.796875 209.808594 241.820312 209.753906 C 241.730469 209.949219 241.9375 209.871094 241.71875 210.070312 C 241.558594 210.214844 241.316406 210.21875 241.117188 210.21875 C 239.382812 210.21875 239.378906 212.910156 241.117188 212.910156 C 242.261719 212.910156 243.457031 212.425781 244.078125 211.417969 C 244.660156 210.46875 244.667969 209.21875 244.027344 208.296875 C 243.277344 207.234375 241.824219 206.964844 240.597656 207.027344 C 239.878906 207.0625 239.234375 207.246094 238.878906 207.929688 C 238.59375 208.46875 238.65625 209.148438 238.722656 209.738281 C 238.851562 210.875 239.121094 212.464844 240.398438 212.839844 C 241.503906 213.164062 242.984375 212.53125 243.53125 211.527344 C 244.167969 210.359375 243.605469 208.894531 242.296875 208.542969 C 241.15625 208.238281 239.589844 208.851562 239.394531 210.132812 C 239.289062 210.847656 239.578125 211.578125 240.335938 211.785156 C 240.972656 211.960938 241.882812 211.570312 241.992188 210.847656 Z M 241.992188 210.847656 " fill-opacity="1" fill-rule="nonzero"/><path fill="#000000" d="M 248.382812 201.253906 L 248.511719 201.226562 L 247.472656 201.089844 L 247.601562 201.183594 L 247.117188 200.703125 C 247.171875 200.785156 247.214844 201.0625 247.269531 201.121094 C 247.125 200.96875 248.34375 199.679688 247.941406 200.601562 C 247.96875 200.535156 247.992188 200.769531 247.996094 200.601562 C 248.003906 200.421875 247.964844 200.285156 247.851562 200.492188 L 247.367188 200.972656 C 247.359375 200.980469 247.796875 200.929688 247.910156 200.925781 L 248.167969 200.917969 C 248.453125 200.949219 248.449219 200.910156 248.160156 200.796875 C 248.085938 200.664062 248.074219 200.664062 248.128906 200.804688 C 248.167969 200.910156 248.199219 201.019531 248.222656 201.128906 C 248.257812 201.355469 248.25 201.472656 248.167969 201.675781 L 248.511719 201.078125 C 248.652344 201.078125 248.6875 201.0625 248.625 201.027344 C 248.441406 201.03125 248.261719 201.027344 248.082031 201.019531 C 247.792969 201.003906 247.519531 200.96875 247.234375 200.925781 C 246.722656 200.855469 247.300781 200.917969 247.25 200.996094 C 247.601562 200.484375 247.066406 200.957031 247.003906 200.949219 C 247.726562 201.027344 248.351562 200.277344 248.351562 199.605469 C 248.351562 198.8125 247.730469 198.335938 247.003906 198.257812 C 244.582031 198.003906 243.804688 201.785156 245.523438 203.054688 C 246.378906 203.6875 247.6875 203.769531 248.71875 203.714844 C 249.996094 203.644531 250.863281 202.839844 250.933594 201.539062 C 250.980469 200.574219 250.660156 199.421875 249.917969 198.773438 C 249.097656 198.054688 247.621094 198.109375 246.617188 198.367188 C 244.125 199.007812 245.328125 202.753906 247.324219 203.210938 C 248.667969 203.519531 249.917969 202.53125 249.957031 201.164062 C 249.996094 199.855469 249.15625 198.320312 247.667969 198.660156 C 245.980469 199.042969 246.695312 201.640625 248.386719 201.253906 Z M 248.382812 201.253906 " fill-opacity="1" fill-rule="nonzero"/><path fill="#000000" d="M 259.523438 213.246094 C 258.777344 212.707031 258.46875 212.636719 258.597656 213.03125 C 258.628906 213.074219 258.632812 213.117188 258.609375 213.15625 C 258.582031 213.226562 258.578125 213.324219 258.539062 213.398438 C 258.488281 213.492188 258.597656 213.347656 258.589844 213.332031 C 258.519531 213.167969 258.449219 213.03125 258.429688 212.84375 C 258.414062 212.734375 258.457031 212.515625 258.421875 212.429688 C 258.496094 212.152344 258.242188 212.25 257.660156 212.730469 C 257.75 212.773438 257.835938 212.820312 257.921875 212.871094 C 258.148438 213.003906 258.375 213.148438 258.488281 213.394531 C 258.507812 213.433594 258.398438 213.5625 258.488281 213.46875 C 258.691406 213.269531 258.621094 213.421875 258.554688 213.367188 C 258.449219 213.371094 258.339844 213.371094 258.234375 213.371094 C 257.992188 213.355469 258.085938 213.40625 258.511719 213.527344 C 258.550781 213.460938 258.386719 212.773438 258.40625 212.652344 C 258.519531 211.933594 258.222656 211.203125 257.464844 210.996094 C 256.824219 210.820312 255.921875 211.214844 255.808594 211.9375 C 255.644531 212.984375 255.683594 214.128906 256.285156 215.050781 C 256.949219 216.078125 258.335938 216.269531 259.4375 215.921875 C 261.609375 215.230469 261.582031 212.40625 260.042969 211.09375 C 259.242188 210.414062 258.136719 209.792969 257.078125 210.238281 C 255.960938 210.710938 255.640625 211.933594 255.757812 213.042969 C 255.867188 214.082031 256.308594 215.085938 257.230469 215.65625 C 258.183594 216.242188 259.386719 216.140625 260.246094 215.4375 C 261.179688 214.679688 261.515625 213.359375 261.171875 212.21875 C 260.792969 210.96875 259.351562 210.132812 258.164062 210.921875 C 257.558594 211.324219 257.296875 212.109375 257.683594 212.761719 C 258.03125 213.363281 258.914062 213.648438 259.523438 213.242188 Z M 259.523438 213.246094 " fill-opacity="1" fill-rule="nonzero"/><path fill="#000000" d="M 250.933594 223.191406 C 250.984375 223.132812 251.324219 222.847656 251.328125 222.769531 C 251.324219 222.855469 250.882812 222.507812 250.777344 222.496094 C 250.753906 222.492188 250.75 222.644531 250.703125 222.765625 C 250.695312 222.78125 250.839844 222.75 250.84375 222.746094 C 250.914062 222.695312 250.375 222.796875 250.488281 222.75 C 250.570312 222.71875 250.234375 222.675781 250.351562 222.753906 C 250.421875 222.914062 250.453125 222.925781 250.4375 222.792969 C 250.4375 222.710938 250.4375 222.628906 250.4375 222.546875 C 250.324219 222.308594 250.734375 222.679688 250.328125 222.589844 C 250.242188 222.570312 250.71875 222.5 250.652344 222.507812 C 250.78125 222.492188 250.953125 222.5 251.09375 222.5 C 251.191406 222.5 251.289062 222.503906 251.386719 222.515625 C 251.425781 222.542969 251.414062 222.535156 251.355469 222.492188 C 251.328125 222.554688 251.101562 222.097656 251.226562 222.15625 C 251.285156 222.1875 251.101562 222.269531 251.144531 222.257812 C 250.777344 222.351562 250.628906 222.488281 250.226562 222.363281 C 248.566406 221.839844 247.859375 224.4375 249.507812 224.957031 C 251.40625 225.554688 253.972656 224.359375 253.890625 222.140625 C 253.8125 219.921875 251.164062 219.402344 249.445312 220.054688 C 247.402344 220.828125 247.066406 224.03125 249.050781 225.085938 C 249.878906 225.523438 251.089844 225.59375 251.933594 225.171875 C 252.78125 224.746094 253.277344 223.878906 253.40625 222.960938 C 253.558594 221.886719 253.167969 220.726562 252.121094 220.265625 C 250.9375 219.746094 249.796875 220.398438 249.027344 221.289062 C 248.550781 221.839844 248.484375 222.652344 249.027344 223.191406 C 249.511719 223.679688 250.453125 223.742188 250.929688 223.191406 Z M 250.933594 223.191406 " fill-opacity="1" fill-rule="nonzero"/><path fill="#000000" d="M 265.894531 227.953125 C 266.28125 227.664062 266.015625 227.902344 265.851562 227.832031 L 265.257812 227.488281 C 264.835938 227.105469 265.371094 227.445312 265.164062 227.480469 C 265.089844 227.492188 265.222656 227.832031 265.304688 227.480469 C 265.46875 227.339844 265.433594 227.3125 265.195312 227.40625 C 265.085938 227.421875 264.976562 227.441406 264.863281 227.457031 C 264.765625 227.472656 264.320312 227.496094 264.53125 227.546875 L 265.125 227.894531 L 265.03125 227.800781 L 265.375 228.394531 C 265.210938 227.984375 265.257812 227.394531 265.308594 226.960938 L 265.128906 227.640625 L 265.21875 227.496094 L 264.414062 228.113281 C 264.230469 228.105469 264.273438 228.105469 264.539062 228.109375 L 265 228.109375 C 265.195312 228.109375 265.558594 228.085938 265.679688 228.128906 L 265.085938 227.785156 C 264.945312 227.503906 264.90625 227.460938 264.96875 227.667969 C 264.996094 227.746094 265.007812 227.828125 265.007812 227.910156 L 265.003906 227.988281 C 265.03125 227.914062 265.082031 227.863281 265.15625 227.84375 C 265.285156 227.789062 265.28125 227.773438 265.140625 227.800781 C 265.03125 227.808594 264.921875 227.816406 264.8125 227.824219 C 264.734375 227.832031 264.085938 227.878906 264.324219 227.882812 L 265.003906 228.066406 L 265.085938 228.121094 L 265.429688 228.71875 C 265.394531 228.625 265.402344 228.550781 265.390625 228.667969 C 265.410156 228.503906 265.375 228.316406 265.371094 228.152344 C 265.367188 227.9375 265.363281 227.722656 265.359375 227.507812 C 265.355469 227.199219 265.488281 226.96875 265.132812 227.371094 C 264.761719 227.789062 264.898438 227.535156 265.109375 227.722656 C 265.304688 227.898438 265.53125 228.113281 265.738281 228.277344 C 265.746094 228.28125 265.894531 228.441406 265.886719 228.449219 L 265.890625 227.816406 L 265.753906 227.953125 C 265.597656 228 265.460938 228.148438 265.308594 228.210938 C 265.261719 228.234375 264.933594 228.300781 264.921875 228.335938 C 264.984375 228.148438 265.363281 229.105469 265.445312 228.679688 C 265.480469 228.480469 265.375 228.074219 265.382812 227.851562 C 265.457031 226.121094 262.765625 226.125 262.691406 227.851562 C 262.65625 228.585938 262.738281 229.429688 263.121094 230.074219 C 263.609375 230.910156 264.566406 231.136719 265.46875 230.964844 C 266.816406 230.707031 268.496094 229.640625 268.492188 228.109375 C 268.492188 226.691406 266.761719 225.269531 265.476562 225.007812 C 264.675781 224.84375 263.765625 225.007812 263.1875 225.621094 C 262.542969 226.3125 262.652344 227.28125 262.675781 228.152344 C 262.695312 228.863281 262.71875 229.585938 263.257812 230.125 C 263.863281 230.730469 264.707031 230.546875 265.460938 230.453125 C 267.40625 230.21875 268.128906 228.230469 267.425781 226.535156 C 267.074219 225.6875 266.324219 225.433594 265.460938 225.421875 C 264.691406 225.410156 263.699219 225.265625 263.101562 225.863281 C 262.527344 226.4375 262.554688 227.289062 262.609375 228.039062 C 262.667969 228.910156 262.855469 229.847656 263.8125 230.144531 C 264.519531 230.363281 265.628906 230.132812 266.320312 229.898438 C 267.253906 229.585938 267.78125 228.769531 267.851562 227.820312 C 267.90625 227.058594 267.746094 226.117188 267.160156 225.585938 C 266.398438 224.890625 265.300781 225.058594 264.53125 225.628906 C 263.949219 226.0625 263.652344 226.796875 264.050781 227.472656 C 264.386719 228.046875 265.304688 228.390625 265.890625 227.953125 Z M 265.894531 227.953125 " fill-opacity="1" fill-rule="nonzero"/><path fill="#000000" d="M 64.589844 89.480469 C 64.679688 93.089844 65.738281 99.550781 70.472656 99.601562 C 75.355469 99.652344 77.304688 93.4375 77.34375 89.480469 C 77.359375 87.871094 74.855469 87.867188 74.839844 89.480469 C 74.816406 91.871094 73.738281 97.3125 70.441406 97.09375 C 67.554688 96.902344 67.144531 91.605469 67.09375 89.480469 C 67.050781 87.875 64.550781 87.867188 64.589844 89.480469 Z M 64.589844 89.480469 " fill-opacity="1" fill-rule="nonzero"/><path fill="#f4bdb0" d="M 86.902344 105.046875 C 87.109375 104.953125 86.855469 105.019531 86.828125 104.917969 C 86.394531 104.550781 86.3125 104.203125 86.585938 103.875 L 87.464844 103.753906 C 87.492188 104.15625 87.550781 104.265625 87.644531 104.082031 C 87.683594 104.011719 87.738281 103.953125 87.800781 103.90625 C 87.839844 103.886719 88.183594 103.621094 88.179688 103.621094 C 88.167969 103.679688 88.253906 103.378906 88.078125 103.410156 C 88.050781 103.417969 88.03125 103.515625 88.011719 103.515625 C 88.015625 103.515625 87.761719 103.722656 87.773438 103.714844 C 87.601562 103.820312 87.289062 103.863281 87.082031 103.894531 C 86.941406 103.914062 86.238281 103.859375 86.207031 103.921875 C 86.304688 103.746094 86.742188 104.9375 86.679688 104.015625 C 86.644531 103.527344 86.621094 103.5 87.007812 103.402344 C 87.382812 103.300781 87.980469 103.410156 88.304688 103.261719 C 88.5 103.167969 88.382812 103.136719 88.152344 102.902344 C 88.375 103.128906 87.824219 103.050781 88.167969 102.992188 C 87.285156 103.140625 86.792969 104.230469 87.011719 105.027344 C 87.269531 105.964844 88.164062 106.328125 89.046875 106.183594 C 90.90625 105.875 91.835938 103.601562 91.304688 101.929688 C 90.714844 100.0625 88.761719 99.832031 87.089844 100.042969 C 85.164062 100.28125 83.5625 101.367188 83.378906 103.429688 C 83.222656 105.222656 83.949219 107.058594 85.941406 107.21875 C 87.675781 107.355469 89.699219 106.898438 90.734375 105.390625 C 91.691406 103.988281 91.59375 101.949219 90.144531 100.917969 C 86.699219 98.460938 81.816406 104.300781 85.757812 106.570312 C 87.589844 107.625 89.804688 106.214844 89.742188 104.144531 C 89.714844 103.191406 89.125 102.386719 88.292969 101.972656 C 87.28125 101.46875 86.199219 101.746094 85.230469 102.191406 C 84.421875 102.566406 84.21875 103.738281 84.636719 104.457031 C 85.125 105.289062 86.089844 105.421875 86.902344 105.046875 Z M 86.902344 105.046875 " fill-opacity="1" fill-rule="nonzero"/></svg>