<svg xmlns="http://www.w3.org/2000/svg" xmlns:xlink="http://www.w3.org/1999/xlink" width="500" zoomAndPan="magnify" viewBox="0 0 375 374.999991" height="500" preserveAspectRatio="xMidYMid meet" version="1.0"><defs><clipPath id="70493decce"><path d="M 0 0 L 374.691406 0 L 374.691406 372.535156 L 0 372.535156 Z M 0 0 " clip-rule="nonzero"/></clipPath><clipPath id="ef2ee9066f"><path d="M 56.167969 54.011719 L 314.851562 54.011719 L 314.851562 320.695312 L 56.167969 320.695312 Z M 56.167969 54.011719 " clip-rule="nonzero"/></clipPath></defs><g clip-path="url(#70493decce)"><path fill="#ffffff" d="M 187.492188 -2.15625 C 291.0625 -2.15625 374.980469 81.765625 374.980469 185.335938 C 374.980469 288.90625 291.0625 372.824219 187.492188 372.824219 C 83.921875 372.824219 0 288.90625 0 185.335938 C 0 81.765625 83.921875 -2.15625 187.492188 -2.15625 Z M 187.492188 -2.15625 " fill-opacity="1" fill-rule="nonzero"/></g><g clip-path="url(#ef2ee9066f)"><path fill="#ffffff" d="M 60.316406 311.761719 L 60.316406 260.050781 L 56.21875 224.496094 L 56.21875 150.648438 L 60.316406 114.636719 L 70.328125 78.171875 L 92.636719 54.011719 L 129.058594 54.011719 C 129.058594 54.011719 148.179688 66.320312 150.453125 68.597656 C 152.730469 70.878906 162.292969 92.285156 162.292969 92.285156 L 158.085938 111.445312 C 158.085938 111.445312 148.179688 127.402344 146.8125 127.855469 C 145.449219 128.3125 118.757812 133.78125 118.757812 133.78125 L 109.253906 140.621094 L 105.386719 159.765625 L 103.5625 195.363281 L 118.757812 182.886719 L 138.195312 170.707031 L 159.703125 169.796875 L 188.695312 171.617188 L 217.945312 178.457031 L 239.683594 188.402344 L 258.347656 204.738281 L 267 222.21875 L 278.835938 242.273438 L 295.679688 260.964844 L 314.800781 276.007812 L 312.070312 287.859375 L 298.867188 293.785156 L 280.65625 296.519531 L 261.078125 295.609375 L 256.984375 311.765625 L 251.066406 318.402344 L 229.214844 318.402344 L 227.394531 300.167969 L 222.386719 318.402344 L 209.640625 320.679688 L 199.863281 320.679688 L 195.527344 309.285156 L 192.792969 297.433594 L 174.710938 299.253906 L 146.816406 300.167969 L 133.15625 296.976562 L 127.238281 311.765625 L 118.757812 316.121094 L 98.125 316.578125 L 95.835938 296.976562 L 91.273438 318.398438 L 78.984375 320.679688 L 66.617188 320.679688 L 60.316406 311.765625 Z M 60.316406 311.761719 " fill-opacity="1" fill-rule="nonzero"/></g><path fill="#d08429" d="M 68.507812 146.027344 C 68.507812 146.027344 66.457031 74.121094 97.234375 66.417969 C 128.007812 58.714844 152.628906 84.972656 143.394531 103.6875 C 134.164062 122.398438 104.414062 120.347656 104.414062 120.347656 C 104.414062 120.347656 91.589844 159.894531 97.234375 218.957031 C 97.234375 218.957031 125.445312 179.410156 166.992188 179.921875 C 208.539062 180.4375 232.648438 185.058594 256.753906 232.308594 C 280.863281 279.5625 304.878906 280.074219 304.878906 280.074219 C 304.878906 280.074219 296.25 290.347656 251.625 283.667969 C 251.625 283.667969 249.203125 305.171875 247.917969 311.078125 L 235.097656 311.078125 C 235.097656 311.078125 230.480469 292.335938 231.25 284.890625 L 221.25 285.402344 C 221.25 285.402344 221.25 302.347656 218.6875 311.078125 L 202.53125 311.078125 C 202.53125 311.078125 198.941406 299.523438 199.710938 287.457031 C 199.710938 287.457031 167.144531 292.59375 124.066406 285.660156 C 124.066406 285.660156 122.527344 306.972656 120.730469 309.792969 C 120.730469 309.792969 106.371094 311.847656 102.269531 309.792969 L 99.960938 284.375 L 90.984375 284.890625 L 89.960938 311.078125 C 89.960938 311.078125 72.523438 312.621094 72.011719 311.078125 C 71.496094 309.539062 66.371094 216.847656 66.625 197.078125 C 66.882812 177.308594 68.511719 146.027344 68.511719 146.027344 Z M 68.507812 146.027344 " fill-opacity="1" fill-rule="nonzero"/><path fill="#000000" d="M 122.460938 83.390625 C 122.410156 85.441406 122.019531 90.480469 119.253906 90.6875 C 116.105469 90.921875 115.074219 85.660156 115.050781 83.390625 C 115.039062 81.847656 112.644531 81.84375 112.660156 83.390625 C 112.695312 87.179688 114.558594 93.140625 119.226562 93.085938 C 123.753906 93.035156 124.769531 86.847656 124.851562 83.390625 C 124.890625 81.847656 122.496094 81.847656 122.460938 83.390625 Z M 122.460938 83.390625 " fill-opacity="1" fill-rule="nonzero"/><path fill="#f4bdb0" d="M 97.640625 93.679688 C 97.835938 93.589844 97.59375 93.65625 97.566406 93.554688 C 97.152344 93.203125 97.074219 92.871094 97.335938 92.554688 L 98.175781 92.441406 C 98.203125 92.824219 98.261719 92.929688 98.351562 92.753906 C 98.386719 92.6875 98.433594 92.632812 98.496094 92.585938 C 98.535156 92.566406 98.863281 92.3125 98.863281 92.3125 C 98.847656 92.367188 98.929688 92.078125 98.765625 92.113281 C 98.738281 92.117188 98.722656 92.214844 98.699219 92.214844 C 98.707031 92.214844 98.460938 92.414062 98.472656 92.40625 C 98.308594 92.507812 98.007812 92.546875 97.8125 92.574219 C 97.675781 92.59375 97.003906 92.542969 96.972656 92.601562 C 97.066406 92.4375 97.488281 93.578125 97.425781 92.691406 C 97.390625 92.226562 97.371094 92.199219 97.738281 92.101562 C 98.09375 92.007812 98.671875 92.109375 98.976562 91.96875 C 99.164062 91.882812 99.054688 91.847656 98.835938 91.625 C 99.046875 91.84375 98.523438 91.765625 98.847656 91.710938 C 98.003906 91.851562 97.535156 92.898438 97.742188 93.660156 C 97.988281 94.558594 98.84375 94.910156 99.691406 94.769531 C 101.46875 94.472656 102.355469 92.296875 101.851562 90.695312 C 101.285156 88.90625 99.417969 88.683594 97.816406 88.886719 C 95.976562 89.117188 94.445312 90.15625 94.269531 92.132812 C 94.121094 93.851562 94.816406 95.609375 96.722656 95.761719 C 98.378906 95.894531 100.3125 95.457031 101.300781 94.011719 C 102.21875 92.667969 102.121094 90.710938 100.738281 89.726562 C 97.445312 87.371094 92.773438 92.96875 96.542969 95.144531 C 98.292969 96.152344 100.414062 94.800781 100.351562 92.816406 C 100.324219 91.902344 99.765625 91.132812 98.964844 90.734375 C 98 90.253906 96.964844 90.519531 96.039062 90.945312 C 95.261719 91.304688 95.070312 92.425781 95.472656 93.113281 C 95.9375 93.910156 96.859375 94.042969 97.636719 93.683594 Z M 97.640625 93.679688 " fill-opacity="1" fill-rule="nonzero"/><path fill="#000000" d="M 136.492188 202.890625 C 136.363281 202.847656 136.617188 203.019531 136.582031 202.976562 C 136.570312 202.960938 136.585938 203.242188 136.609375 203.0625 C 136.640625 202.824219 136.515625 203.238281 136.585938 203.097656 C 136.453125 203.242188 136.417969 203.269531 136.488281 203.183594 C 136.597656 203.148438 136.558594 203.15625 136.371094 203.207031 L 138.160156 203.9375 C 137.921875 203.566406 137.925781 203.292969 138.347656 202.929688 C 138.996094 202.371094 138.921875 201.261719 138.347656 200.6875 C 137.703125 200.042969 136.761719 200.128906 136.109375 200.6875 C 134.738281 201.867188 134.464844 204.019531 135.425781 205.535156 C 135.808594 206.140625 136.511719 206.441406 137.210938 206.265625 C 138.625 205.90625 139.691406 204.652344 139.765625 203.1875 C 139.847656 201.617188 138.769531 200.320312 137.332031 199.835938 C 136.523438 199.5625 135.605469 200.148438 135.386719 200.941406 C 135.148438 201.808594 135.679688 202.617188 136.492188 202.890625 Z M 136.492188 202.890625 " fill-opacity="1" fill-rule="nonzero"/><path fill="#000000" d="M 154.40625 209.117188 C 153.296875 209.382812 152.488281 210.546875 152.582031 211.679688 C 152.644531 212.441406 152.992188 213.101562 153.644531 213.523438 C 154.058594 213.792969 154.589844 213.933594 155.085938 213.894531 C 156.347656 213.796875 157.507812 212.800781 157.414062 211.449219 C 157.324219 210.175781 156.222656 208.9375 154.867188 209.058594 C 154.042969 209.128906 153.242188 209.734375 153.285156 210.640625 C 153.320312 211.4375 153.984375 212.304688 154.867188 212.226562 C 154.917969 212.21875 154.964844 212.21875 155.011719 212.222656 C 154.714844 212.167969 154.644531 212.164062 154.800781 212.210938 L 154.554688 212.113281 C 154.6875 212.199219 154.640625 212.160156 154.410156 211.996094 C 154.617188 212.183594 154.214844 211.679688 154.347656 211.90625 C 154.417969 212.046875 154.398438 211.988281 154.273438 211.726562 C 154.3125 211.890625 154.304688 211.820312 154.253906 211.519531 L 154.253906 211.589844 C 154.246094 211.402344 154.292969 211.226562 154.394531 211.066406 C 154.265625 211.292969 154.671875 210.78125 154.488281 210.949219 C 154.730469 210.777344 154.785156 210.730469 154.65625 210.816406 C 154.515625 210.890625 154.582031 210.863281 154.855469 210.738281 L 154.792969 210.757812 C 154.636719 210.792969 154.710938 210.785156 155.023438 210.734375 C 154.988281 210.734375 154.957031 210.734375 154.925781 210.734375 C 154.792969 210.726562 154.878906 210.738281 155.183594 210.769531 C 154.867188 210.625 155.417969 210.890625 155.296875 210.824219 C 155.191406 210.757812 155.253906 210.808594 155.488281 210.972656 C 155.660156 211.214844 155.699219 211.265625 155.617188 211.132812 C 155.71875 211.402344 155.75 211.480469 155.714844 211.355469 C 155.683594 211.230469 155.691406 211.316406 155.742188 211.613281 C 155.792969 211.253906 155.683594 211.878906 155.714844 211.734375 C 155.785156 211.414062 155.539062 212.0625 155.671875 211.832031 C 155.808594 211.601562 155.414062 212.136719 155.597656 211.949219 C 155.355469 212.117188 155.304688 212.164062 155.441406 212.082031 C 155.160156 212.1875 155.097656 212.21875 155.253906 212.179688 C 156.058594 211.988281 156.613281 211.023438 156.359375 210.226562 C 156.085938 209.386719 155.273438 208.917969 154.410156 209.121094 Z M 154.40625 209.117188 " fill-opacity="1" fill-rule="nonzero"/><path fill="#000000" d="M 157.9375 194.714844 C 158 194.792969 158.058594 194.878906 158.105469 194.96875 C 158.050781 194.820312 158.054688 194.835938 158.109375 195.015625 C 158.152344 195.203125 158.152344 195.210938 158.117188 195.046875 C 158.105469 195.238281 158.113281 195.25 158.136719 195.082031 C 158.121094 195.183594 158.09375 195.28125 158.0625 195.378906 C 158.125 195.234375 158.113281 195.246094 158.027344 195.410156 C 158.125 195.296875 158.113281 195.308594 157.988281 195.441406 C 158.117188 195.355469 158.101562 195.351562 157.945312 195.429688 L 158.746094 195.214844 L 158.910156 195.234375 L 159.605469 195.640625 C 159.777344 196.03125 159.832031 196.128906 159.769531 195.933594 C 159.746094 195.851562 159.726562 195.769531 159.707031 195.6875 C 159.667969 195.542969 159.710938 195.519531 159.675781 195.484375 C 159.679688 195.347656 159.667969 195.367188 159.628906 195.546875 C 159.597656 195.753906 159.476562 195.910156 159.269531 196.015625 C 158.847656 196.25 158.21875 196.03125 157.988281 195.609375 C 158.398438 196.359375 159.429688 196.605469 160.152344 196.179688 C 160.90625 195.738281 161.136719 194.761719 160.71875 194.011719 C 160 192.707031 158.148438 192.640625 157.167969 193.679688 C 156.222656 194.679688 156.296875 196.808594 157.269531 197.796875 C 158.488281 199.03125 160.191406 198.117188 160.867188 196.8125 C 161.453125 195.671875 161.4375 194.171875 160.671875 193.117188 C 160.167969 192.425781 159.292969 192.085938 158.503906 192.546875 C 157.824219 192.949219 157.433594 194.019531 157.9375 194.714844 Z M 157.9375 194.714844 " fill-opacity="1" fill-rule="nonzero"/><path fill="#000000" d="M 172.730469 208.253906 C 172.851562 208.398438 172.929688 208.5 172.988281 208.59375 C 173.070312 208.71875 173.105469 208.847656 173.128906 208.867188 C 173.164062 208.972656 173.160156 208.980469 173.125 208.886719 C 173.109375 208.6875 173.167969 208.53125 173.296875 208.410156 C 173.476562 208.253906 173.777344 208.25 173.984375 208.304688 C 174.632812 208.476562 174.640625 209.183594 174.597656 208.761719 C 174.578125 208.59375 174.574219 208.421875 174.574219 208.257812 C 174.574219 208.230469 174.574219 207.742188 174.578125 208.011719 C 174.632812 207.828125 174.632812 207.804688 174.578125 207.941406 C 174.472656 208.046875 174.488281 208.03125 174.628906 207.898438 C 175.253906 207.316406 175.21875 206.246094 174.628906 205.65625 C 174.003906 205.035156 173.015625 205.070312 172.390625 205.65625 C 170.804688 207.132812 170.964844 211.363281 173.6875 211.441406 C 174.84375 211.472656 175.949219 210.5625 176.21875 209.449219 C 176.539062 208.117188 175.78125 206.980469 174.96875 206.011719 C 174.414062 205.359375 173.296875 205.445312 172.730469 206.011719 C 172.082031 206.660156 172.175781 207.597656 172.730469 208.253906 Z M 172.730469 208.253906 " fill-opacity="1" fill-rule="nonzero"/><path fill="#000000" d="M 179.332031 190.714844 C 179.363281 190.761719 179.578125 191.007812 179.4375 190.863281 C 179.339844 190.765625 179.433594 190.988281 179.433594 190.832031 C 179.4375 190.597656 179.433594 190.960938 179.433594 191.007812 C 179.425781 190.804688 179.472656 190.84375 179.421875 191.035156 C 179.410156 191.070312 179.339844 191.339844 179.386719 191.148438 C 179.425781 190.984375 179.261719 191.300781 179.445312 191.078125 C 179.390625 191.144531 179.328125 191.207031 179.265625 191.261719 C 179.507812 191.046875 179.234375 191.25 179.152344 191.289062 L 181.070312 191.535156 C 180.941406 191.414062 180.941406 191.433594 181.070312 191.59375 C 180.984375 191.441406 180.988281 191.460938 181.082031 191.652344 C 181.039062 191.476562 181.039062 191.5 181.082031 191.71875 C 181.085938 191.566406 181.085938 191.558594 181.070312 191.6875 C 181.050781 191.816406 181.054688 191.808594 181.089844 191.660156 C 181 191.847656 180.992188 191.867188 181.078125 191.710938 C 180.941406 191.867188 180.9375 191.886719 181.058594 191.761719 C 180.894531 191.886719 180.886719 191.90625 181.042969 191.824219 C 181.820312 191.464844 182.011719 190.339844 181.609375 189.65625 C 181.144531 188.855469 180.226562 188.726562 179.445312 189.085938 C 177.722656 189.878906 177.382812 192.5625 178.828125 193.777344 C 179.417969 194.269531 180.058594 194.34375 180.746094 194.023438 C 182.503906 193.207031 183.152344 190.699219 182.0625 189.113281 C 181.578125 188.410156 180.671875 188.089844 179.898438 188.542969 C 179.199219 188.953125 178.84375 190.003906 179.332031 190.710938 Z M 179.332031 190.714844 " fill-opacity="1" fill-rule="nonzero"/><path fill="#000000" d="M 198.75 206.265625 C 198.890625 206.367188 198.878906 206.355469 198.71875 206.230469 C 198.785156 206.285156 198.847656 206.339844 198.90625 206.394531 C 198.972656 206.453125 199.128906 206.582031 199.160156 206.664062 C 199.035156 206.5 199.019531 206.492188 199.113281 206.632812 C 199.042969 206.4375 199.023438 206.398438 199.058594 206.507812 C 199.089844 206.628906 199.085938 206.574219 199.039062 206.34375 C 199.039062 206.203125 199.074219 206.074219 199.140625 205.949219 C 199.246094 205.761719 199.429688 205.605469 199.636719 205.546875 C 199.902344 205.523438 199.949219 205.515625 199.773438 205.515625 C 199.933594 205.511719 200.082031 205.542969 200.21875 205.617188 C 200.476562 205.777344 200.695312 206.074219 200.683594 206.386719 C 200.632812 206.632812 200.625 206.675781 200.667969 206.503906 C 200.359375 206.941406 200.296875 207.0625 200.488281 206.871094 C 201.09375 206.300781 201.105469 205.195312 200.488281 204.628906 C 199.839844 204.03125 198.894531 204.019531 198.25 204.628906 C 197.453125 205.378906 197.28125 206.6875 197.875 207.613281 C 198.535156 208.644531 199.875 208.957031 200.949219 208.414062 C 201.921875 207.917969 202.402344 206.765625 202.128906 205.71875 C 201.878906 204.761719 201.132812 204.0625 200.347656 203.527344 C 199.664062 203.058594 198.5625 203.375 198.183594 204.097656 C 197.757812 204.898438 198.019531 205.765625 198.75 206.265625 Z M 198.75 206.265625 " fill-opacity="1" fill-rule="nonzero"/><path fill="#000000" d="M 198.042969 190.210938 C 198.097656 190.277344 198.148438 190.351562 198.195312 190.433594 C 198.136719 190.253906 198.132812 190.25 198.191406 190.425781 C 198.230469 190.605469 198.234375 190.597656 198.203125 190.402344 C 198.210938 190.492188 198.210938 190.582031 198.203125 190.671875 C 198.234375 190.472656 198.230469 190.46875 198.191406 190.652344 C 198.132812 190.824219 198.136719 190.824219 198.203125 190.648438 C 198.105469 190.800781 198.113281 190.804688 198.222656 190.660156 C 198.09375 190.78125 198.101562 190.789062 198.246094 190.679688 L 200.164062 190.929688 C 199.972656 190.734375 200.203125 191.019531 200.238281 191.078125 C 200.285156 191.203125 200.285156 191.199219 200.242188 191.066406 L 200.261719 191.269531 C 200.261719 191.214844 200.257812 190.890625 200.246094 191.148438 C 200.234375 191.402344 200.285156 191.066406 200.292969 191.03125 C 200.277344 191.125 200.167969 191.277344 200.273438 191.101562 C 200.449219 190.796875 200.117188 191.246094 200.257812 191.109375 C 200.402344 190.972656 200 191.292969 200.238281 191.121094 L 200.058594 191.195312 C 200.230469 191.148438 200.199219 191.148438 199.964844 191.191406 C 200.789062 191.128906 201.589844 190.507812 201.550781 189.609375 C 201.511719 188.804688 200.851562 187.957031 199.964844 188.023438 C 198.691406 188.121094 197.71875 188.882812 197.277344 190.082031 C 196.886719 191.152344 197.132812 192.355469 197.921875 193.171875 C 198.363281 193.625 199.296875 193.832031 199.84375 193.417969 C 200.582031 192.859375 201.132812 192.160156 201.300781 191.226562 C 201.460938 190.332031 201.335938 189.347656 200.777344 188.605469 C 200.265625 187.925781 199.410156 187.570312 198.613281 188.039062 C 197.941406 188.429688 197.527344 189.519531 198.046875 190.207031 Z M 198.042969 190.210938 " fill-opacity="1" fill-rule="nonzero"/><path fill="#000000" d="M 217.554688 201.183594 L 216.734375 201.070312 L 216.582031 200.953125 C 216.496094 200.871094 216.421875 200.757812 216.390625 200.640625 C 216.347656 200.488281 216.355469 200.308594 216.421875 200.167969 C 216.445312 200.113281 216.617188 199.933594 216.503906 200.027344 C 216.480469 200.050781 216.273438 200.230469 216.421875 200.117188 C 216.570312 200.007812 216.335938 200.164062 216.308594 200.179688 C 216.238281 200.226562 216.144531 200.257812 216.078125 200.3125 C 216 200.347656 216 200.351562 216.085938 200.320312 C 216.152344 200.285156 216.226562 200.277344 216.304688 200.289062 C 216.660156 200.308594 217.097656 200.511719 217.199219 200.886719 C 217.222656 200.976562 217.207031 201.199219 217.21875 200.984375 C 217.210938 201.125 217.164062 201.222656 217.132812 201.355469 L 217.203125 201.246094 L 217.125 201.367188 C 217.238281 201.265625 217.253906 201.25 217.164062 201.316406 C 217.089844 201.371094 217.089844 201.375 217.164062 201.320312 C 217.339844 201.222656 217.507812 201.109375 217.683594 201.011719 C 218.410156 200.613281 218.707031 199.550781 218.25 198.84375 C 217.777344 198.105469 216.863281 197.847656 216.085938 198.277344 C 215.003906 198.867188 214.039062 199.765625 214.058594 201.09375 C 214.074219 202.617188 215.5 203.804688 216.992188 203.351562 C 218.160156 203 219.332031 202.019531 219.5 200.765625 C 219.597656 200.027344 219.363281 199.304688 218.855469 198.753906 C 218.292969 198.140625 217.511719 197.976562 216.71875 198.125 C 215.902344 198.28125 215.363281 199.308594 215.613281 200.078125 C 215.894531 200.949219 216.6875 201.351562 217.558594 201.183594 Z M 217.554688 201.183594 " fill-opacity="1" fill-rule="nonzero"/></svg>