<svg xmlns="http://www.w3.org/2000/svg" xmlns:xlink="http://www.w3.org/1999/xlink" width="500" zoomAndPan="magnify" viewBox="0 0 375 374.999991" height="500" preserveAspectRatio="xMidYMid meet" version="1.0"><defs><filter x="0%" y="0%" width="100%" height="100%" id="43b6deeda0"><feColorMatrix values="0 0 0 0 1 0 0 0 0 1 0 0 0 0 1 0 0 0 1 0" color-interpolation-filters="sRGB"/></filter><mask id="442a340886"><g filter="url(#43b6deeda0)"><rect x="-37.5" width="450" fill="#000000" y="-37.499999" height="449.999989" fill-opacity="0.4"/></g></mask><clipPath id="7d21cab60f"><path d="M 0 17 L 229 17 L 229 352 L 0 352 Z M 0 17 " clip-rule="nonzero"/></clipPath><clipPath id="2c617b34da"><path d="M 0 78 L 276 78 L 276 352 L 0 352 Z M 0 78 " clip-rule="nonzero"/></clipPath><clipPath id="3855ada43f"><path d="M 0 124 L 335 124 L 335 352 L 0 352 Z M 0 124 " clip-rule="nonzero"/></clipPath><clipPath id="6927120944"><path d="M 0 144 L 375 144 L 375 352 L 0 352 Z M 0 144 " clip-rule="nonzero"/></clipPath><clipPath id="0fc42d1d28"><path d="M 38 127 L 375 127 L 375 352 L 38 352 Z M 38 127 " clip-rule="nonzero"/></clipPath><clipPath id="31aec1918c"><path d="M 99 77 L 375 77 L 375 352 L 99 352 Z M 99 77 " clip-rule="nonzero"/></clipPath><clipPath id="755bd9ce31"><path d="M 142 13 L 375 13 L 375 352 L 142 352 Z M 142 13 " clip-rule="nonzero"/></clipPath><clipPath id="92a57c3f51"><path d="M 166 0.761719 L 375 0.761719 L 375 352 L 166 352 Z M 166 0.761719 " clip-rule="nonzero"/></clipPath><clipPath id="a55ad89bb8"><path d="M 142 0.761719 L 375 0.761719 L 375 307 L 142 307 Z M 142 0.761719 " clip-rule="nonzero"/></clipPath><clipPath id="93687fcc29"><rect x="0" width="375" y="0" height="352"/></clipPath><clipPath id="a8e6262114"><path d="M 182 129 L 193 129 L 193 144.558594 L 182 144.558594 Z M 182 129 " clip-rule="nonzero"/></clipPath><clipPath id="96370eed95"><path d="M 199 119.808594 L 224 119.808594 L 224 132 L 199 132 Z M 199 119.808594 " clip-rule="nonzero"/></clipPath><clipPath id="f12fa29e33"><path d="M 151 119.808594 L 176 119.808594 L 176 132 L 151 132 Z M 151 119.808594 " clip-rule="nonzero"/></clipPath><clipPath id="1b083d5c10"><path d="M 229 137 L 231.898438 137 L 231.898438 140 L 229 140 Z M 229 137 " clip-rule="nonzero"/></clipPath><clipPath id="a93e893d07"><path d="M 143.398438 137 L 146 137 L 146 140 L 143.398438 140 Z M 143.398438 137 " clip-rule="nonzero"/></clipPath></defs><g mask="url(#442a340886)"><g transform="matrix(1, 0, 0, 1, 0, 23)"><g clip-path="url(#93687fcc29)"><path fill="#808184" d="M 27.527344 190.558594 C 1.894531 213.011719 30.21875 246.046875 51.449219 257.730469 C 54.445312 259.382812 57.566406 254.914062 54.875 252.652344 C 38.234375 239.011719 10.339844 217.90625 30.464844 193.984375 C 32.054688 192.089844 29.546875 188.785156 27.527344 190.558594 Z M 27.527344 190.558594 " fill-opacity="1" fill-rule="nonzero"/><g clip-path="url(#7d21cab60f)"><path stroke-linecap="butt" transform="matrix(6.117454, 0, 0, 6.117454, -121.125602, -145.960836)" fill="none" stroke-linejoin="miter" d="M 24.299804 55.009716 C 20.109694 58.680054 24.73976 64.080202 28.210234 65.99008 C 28.699996 66.260183 29.21019 65.529691 28.770235 65.159976 C 26.050047 62.930188 21.490221 59.480147 24.779988 55.569717 C 25.039874 55.260024 24.629931 54.719818 24.299804 55.009716 Z M 24.299804 55.009716 " stroke="#808184" stroke-width="2" stroke-opacity="1" stroke-miterlimit="10"/></g><path fill="#808184" d="M 46.429688 254.734375 C 44.597656 285.257812 72.675781 305.691406 100.632812 300.367188 C 104.914062 299.574219 102.773438 293.027344 98.550781 293.824219 C 73.164062 298.59375 53.648438 279.445312 51.816406 254.488281 C 51.507812 250.878906 46.613281 251.308594 46.429688 254.734375 Z M 46.429688 254.734375 " fill-opacity="1" fill-rule="nonzero"/><g clip-path="url(#2c617b34da)"><path stroke-linecap="butt" transform="matrix(6.117454, 0, 0, 6.117454, -121.125602, -145.960836)" fill="none" stroke-linejoin="miter" d="M 27.389708 65.500318 C 27.090232 70.489884 31.68007 73.830095 36.250113 72.959763 C 36.949955 72.830139 36.600034 71.759943 35.90977 71.890206 C 31.759888 72.669865 28.569733 69.539733 28.270257 65.46009 C 28.219812 64.870078 27.419719 64.940317 27.389708 65.500318 Z M 27.389708 65.500318 " stroke="#808184" stroke-width="2" stroke-opacity="1" stroke-miterlimit="10"/></g><path fill="#808184" d="M 92.433594 302.019531 C 99.835938 328.386719 139.050781 348.511719 160.582031 325.632812 C 162.480469 323.613281 160.214844 320.617188 157.832031 321.289062 C 145.535156 324.777344 135.867188 329.488281 122.839844 324.898438 C 110.910156 320.679688 103.261719 311.441406 98.308594 300 C 96.71875 296.390625 91.273438 298.042969 92.433594 302.019531 Z M 92.433594 302.019531 " fill-opacity="1" fill-rule="nonzero"/><g clip-path="url(#3855ada43f)"><path stroke-linecap="butt" transform="matrix(6.117454, 0, 0, 6.117454, -121.125602, -145.960836)" fill="none" stroke-linejoin="miter" d="M 34.909814 73.229866 C 36.119851 77.540023 42.530171 80.82979 46.049813 77.089851 C 46.360145 76.759725 45.98979 76.269963 45.60028 76.379793 C 43.590151 76.95001 42.00976 77.720092 39.880223 76.969805 C 37.930117 76.28018 36.679852 74.770029 35.870181 72.89974 C 35.610294 72.309728 34.720167 72.579831 34.909814 73.229866 Z M 34.909814 73.229866 " stroke="#808184" stroke-width="2" stroke-opacity="1" stroke-miterlimit="10"/></g><path fill="#808184" d="M 153.546875 327.714844 C 171.535156 347.65625 204.75 344.535156 219.859375 322.574219 C 222.125 319.273438 217.964844 315.171875 215.152344 318.292969 C 198.390625 336.707031 176.917969 338.113281 156.914062 323.796875 C 154.28125 321.902344 151.285156 325.207031 153.546875 327.714844 Z M 153.546875 327.714844 " fill-opacity="1" fill-rule="nonzero"/><g clip-path="url(#6927120944)"><path stroke-linecap="butt" transform="matrix(6.117454, 0, 0, 6.117454, -121.125602, -145.960836)" fill="none" stroke-linejoin="miter" d="M 44.8998 77.430194 C 47.840284 80.689949 53.269805 80.179755 55.739684 76.589873 C 56.110039 76.050305 55.429992 75.379836 54.970242 75.890031 C 52.230259 78.900117 48.720195 79.129992 45.450223 76.789736 C 45.019846 76.480044 44.530084 77.02025 44.8998 77.430194 Z M 44.8998 77.430194 " stroke="#808184" stroke-width="2" stroke-opacity="1" stroke-miterlimit="10"/></g><path fill="#808184" d="M 211.785156 326.734375 C 234.847656 347.351562 270.820312 331.691406 279.324219 303.917969 C 280.363281 300.429688 274.796875 298.410156 273.449219 301.777344 C 262.621094 328.386719 238.949219 334.074219 214.109375 323.308594 C 212.03125 322.390625 209.949219 325.082031 211.785156 326.734375 Z M 211.785156 326.734375 " fill-opacity="1" fill-rule="nonzero"/><g clip-path="url(#0fc42d1d28)"><path stroke-linecap="butt" transform="matrix(6.117454, 0, 0, 6.117454, -121.125602, -145.960836)" fill="none" stroke-linejoin="miter" d="M 54.419819 77.26992 C 58.189769 80.640143 64.0701 78.080229 65.460205 73.540198 C 65.630057 72.96998 64.720135 72.639854 64.499838 73.190277 C 62.729801 77.540023 58.860238 78.46974 54.799751 76.709919 C 54.460047 76.559861 54.119704 76.999817 54.419819 77.26992 Z M 54.419819 77.26992 " stroke="#808184" stroke-width="2" stroke-opacity="1" stroke-miterlimit="10"/></g><path fill="#808184" d="M 275.589844 305.570312 C 301.773438 306.667969 329.425781 280.914062 321.105469 252.589844 C 320.125 249.226562 315.597656 250.449219 315.476562 253.632812 C 314.925781 266.355469 314.007812 277.367188 304.832031 287.15625 C 297.0625 295.414062 286.480469 299.265625 275.347656 299.449219 C 271.429688 299.574219 271.796875 305.445312 275.589844 305.570312 Z M 275.589844 305.570312 " fill-opacity="1" fill-rule="nonzero"/><g clip-path="url(#31aec1918c)"><path stroke-linecap="butt" transform="matrix(6.117454, 0, 0, 6.117454, -121.125602, -145.960836)" fill="none" stroke-linejoin="miter" d="M 64.849759 73.810301 C 69.129905 73.989731 73.650142 69.779825 72.290048 65.149759 C 72.129774 64.599975 71.389704 64.799838 71.369909 65.32025 C 71.279875 67.39998 71.129817 69.200029 69.629883 70.800215 C 68.359823 72.150092 66.630014 72.779694 64.81017 72.809706 C 64.169712 72.830139 64.229735 73.789867 64.849759 73.810301 Z M 64.849759 73.810301 " stroke="#808184" stroke-width="2" stroke-opacity="1" stroke-miterlimit="10"/></g><path fill="#808184" d="M 319.269531 255.710938 C 343.25 243.84375 353.527344 214.355469 347.472656 188.847656 C 346.429688 184.382812 339.886719 186.644531 340.863281 191.050781 C 346.308594 215.214844 335.480469 237.175781 316.332031 251.183594 C 313.519531 253.324219 316.273438 257.242188 319.269531 255.710938 Z M 319.269531 255.710938 " fill-opacity="1" fill-rule="nonzero"/><g clip-path="url(#755bd9ce31)"><path stroke-linecap="butt" transform="matrix(6.117454, 0, 0, 6.117454, -121.125602, -145.960836)" fill="none" stroke-linejoin="miter" d="M 71.989933 65.659954 C 75.909941 63.720064 77.589944 58.899712 76.600205 54.730035 C 76.429714 54.000182 75.360156 54.369897 75.519792 55.090172 C 76.409919 59.040192 74.639881 62.630073 71.50975 64.919884 C 71.05 65.269805 71.500172 65.910262 71.989933 65.659954 Z M 71.989933 65.659954 " stroke="#808184" stroke-width="2" stroke-opacity="1" stroke-miterlimit="10"/></g><path fill="#808184" d="M 340.007812 129.753906 C 344.78125 138.683594 351.691406 144.433594 353.039062 155.261719 C 354.628906 168.046875 348.941406 177.652344 341.660156 187.441406 C 339.519531 190.316406 342.761719 194.964844 346.003906 192.519531 C 364.539062 178.691406 368.210938 135.074219 342.027344 126.695312 C 340.253906 126.203125 339.273438 128.40625 340.007812 129.753906 Z M 340.007812 129.753906 " fill-opacity="1" fill-rule="nonzero"/><g clip-path="url(#92a57c3f51)"><path stroke-linecap="butt" transform="matrix(6.117454, 0, 0, 6.117454, -121.125602, -145.960836)" fill="none" stroke-linejoin="miter" d="M 75.379951 45.070175 C 76.160249 46.529882 77.28983 47.469815 77.510127 49.239853 C 77.770013 51.3298 76.840296 52.899974 75.650054 54.50016 C 75.300134 54.970127 75.830123 55.729991 76.360113 55.330264 C 79.389993 53.069826 79.990223 45.939869 75.710077 44.570197 C 75.420179 44.489741 75.259905 44.849878 75.379951 45.070175 Z M 75.379951 45.070175 " stroke="#808184" stroke-width="2" stroke-opacity="1" stroke-miterlimit="10"/></g><path fill="#808184" d="M 316.945312 69.375 C 321.410156 72.003906 326.425781 72.371094 331.078125 74.695312 C 337.132812 77.691406 342.394531 82.585938 345.820312 88.519531 C 353.222656 101.429688 349.671875 115.316406 342.882812 127.488281 C 340.742188 131.28125 346.246094 135.074219 349.0625 131.773438 C 359.277344 119.78125 360.867188 101.246094 354.078125 87.113281 C 348.328125 75.183594 331.199219 59.769531 317.25 65.152344 C 315.414062 65.886719 315.234375 68.394531 316.945312 69.375 Z M 316.945312 69.375 " fill-opacity="1" fill-rule="nonzero"/><g clip-path="url(#a55ad89bb8)"><path stroke-linecap="butt" transform="matrix(6.117454, 0, 0, 6.117454, -121.125602, -145.960836)" fill="none" stroke-linejoin="miter" d="M 71.610001 35.200236 C 72.339854 35.629974 73.159742 35.689997 73.920245 36.069929 C 74.909985 36.559691 75.7701 37.359784 76.330101 38.329729 C 77.540138 40.440109 76.959704 42.710125 75.849918 44.699821 C 75.499997 45.319845 76.399702 45.939869 76.860091 45.400301 C 78.529878 43.439978 78.789764 40.410098 77.679979 38.099854 C 76.740045 36.149747 73.94004 33.630061 71.659807 34.509972 C 71.359692 34.630018 71.33032 35.039962 71.610001 35.200236 Z M 71.610001 35.200236 " stroke="#808184" stroke-width="2" stroke-opacity="1" stroke-miterlimit="10"/></g></g></g></g><path fill="#ffd77b" d="M 348.695312 212.214844 L 350.652344 210.257812 C 367.535156 193.371094 367.535156 165.722656 350.652344 148.835938 L 349 147.1875 L 349.917969 145.042969 C 358.910156 122.898438 348.144531 97.449219 326 88.457031 L 325.082031 88.089844 L 325.082031 87.113281 C 325.082031 63.191406 305.503906 43.679688 281.648438 43.679688 L 281.15625 43.679688 L 280.976562 43.1875 C 272.105469 21.042969 246.65625 10.15625 224.511719 19.023438 L 221.941406 20.066406 L 219.984375 18.109375 C 203.097656 1.222656 175.449219 1.222656 158.5625 18.109375 L 156.914062 19.757812 L 154.773438 18.902344 C 132.625 9.910156 107.179688 20.675781 98.183594 42.820312 L 97.816406 43.738281 L 96.839844 43.738281 C 72.921875 43.738281 53.40625 63.316406 53.40625 87.171875 L 53.40625 87.664062 L 52.914062 87.847656 C 30.769531 96.71875 19.882812 122.164062 28.753906 144.3125 L 29.792969 146.878906 L 27.835938 148.835938 C 10.949219 165.722656 10.949219 193.371094 27.835938 210.257812 L 29.484375 211.910156 L 28.628906 214.050781 C 19.636719 236.195312 30.402344 261.644531 52.550781 270.636719 L 53.464844 271.003906 L 53.464844 271.980469 C 53.464844 295.902344 73.042969 315.414062 96.902344 315.414062 L 97.390625 315.414062 L 97.574219 315.90625 C 106.445312 338.050781 131.890625 348.941406 154.039062 340.070312 L 156.605469 339.03125 L 158.5625 340.988281 C 175.449219 357.871094 203.097656 357.871094 219.984375 340.988281 L 221.636719 339.335938 L 223.777344 340.191406 C 245.921875 349.183594 271.371094 338.417969 280.363281 316.273438 L 280.730469 315.355469 L 281.707031 315.355469 C 305.628906 315.355469 325.144531 295.777344 325.144531 271.921875 L 325.144531 271.429688 L 325.632812 271.246094 C 347.777344 262.378906 358.667969 236.929688 349.796875 214.785156 Z M 348.695312 212.214844 " fill-opacity="1" fill-rule="nonzero"/><path fill="#f79420" d="M 256.871094 85.214844 C 275.347656 84.726562 293.210938 85.828125 310.949219 91.148438 C 313.273438 91.824219 314.253906 88.214844 311.929688 87.480469 C 294.1875 82.21875 274.796875 79.589844 256.445312 82.28125 C 254.792969 82.523438 255.21875 85.277344 256.871094 85.214844 Z M 256.871094 85.214844 " fill-opacity="1" fill-rule="nonzero"/><path fill="#f79420" d="M 289.476562 120.453125 C 307.035156 122.777344 323.492188 129.8125 336.644531 141.800781 C 338.664062 143.636719 341.597656 140.640625 339.640625 138.804688 C 326 126.324219 308.074219 118.003906 289.476562 116.964844 C 287.214844 116.90625 287.335938 120.207031 289.476562 120.453125 Z M 289.476562 120.453125 " fill-opacity="1" fill-rule="nonzero"/><path fill="#f79420" d="M 300.613281 155.136719 C 308.808594 161.074219 316.515625 167.128906 323.125 174.777344 C 326.367188 178.507812 329.242188 182.542969 331.75 186.765625 C 333.035156 188.90625 334.257812 191.109375 335.359375 193.371094 C 336.398438 195.515625 337.011719 197.960938 338.96875 199.429688 C 339.886719 200.101562 341.539062 199.429688 341.722656 198.328125 C 342.089844 195.820312 340.621094 193.554688 339.578125 191.355469 C 338.417969 189.03125 337.132812 186.703125 335.785156 184.441406 C 333.09375 179.976562 329.976562 175.816406 326.550781 171.839844 C 319.820312 164.132812 311.378906 156.972656 301.894531 152.996094 C 300.367188 152.324219 299.265625 154.160156 300.613281 155.136719 Z M 300.613281 155.136719 " fill-opacity="1" fill-rule="nonzero"/><path fill="#f79420" d="M 298.835938 210.746094 C 300.488281 214.539062 302.570312 218.085938 304.160156 221.820312 C 305.75 225.550781 307.21875 229.28125 308.503906 233.136719 C 311.074219 240.84375 312.417969 248.675781 313.824219 256.6875 C 314.316406 259.378906 318.839844 258.769531 318.597656 256.015625 C 317.925781 247.574219 315.597656 239.070312 312.722656 231.117188 C 309.972656 223.410156 306.484375 215.210938 301.40625 208.726562 C 300.183594 207.136719 298.164062 209.21875 298.835938 210.746094 Z M 298.835938 210.746094 " fill-opacity="1" fill-rule="nonzero"/><path fill="#f79420" d="M 277.242188 256.996094 C 277.488281 264.945312 277.976562 272.777344 277.304688 280.667969 C 276.632812 288.621094 274.980469 296.511719 272.714844 304.222656 C 271.796875 307.28125 276.570312 308.5625 277.488281 305.566406 C 279.933594 297.613281 281.402344 289.476562 281.953125 281.160156 C 282.503906 273.082031 282.441406 264.457031 280.484375 256.566406 C 280.058594 254.792969 277.183594 255.160156 277.242188 256.996094 Z M 277.242188 256.996094 " fill-opacity="1" fill-rule="nonzero"/><path fill="#f79420" d="M 249.46875 279.445312 C 246.105469 287.335938 242.3125 294.984375 237.722656 302.261719 C 235.460938 305.8125 233.074219 309.296875 230.445312 312.539062 C 229.097656 314.253906 227.628906 315.964844 226.222656 317.617188 C 224.878906 319.207031 222.921875 320.675781 222.0625 322.574219 C 221.144531 324.59375 223.042969 326.792969 225.183594 325.691406 C 227.019531 324.714844 228.425781 322.695312 229.773438 321.167969 C 231.179688 319.515625 232.585938 317.863281 233.929688 316.089844 C 236.683594 312.480469 239.253906 308.746094 241.640625 304.894531 C 246.226562 297.308594 250.019531 289.171875 252.527344 280.667969 C 252.957031 278.957031 250.265625 277.671875 249.46875 279.445312 Z M 249.46875 279.445312 " fill-opacity="1" fill-rule="nonzero"/><path fill="#f79420" d="M 201.386719 296.207031 C 196.308594 302.753906 190.925781 308.992188 184.625 314.375 C 178.324219 319.699219 171.226562 324.164062 163.703125 327.589844 C 160.707031 328.996094 163.273438 333.402344 166.332031 332.054688 C 181.75 325.203125 196.1875 313.335938 204.140625 298.289062 C 204.875 296.636719 202.609375 294.617188 201.386719 296.207031 Z M 201.386719 296.207031 " fill-opacity="1" fill-rule="nonzero"/><path fill="#f79420" d="M 161.132812 292.78125 C 153.730469 297.613281 146.511719 302.078125 138.070312 305.015625 C 134.035156 306.421875 129.875 307.464844 125.714844 308.199219 C 123.511719 308.5625 121.246094 308.808594 118.984375 308.992188 C 116.964844 309.175781 114.578125 308.929688 112.683594 309.664062 C 110.726562 310.398438 110.726562 312.90625 112.683594 313.640625 C 114.703125 314.375 117.273438 314.007812 119.414062 313.824219 C 121.675781 313.640625 123.941406 313.335938 126.203125 312.96875 C 130.792969 312.234375 135.378906 311.011719 139.785156 309.480469 C 148.226562 306.484375 156.914062 301.957031 163.335938 295.59375 C 164.742188 294.1875 162.847656 291.617188 161.132812 292.78125 Z M 161.132812 292.78125 " fill-opacity="1" fill-rule="nonzero"/><path fill="#f79420" d="M 120.882812 276.386719 C 112.132812 277.488281 103.570312 278.097656 94.757812 277.488281 C 85.765625 276.816406 77.507812 274.308594 68.882812 271.921875 C 66.3125 271.1875 64.417969 275.222656 66.984375 276.386719 C 75.246094 280.058594 84.847656 281.585938 93.839844 282.199219 C 102.957031 282.808594 112.5 282.257812 121.371094 279.75 C 123.082031 279.199219 122.839844 276.140625 120.882812 276.386719 Z M 120.882812 276.386719 " fill-opacity="1" fill-rule="nonzero"/><path fill="#f79420" d="M 40.988281 215.089844 C 40.925781 215.210938 40.925781 215.335938 40.863281 215.394531 C 40.679688 215.886719 40.925781 216.558594 41.292969 216.925781 C 47.347656 223.042969 54.324219 228.058594 62.03125 231.851562 C 65.761719 233.6875 69.679688 235.277344 73.714844 236.5625 C 77.753906 237.847656 82.097656 239.132812 86.378906 239.4375 C 88.640625 239.558594 89.070312 236.132812 86.929688 235.523438 C 83.015625 234.480469 79.039062 233.929688 75.183594 232.707031 C 71.269531 231.484375 67.476562 230.015625 63.742188 228.242188 C 56.464844 224.695312 49.613281 220.042969 43.554688 214.660156 C 43.1875 214.292969 42.515625 214.050781 42.027344 214.234375 C 41.539062 214.539062 41.171875 214.660156 40.988281 215.089844 Z M 40.988281 215.089844 " fill-opacity="1" fill-rule="nonzero"/><path fill="#f79420" d="M 35.910156 152.140625 C 42.761719 172.023438 56.28125 189.703125 72.1875 203.222656 C 74.570312 205.242188 77.996094 201.816406 75.613281 199.796875 C 59.585938 186.335938 48.082031 169.515625 38.96875 150.796875 C 38.171875 149.144531 35.296875 150.304688 35.910156 152.140625 Z M 35.910156 152.140625 " fill-opacity="1" fill-rule="nonzero"/><path fill="#f79420" d="M 61.664062 99.164062 C 58.851562 102.527344 58.542969 107.910156 58.054688 112.195312 C 57.441406 117.394531 57.441406 122.714844 57.992188 127.914062 C 59.035156 138.070312 62.152344 147.796875 67.230469 156.667969 C 68.761719 159.421875 73.042969 156.914062 71.453125 154.222656 C 66.617188 145.902344 63.558594 136.601562 62.398438 127 C 61.847656 122.410156 61.726562 117.761719 62.09375 113.113281 C 62.398438 108.707031 64.171875 103.996094 63.5 99.652344 C 63.316406 98.859375 62.152344 98.613281 61.664062 99.164062 Z M 61.664062 99.164062 " fill-opacity="1" fill-rule="nonzero"/><path fill="#f79420" d="M 101.734375 54.875 C 95.371094 62.335938 91.089844 71.328125 88.824219 80.8125 C 87.722656 85.460938 87.050781 90.234375 86.929688 95.003906 C 86.867188 97.574219 86.929688 100.144531 87.171875 102.710938 C 87.417969 104.976562 87.355469 107.851562 88.640625 109.746094 C 89.621094 111.214844 92.25 111.214844 92.679688 109.195312 C 93.167969 107.054688 92.433594 104.851562 92.191406 102.652344 C 91.945312 100.386719 91.824219 98.125 91.824219 95.800781 C 91.824219 91.148438 92.25 86.5 93.230469 81.972656 C 95.125 72.859375 99.042969 64.417969 104.117188 56.707031 C 105.160156 55.300781 102.894531 53.527344 101.734375 54.875 Z M 101.734375 54.875 " fill-opacity="1" fill-rule="nonzero"/><path fill="#f79420" d="M 154.039062 27.773438 C 147.613281 33.339844 142.84375 41.355469 139.476562 49.0625 C 137.828125 52.914062 136.417969 56.890625 135.378906 60.992188 C 134.828125 63.132812 134.402344 65.335938 134.09375 67.597656 C 133.789062 69.738281 133.175781 71.820312 134.765625 73.53125 C 135.5625 74.386719 136.785156 74.144531 137.582031 73.53125 C 139.171875 72.308594 138.988281 70.105469 139.234375 68.269531 C 139.476562 66.253906 139.84375 64.292969 140.273438 62.335938 C 141.191406 58.300781 142.414062 54.382812 143.945312 50.53125 C 145.472656 46.796875 147.429688 43.25 149.511719 39.761719 C 151.652344 36.214844 154.222656 33.09375 156.667969 29.730469 C 157.890625 28.203125 155.445312 26.609375 154.039062 27.773438 Z M 154.039062 27.773438 " fill-opacity="1" fill-rule="nonzero"/><path fill="#f79420" d="M 216.128906 29.058594 C 207.566406 30.953125 199.488281 36.214844 193.371094 42.457031 C 190.253906 45.636719 187.5 49.183594 185.238281 52.976562 C 184.074219 54.875 183.035156 56.890625 182.117188 58.910156 C 181.199219 60.992188 179.976562 63.316406 180.097656 65.640625 C 180.21875 67.476562 182.851562 69.128906 184.195312 67.351562 C 185.542969 65.640625 186.03125 63.683594 186.828125 61.726562 C 187.621094 59.828125 188.539062 57.992188 189.578125 56.21875 C 191.660156 52.609375 194.167969 49.246094 197.042969 46.246094 C 202.914062 40.128906 209.828125 35.910156 217.414062 32.363281 C 219.371094 31.382812 217.964844 28.628906 216.128906 29.058594 Z M 216.128906 29.058594 " fill-opacity="1" fill-rule="nonzero"/><path fill="#f79420" d="M 219.433594 69.859375 C 226.957031 65.457031 234.847656 61.664062 243.046875 58.605469 C 251.183594 55.609375 259.441406 53.832031 267.882812 51.9375 C 269.839844 51.507812 269.472656 48.082031 267.394531 48.328125 C 258.644531 49.308594 249.835938 52 241.578125 55.058594 C 233.199219 58.175781 225.246094 62.09375 217.597656 66.800781 C 215.703125 67.964844 217.476562 71.023438 219.433594 69.859375 Z M 219.433594 69.859375 " fill-opacity="1" fill-rule="nonzero"/><path fill="#f0ba41" d="M 132.015625 95.800781 C 91.457031 120.390625 73.59375 174.960938 92.617188 218.578125 C 101.976562 240.050781 118.554688 258.035156 139.171875 269.105469 C 159.910156 280.242188 183.890625 283.117188 206.832031 277.976562 C 232.15625 272.289062 256.75 256.261719 269.964844 233.625 C 271.796875 230.503906 266.84375 227.019531 264.703125 230.015625 C 251.792969 247.941406 234.726562 261.214844 213.558594 268.066406 C 192.882812 274.734375 170.308594 274.304688 150.246094 265.679688 C 130.484375 257.117188 114.03125 241.882812 103.753906 223.042969 C 93.351562 203.957031 90.539062 181.628906 95.25 160.523438 C 100.632812 136.601562 115.007812 114.761719 135.316406 100.816406 C 138.4375 98.613281 135.257812 93.839844 132.015625 95.800781 Z M 132.015625 95.800781 " fill-opacity="1" fill-rule="nonzero"/><path fill="#f0ba41" d="M 95.433594 142.351562 C 84.789062 157.890625 81.238281 178.570312 82.890625 197.105469 C 84.542969 215.394531 91.457031 233.257812 103.078125 247.511719 C 125.835938 275.40625 162.601562 288.925781 197.898438 280.976562 C 218.085938 276.386719 236.808594 265.253906 250.019531 249.347656 C 252.710938 246.167969 247.941406 241.882812 245.1875 245.003906 C 222.980469 270.148438 187.378906 281.769531 154.832031 272.839844 C 122.59375 264.03125 96.960938 236.746094 91.148438 203.710938 C 87.539062 183.21875 91.515625 164.007812 99.285156 145.042969 C 100.265625 142.71875 97.082031 140.027344 95.433594 142.351562 Z M 95.433594 142.351562 " fill-opacity="1" fill-rule="nonzero"/><path fill="#ed6d25" d="M 286.480469 179.546875 C 286.480469 181.136719 286.441406 182.726562 286.363281 184.316406 C 286.285156 185.90625 286.167969 187.492188 286.011719 189.074219 C 285.855469 190.660156 285.660156 192.238281 285.429688 193.808594 C 285.195312 195.382812 284.921875 196.949219 284.613281 198.511719 C 284.300781 200.070312 283.953125 201.625 283.566406 203.167969 C 283.179688 204.710938 282.757812 206.242188 282.292969 207.765625 C 281.832031 209.289062 281.335938 210.796875 280.796875 212.296875 C 280.261719 213.792969 279.691406 215.277344 279.082031 216.746094 C 278.472656 218.214844 277.828125 219.671875 277.148438 221.109375 C 276.46875 222.546875 275.753906 223.96875 275.003906 225.371094 C 274.253906 226.773438 273.46875 228.15625 272.652344 229.519531 C 271.832031 230.886719 270.980469 232.230469 270.097656 233.550781 C 269.214844 234.875 268.296875 236.175781 267.351562 237.453125 C 266.402344 238.730469 265.425781 239.984375 264.414062 241.214844 C 263.40625 242.445312 262.367188 243.648438 261.300781 244.828125 C 260.230469 246.003906 259.132812 247.15625 258.007812 248.28125 C 256.882812 249.40625 255.734375 250.503906 254.554688 251.574219 C 253.375 252.640625 252.171875 253.679688 250.941406 254.6875 C 249.710938 255.699219 248.457031 256.675781 247.179688 257.625 C 245.902344 258.570312 244.601562 259.488281 243.277344 260.371094 C 241.957031 261.253906 240.613281 262.105469 239.25 262.925781 C 237.882812 263.742188 236.5 264.527344 235.097656 265.277344 C 233.695312 266.027344 232.273438 266.742188 230.835938 267.421875 C 229.398438 268.101562 227.941406 268.746094 226.472656 269.355469 C 225.003906 269.964844 223.519531 270.535156 222.023438 271.070312 C 220.523438 271.605469 219.015625 272.105469 217.492188 272.566406 C 215.96875 273.03125 214.4375 273.453125 212.894531 273.839844 C 211.351562 274.226562 209.796875 274.574219 208.238281 274.886719 C 206.679688 275.195312 205.109375 275.46875 203.539062 275.703125 C 201.964844 275.933594 200.386719 276.128906 198.800781 276.285156 C 197.21875 276.441406 195.632812 276.558594 194.042969 276.636719 C 192.453125 276.714844 190.863281 276.753906 189.273438 276.753906 C 187.683594 276.753906 186.09375 276.714844 184.503906 276.636719 C 182.914062 276.558594 181.328125 276.441406 179.746094 276.285156 C 178.164062 276.128906 176.585938 275.933594 175.011719 275.703125 C 173.4375 275.46875 171.871094 275.195312 170.308594 274.886719 C 168.75 274.574219 167.199219 274.226562 165.65625 273.839844 C 164.113281 273.453125 162.578125 273.03125 161.054688 272.566406 C 159.535156 272.105469 158.023438 271.605469 156.527344 271.070312 C 155.027344 270.535156 153.542969 269.964844 152.074219 269.355469 C 150.605469 268.746094 149.152344 268.101562 147.714844 267.421875 C 146.273438 266.742188 144.855469 266.027344 143.453125 265.277344 C 142.046875 264.527344 140.664062 263.742188 139.300781 262.925781 C 137.933594 262.105469 136.59375 261.253906 135.269531 260.371094 C 133.945312 259.488281 132.644531 258.570312 131.367188 257.625 C 130.089844 256.675781 128.835938 255.699219 127.605469 254.6875 C 126.378906 253.679688 125.171875 252.640625 123.996094 251.574219 C 122.816406 250.503906 121.664062 249.40625 120.539062 248.28125 C 119.414062 247.15625 118.316406 246.003906 117.25 244.828125 C 116.179688 243.648438 115.140625 242.445312 114.132812 241.214844 C 113.125 239.984375 112.144531 238.730469 111.195312 237.453125 C 110.25 236.175781 109.332031 234.875 108.449219 233.550781 C 107.566406 232.230469 106.714844 230.886719 105.898438 229.519531 C 105.078125 228.15625 104.296875 226.773438 103.546875 225.371094 C 102.796875 223.96875 102.082031 222.546875 101.402344 221.109375 C 100.71875 219.671875 100.074219 218.214844 99.46875 216.746094 C 98.859375 215.277344 98.285156 213.792969 97.75 212.296875 C 97.214844 210.796875 96.714844 209.289062 96.253906 207.765625 C 95.792969 206.242188 95.367188 204.710938 94.980469 203.167969 C 94.59375 201.625 94.246094 200.070312 93.933594 198.511719 C 93.625 196.949219 93.351562 195.382812 93.121094 193.808594 C 92.886719 192.238281 92.691406 190.660156 92.535156 189.074219 C 92.378906 187.492188 92.261719 185.90625 92.183594 184.316406 C 92.105469 182.726562 92.066406 181.136719 92.066406 179.546875 C 92.066406 177.957031 92.105469 176.367188 92.183594 174.777344 C 92.261719 173.1875 92.378906 171.601562 92.535156 170.019531 C 92.691406 168.4375 92.886719 166.859375 93.121094 165.285156 C 93.351562 163.710938 93.625 162.144531 93.933594 160.582031 C 94.246094 159.023438 94.59375 157.472656 94.980469 155.929688 C 95.367188 154.386719 95.792969 152.851562 96.253906 151.328125 C 96.714844 149.808594 97.214844 148.296875 97.75 146.800781 C 98.285156 145.300781 98.859375 143.816406 99.46875 142.347656 C 100.074219 140.878906 100.71875 139.425781 101.402344 137.984375 C 102.082031 136.546875 102.796875 135.128906 103.546875 133.722656 C 104.296875 132.320312 105.078125 130.9375 105.898438 129.574219 C 106.714844 128.207031 107.566406 126.863281 108.449219 125.542969 C 109.332031 124.21875 110.25 122.917969 111.195312 121.640625 C 112.144531 120.363281 113.125 119.109375 114.132812 117.878906 C 115.140625 116.652344 116.179688 115.445312 117.25 114.265625 C 118.316406 113.089844 119.414062 111.9375 120.539062 110.8125 C 121.664062 109.6875 122.816406 108.589844 123.996094 107.523438 C 125.171875 106.453125 126.378906 105.414062 127.605469 104.40625 C 128.835938 103.398438 130.089844 102.417969 131.367188 101.46875 C 132.644531 100.523438 133.945312 99.605469 135.269531 98.722656 C 136.59375 97.839844 137.933594 96.988281 139.300781 96.171875 C 140.664062 95.351562 142.046875 94.570312 143.453125 93.820312 C 144.855469 93.070312 146.273438 92.355469 147.714844 91.671875 C 149.152344 90.992188 150.605469 90.347656 152.074219 89.742188 C 153.542969 89.132812 155.027344 88.558594 156.527344 88.023438 C 158.023438 87.488281 159.535156 86.988281 161.054688 86.527344 C 162.578125 86.066406 164.113281 85.640625 165.65625 85.253906 C 167.199219 84.867188 168.75 84.519531 170.308594 84.207031 C 171.871094 83.898438 173.4375 83.625 175.011719 83.394531 C 176.585938 83.160156 178.164062 82.964844 179.746094 82.808594 C 181.328125 82.652344 182.914062 82.535156 184.503906 82.457031 C 186.09375 82.378906 187.683594 82.339844 189.273438 82.339844 C 190.863281 82.339844 192.453125 82.378906 194.042969 82.457031 C 195.632812 82.535156 197.21875 82.652344 198.800781 82.808594 C 200.386719 82.964844 201.964844 83.160156 203.539062 83.394531 C 205.109375 83.625 206.679688 83.898438 208.238281 84.207031 C 209.796875 84.519531 211.351562 84.867188 212.894531 85.253906 C 214.4375 85.640625 215.96875 86.066406 217.492188 86.527344 C 219.015625 86.988281 220.523438 87.488281 222.023438 88.023438 C 223.519531 88.558594 225.003906 89.132812 226.472656 89.742188 C 227.941406 90.347656 229.398438 90.992188 230.835938 91.671875 C 232.273438 92.355469 233.695312 93.070312 235.097656 93.820312 C 236.5 94.570312 237.882812 95.351562 239.25 96.171875 C 240.613281 96.988281 241.957031 97.839844 243.277344 98.722656 C 244.601562 99.605469 245.902344 100.523438 247.179688 101.46875 C 248.457031 102.417969 249.710938 103.398438 250.941406 104.40625 C 252.171875 105.414062 253.375 106.453125 254.554688 107.523438 C 255.734375 108.589844 256.882812 109.6875 258.007812 110.8125 C 259.132812 111.9375 260.230469 113.089844 261.300781 114.265625 C 262.367188 115.445312 263.40625 116.652344 264.414062 117.878906 C 265.425781 119.109375 266.402344 120.363281 267.351562 121.640625 C 268.296875 122.917969 269.214844 124.21875 270.097656 125.542969 C 270.980469 126.863281 271.832031 128.207031 272.652344 129.574219 C 273.46875 130.9375 274.253906 132.320312 275.003906 133.722656 C 275.753906 135.128906 276.46875 136.546875 277.148438 137.984375 C 277.828125 139.425781 278.472656 140.878906 279.082031 142.347656 C 279.691406 143.816406 280.261719 145.300781 280.796875 146.800781 C 281.335938 148.296875 281.832031 149.808594 282.292969 151.328125 C 282.757812 152.851562 283.179688 154.386719 283.566406 155.929688 C 283.953125 157.472656 284.300781 159.023438 284.613281 160.582031 C 284.921875 162.144531 285.195312 163.710938 285.429688 165.285156 C 285.660156 166.859375 285.855469 168.4375 286.011719 170.019531 C 286.167969 171.601562 286.285156 173.1875 286.363281 174.777344 C 286.441406 176.367188 286.480469 177.957031 286.480469 179.546875 Z M 286.480469 179.546875 " fill-opacity="1" fill-rule="nonzero"/><path fill="#f0ba41" d="M 25.816406 145.960938 C 15.660156 153.058594 9.910156 166.148438 9.605469 178.324219 C 9.296875 191.109375 14.988281 203.589844 24.347656 212.214844 C 27.34375 214.96875 31.566406 210.257812 28.570312 207.503906 C 20.433594 200.101562 15.597656 189.578125 15.660156 178.507812 C 15.722656 167.007812 20.984375 157.402344 28.507812 149.019531 C 29.976562 147.308594 27.710938 144.617188 25.816406 145.960938 Z M 25.816406 145.960938 " fill-opacity="1" fill-rule="nonzero"/><path fill="#f0ba41" d="M 23.917969 209.21875 C 17.984375 222.371094 18.535156 238.089844 24.835938 251.058594 C 27.710938 256.933594 31.6875 262.253906 36.519531 266.660156 C 41.109375 270.820312 47.347656 275.652344 53.589844 276.632812 C 57.199219 277.242188 58.605469 272.714844 55.667969 270.820312 C 50.835938 267.699219 45.757812 265.742188 41.414062 261.886719 C 37.070312 258.035156 33.460938 253.386719 30.832031 248.246094 C 24.960938 236.5625 24.898438 223.289062 28.875 210.992188 C 29.792969 208.175781 25.144531 206.523438 23.917969 209.21875 Z M 23.917969 209.21875 " fill-opacity="1" fill-rule="nonzero"/><path fill="#f0ba41" d="M 48.082031 272.65625 C 48.511719 284.765625 55.242188 296.390625 63.925781 304.589844 C 68.269531 308.6875 73.347656 312.171875 78.792969 314.621094 C 81.546875 315.84375 84.480469 316.882812 87.417969 317.558594 C 90.234375 318.230469 94.269531 319.332031 97.082031 318.292969 C 99.835938 317.3125 100.328125 313.273438 97.574219 311.929688 C 95.1875 310.765625 91.882812 310.949219 89.253906 310.339844 C 86.683594 309.726562 84.175781 308.929688 81.730469 307.890625 C 76.835938 305.8125 72.371094 302.875 68.453125 299.265625 C 60.316406 291.800781 55.730469 282.199219 53.648438 271.492188 C 53.097656 268.371094 47.960938 269.472656 48.082031 272.65625 Z M 48.082031 272.65625 " fill-opacity="1" fill-rule="nonzero"/><path fill="#f0ba41" d="M 93.414062 316.457031 C 97.695312 328.570312 107.300781 338.601562 119.046875 343.738281 C 125.46875 346.554688 132.441406 347.960938 139.417969 347.960938 C 146.636719 347.960938 154.710938 346.675781 160.828125 342.636719 C 163.765625 340.679688 161.5 336.277344 158.199219 337.195312 C 151.957031 338.90625 146.207031 340.925781 139.660156 340.988281 C 133.359375 341.046875 127.058594 339.824219 121.371094 337.195312 C 111.152344 332.484375 103.445312 324.101562 98.429688 314.132812 C 97.023438 311.132812 92.375 313.519531 93.414062 316.457031 Z M 93.414062 316.457031 " fill-opacity="1" fill-rule="nonzero"/><path fill="#f0ba41" d="M 156.914062 345.882812 C 166.332031 351.507812 177.222656 354.140625 188.171875 354.015625 C 193.554688 353.957031 198.941406 353.160156 204.140625 351.753906 C 209.21875 350.347656 215.089844 348.328125 219.3125 345.023438 C 221.941406 342.945312 220.105469 337.683594 216.558594 339.273438 C 211.847656 341.292969 207.566406 343.738281 202.550781 345.085938 C 197.960938 346.371094 193.1875 346.980469 188.417969 347.164062 C 178.445312 347.472656 168.597656 345.023438 159.726562 340.496094 C 156.179688 338.722656 153.609375 343.921875 156.914062 345.882812 Z M 156.914062 345.882812 " fill-opacity="1" fill-rule="nonzero"/><path fill="#f0ba41" d="M 217.109375 342.699219 C 228.976562 350.835938 244.515625 352.914062 257.972656 347.410156 C 270.636719 342.273438 280.058594 331.382812 283.851562 318.351562 C 285.074219 314.253906 278.589844 312.90625 277.367188 316.945312 C 274.125 327.652344 265.863281 336.828125 255.402344 341.046875 C 243.902344 345.636719 230.996094 344.046875 220.472656 337.746094 C 217.597656 336.03125 214.234375 340.742188 217.109375 342.699219 Z M 217.109375 342.699219 " fill-opacity="1" fill-rule="nonzero"/><path fill="#f0ba41" d="M 279.996094 321.410156 C 292.660156 322.574219 305.320312 317.617188 314.070312 308.382812 C 323 299.019531 327.160156 285.5625 325.507812 272.777344 C 324.960938 268.738281 318.65625 268.984375 319.148438 273.082031 C 320.617188 284.15625 317.25 295.65625 309.664062 303.914062 C 302.203125 312.050781 291.375 316.210938 280.425781 316.457031 C 277.671875 316.515625 277.121094 321.167969 279.996094 321.410156 Z M 279.996094 321.410156 " fill-opacity="1" fill-rule="nonzero"/><path fill="#f0ba41" d="M 30.464844 147.125 C 29.851562 141.3125 28.8125 135.867188 29.242188 129.996094 C 29.730469 124.0625 31.136719 118.128906 33.523438 112.683594 C 35.847656 107.363281 38.90625 102.40625 42.761719 98.0625 C 44.65625 95.921875 46.738281 93.902344 49 92.128906 C 51.386719 90.234375 54.199219 88.949219 56.523438 87.050781 C 59.21875 84.847656 57.441406 80.199219 53.773438 81.300781 C 47.839844 83.136719 42.089844 88.765625 38.050781 93.292969 C 33.644531 98.246094 30.035156 103.996094 27.589844 110.175781 C 25.144531 116.355469 23.613281 122.777344 23.308594 129.445312 C 23 135.625 23.613281 142.902344 26.425781 148.46875 C 27.40625 150.429688 30.710938 149.203125 30.464844 147.125 Z M 30.464844 147.125 " fill-opacity="1" fill-rule="nonzero"/><path fill="#f0ba41" d="M 55.792969 87.664062 C 57.75 77.445312 62.398438 68.394531 69.984375 61.234375 C 73.53125 57.933594 77.691406 55.058594 82.15625 53.039062 C 84.542969 51.9375 86.988281 51.082031 89.5 50.46875 C 92.007812 49.796875 94.636719 49.734375 97.144531 49.125 C 98.796875 48.757812 99.777344 46.738281 99.46875 45.148438 C 99.101562 43.3125 97.695312 42.394531 95.859375 42.273438 C 93.046875 42.089844 89.867188 42.945312 87.234375 43.679688 C 84.542969 44.414062 81.914062 45.390625 79.40625 46.613281 C 74.019531 49.183594 69.1875 52.550781 64.90625 56.769531 C 56.832031 64.785156 51.082031 75.734375 50.46875 87.234375 C 50.347656 90.292969 55.242188 90.597656 55.792969 87.664062 Z M 55.792969 87.664062 " fill-opacity="1" fill-rule="nonzero"/><path fill="#f0ba41" d="M 98.246094 47.898438 C 101.792969 37.929688 108.953125 29.546875 118.3125 24.53125 C 123.390625 21.777344 129.140625 20.308594 134.890625 20.066406 C 141.128906 19.757812 146.636719 21.226562 152.570312 22.941406 C 156.484375 24.101562 158.5625 18.046875 154.957031 16.273438 C 142.71875 10.339844 126.632812 12.234375 115.007812 18.597656 C 104.300781 24.46875 96.289062 34.992188 93.230469 46.738281 C 92.3125 50.164062 97.144531 50.957031 98.246094 47.898438 Z M 98.246094 47.898438 " fill-opacity="1" fill-rule="nonzero"/><path fill="#f0ba41" d="M 156.421875 23.308594 C 159.238281 23.734375 160.339844 21.351562 162.113281 19.574219 C 164.191406 17.433594 166.515625 15.597656 169.023438 13.949219 C 174.042969 10.582031 179.792969 8.320312 185.847656 7.707031 C 191.84375 7.097656 197.960938 8.015625 203.589844 10.339844 C 206.402344 11.5 209.035156 12.96875 211.480469 14.742188 C 214.050781 16.640625 216.070312 19.023438 218.515625 21.105469 C 221.511719 23.613281 225.488281 20.066406 223.59375 16.761719 C 220.351562 11.132812 213.621094 6.851562 207.808594 4.28125 C 201.632812 1.53125 194.78125 0.121094 187.988281 0.488281 C 174.59375 1.164062 162.296875 8.199219 154.957031 19.332031 C 154.40625 20.1875 154.648438 21.351562 155.136719 22.207031 C 155.320312 22.695312 155.75 23.246094 156.421875 23.308594 Z M 156.421875 23.308594 " fill-opacity="1" fill-rule="nonzero"/><path fill="#f0ba41" d="M 219.3125 23.675781 C 222.1875 24.226562 224.570312 21.839844 227.078125 20.738281 C 229.710938 19.515625 232.523438 18.597656 235.398438 18.109375 C 241.273438 17.007812 247.511719 17.433594 253.140625 19.390625 C 258.21875 21.167969 262.746094 24.285156 266.539062 28.078125 C 268.496094 30.097656 270.207031 32.359375 271.675781 34.746094 C 273.144531 37.195312 273.941406 39.945312 275.40625 42.332031 C 277.183594 45.207031 282.199219 43.679688 281.832031 40.253906 C 281.160156 33.890625 276.324219 27.589844 272.042969 23.183594 C 267.457031 18.476562 261.644531 14.988281 255.402344 12.90625 C 248.734375 10.707031 241.578125 10.460938 234.726562 11.808594 C 231.421875 12.480469 228.179688 13.457031 225.121094 14.925781 C 222.492188 16.148438 218.027344 17.863281 217.597656 21.105469 C 217.476562 22.207031 218.085938 23.429688 219.3125 23.675781 Z M 219.3125 23.675781 " fill-opacity="1" fill-rule="nonzero"/><path fill="#f0ba41" d="M 280.484375 46.371094 C 291.070312 44.046875 302.628906 47.226562 310.03125 55.242188 C 313.703125 59.21875 316.089844 64.417969 317.066406 69.738281 C 317.558594 72.246094 317.679688 74.9375 317.496094 77.507812 C 317.3125 80.136719 315.476562 84.175781 317.375 86.441406 C 318.292969 87.539062 319.453125 88.089844 320.859375 87.664062 C 324.59375 86.625 324.777344 80.996094 324.960938 77.8125 C 325.203125 74.511719 324.898438 71.269531 324.285156 68.085938 C 323 61.359375 319.699219 55.117188 315.050781 50.101562 C 306.054688 40.4375 291.128906 36.519531 278.589844 40.558594 C 274.796875 41.78125 276.753906 47.226562 280.484375 46.371094 Z M 280.484375 46.371094 " fill-opacity="1" fill-rule="nonzero"/><path fill="#f0ba41" d="M 319.453125 91.515625 C 331.015625 91.515625 342.394531 97.265625 348.207031 107.421875 C 351.140625 112.5 352.304688 118.679688 351.875 124.488281 C 351.691406 127.242188 351.082031 130.058594 350.101562 132.6875 C 349 135.683594 347.105469 138.132812 345.757812 140.945312 C 343.800781 144.921875 348.878906 148.042969 351.875 145.167969 C 356.890625 140.394531 358.972656 131.648438 359.460938 124.980469 C 360.011719 117.578125 358.359375 110.113281 354.628906 103.628906 C 347.59375 91.578125 333.15625 83.992188 319.207031 85.890625 C 315.722656 86.441406 315.84375 91.515625 319.453125 91.515625 Z M 319.453125 91.515625 " fill-opacity="1" fill-rule="nonzero"/><path fill="#f0ba41" d="M 348.023438 148.59375 C 353.464844 157.890625 356.648438 167.742188 356.097656 178.628906 C 355.851562 183.769531 354.875 188.96875 352.976562 193.738281 C 352.058594 196.0625 350.957031 198.390625 349.671875 200.53125 C 348.328125 202.855469 345.941406 205.058594 345.453125 207.75 C 345.023438 210.011719 347.289062 212.582031 349.671875 211.601562 C 352.550781 210.441406 354.015625 207.625 355.609375 205.117188 C 357.257812 202.488281 358.605469 199.671875 359.707031 196.738281 C 361.847656 190.988281 363.132812 184.929688 363.316406 178.753906 C 363.683594 166.824219 360.195312 153.976562 352.121094 144.921875 C 350.039062 142.476562 346.492188 145.960938 348.023438 148.59375 Z M 348.023438 148.59375 " fill-opacity="1" fill-rule="nonzero"/><path fill="#f0ba41" d="M 344.414062 211.359375 C 345.390625 214.476562 346.921875 217.351562 347.714844 220.535156 C 348.511719 223.59375 348.878906 226.652344 348.878906 229.832031 C 348.941406 236.195312 347.714844 242.496094 344.78125 248.125 C 339.394531 258.460938 329.363281 265.621094 318.046875 267.945312 C 313.214844 268.921875 315.660156 276.203125 320.433594 275.222656 C 333.953125 272.472656 345.941406 263.234375 351.875 250.753906 C 355.058594 244.085938 356.585938 236.378906 356.035156 229.039062 C 355.484375 222.125 353.589844 213.867188 348.816406 208.542969 C 346.921875 206.339844 343.679688 208.972656 344.414062 211.359375 Z M 344.414062 211.359375 " fill-opacity="1" fill-rule="nonzero"/><path fill="#f19771" d="M 237.785156 123.941406 C 242.984375 131.28125 248.367188 138.070312 252.039062 146.390625 C 255.527344 154.34375 257.726562 162.847656 258.585938 171.472656 C 260.421875 190.128906 255.21875 208.175781 245.984375 224.265625 C 244.269531 227.203125 248.917969 230.503906 251 227.691406 C 262.746094 211.542969 267.636719 190.925781 265.679688 171.105469 C 264.703125 161.625 262.070312 152.324219 258.035156 143.761719 C 254.117188 135.441406 248.917969 126.449219 241.761719 120.453125 C 239.5 118.617188 235.949219 121.429688 237.785156 123.941406 Z M 237.785156 123.941406 " fill-opacity="1" fill-rule="nonzero"/><path fill="#de6026" d="M 161.011719 175.019531 C 164.132812 175.019531 163.886719 170.1875 160.765625 170.1875 C 157.707031 170.25 157.953125 175.019531 161.011719 175.019531 Z M 161.011719 175.019531 " fill-opacity="1" fill-rule="nonzero"/><path fill="#de6026" d="M 152.875 152.570312 C 155.933594 152.570312 155.6875 147.859375 152.691406 147.859375 C 149.570312 147.859375 149.816406 152.570312 152.875 152.570312 Z M 152.875 152.570312 " fill-opacity="1" fill-rule="nonzero"/><path fill="#de6026" d="M 178.324219 149.265625 C 181.015625 149.265625 180.832031 145.042969 178.140625 145.042969 C 175.449219 145.042969 175.632812 149.265625 178.324219 149.265625 Z M 178.324219 149.265625 " fill-opacity="1" fill-rule="nonzero"/><path fill="#de6026" d="M 158.929688 130.425781 C 161.011719 130.425781 160.828125 127.242188 158.808594 127.242188 C 156.730469 127.183594 156.914062 130.425781 158.929688 130.425781 Z M 158.929688 130.425781 " fill-opacity="1" fill-rule="nonzero"/><path fill="#de6026" d="M 196.859375 158.257812 C 196.859375 158.136719 196.859375 158.015625 196.796875 157.890625 C 196.796875 157.648438 196.738281 157.402344 196.675781 157.15625 C 196.675781 157.097656 196.613281 157.035156 196.613281 156.972656 C 196.554688 156.789062 196.429688 156.605469 196.371094 156.484375 C 196.246094 156.363281 196.125 156.179688 196.003906 156.054688 C 195.882812 155.933594 195.699219 155.871094 195.574219 155.75 C 195.332031 155.628906 195.085938 155.566406 194.78125 155.566406 C 194.597656 155.503906 194.414062 155.503906 194.230469 155.566406 C 194.046875 155.566406 193.863281 155.628906 193.679688 155.75 C 193.496094 155.8125 193.3125 155.933594 193.1875 156.054688 C 192.945312 156.238281 192.820312 156.421875 192.699219 156.667969 C 192.578125 156.914062 192.394531 157.21875 192.394531 157.523438 C 192.394531 157.648438 192.394531 157.769531 192.332031 157.890625 C 192.273438 158.320312 192.273438 158.6875 192.394531 159.113281 C 192.457031 159.296875 192.578125 159.480469 192.636719 159.664062 C 192.882812 159.972656 193.128906 160.277344 193.496094 160.460938 C 193.738281 160.582031 194.046875 160.707031 194.351562 160.707031 C 194.65625 160.765625 194.964844 160.707031 195.269531 160.644531 C 195.574219 160.582031 195.820312 160.398438 196.0625 160.15625 C 196.308594 159.972656 196.492188 159.726562 196.613281 159.480469 C 196.796875 159.054688 196.859375 158.6875 196.859375 158.257812 Z M 196.859375 158.257812 " fill-opacity="1" fill-rule="nonzero"/><path fill="#de6026" d="M 204.75 120.085938 C 204.75 120.023438 204.75 119.902344 204.8125 119.839844 C 204.324219 120.390625 203.894531 120.882812 203.40625 121.429688 C 203.773438 121.371094 204.078125 121.246094 204.324219 121.0625 C 204.507812 120.882812 204.691406 120.757812 204.875 120.574219 C 205.117188 120.269531 205.300781 119.964844 205.425781 119.597656 C 205.609375 119.230469 205.667969 118.863281 205.609375 118.496094 C 205.609375 118.066406 205.484375 117.699219 205.300781 117.394531 C 205.179688 117.027344 204.933594 116.722656 204.628906 116.476562 C 204.324219 116.230469 204.015625 116.046875 203.648438 115.925781 C 203.28125 115.742188 202.914062 115.679688 202.550781 115.742188 C 202.304688 115.804688 202.058594 115.863281 201.816406 115.863281 C 201.324219 116.046875 200.898438 116.292969 200.53125 116.722656 C 200.40625 116.90625 200.222656 117.148438 200.101562 117.332031 C 199.855469 117.761719 199.796875 118.25 199.796875 118.800781 C 199.855469 119.046875 199.917969 119.289062 199.917969 119.535156 C 200.039062 119.902344 200.222656 120.269531 200.46875 120.515625 C 200.714844 120.820312 200.957031 121.0625 201.324219 121.1875 C 201.570312 121.308594 201.875 121.429688 202.183594 121.429688 C 201.632812 120.757812 201.082031 120.085938 200.53125 119.472656 C 200.53125 119.535156 200.53125 119.65625 200.589844 119.71875 C 200.589844 120.023438 200.652344 120.269531 200.835938 120.515625 C 200.957031 120.757812 201.082031 121.003906 201.324219 121.1875 C 201.449219 121.308594 201.632812 121.371094 201.753906 121.492188 C 202 121.613281 202.242188 121.675781 202.550781 121.675781 C 202.734375 121.738281 202.914062 121.675781 203.097656 121.675781 C 203.40625 121.675781 203.648438 121.554688 203.894531 121.371094 C 204.015625 121.246094 204.140625 121.125 204.324219 121.003906 C 204.507812 120.757812 204.691406 120.390625 204.75 120.085938 Z M 204.75 120.085938 " fill-opacity="1" fill-rule="nonzero"/><path fill="#de6026" d="M 214.171875 142.535156 C 214.234375 142.351562 214.292969 142.167969 214.292969 142.046875 C 214.292969 141.984375 214.355469 141.863281 214.355469 141.800781 C 214.355469 141.800781 214.355469 141.742188 214.355469 141.742188 C 214.355469 141.617188 214.417969 141.496094 214.417969 141.375 C 214.476562 141.007812 214.417969 140.703125 214.292969 140.394531 C 214.171875 140.027344 214.050781 139.785156 213.804688 139.539062 C 213.742188 139.417969 213.683594 139.355469 213.558594 139.292969 C 213.558594 139.292969 213.558594 139.292969 213.5 139.234375 C 213.253906 138.988281 213.007812 138.867188 212.703125 138.742188 C 212.398438 138.621094 212.09375 138.558594 211.785156 138.558594 C 211.542969 138.621094 211.359375 138.621094 211.113281 138.683594 C 210.683594 138.804688 210.316406 139.050781 210.011719 139.417969 C 210.011719 139.417969 210.011719 139.417969 209.949219 139.476562 C 209.890625 139.539062 209.828125 139.660156 209.765625 139.785156 C 209.582031 140.027344 209.402344 140.335938 209.339844 140.640625 C 209.339844 140.886719 209.277344 141.070312 209.277344 141.3125 C 209.339844 141.558594 209.339844 141.800781 209.402344 141.984375 C 209.402344 141.984375 209.402344 142.046875 209.402344 142.046875 C 209.402344 142.109375 209.460938 142.230469 209.460938 142.292969 C 209.523438 142.476562 209.582031 142.597656 209.582031 142.78125 C 209.644531 142.964844 209.765625 143.148438 209.828125 143.332031 C 210.011719 143.578125 210.195312 143.820312 210.441406 143.945312 C 210.5625 144.066406 210.746094 144.1875 210.992188 144.1875 C 211.296875 144.3125 211.542969 144.371094 211.847656 144.3125 C 212.03125 144.25 212.277344 144.25 212.460938 144.1875 C 212.644531 144.128906 212.828125 144.003906 213.007812 143.945312 C 213.253906 143.761719 213.5 143.578125 213.621094 143.332031 C 213.988281 143.085938 214.109375 142.84375 214.171875 142.535156 Z M 214.171875 142.535156 " fill-opacity="1" fill-rule="nonzero"/><path fill="#de6026" d="M 195.699219 131.953125 C 195.820312 131.953125 195.882812 131.953125 196.003906 131.890625 C 196.0625 131.890625 196.0625 131.890625 196.125 131.890625 C 196.125 131.890625 196.1875 131.890625 196.1875 131.890625 C 196.308594 131.890625 196.371094 131.832031 196.492188 131.832031 C 196.796875 131.832031 197.042969 131.707031 197.289062 131.523438 C 197.65625 131.28125 197.839844 131.035156 198.023438 130.730469 C 198.023438 130.730469 198.023438 130.667969 198.082031 130.667969 C 198.082031 130.609375 198.144531 130.609375 198.144531 130.546875 C 198.265625 130.300781 198.328125 129.996094 198.328125 129.75 C 198.328125 129.445312 198.207031 129.199219 198.082031 128.894531 C 198.082031 128.832031 198.023438 128.832031 198.023438 128.773438 C 197.839844 128.40625 197.53125 128.160156 197.164062 127.976562 C 196.859375 127.855469 196.675781 127.792969 196.429688 127.734375 C 196.371094 127.734375 196.246094 127.734375 196.1875 127.671875 C 195.820312 127.609375 195.453125 127.609375 195.085938 127.734375 C 194.902344 127.792969 194.71875 127.914062 194.535156 127.976562 C 194.230469 128.160156 193.984375 128.464844 193.800781 128.773438 C 193.679688 129.015625 193.617188 129.261719 193.617188 129.566406 C 193.554688 129.875 193.617188 130.117188 193.679688 130.425781 C 193.738281 130.730469 193.921875 130.976562 194.105469 131.160156 C 194.289062 131.402344 194.472656 131.585938 194.71875 131.707031 C 194.964844 131.890625 195.269531 131.953125 195.699219 131.953125 Z M 195.699219 131.953125 " fill-opacity="1" fill-rule="nonzero"/><path fill="#de6026" d="M 200.714844 208.359375 C 200.835938 207.992188 201.019531 207.625 201.140625 207.257812 C 201.203125 207.199219 201.203125 207.074219 201.265625 207.015625 C 201.324219 206.832031 201.449219 206.585938 201.507812 206.402344 C 201.507812 206.21875 201.570312 206.035156 201.570312 205.851562 C 201.570312 205.851562 201.570312 205.792969 201.570312 205.792969 C 201.570312 205.609375 201.507812 205.425781 201.507812 205.242188 C 201.507812 204.933594 201.386719 204.628906 201.203125 204.324219 C 201.019531 204.078125 200.835938 203.832031 200.53125 203.710938 C 200.222656 203.589844 199.980469 203.527344 199.671875 203.527344 C 199.367188 203.527344 199.0625 203.648438 198.757812 203.832031 C 198.574219 203.894531 198.449219 204.015625 198.265625 204.078125 C 197.777344 204.324219 197.53125 204.8125 197.226562 205.300781 C 197.042969 205.609375 196.796875 205.976562 196.613281 206.28125 C 196.492188 206.523438 196.371094 206.832031 196.371094 207.136719 C 196.308594 207.441406 196.371094 207.75 196.429688 208.054688 C 196.492188 208.359375 196.675781 208.605469 196.921875 208.851562 C 197.105469 209.09375 197.347656 209.277344 197.59375 209.402344 C 197.777344 209.460938 197.960938 209.523438 198.144531 209.585938 C 198.574219 209.644531 198.941406 209.644531 199.367188 209.523438 C 199.550781 209.460938 199.734375 209.339844 199.917969 209.277344 C 200.222656 209.035156 200.53125 208.726562 200.714844 208.359375 Z M 200.714844 208.359375 " fill-opacity="1" fill-rule="nonzero"/><path fill="#de6026" d="M 144.679688 219.679688 C 147.429688 219.679688 147.246094 215.394531 144.496094 215.394531 C 141.742188 215.335938 141.925781 219.679688 144.679688 219.679688 Z M 144.679688 219.679688 " fill-opacity="1" fill-rule="nonzero"/><path fill="#de6026" d="M 132.441406 186.03125 C 135.257812 186.03125 135.074219 181.628906 132.257812 181.628906 C 129.445312 181.628906 129.628906 186.03125 132.441406 186.03125 Z M 132.441406 186.03125 " fill-opacity="1" fill-rule="nonzero"/><path fill="#de6026" d="M 108.953125 183.769531 C 108.953125 183.644531 108.953125 183.460938 108.953125 183.339844 C 108.953125 183.277344 108.953125 183.21875 108.953125 183.09375 C 108.953125 183.035156 108.953125 183.035156 108.953125 182.972656 C 108.953125 182.972656 108.953125 182.910156 108.953125 182.910156 C 108.953125 182.605469 108.890625 182.359375 108.707031 182.117188 C 108.707031 181.996094 108.644531 181.933594 108.585938 181.871094 C 108.402344 181.566406 108.15625 181.320312 107.789062 181.199219 C 107.542969 181.078125 107.300781 181.015625 107.054688 181.015625 C 106.8125 180.953125 106.503906 181.015625 106.261719 181.078125 C 105.894531 181.199219 105.585938 181.382812 105.34375 181.6875 C 105.160156 181.871094 105.035156 182.117188 104.976562 182.359375 C 104.914062 182.542969 104.851562 182.667969 104.851562 182.851562 C 104.851562 182.972656 104.851562 183.035156 104.851562 183.15625 C 104.851562 183.21875 104.851562 183.21875 104.851562 183.277344 C 104.851562 183.339844 104.851562 183.460938 104.851562 183.523438 C 104.851562 183.707031 104.851562 183.828125 104.851562 184.011719 C 104.851562 184.320312 104.914062 184.5625 105.097656 184.808594 C 105.21875 185.054688 105.34375 185.296875 105.585938 185.480469 C 105.769531 185.664062 106.015625 185.785156 106.261719 185.847656 C 106.503906 185.96875 106.75 186.03125 107.054688 185.96875 C 107.238281 185.910156 107.421875 185.910156 107.605469 185.847656 C 107.972656 185.726562 108.277344 185.542969 108.523438 185.238281 C 108.644531 185.113281 108.707031 184.929688 108.828125 184.808594 C 108.890625 184.441406 108.953125 184.136719 108.953125 183.769531 Z M 108.953125 183.769531 " fill-opacity="1" fill-rule="nonzero"/><path fill="#de6026" d="M 126.324219 159.296875 C 128.894531 159.296875 128.710938 155.320312 126.140625 155.320312 C 123.574219 155.382812 123.816406 159.296875 126.324219 159.296875 Z M 126.324219 159.296875 " fill-opacity="1" fill-rule="nonzero"/><path fill="#de6026" d="M 130.976562 118.371094 C 131.160156 118.371094 131.28125 118.433594 131.464844 118.433594 C 131.523438 118.433594 131.648438 118.433594 131.707031 118.496094 C 131.707031 118.496094 131.769531 118.496094 131.769531 118.496094 C 131.769531 118.496094 131.769531 118.496094 131.832031 118.496094 C 132.015625 118.496094 132.199219 118.496094 132.320312 118.554688 C 132.441406 118.554688 132.503906 118.554688 132.625 118.496094 C 132.75 118.496094 132.808594 118.496094 132.933594 118.433594 C 132.933594 118.433594 132.992188 118.433594 132.992188 118.433594 C 133.175781 118.371094 133.300781 118.3125 133.484375 118.1875 C 133.605469 118.066406 133.726562 117.945312 133.851562 117.882812 C 133.972656 117.761719 134.035156 117.636719 134.15625 117.457031 C 134.277344 117.210938 134.339844 116.964844 134.339844 116.722656 C 134.402344 116.539062 134.339844 116.355469 134.339844 116.230469 C 134.339844 116.046875 134.277344 115.863281 134.15625 115.742188 C 134.09375 115.558594 134.035156 115.4375 133.851562 115.3125 C 133.726562 115.128906 133.484375 114.945312 133.300781 114.824219 C 133.117188 114.761719 132.933594 114.640625 132.75 114.640625 C 132.503906 114.578125 132.320312 114.578125 132.136719 114.640625 C 132.074219 114.640625 131.953125 114.640625 131.890625 114.703125 C 131.707031 114.703125 131.523438 114.761719 131.402344 114.761719 C 131.160156 114.761719 130.914062 114.824219 130.667969 114.945312 C 130.425781 115.007812 130.242188 115.191406 130.058594 115.375 C 129.875 115.4375 129.8125 115.621094 129.691406 115.742188 C 129.566406 115.925781 129.507812 116.171875 129.507812 116.414062 C 129.445312 116.597656 129.507812 116.722656 129.507812 116.90625 C 129.507812 117.148438 129.628906 117.394531 129.75 117.578125 C 129.875 117.699219 129.933594 117.820312 130.058594 117.945312 C 130.363281 118.128906 130.609375 118.3125 130.976562 118.371094 Z M 130.976562 118.371094 " fill-opacity="1" fill-rule="nonzero"/><path fill="#de6026" d="M 167.375 189.519531 C 167.863281 189.519531 168.292969 189.394531 168.660156 189.152344 C 169.085938 188.96875 169.453125 188.722656 169.757812 188.355469 C 170.066406 188.050781 170.308594 187.621094 170.371094 187.195312 C 170.554688 186.765625 170.617188 186.335938 170.617188 185.910156 C 170.554688 185.605469 170.492188 185.296875 170.433594 184.992188 C 170.25 184.378906 169.941406 183.890625 169.453125 183.523438 C 169.207031 183.339844 168.964844 183.21875 168.71875 183.035156 C 168.167969 182.789062 167.617188 182.667969 167.007812 182.667969 C 166.515625 182.667969 166.089844 182.789062 165.722656 183.035156 C 165.292969 183.21875 164.925781 183.460938 164.621094 183.828125 C 164.316406 184.136719 164.070312 184.5625 164.007812 184.992188 C 163.824219 185.421875 163.765625 185.847656 163.765625 186.277344 C 163.824219 186.582031 163.886719 186.886719 163.949219 187.195312 C 164.132812 187.804688 164.4375 188.296875 164.925781 188.664062 C 165.171875 188.847656 165.414062 188.96875 165.660156 189.152344 C 166.210938 189.394531 166.761719 189.519531 167.375 189.519531 Z M 167.375 189.519531 " fill-opacity="1" fill-rule="nonzero"/><path fill="#de6026" d="M 203.832031 181.996094 C 206.707031 181.996094 206.464844 177.527344 203.648438 177.527344 C 200.773438 177.527344 200.957031 181.996094 203.832031 181.996094 Z M 203.832031 181.996094 " fill-opacity="1" fill-rule="nonzero"/><path fill="#de6026" d="M 229.34375 166.699219 C 232.15625 166.699219 231.972656 162.296875 229.160156 162.296875 C 226.285156 162.296875 226.53125 166.699219 229.34375 166.699219 Z M 229.34375 166.699219 " fill-opacity="1" fill-rule="nonzero"/><path fill="#de6026" d="M 218.085938 228.855469 C 220.902344 228.855469 220.65625 224.511719 217.902344 224.511719 C 215.089844 224.511719 215.335938 228.855469 218.085938 228.855469 Z M 218.085938 228.855469 " fill-opacity="1" fill-rule="nonzero"/><path fill="#de6026" d="M 180.34375 243.902344 C 182.851562 243.902344 182.667969 240.050781 180.160156 240.050781 C 177.710938 240.050781 177.894531 243.902344 180.34375 243.902344 Z M 180.34375 243.902344 " fill-opacity="1" fill-rule="nonzero"/><path fill="#de6026" d="M 177.039062 222.003906 C 177.101562 221.757812 177.101562 221.511719 177.160156 221.269531 C 176.550781 221.820312 175.875 222.308594 175.265625 222.859375 C 175.449219 222.796875 175.691406 222.796875 175.875 222.738281 C 176.058594 222.675781 176.242188 222.554688 176.425781 222.492188 C 176.550781 222.371094 176.734375 222.246094 176.855469 222.125 C 177.039062 221.878906 177.222656 221.636719 177.285156 221.390625 C 177.34375 221.207031 177.40625 221.023438 177.40625 220.839844 C 177.46875 220.65625 177.46875 220.472656 177.40625 220.226562 C 177.40625 220.042969 177.34375 219.800781 177.222656 219.679688 C 177.101562 219.371094 176.917969 219.128906 176.734375 218.945312 C 176.550781 218.820312 176.425781 218.699219 176.242188 218.636719 C 176 218.515625 175.691406 218.394531 175.386719 218.394531 C 175.203125 218.332031 175.019531 218.332031 174.777344 218.394531 C 174.46875 218.394531 174.164062 218.515625 173.917969 218.699219 C 173.796875 218.820312 173.613281 218.945312 173.492188 219.066406 C 173.367188 219.25 173.246094 219.371094 173.183594 219.554688 C 173.125 219.738281 173.0625 219.921875 173 220.105469 C 172.941406 220.410156 172.941406 220.71875 173 220.960938 C 173 221.144531 173.0625 221.390625 173.183594 221.511719 C 173.246094 221.695312 173.367188 221.878906 173.492188 222.003906 C 173.613281 222.1875 173.734375 222.308594 173.917969 222.371094 C 174.164062 222.554688 174.410156 222.675781 174.714844 222.738281 C 174.714844 222.738281 174.777344 222.738281 174.777344 222.738281 C 174.226562 222.125 173.734375 221.453125 173.183594 220.839844 C 173.246094 221.085938 173.246094 221.328125 173.308594 221.574219 C 173.308594 221.820312 173.367188 222.0625 173.492188 222.308594 C 173.550781 222.554688 173.734375 222.738281 173.917969 222.921875 C 174.042969 223.042969 174.164062 223.105469 174.347656 223.226562 C 174.59375 223.347656 174.777344 223.410156 175.082031 223.410156 C 175.265625 223.46875 175.386719 223.410156 175.570312 223.410156 C 175.816406 223.410156 176.058594 223.285156 176.304688 223.164062 C 176.425781 223.042969 176.550781 222.921875 176.671875 222.859375 C 176.855469 222.613281 176.976562 222.308594 177.039062 222.003906 Z M 177.039062 222.003906 " fill-opacity="1" fill-rule="nonzero"/><path fill="#de6026" d="M 187.988281 212.828125 C 188.171875 212.644531 188.296875 212.519531 188.480469 212.335938 C 188.539062 212.277344 188.664062 212.152344 188.722656 212.09375 C 188.90625 211.910156 189.03125 211.785156 189.152344 211.542969 C 189.210938 211.359375 189.273438 211.175781 189.335938 211.050781 C 189.394531 210.867188 189.394531 210.683594 189.394531 210.5 C 189.394531 210.5 189.394531 210.441406 189.394531 210.441406 C 189.394531 210.132812 189.335938 209.890625 189.152344 209.644531 C 189.03125 209.402344 188.90625 209.15625 188.664062 209.035156 C 188.539062 208.910156 188.355469 208.851562 188.234375 208.726562 C 187.929688 208.542969 187.5625 208.484375 187.253906 208.484375 C 186.886719 208.484375 186.398438 208.605469 186.09375 208.851562 C 185.910156 208.972656 185.726562 209.15625 185.542969 209.277344 C 185.480469 209.339844 185.359375 209.460938 185.296875 209.523438 C 185.113281 209.707031 184.992188 209.828125 184.808594 210.011719 C 184.625 210.195312 184.503906 210.441406 184.378906 210.746094 C 184.257812 210.992188 184.195312 211.296875 184.257812 211.542969 C 184.257812 211.847656 184.320312 212.09375 184.503906 212.398438 C 184.625 212.644531 184.746094 212.886719 184.992188 213.070312 C 185.113281 213.191406 185.296875 213.253906 185.421875 213.375 C 185.785156 213.558594 186.09375 213.621094 186.519531 213.621094 C 186.703125 213.558594 186.886719 213.558594 187.070312 213.5 C 187.4375 213.316406 187.746094 213.070312 187.988281 212.828125 Z M 187.988281 212.828125 " fill-opacity="1" fill-rule="nonzero"/><path fill="#de6026" d="M 186.519531 201.265625 C 189.273438 201.265625 189.03125 197.042969 186.335938 197.042969 C 183.585938 197.042969 183.769531 201.265625 186.519531 201.265625 Z M 186.519531 201.265625 " fill-opacity="1" fill-rule="nonzero"/><path fill="#de6026" d="M 221.144531 208.542969 C 224.019531 208.542969 223.835938 204.078125 220.960938 204.078125 C 218.085938 204.015625 218.269531 208.542969 221.144531 208.542969 Z M 221.144531 208.542969 " fill-opacity="1" fill-rule="nonzero"/><path fill="#de6026" d="M 235.949219 190.3125 C 236.011719 190.070312 236.132812 189.824219 236.195312 189.578125 C 236.074219 189.886719 235.890625 190.191406 235.765625 190.4375 C 235.644531 190.558594 235.523438 190.679688 235.398438 190.742188 C 235.398438 190.742188 235.460938 190.742188 235.460938 190.679688 C 235.765625 190.496094 236.011719 190.191406 236.132812 189.886719 C 236.257812 189.640625 236.316406 189.394531 236.316406 189.152344 C 236.378906 188.90625 236.316406 188.601562 236.257812 188.355469 C 236.132812 187.988281 235.949219 187.683594 235.644531 187.4375 C 235.523438 187.378906 235.339844 187.195312 235.214844 187.132812 C 234.910156 186.949219 234.789062 186.949219 234.480469 186.949219 C 234.296875 186.886719 234.113281 186.949219 233.929688 186.949219 C 233.808594 186.949219 233.746094 186.949219 233.6875 187.011719 C 233.625 187.070312 233.503906 187.070312 233.441406 187.132812 C 233.320312 187.132812 233.257812 187.195312 233.199219 187.253906 C 232.585938 187.683594 232.21875 188.355469 232.28125 189.089844 C 232.28125 189.457031 232.402344 189.824219 232.648438 190.128906 C 232.832031 190.4375 233.136719 190.679688 233.441406 190.804688 C 233.441406 190.804688 233.503906 190.804688 233.503906 190.863281 C 233.382812 190.742188 233.257812 190.679688 233.074219 190.558594 C 232.890625 190.253906 232.707031 190.007812 232.523438 189.703125 C 232.585938 189.945312 232.707031 190.191406 232.769531 190.4375 C 232.832031 190.558594 232.890625 190.679688 232.953125 190.863281 C 233.074219 191.046875 233.199219 191.230469 233.441406 191.292969 C 233.5625 191.414062 233.6875 191.476562 233.808594 191.476562 C 233.992188 191.539062 234.238281 191.597656 234.421875 191.597656 C 234.542969 191.597656 234.726562 191.539062 234.847656 191.539062 C 234.972656 191.476562 235.09375 191.414062 235.277344 191.355469 C 235.460938 191.230469 235.644531 191.109375 235.707031 190.863281 C 235.828125 190.742188 235.890625 190.558594 235.949219 190.3125 Z M 235.949219 190.3125 " fill-opacity="1" fill-rule="nonzero"/><path fill="#de6026" d="M 221.144531 189.089844 C 223.960938 189.089844 223.777344 184.6875 220.960938 184.6875 C 218.148438 184.6875 218.332031 189.089844 221.144531 189.089844 Z M 221.144531 189.089844 " fill-opacity="1" fill-rule="nonzero"/><path fill="#de6026" d="M 235.765625 178.019531 C 235.949219 177.835938 236.132812 177.652344 236.257812 177.46875 C 236.316406 177.40625 236.316406 177.40625 236.378906 177.34375 C 236.625 177.039062 236.683594 176.792969 236.808594 176.425781 C 236.808594 176.425781 236.808594 176.367188 236.808594 176.367188 C 236.867188 176.242188 236.867188 176.183594 236.929688 176.058594 C 236.988281 175.753906 236.988281 175.449219 236.867188 175.203125 C 236.746094 174.898438 236.625 174.652344 236.378906 174.46875 C 235.949219 174.042969 235.277344 173.917969 234.726562 174.101562 C 234.605469 174.164062 234.542969 174.164062 234.421875 174.226562 C 234.175781 174.285156 233.992188 174.347656 233.808594 174.53125 C 233.625 174.652344 233.441406 174.835938 233.320312 174.960938 C 233.136719 175.144531 232.953125 175.328125 232.769531 175.449219 C 232.585938 175.632812 232.464844 175.875 232.402344 176.121094 C 232.28125 176.367188 232.28125 176.609375 232.28125 176.855469 C 232.28125 177.101562 232.339844 177.40625 232.464844 177.589844 C 232.585938 177.835938 232.707031 178.019531 232.890625 178.203125 C 233.015625 178.324219 233.199219 178.386719 233.320312 178.507812 C 233.625 178.691406 233.929688 178.753906 234.296875 178.691406 C 234.480469 178.628906 234.664062 178.628906 234.789062 178.570312 C 235.277344 178.445312 235.523438 178.261719 235.765625 178.019531 Z M 235.765625 178.019531 " fill-opacity="1" fill-rule="nonzero"/><path fill="#de6026" d="M 231.363281 148.164062 C 233.929688 148.164062 233.746094 144.128906 231.179688 144.128906 C 228.609375 144.128906 228.792969 148.164062 231.363281 148.164062 Z M 231.363281 148.164062 " fill-opacity="1" fill-rule="nonzero"/><path fill="#de6026" d="M 277.242188 160.460938 C 279.933594 160.460938 279.75 156.300781 277.058594 156.300781 C 274.367188 156.300781 274.550781 160.460938 277.242188 160.460938 Z M 277.242188 160.460938 " fill-opacity="1" fill-rule="nonzero"/><path fill="#de6026" d="M 231.363281 109.378906 C 233.929688 109.378906 233.746094 105.34375 231.179688 105.34375 C 228.609375 105.402344 228.792969 109.378906 231.363281 109.378906 Z M 231.363281 109.378906 " fill-opacity="1" fill-rule="nonzero"/><path fill="#de6026" d="M 224.203125 131.707031 C 226.652344 131.707031 226.46875 127.914062 224.019531 127.914062 C 221.574219 127.914062 221.757812 131.707031 224.203125 131.707031 Z M 224.203125 131.707031 " fill-opacity="1" fill-rule="nonzero"/><path fill="#de6026" d="M 145.71875 239.070312 C 145.902344 239.070312 146.085938 239.070312 146.269531 239.070312 C 146.328125 239.070312 146.328125 239.070312 146.390625 239.070312 C 146.390625 239.070312 146.453125 239.070312 146.453125 239.070312 C 146.636719 239.007812 146.820312 239.007812 147.003906 238.949219 C 147.308594 238.886719 147.554688 238.703125 147.738281 238.519531 C 147.859375 238.398438 147.921875 238.398438 147.980469 238.273438 C 147.980469 238.273438 148.042969 238.214844 148.042969 238.214844 C 148.164062 238.089844 148.226562 237.90625 148.347656 237.785156 C 148.46875 237.539062 148.53125 237.296875 148.53125 237.050781 C 148.59375 236.867188 148.53125 236.683594 148.53125 236.5625 C 148.53125 236.316406 148.410156 236.074219 148.226562 235.828125 C 148.105469 235.644531 147.980469 235.460938 147.796875 235.277344 C 147.675781 235.15625 147.492188 235.03125 147.308594 234.972656 C 147.0625 234.847656 146.757812 234.789062 146.511719 234.789062 C 146.390625 234.789062 146.269531 234.789062 146.207031 234.789062 C 146.144531 234.789062 146.085938 234.789062 146.085938 234.789062 C 145.902344 234.789062 145.71875 234.789062 145.535156 234.789062 C 145.226562 234.789062 144.921875 234.847656 144.679688 235.03125 C 144.371094 235.15625 144.1875 235.277344 143.945312 235.523438 C 143.761719 235.707031 143.578125 235.949219 143.515625 236.257812 C 143.394531 236.5 143.332031 236.808594 143.394531 237.113281 C 143.453125 237.296875 143.453125 237.480469 143.515625 237.722656 C 143.636719 238.089844 143.882812 238.457031 144.128906 238.703125 C 144.3125 238.824219 144.433594 238.886719 144.617188 239.007812 C 144.984375 239.007812 145.351562 239.132812 145.71875 239.070312 Z M 145.71875 239.070312 " fill-opacity="1" fill-rule="nonzero"/><path fill="#de6026" d="M 208.667969 252.589844 C 208.605469 252.285156 208.542969 251.976562 208.484375 251.609375 C 208.421875 251.488281 208.359375 251.304688 208.300781 251.183594 C 208.175781 251 207.992188 250.816406 207.808594 250.691406 C 207.6875 250.570312 207.566406 250.507812 207.382812 250.507812 C 207.199219 250.386719 206.953125 250.386719 206.707031 250.386719 C 206.523438 250.386719 206.402344 250.449219 206.21875 250.449219 C 206.097656 250.507812 205.914062 250.570312 205.792969 250.632812 C 205.609375 250.753906 205.425781 250.9375 205.300781 251.121094 C 205.179688 251.304688 205.058594 251.488281 204.996094 251.734375 C 204.933594 252.039062 204.875 252.40625 204.8125 252.710938 C 204.75 253.078125 204.75 253.386719 204.875 253.753906 C 204.996094 254.117188 205.179688 254.363281 205.425781 254.609375 C 205.546875 254.730469 205.730469 254.792969 205.851562 254.914062 C 206.15625 255.097656 206.464844 255.160156 206.832031 255.160156 C 207.136719 255.160156 207.382812 255.097656 207.566406 254.976562 C 207.808594 254.851562 207.992188 254.730469 208.175781 254.546875 C 208.421875 254.300781 208.542969 253.996094 208.605469 253.628906 C 208.789062 253.261719 208.789062 252.894531 208.667969 252.589844 Z M 208.667969 252.589844 " fill-opacity="1" fill-rule="nonzero"/><path fill="#de6026" d="M 170.492188 115.988281 C 170.492188 115.988281 170.492188 116.046875 170.492188 115.988281 C 170.492188 116.046875 170.492188 116.046875 170.554688 116.046875 C 170.675781 116.292969 170.800781 116.660156 170.921875 116.84375 C 170.921875 116.84375 170.984375 116.90625 170.984375 116.90625 C 171.167969 117.148438 171.351562 117.394531 171.59375 117.636719 C 171.59375 117.636719 171.65625 117.699219 171.65625 117.699219 C 171.71875 117.761719 172.265625 118.128906 172.328125 118.1875 C 172.328125 118.1875 172.328125 118.1875 172.390625 118.1875 C 172.941406 118.433594 173.429688 118.617188 174.042969 118.554688 C 174.101562 118.554688 174.777344 118.433594 174.898438 118.433594 C 175.144531 118.3125 175.449219 118.1875 175.691406 118.066406 C 176.058594 117.820312 176.609375 117.332031 176.792969 116.84375 C 176.855469 116.597656 176.976562 116.355469 177.039062 116.109375 C 177.160156 115.679688 177.160156 115.3125 177.039062 114.945312 C 177.039062 114.640625 176.917969 114.394531 176.792969 114.152344 C 176.671875 113.785156 176.425781 113.417969 176.121094 113.171875 C 175.875 112.929688 175.632812 112.867188 175.449219 112.683594 C 175.691406 112.804688 175.875 112.988281 176.121094 113.113281 C 176.304688 113.296875 176.488281 113.539062 176.671875 113.722656 C 176.671875 113.722656 176.671875 113.722656 176.671875 113.664062 C 176.792969 113.90625 176.917969 114.152344 177.039062 114.394531 C 176.917969 114.152344 176.792969 113.847656 176.671875 113.601562 C 176.792969 113.847656 176.917969 114.089844 177.039062 114.335938 C 177.039062 114.335938 177.039062 114.273438 177.039062 114.273438 C 177.101562 114.578125 177.160156 114.824219 177.222656 115.128906 C 177.222656 115.070312 177.222656 115.070312 177.222656 115.007812 C 177.222656 115.3125 177.160156 115.558594 177.160156 115.863281 C 177.160156 115.804688 177.160156 115.742188 177.222656 115.742188 C 177.101562 115.988281 177.039062 116.292969 176.917969 116.539062 C 176.917969 116.476562 176.976562 116.414062 176.976562 116.414062 C 177.222656 115.863281 177.34375 115.3125 177.34375 114.703125 C 177.285156 114.089844 177.101562 113.480469 176.792969 112.988281 C 176.488281 112.5 176.058594 112.132812 175.507812 111.828125 C 175.144531 111.582031 174.714844 111.519531 174.226562 111.519531 C 173.796875 111.460938 173.308594 111.460938 172.878906 111.644531 C 172.265625 111.828125 171.777344 112.132812 171.410156 112.621094 C 171.042969 113.050781 170.738281 113.601562 170.617188 114.152344 C 170.25 114.824219 170.25 115.4375 170.492188 115.988281 Z M 170.492188 115.988281 " fill-opacity="1" fill-rule="nonzero"/><path fill="#de6026" d="M 176.671875 162.417969 C 176.609375 162.417969 176.550781 162.355469 176.488281 162.355469 C 177.039062 163.03125 177.652344 163.703125 178.203125 164.375 C 178.203125 164.070312 178.140625 163.824219 178.078125 163.519531 C 177.957031 163.273438 177.835938 163.03125 177.710938 162.785156 C 177.40625 162.355469 177.039062 161.988281 176.550781 161.746094 C 176.304688 161.683594 176.058594 161.5625 175.816406 161.5 C 175.265625 161.378906 174.777344 161.441406 174.226562 161.5625 C 173.980469 161.683594 173.734375 161.808594 173.492188 161.929688 C 173.0625 162.234375 172.695312 162.601562 172.449219 163.089844 C 172.265625 163.457031 172.144531 163.824219 172.144531 164.191406 C 172.085938 164.621094 172.085938 164.988281 172.265625 165.355469 C 172.390625 165.78125 172.574219 166.089844 172.878906 166.394531 C 173.125 166.699219 173.429688 166.945312 173.796875 167.128906 C 174.164062 167.3125 174.53125 167.433594 174.898438 167.433594 C 175.328125 167.496094 175.691406 167.496094 176.058594 167.3125 C 176.488281 167.191406 176.792969 167.007812 177.101562 166.699219 C 177.40625 166.457031 177.652344 166.148438 177.835938 165.78125 C 178.019531 165.476562 178.078125 165.171875 178.140625 164.867188 C 177.652344 165.414062 177.160156 165.964844 176.671875 166.457031 C 176.734375 166.457031 176.792969 166.394531 176.855469 166.394531 C 177.039062 166.332031 177.222656 166.210938 177.34375 166.148438 C 177.589844 166.027344 177.773438 165.78125 177.894531 165.539062 C 178.019531 165.414062 178.078125 165.234375 178.140625 165.050781 C 178.261719 164.804688 178.324219 164.5 178.261719 164.253906 C 178.203125 164.070312 178.203125 163.886719 178.140625 163.703125 C 178.078125 163.519531 177.957031 163.335938 177.894531 163.214844 C 177.773438 162.96875 177.527344 162.785156 177.285156 162.664062 C 177.160156 162.539062 176.917969 162.480469 176.671875 162.417969 Z M 176.671875 162.417969 " fill-opacity="1" fill-rule="nonzero"/><path fill="#de6026" d="M 137.582031 140.152344 C 140.394531 140.152344 140.210938 135.746094 137.398438 135.746094 C 134.523438 135.746094 134.765625 140.152344 137.582031 140.152344 Z M 137.582031 140.152344 " fill-opacity="1" fill-rule="nonzero"/><path fill="#de6026" d="M 140.640625 173.183594 C 144.003906 173.183594 143.761719 167.984375 140.394531 167.984375 C 137.03125 167.984375 137.277344 173.183594 140.640625 173.183594 Z M 140.640625 173.183594 " fill-opacity="1" fill-rule="nonzero"/><path fill="#de6026" d="M 121.246094 211.785156 C 124.429688 211.785156 124.183594 206.890625 121.003906 206.890625 C 117.882812 206.890625 118.128906 211.785156 121.246094 211.785156 Z M 121.246094 211.785156 " fill-opacity="1" fill-rule="nonzero"/><g clip-path="url(#a8e6262114)"><path fill="#000000" d="M 187.625 144.785156 C 186.632812 144.785156 185.65625 144.492188 184.867188 143.945312 C 184.421875 143.769531 184.113281 143.339844 184.113281 142.835938 C 184.113281 142.175781 184.644531 141.640625 185.304688 141.640625 L 185.789062 141.640625 L 186.113281 141.902344 C 186.644531 142.320312 187.386719 142.492188 188.105469 142.355469 C 189.007812 142.183594 189.792969 141.519531 190.050781 140.699219 C 190.304688 139.898438 190.019531 138.933594 189.386719 138.457031 C 189.21875 138.332031 188.851562 138.226562 188.457031 138.160156 C 188.398438 138.199219 188.34375 138.238281 188.300781 138.273438 C 187.863281 138.589844 186.53125 139.550781 185.550781 138.402344 C 184.90625 137.648438 185.074219 136.828125 185.527344 136.347656 C 186.019531 135.824219 186.988281 135.648438 187.992188 135.703125 C 188.328125 135.527344 188.578125 135.296875 188.6875 135.046875 C 188.863281 134.632812 188.699219 133.972656 188.269531 133.371094 C 187.730469 132.625 186.988281 132.152344 186.28125 132.101562 C 185.636719 132.0625 184.957031 132.472656 184.828125 132.984375 C 184.660156 133.621094 184.007812 134.003906 183.371094 133.835938 C 182.738281 133.667969 182.355469 133.015625 182.523438 132.382812 C 182.945312 130.746094 184.640625 129.597656 186.441406 129.722656 C 187.875 129.816406 189.25 130.640625 190.210938 131.980469 C 191.148438 133.285156 191.402344 134.777344 190.886719 135.980469 C 190.820312 136.136719 190.746094 136.289062 190.652344 136.429688 C 190.71875 136.472656 190.777344 136.511719 190.832031 136.554688 C 192.277344 137.648438 192.894531 139.652344 192.332031 141.421875 C 191.800781 143.082031 190.320312 144.363281 188.554688 144.699219 C 188.253906 144.753906 187.941406 144.78125 187.636719 144.78125 Z M 187.625 144.785156 " fill-opacity="1" fill-rule="nonzero"/></g><g clip-path="url(#96370eed95)"><path fill="#000000" d="M 221.730469 131.324219 C 220.910156 131.324219 220.144531 130.8125 219.855469 129.996094 C 218.652344 126.566406 215.136719 124.035156 211.503906 123.972656 C 207.867188 123.921875 204.273438 126.320312 202.949219 129.707031 C 202.554688 130.726562 201.398438 131.234375 200.375 130.835938 C 199.355469 130.4375 198.847656 129.285156 199.246094 128.261719 C 201.1875 123.304688 206.246094 119.890625 211.574219 119.992188 C 216.898438 120.085938 221.847656 123.652344 223.609375 128.671875 C 223.976562 129.710938 223.429688 130.84375 222.394531 131.207031 C 222.175781 131.285156 221.953125 131.320312 221.734375 131.320312 Z M 221.730469 131.324219 " fill-opacity="1" fill-rule="nonzero"/></g><g clip-path="url(#f12fa29e33)"><path fill="#000000" d="M 173.828125 131.324219 C 173.011719 131.324219 172.242188 130.8125 171.953125 129.996094 C 170.75 126.566406 167.234375 124.035156 163.601562 123.972656 C 163.554688 123.972656 163.511719 123.972656 163.46875 123.972656 C 159.878906 123.972656 156.355469 126.363281 155.054688 129.710938 C 154.65625 130.730469 153.503906 131.238281 152.476562 130.839844 C 151.457031 130.441406 150.953125 129.289062 151.347656 128.265625 C 153.285156 123.304688 158.335938 119.890625 163.671875 119.992188 C 168.992188 120.085938 173.941406 123.652344 175.707031 128.671875 C 176.070312 129.710938 175.523438 130.84375 174.488281 131.207031 C 174.269531 131.285156 174.046875 131.320312 173.828125 131.320312 Z M 173.828125 131.324219 " fill-opacity="1" fill-rule="nonzero"/></g><path fill="#000000" d="M 227.269531 135.820312 C 227.269531 135.96875 227.242188 136.113281 227.1875 136.25 C 227.128906 136.386719 227.046875 136.507812 226.941406 136.613281 C 226.835938 136.71875 226.714844 136.800781 226.578125 136.859375 C 226.4375 136.914062 226.296875 136.945312 226.144531 136.945312 C 225.996094 136.945312 225.855469 136.914062 225.714844 136.859375 C 225.578125 136.800781 225.457031 136.71875 225.351562 136.613281 C 225.246094 136.507812 225.164062 136.386719 225.105469 136.25 C 225.050781 136.113281 225.023438 135.96875 225.023438 135.820312 C 225.023438 135.671875 225.050781 135.527344 225.105469 135.390625 C 225.164062 135.25 225.246094 135.128906 225.351562 135.023438 C 225.457031 134.917969 225.578125 134.835938 225.714844 134.78125 C 225.855469 134.722656 225.996094 134.695312 226.144531 134.695312 C 226.296875 134.695312 226.4375 134.722656 226.578125 134.78125 C 226.714844 134.835938 226.835938 134.917969 226.941406 135.023438 C 227.046875 135.128906 227.128906 135.25 227.1875 135.390625 C 227.242188 135.527344 227.269531 135.671875 227.269531 135.820312 Z M 227.269531 135.820312 " fill-opacity="1" fill-rule="nonzero"/><path fill="#000000" d="M 227.269531 141.074219 C 227.269531 141.222656 227.242188 141.367188 227.1875 141.503906 C 227.128906 141.640625 227.046875 141.761719 226.941406 141.867188 C 226.835938 141.972656 226.714844 142.054688 226.578125 142.113281 C 226.4375 142.171875 226.296875 142.199219 226.144531 142.199219 C 225.996094 142.199219 225.855469 142.171875 225.714844 142.113281 C 225.578125 142.054688 225.457031 141.972656 225.351562 141.867188 C 225.246094 141.761719 225.164062 141.640625 225.105469 141.503906 C 225.050781 141.367188 225.023438 141.222656 225.023438 141.074219 C 225.023438 140.925781 225.050781 140.78125 225.105469 140.644531 C 225.164062 140.503906 225.246094 140.382812 225.351562 140.277344 C 225.457031 140.171875 225.578125 140.089844 225.714844 140.035156 C 225.855469 139.976562 225.996094 139.949219 226.144531 139.949219 C 226.296875 139.949219 226.4375 139.976562 226.578125 140.035156 C 226.714844 140.089844 226.835938 140.171875 226.941406 140.277344 C 227.046875 140.382812 227.128906 140.503906 227.1875 140.644531 C 227.242188 140.78125 227.269531 140.925781 227.269531 141.074219 Z M 227.269531 141.074219 " fill-opacity="1" fill-rule="nonzero"/><g clip-path="url(#1b083d5c10)"><path fill="#000000" d="M 231.59375 138.394531 C 231.59375 138.542969 231.566406 138.6875 231.511719 138.824219 C 231.453125 138.964844 231.371094 139.085938 231.265625 139.191406 C 231.160156 139.296875 231.039062 139.378906 230.902344 139.433594 C 230.761719 139.492188 230.621094 139.519531 230.472656 139.519531 C 230.320312 139.519531 230.179688 139.492188 230.039062 139.433594 C 229.902344 139.378906 229.78125 139.296875 229.675781 139.191406 C 229.570312 139.085938 229.488281 138.964844 229.429688 138.824219 C 229.375 138.6875 229.347656 138.542969 229.347656 138.394531 C 229.347656 138.246094 229.375 138.101562 229.429688 137.964844 C 229.488281 137.828125 229.570312 137.703125 229.675781 137.597656 C 229.78125 137.492188 229.902344 137.414062 230.039062 137.355469 C 230.179688 137.296875 230.320312 137.269531 230.472656 137.269531 C 230.621094 137.269531 230.761719 137.296875 230.902344 137.355469 C 231.039062 137.414062 231.160156 137.492188 231.265625 137.597656 C 231.371094 137.703125 231.453125 137.828125 231.511719 137.964844 C 231.566406 138.101562 231.59375 138.246094 231.59375 138.394531 Z M 231.59375 138.394531 " fill-opacity="1" fill-rule="nonzero"/></g><path fill="#000000" d="M 149.972656 135.820312 C 149.972656 135.96875 149.945312 136.113281 149.886719 136.25 C 149.832031 136.386719 149.75 136.507812 149.644531 136.613281 C 149.539062 136.71875 149.417969 136.800781 149.28125 136.859375 C 149.140625 136.914062 149 136.945312 148.847656 136.945312 C 148.699219 136.945312 148.558594 136.914062 148.417969 136.859375 C 148.28125 136.800781 148.160156 136.71875 148.054688 136.613281 C 147.949219 136.507812 147.867188 136.386719 147.808594 136.25 C 147.753906 136.113281 147.722656 135.96875 147.722656 135.820312 C 147.722656 135.671875 147.753906 135.527344 147.808594 135.390625 C 147.867188 135.25 147.949219 135.128906 148.054688 135.023438 C 148.160156 134.917969 148.28125 134.835938 148.417969 134.78125 C 148.558594 134.722656 148.699219 134.695312 148.847656 134.695312 C 149 134.695312 149.140625 134.722656 149.28125 134.78125 C 149.417969 134.835938 149.539062 134.917969 149.644531 135.023438 C 149.75 135.128906 149.832031 135.25 149.886719 135.390625 C 149.945312 135.527344 149.972656 135.671875 149.972656 135.820312 Z M 149.972656 135.820312 " fill-opacity="1" fill-rule="nonzero"/><path fill="#000000" d="M 149.972656 141.074219 C 149.972656 141.222656 149.945312 141.367188 149.886719 141.503906 C 149.832031 141.640625 149.75 141.761719 149.644531 141.867188 C 149.539062 141.972656 149.417969 142.054688 149.28125 142.113281 C 149.140625 142.171875 149 142.199219 148.847656 142.199219 C 148.699219 142.199219 148.558594 142.171875 148.417969 142.113281 C 148.28125 142.054688 148.160156 141.972656 148.054688 141.867188 C 147.949219 141.761719 147.867188 141.640625 147.808594 141.503906 C 147.753906 141.367188 147.722656 141.222656 147.722656 141.074219 C 147.722656 140.925781 147.753906 140.78125 147.808594 140.644531 C 147.867188 140.503906 147.949219 140.382812 148.054688 140.277344 C 148.160156 140.171875 148.28125 140.089844 148.417969 140.035156 C 148.558594 139.976562 148.699219 139.949219 148.847656 139.949219 C 149 139.949219 149.140625 139.976562 149.28125 140.035156 C 149.417969 140.089844 149.539062 140.171875 149.644531 140.277344 C 149.75 140.382812 149.832031 140.503906 149.886719 140.644531 C 149.945312 140.78125 149.972656 140.925781 149.972656 141.074219 Z M 149.972656 141.074219 " fill-opacity="1" fill-rule="nonzero"/><g clip-path="url(#a93e893d07)"><path fill="#000000" d="M 145.648438 138.394531 C 145.648438 138.542969 145.621094 138.6875 145.5625 138.824219 C 145.507812 138.964844 145.425781 139.085938 145.320312 139.191406 C 145.214844 139.296875 145.09375 139.378906 144.957031 139.433594 C 144.816406 139.492188 144.675781 139.519531 144.523438 139.519531 C 144.375 139.519531 144.230469 139.492188 144.09375 139.433594 C 143.957031 139.378906 143.835938 139.296875 143.730469 139.191406 C 143.625 139.085938 143.542969 138.964844 143.484375 138.824219 C 143.429688 138.6875 143.398438 138.542969 143.398438 138.394531 C 143.398438 138.246094 143.429688 138.101562 143.484375 137.964844 C 143.542969 137.828125 143.625 137.703125 143.730469 137.597656 C 143.835938 137.492188 143.957031 137.414062 144.09375 137.355469 C 144.230469 137.296875 144.375 137.269531 144.523438 137.269531 C 144.675781 137.269531 144.816406 137.296875 144.957031 137.355469 C 145.09375 137.414062 145.214844 137.492188 145.320312 137.597656 C 145.425781 137.703125 145.507812 137.828125 145.5625 137.964844 C 145.621094 138.101562 145.648438 138.246094 145.648438 138.394531 Z M 145.648438 138.394531 " fill-opacity="1" fill-rule="nonzero"/></g></svg>