<svg xmlns="http://www.w3.org/2000/svg" xmlns:xlink="http://www.w3.org/1999/xlink" width="500" zoomAndPan="magnify" viewBox="0 0 375 374.999991" height="500" preserveAspectRatio="xMidYMid meet" version="1.0"><defs><filter x="0%" y="0%" width="100%" height="100%" id="773dfb98fe"><feColorMatrix values="0 0 0 0 1 0 0 0 0 1 0 0 0 0 1 0 0 0 1 0" color-interpolation-filters="sRGB"/></filter><mask id="79326d2377"><g filter="url(#773dfb98fe)"><rect x="-37.5" width="450" fill="#000000" y="-37.499999" height="449.999989" fill-opacity="0.2"/></g></mask><clipPath id="6699669fe5"><path d="M 0.441406 1 L 280 1 L 280 182 L 0.441406 182 Z M 0.441406 1 " clip-rule="nonzero"/></clipPath><clipPath id="ecd7c549ef"><path d="M 4 115 L 251 115 L 251 284.878906 L 4 284.878906 Z M 4 115 " clip-rule="nonzero"/></clipPath><clipPath id="76b2eb79a6"><rect x="0" width="281" y="0" height="285"/></clipPath><mask id="3c17d16c6b"><g filter="url(#773dfb98fe)"><rect x="-37.5" width="450" fill="#000000" y="-37.499999" height="449.999989" fill-opacity="0.3"/></g></mask><clipPath id="5c2d33efdf"><rect x="0" width="282" y="0" height="282"/></clipPath><mask id="b682d65bd7"><g filter="url(#773dfb98fe)"><rect x="-37.5" width="450" fill="#000000" y="-37.499999" height="449.999989" fill-opacity="0.6"/></g></mask><clipPath id="e108e2bc9a"><path d="M 52 0.320312 L 290.878906 0.320312 L 290.878906 203 L 52 203 Z M 52 0.320312 " clip-rule="nonzero"/></clipPath><clipPath id="783b1b9de8"><rect x="0" width="291" y="0" height="265"/></clipPath><mask id="a96a4366bb"><g filter="url(#773dfb98fe)"><rect x="-37.5" width="450" fill="#000000" y="-37.499999" height="449.999989" fill-opacity="0.3"/></g></mask><clipPath id="b82f3a9ca4"><rect x="0" width="292" y="0" height="269"/></clipPath><clipPath id="a13fb87fd0"><path d="M 124 170 L 252 170 L 252 206.386719 L 124 206.386719 Z M 124 170 " clip-rule="nonzero"/></clipPath></defs><path fill="#ffab45" d="M 299.730469 79.609375 C 301.53125 81.410156 303.285156 83.253906 304.996094 85.140625 C 306.707031 87.027344 308.371094 88.957031 309.988281 90.925781 C 311.601562 92.894531 313.171875 94.902344 314.6875 96.949219 C 316.203125 98.992188 317.671875 101.074219 319.085938 103.195312 C 320.5 105.3125 321.863281 107.464844 323.175781 109.648438 C 324.484375 111.832031 325.738281 114.050781 326.941406 116.296875 C 328.140625 118.542969 329.285156 120.816406 330.375 123.121094 C 331.464844 125.421875 332.496094 127.75 333.472656 130.105469 C 334.445312 132.457031 335.363281 134.832031 336.21875 137.230469 C 337.078125 139.628906 337.878906 142.046875 338.617188 144.484375 C 339.355469 146.921875 340.035156 149.378906 340.65625 151.847656 C 341.273438 154.320312 341.832031 156.804688 342.328125 159.300781 C 342.824219 161.800781 343.261719 164.308594 343.636719 166.828125 C 344.007812 169.351562 344.320312 171.878906 344.570312 174.414062 C 344.820312 176.949219 345.007812 179.488281 345.132812 182.03125 C 345.257812 184.574219 345.320312 187.121094 345.320312 189.667969 C 345.320312 192.214844 345.257812 194.761719 345.132812 197.304688 C 345.007812 199.851562 344.820312 202.390625 344.570312 204.925781 C 344.320312 207.460938 344.007812 209.988281 343.636719 212.507812 C 343.261719 215.027344 342.828125 217.535156 342.328125 220.035156 C 341.832031 222.53125 341.273438 225.019531 340.65625 227.488281 C 340.039062 229.960938 339.359375 232.414062 338.617188 234.851562 C 337.878906 237.289062 337.082031 239.707031 336.222656 242.105469 C 335.363281 244.503906 334.449219 246.878906 333.472656 249.234375 C 332.5 251.585938 331.464844 253.914062 330.378906 256.21875 C 329.289062 258.519531 328.144531 260.796875 326.941406 263.042969 C 325.742188 265.289062 324.484375 267.503906 323.175781 269.691406 C 321.867188 271.875 320.503906 274.027344 319.089844 276.144531 C 317.675781 278.261719 316.207031 280.34375 314.691406 282.390625 C 313.171875 284.4375 311.605469 286.445312 309.992188 288.414062 C 308.375 290.382812 306.710938 292.3125 305 294.199219 C 303.289062 296.085938 301.535156 297.929688 299.734375 299.730469 C 297.933594 301.53125 296.085938 303.289062 294.199219 305 C 292.3125 306.710938 290.382812 308.375 288.414062 309.988281 C 286.445312 311.605469 284.4375 313.171875 282.390625 314.691406 C 280.347656 316.207031 278.265625 317.671875 276.144531 319.089844 C 274.027344 320.503906 271.875 321.867188 269.691406 323.175781 C 267.507812 324.484375 265.292969 325.742188 263.042969 326.941406 C 260.796875 328.144531 258.523438 329.289062 256.222656 330.375 C 253.917969 331.464844 251.589844 332.5 249.238281 333.472656 C 246.882812 334.449219 244.507812 335.363281 242.109375 336.222656 C 239.710938 337.082031 237.292969 337.878906 234.855469 338.621094 C 232.417969 339.359375 229.964844 340.039062 227.492188 340.65625 C 225.019531 341.277344 222.535156 341.832031 220.039062 342.332031 C 217.539062 342.828125 215.03125 343.261719 212.511719 343.636719 C 209.992188 344.011719 207.464844 344.324219 204.929688 344.574219 C 202.394531 344.820312 199.855469 345.007812 197.308594 345.132812 C 194.765625 345.257812 192.21875 345.320312 189.671875 345.320312 C 187.125 345.324219 184.578125 345.261719 182.035156 345.136719 C 179.488281 345.011719 176.949219 344.824219 174.414062 344.574219 C 171.878906 344.324219 169.351562 344.011719 166.832031 343.636719 C 164.3125 343.265625 161.804688 342.828125 159.304688 342.332031 C 156.808594 341.835938 154.324219 341.277344 151.851562 340.660156 C 149.378906 340.039062 146.925781 339.359375 144.488281 338.621094 C 142.050781 337.882812 139.632812 337.082031 137.234375 336.222656 C 134.835938 335.367188 132.460938 334.449219 130.105469 333.476562 C 127.753906 332.5 125.425781 331.46875 123.121094 330.378906 C 120.820312 329.289062 118.542969 328.144531 116.296875 326.945312 C 114.050781 325.742188 111.835938 324.488281 109.652344 323.179688 C 107.464844 321.871094 105.316406 320.507812 103.195312 319.09375 C 101.078125 317.675781 98.996094 316.210938 96.949219 314.691406 C 94.902344 313.175781 92.898438 311.609375 90.925781 309.992188 C 88.957031 308.375 87.03125 306.714844 85.140625 305.003906 C 83.253906 303.292969 81.410156 301.535156 79.609375 299.734375 C 77.808594 297.933594 76.050781 296.089844 74.339844 294.203125 C 72.628906 292.316406 70.96875 290.386719 69.351562 288.417969 C 67.734375 286.449219 66.167969 284.441406 64.652344 282.394531 C 63.132812 280.347656 61.667969 278.265625 60.25 276.148438 C 58.835938 274.03125 57.472656 271.878906 56.164062 269.695312 C 54.855469 267.507812 53.597656 265.292969 52.398438 263.046875 C 51.199219 260.800781 50.054688 258.527344 48.964844 256.222656 C 47.875 253.921875 46.84375 251.59375 45.867188 249.238281 C 44.894531 246.886719 43.976562 244.507812 43.117188 242.109375 C 42.257812 239.710938 41.460938 237.292969 40.722656 234.855469 C 39.980469 232.417969 39.300781 229.964844 38.683594 227.492188 C 38.066406 225.023438 37.507812 222.539062 37.007812 220.039062 C 36.511719 217.542969 36.078125 215.03125 35.703125 212.511719 C 35.328125 209.992188 35.019531 207.464844 34.769531 204.929688 C 34.519531 202.394531 34.332031 199.855469 34.207031 197.3125 C 34.082031 194.765625 34.019531 192.222656 34.019531 189.675781 C 34.019531 187.125 34.082031 184.582031 34.207031 182.035156 C 34.332031 179.492188 34.519531 176.953125 34.765625 174.417969 C 35.015625 171.882812 35.328125 169.355469 35.703125 166.835938 C 36.078125 164.316406 36.511719 161.804688 37.007812 159.308594 C 37.503906 156.808594 38.0625 154.324219 38.683594 151.855469 C 39.300781 149.382812 39.980469 146.929688 40.71875 144.492188 C 41.460938 142.054688 42.257812 139.636719 43.117188 137.238281 C 43.972656 134.839844 44.890625 132.460938 45.867188 130.109375 C 46.839844 127.753906 47.871094 125.425781 48.960938 123.125 C 50.050781 120.820312 51.195312 118.546875 52.394531 116.300781 C 53.597656 114.054688 54.851562 111.839844 56.160156 109.652344 C 57.472656 107.46875 58.832031 105.316406 60.25 103.199219 C 61.664062 101.082031 63.128906 99 64.648438 96.953125 C 66.164062 94.90625 67.730469 92.898438 69.347656 90.929688 C 70.964844 88.960938 72.628906 87.03125 74.335938 85.144531 C 76.046875 83.257812 77.804688 81.414062 79.605469 79.613281 C 81.40625 77.808594 83.25 76.054688 85.136719 74.34375 C 87.027344 72.632812 88.953125 70.96875 90.921875 69.351562 C 92.890625 67.738281 94.898438 66.171875 96.945312 64.652344 C 98.992188 63.136719 101.074219 61.667969 103.191406 60.253906 C 105.308594 58.839844 107.460938 57.476562 109.644531 56.167969 C 111.832031 54.855469 114.046875 53.601562 116.292969 52.402344 C 118.539062 51.199219 120.816406 50.054688 123.117188 48.964844 C 125.421875 47.875 127.75 46.84375 130.101562 45.871094 C 132.453125 44.894531 134.832031 43.976562 137.230469 43.121094 C 139.628906 42.261719 142.046875 41.464844 144.484375 40.722656 C 146.921875 39.984375 149.375 39.304688 151.847656 38.6875 C 154.316406 38.066406 156.800781 37.507812 159.300781 37.011719 C 161.800781 36.515625 164.308594 36.078125 166.828125 35.707031 C 169.347656 35.332031 171.875 35.019531 174.410156 34.769531 C 176.945312 34.519531 179.484375 34.332031 182.027344 34.207031 C 184.574219 34.082031 187.117188 34.019531 189.667969 34.019531 C 192.214844 34.019531 194.757812 34.082031 197.304688 34.207031 C 199.847656 34.332031 202.386719 34.519531 204.921875 34.769531 C 207.457031 35.019531 209.984375 35.332031 212.503906 35.703125 C 215.023438 36.078125 217.535156 36.515625 220.03125 37.011719 C 222.53125 37.507812 225.015625 38.066406 227.488281 38.683594 C 229.957031 39.304688 232.410156 39.984375 234.851562 40.722656 C 237.289062 41.460938 239.707031 42.261719 242.105469 43.117188 C 244.503906 43.976562 246.878906 44.894531 249.230469 45.867188 C 251.585938 46.84375 253.914062 47.875 256.214844 48.964844 C 258.519531 50.050781 260.792969 51.199219 263.039062 52.398438 C 265.285156 53.597656 267.503906 54.855469 269.6875 56.164062 C 271.871094 57.472656 274.023438 58.835938 276.140625 60.25 C 278.261719 61.667969 280.34375 63.132812 282.386719 64.648438 C 284.433594 66.167969 286.441406 67.734375 288.410156 69.351562 C 290.378906 70.964844 292.308594 72.628906 294.195312 74.339844 C 296.082031 76.050781 297.929688 77.804688 299.730469 79.609375 Z M 299.730469 79.609375 " fill-opacity="1" fill-rule="nonzero"/><path fill="#542c16" d="M 252.519531 55.488281 C 242.886719 51.417969 141.976562 10.113281 79.15625 106.433594 C 16.339844 202.757812 69.851562 323.847656 188.042969 326.585938 C 306.234375 329.324219 345.789062 210.203125 308.5625 143.195312 C 271.335938 76.1875 222.074219 46.375 137.324219 85.027344 C 124.59375 90.835938 114.441406 99.082031 106.296875 108.488281 C 52.886719 170.164062 91.253906 283.300781 148.820312 299.980469 C 223.71875 321.683594 289.390625 288.007812 297.253906 220.535156 C 297.800781 215.855469 298.011719 211 297.859375 205.960938 C 295.535156 128.304688 267.792969 85.980469 188.597656 89.226562 C 109.402344 92.476562 86.136719 182.28125 114.988281 235.792969 C 143.835938 289.308594 260.632812 292.097656 272.730469 229.28125 C 284.832031 166.460938 261.5625 114.808594 193.625 115.273438 C 135.253906 115.675781 99.976562 214.542969 156.511719 237.066406 C 165.773438 240.757812 177.503906 242.398438 191.996094 241.222656 C 294.957031 232.855469 238.296875 159.480469 193.625 158.550781 C 148.957031 157.621094 148.46875 214.390625 184.074219 206.945312 C 219.683594 199.5 215.960938 180.886719 197.347656 187.867188 C 178.734375 194.847656 166.058594 192.03125 175.808594 175.542969 C 185.5625 159.058594 233.644531 169.71875 238.761719 198.566406 C 243.882812 227.417969 226.199219 236.257812 176.875 228.8125 C 127.550781 221.367188 132.203125 155.757812 173.617188 133.886719 C 215.03125 112.019531 268.078125 144.125 262.496094 195.773438 C 256.910156 247.425781 208.050781 282.792969 147.558594 252.078125 C 87.066406 221.367188 108.472656 130.628906 151.746094 112.015625 C 195.023438 93.402344 259.703125 82.703125 281.109375 158.082031 C 302.511719 233.464844 274.289062 304.476562 175.792969 292.238281 C 77.296875 280 67.46875 153.996094 124.265625 106.25 C 181.0625 58.503906 238.515625 71.011719 275.277344 110.5625 C 312.039062 150.117188 315.152344 187.914062 307.707031 229.792969 C 300.261719 271.671875 262.585938 334.839844 170.824219 317.011719 C 79.066406 299.183594 54.171875 217.523438 62.40625 169.253906 C 70.636719 120.984375 99.351562 82.441406 149.15625 58.25 C 166.121094 50.011719 237.613281 45.75 281.574219 89.21875 C 338.570312 145.570312 331.828125 210.203125 326.246094 229.746094 C 320.660156 249.289062 348.257812 207.527344 325.921875 144.113281 C 305.722656 85.953125 273.457031 64.328125 252.519531 55.488281 Z M 252.519531 55.488281 " fill-opacity="0.3" fill-rule="nonzero"/><path fill="#ffb65e" d="M 246.835938 236.09375 C 256.566406 224.5 262.910156 209.597656 264.707031 192.953125 C 270.292969 141.300781 217.246094 109.195312 175.832031 131.0625 C 167.515625 135.457031 160.761719 141.65625 155.546875 148.75 C 160.429688 142.851562 166.429688 137.683594 173.617188 133.890625 C 215.03125 112.019531 268.078125 144.125 262.496094 195.777344 C 260.839844 211.105469 255.292969 224.933594 246.835938 236.09375 Z M 246.835938 236.09375 " fill-opacity="0.5" fill-rule="nonzero"/><path fill="#ffb65e" d="M 190.257812 323.761719 C 72.066406 321.023438 18.550781 199.929688 81.371094 103.609375 C 83.300781 100.648438 85.269531 97.824219 87.269531 95.117188 C 84.511719 98.6875 81.789062 102.398438 79.15625 106.433594 C 16.339844 202.757812 69.851562 323.847656 188.042969 326.585938 C 237.25 327.726562 272.777344 307.710938 294.859375 279.160156 C 272.644531 306.203125 237.835938 324.863281 190.257812 323.761719 Z M 190.257812 323.761719 " fill-opacity="0.5" fill-rule="nonzero"/><path fill="#ffb65e" d="M 156.511719 237.066406 C 165.773438 240.757812 177.503906 242.398438 191.996094 241.21875 C 222.425781 238.75 238.835938 230.578125 245.808594 220.296875 C 237.839844 229.226562 221.792969 236.15625 194.210938 238.394531 C 179.71875 239.574219 167.988281 237.933594 158.726562 234.242188 C 120.925781 219.179688 124.203125 170.019531 147.953125 138.949219 C 122.199219 169.773438 117.550781 221.542969 156.511719 237.066406 Z M 156.511719 237.066406 " fill-opacity="0.5" fill-rule="nonzero"/><path fill="#ffb65e" d="M 184.074219 206.945312 C 199.941406 203.625 207.960938 198.101562 210.375 193.601562 C 206.554688 197.417969 198.945312 201.472656 186.289062 204.121094 C 162.492188 209.09375 154.921875 185.429688 165.78125 169.433594 C 151.835938 185.261719 158.820312 212.226562 184.074219 206.945312 Z M 184.074219 206.945312 " fill-opacity="0.5" fill-rule="nonzero"/><path fill="#ffb65e" d="M 240.976562 195.742188 C 235.859375 166.894531 187.777344 156.230469 178.023438 172.71875 C 177.96875 172.8125 177.960938 172.875 177.90625 172.96875 C 191.027344 160.378906 233.941406 171.394531 238.761719 198.570312 C 240.402344 207.808594 239.667969 214.972656 236.34375 220.226562 C 241.53125 214.839844 242.933594 206.761719 240.976562 195.742188 Z M 240.976562 195.742188 " fill-opacity="0.5" fill-rule="nonzero"/><path fill="#ffb65e" d="M 283.320312 155.261719 C 261.917969 79.878906 197.238281 90.582031 153.960938 109.195312 C 145.257812 112.9375 137.507812 119.6875 131.0625 128.191406 C 137.050781 121.027344 144.027344 115.339844 151.746094 112.019531 C 195.023438 93.40625 259.703125 82.703125 281.109375 158.085938 C 292.757812 199.109375 289.558594 238.722656 268.488281 264.441406 C 291.667969 238.855469 295.390625 197.761719 283.320312 155.261719 Z M 283.320312 155.261719 " fill-opacity="0.5" fill-rule="nonzero"/><path fill="#ffb65e" d="M 328.457031 226.921875 C 334.042969 207.378906 340.78125 142.746094 283.785156 86.394531 C 239.824219 42.925781 168.332031 47.1875 151.371094 55.425781 C 125.90625 67.792969 106.035156 83.960938 91.515625 103.214844 C 105.828125 85.210938 124.953125 70.007812 149.15625 58.25 C 166.117188 50.011719 237.609375 45.75 281.574219 89.21875 C 338.570312 145.570312 331.828125 210.203125 326.242188 229.746094 C 324.542969 235.699219 325.933594 235.898438 328.042969 231.59375 C 327.578125 231.4375 327.566406 230.039062 328.457031 226.921875 Z M 328.457031 226.921875 " fill-opacity="0.5" fill-rule="nonzero"/><path fill="#ffb65e" d="M 148.820312 299.980469 C 201.804688 315.332031 250.058594 302.871094 276.609375 270.441406 C 249.621094 300.828125 202.507812 312.070312 151.035156 297.15625 C 95.375 281.027344 57.679688 174.738281 103.515625 111.964844 C 54.367188 174.3125 92.308594 283.605469 148.820312 299.980469 Z M 148.820312 299.980469 " fill-opacity="0.5" fill-rule="nonzero"/><path fill="#ffb65e" d="M 114.984375 235.792969 C 140.425781 282.980469 234.207031 290.699219 264.328125 248.800781 C 232.089844 287.476562 142.050781 279.058594 117.199219 232.96875 C 99.34375 199.84375 101.507812 152.851562 124.492188 121.050781 C 99.488281 152.835938 96.582031 201.65625 114.984375 235.792969 Z M 114.984375 235.792969 " fill-opacity="0.5" fill-rule="nonzero"/><path fill="#ffb65e" d="M 277.492188 107.738281 C 240.734375 68.1875 183.277344 55.679688 126.480469 103.425781 C 121.136719 107.917969 116.382812 113.109375 112.234375 118.828125 C 115.847656 114.234375 119.828125 109.980469 124.265625 106.25 C 181.0625 58.507812 238.519531 71.011719 275.28125 110.566406 C 312.039062 150.117188 315.152344 187.914062 307.707031 229.796875 C 304.984375 245.105469 298.164062 263.238281 286.199219 279.242188 C 299.542969 262.578125 307.039062 243.195312 309.921875 226.96875 C 317.367188 185.089844 314.253906 147.292969 277.492188 107.738281 Z M 277.492188 107.738281 " fill-opacity="0.5" fill-rule="nonzero"/><g mask="url(#79326d2377)"><g transform="matrix(1, 0, 0, 1, 55, 42)"><g clip-path="url(#76b2eb79a6)"><path fill="#78471f" d="M 120.386719 193 C 161.675781 199.230469 180.722656 193.996094 182.855469 175.222656 C 177.332031 188.90625 158.214844 192.300781 121.875 186.816406 C 93.082031 182.46875 82.796875 158.304688 87.367188 134.589844 C 79.582031 160.125 89.078125 188.273438 120.386719 193 Z M 120.386719 193 " fill-opacity="0.3" fill-rule="nonzero"/><path fill="#78471f" d="M 91.070312 216.265625 C 148.589844 245.46875 195.507812 214.894531 204.789062 167.417969 C 192.773438 211.273438 147.527344 237.988281 92.558594 210.082031 C 59.308594 193.199219 50.898438 158.207031 57.164062 127 C 48.414062 159.648438 55.59375 198.253906 91.070312 216.265625 Z M 91.070312 216.265625 " fill-opacity="0.3" fill-rule="nonzero"/><path fill="#78471f" d="M 138.625 116.550781 C 116.453125 116.089844 105.191406 129.84375 103.800781 142.90625 C 107.632812 132.042969 118.476562 122.347656 137.136719 122.734375 C 164.234375 123.300781 195.679688 150.511719 193.292969 173.710938 C 202.9375 149.484375 168.179688 117.167969 138.625 116.550781 Z M 138.625 116.550781 " fill-opacity="0.3" fill-rule="nonzero"/><path fill="#78471f" d="M 142.347656 145.867188 C 128.511719 151.054688 117.992188 150.800781 117.496094 143.570312 C 112.019531 156.496094 123.859375 158.425781 140.859375 152.050781 C 147.953125 149.390625 152.855469 150.457031 154.273438 153.195312 C 159.363281 146.8125 153.625 141.636719 142.347656 145.867188 Z M 142.347656 145.867188 " fill-opacity="0.3" fill-rule="nonzero"/><g clip-path="url(#6699669fe5)"><path fill="#78471f" d="M 22.667969 70.617188 C 85.488281 -25.703125 186.394531 15.605469 196.027344 19.671875 C 216.96875 28.511719 249.234375 50.136719 269.429688 108.296875 C 280.453125 139.589844 279.304688 165.566406 275.996094 181.550781 C 280.242188 166.648438 283.496094 137.816406 270.917969 102.113281 C 250.722656 43.953125 218.457031 22.328125 197.519531 13.488281 C 187.886719 9.417969 86.976562 -31.886719 24.15625 64.433594 C 12.351562 82.539062 4.65625 101.519531 0.726562 120.421875 C 4.964844 103.574219 12.148438 86.75 22.667969 70.617188 Z M 22.667969 70.617188 " fill-opacity="0.3" fill-rule="nonzero"/></g><g clip-path="url(#ecd7c549ef)"><path fill="#78471f" d="M 10.15625 115.265625 C 8.410156 121.160156 6.980469 127.210938 5.917969 133.4375 C -2.316406 181.707031 22.574219 263.367188 114.335938 281.195312 C 127.050781 283.667969 138.625 284.453125 149.324219 284.085938 C 167.582031 282.6875 183.71875 278.246094 197.714844 271.453125 C 229.0625 254.210938 245.023438 222.871094 250.410156 197.695312 C 239.15625 238.835938 200.613281 291.484375 115.824219 275.011719 C 24.066406 257.183594 -0.828125 175.523438 7.40625 127.253906 C 8.105469 123.152344 9.160156 119.222656 10.15625 115.265625 Z M 10.15625 115.265625 " fill-opacity="0.3" fill-rule="nonzero"/></g><path fill="#78471f" d="M 270.878906 189.339844 C 270.789062 189.738281 270.644531 190.242188 270.597656 190.566406 C 270.691406 190.152344 270.785156 189.773438 270.878906 189.339844 Z M 270.878906 189.339844 " fill-opacity="0.3" fill-rule="nonzero"/><path fill="#78471f" d="M 82.324219 43.027344 C 69.59375 48.835938 59.441406 57.082031 51.296875 66.488281 C 39.410156 80.214844 32.09375 96.496094 28.496094 113.6875 C 32.460938 98.789062 39.355469 84.738281 49.804688 72.671875 C 57.953125 63.265625 68.105469 55.019531 80.832031 49.214844 C 165.582031 10.558594 214.847656 40.371094 252.074219 107.378906 C 265.382812 131.332031 268.820312 161.9375 262.417969 191.265625 C 270.769531 160.105469 267.808594 126.839844 253.5625 101.195312 C 216.335938 34.1875 167.074219 4.375 82.324219 43.027344 Z M 82.324219 43.027344 " fill-opacity="0.3" fill-rule="nonzero"/><path fill="#78471f" d="M 217.730469 187.28125 C 229.832031 124.460938 206.5625 72.808594 138.625 73.273438 C 105.953125 73.5 80.53125 104.570312 74.378906 135.839844 C 82.457031 106.789062 106.625 79.667969 137.136719 79.460938 C 204.804688 78.996094 228.128906 130.238281 216.363281 192.71875 C 216.902344 190.960938 217.371094 189.152344 217.730469 187.28125 Z M 217.730469 187.28125 " fill-opacity="0.3" fill-rule="nonzero"/><path fill="#78471f" d="M 119.304688 256.421875 C 184.082031 264.472656 218.296875 236.421875 228.160156 194.898438 C 216.457031 233.023438 182.347656 257.886719 120.792969 250.238281 C 50.867188 241.550781 25.671875 175.539062 37.238281 120.882812 C 22.335938 176.617188 46.714844 247.40625 119.304688 256.421875 Z M 119.304688 256.421875 " fill-opacity="0.3" fill-rule="nonzero"/><path fill="#78471f" d="M 239.132812 194.054688 C 240.488281 189.082031 241.621094 183.960938 242.253906 178.535156 C 242.800781 173.855469 243.011719 169 242.859375 163.960938 C 240.53125 86.304688 212.792969 43.980469 133.597656 47.226562 C 86.78125 49.148438 59.667969 81.355469 51.152344 118.390625 C 61.175781 84.011719 87.910156 55.222656 132.109375 53.414062 C 211.300781 50.164062 239.042969 92.488281 241.371094 170.144531 C 241.519531 175.183594 241.308594 180.042969 240.765625 184.722656 C 240.390625 187.933594 239.765625 190.996094 239.132812 194.054688 Z M 239.132812 194.054688 " fill-opacity="0.3" fill-rule="nonzero"/></g></g></g><g mask="url(#3c17d16c6b)"><g transform="matrix(1, 0, 0, 1, 54, 42)"><g clip-path="url(#5c2d33efdf)"><path fill="#78471f" d="M 122.1875 190.363281 C 163.328125 196.574219 182.390625 191.402344 184.636719 172.796875 C 180.410156 188.484375 161.261719 192.609375 122.875 186.816406 C 95.351562 182.660156 84.671875 160.394531 87.769531 137.722656 C 82.996094 161.574219 93.226562 185.992188 122.1875 190.363281 Z M 122.1875 190.363281 " fill-opacity="0.3" fill-rule="nonzero"/><path fill="#78471f" d="M 92.871094 213.632812 C 150.625 242.953125 197.675781 212.003906 206.6875 164.199219 C 196.066406 209.96875 149.878906 238.675781 93.558594 210.082031 C 60.496094 193.296875 52.007812 158.601562 58.078125 127.527344 C 50.628906 159.464844 58.546875 196.203125 92.871094 213.632812 Z M 92.871094 213.632812 " fill-opacity="0.3" fill-rule="nonzero"/><path fill="#78471f" d="M 139.625 116.550781 C 118.101562 116.101562 106.933594 129.050781 105.019531 141.757812 C 108.34375 130.304688 119.421875 119.695312 138.9375 120.101562 C 166.128906 120.667969 197.691406 148.066406 195.066406 171.316406 C 201.644531 147.40625 168.214844 117.144531 139.625 116.550781 Z M 139.625 116.550781 " fill-opacity="0.3" fill-rule="nonzero"/><path fill="#78471f" d="M 24.46875 67.984375 C 87.289062 -28.335938 188.195312 12.96875 197.832031 17.035156 C 218.769531 25.878906 251.035156 47.503906 271.230469 105.664062 C 281.785156 135.625 281.160156 160.640625 278.1875 176.75 C 281.71875 160.910156 283.269531 134.335938 271.917969 102.113281 C 251.722656 43.953125 219.457031 22.328125 198.519531 13.488281 C 188.886719 9.417969 87.976562 -31.886719 25.15625 64.433594 C 12.832031 83.332031 5.046875 103.179688 1.289062 122.902344 C 5.285156 104.351562 12.886719 85.746094 24.46875 67.984375 Z M 24.46875 67.984375 " fill-opacity="0.3" fill-rule="nonzero"/><path fill="#78471f" d="M 143.347656 145.867188 C 128.824219 151.3125 118.078125 150.683594 118.621094 142.359375 C 114.507812 154.082031 126.253906 155.570312 142.660156 149.417969 C 150.550781 146.457031 155.714844 148.117188 156.394531 151.554688 C 159.335938 145.980469 153.640625 142.007812 143.347656 145.867188 Z M 143.347656 145.867188 " fill-opacity="0.3" fill-rule="nonzero"/><path fill="#78471f" d="M 83.324219 43.027344 C 70.59375 48.835938 60.441406 57.082031 52.296875 66.488281 C 39.90625 80.796875 32.507812 97.886719 29.089844 115.890625 C 32.78125 99.195312 40.03125 83.40625 51.609375 70.039062 C 59.753906 60.632812 69.90625 52.386719 82.636719 46.582031 C 167.386719 7.925781 216.648438 37.738281 253.875 104.746094 C 266.417969 127.324219 270.207031 155.816406 265.246094 183.570312 C 271.203125 154.707031 267.640625 124.738281 254.5625 101.195312 C 217.335938 34.1875 168.074219 4.375 83.324219 43.027344 Z M 83.324219 43.027344 " fill-opacity="0.3" fill-rule="nonzero"/><path fill="#78471f" d="M 218.730469 187.28125 C 230.832031 124.460938 207.5625 72.808594 139.625 73.273438 C 106.230469 73.503906 80.433594 105.960938 75.023438 137.917969 C 81.675781 107.152344 106.78125 77.046875 138.941406 76.828125 C 206.0625 76.367188 229.515625 126.800781 218.402344 188.59375 C 218.5 188.148438 218.644531 187.734375 218.730469 187.28125 Z M 218.730469 187.28125 " fill-opacity="0.3" fill-rule="nonzero"/><path fill="#78471f" d="M 7.71875 130.804688 C -0.515625 179.074219 24.378906 260.734375 116.136719 278.5625 C 207.898438 296.390625 245.574219 233.222656 253.019531 191.34375 C 253.109375 190.832031 253.179688 190.328125 253.265625 189.816406 C 245.003906 231.671875 207.152344 292.5625 116.824219 275.011719 C 25.785156 257.324219 0.613281 176.84375 8.261719 128.4375 C 8.109375 129.242188 7.855469 129.992188 7.71875 130.804688 Z M 7.71875 130.804688 " fill-opacity="0.3" fill-rule="nonzero"/><path fill="#78471f" d="M 271.558594 191.296875 C 272.128906 189.289062 272.703125 186.703125 273.230469 183.804688 C 272.90625 185.257812 272.574219 186.59375 272.242188 187.746094 C 271.765625 189.429688 271.597656 190.5 271.558594 191.296875 Z M 271.558594 191.296875 " fill-opacity="0.3" fill-rule="nonzero"/><path fill="#78471f" d="M 240.953125 191.320312 C 241.949219 187.199219 242.738281 182.949219 243.253906 178.535156 C 243.800781 173.855469 244.011719 169 243.859375 163.960938 C 241.53125 86.304688 213.792969 43.980469 134.597656 47.226562 C 84.671875 49.273438 57.023438 85.730469 50.597656 125.796875 C 58.0625 87.15625 85.472656 52.765625 133.910156 50.777344 C 213.105469 47.53125 240.84375 89.855469 243.171875 167.511719 C 243.324219 172.546875 243.113281 177.40625 242.566406 182.085938 C 242.195312 185.265625 241.574219 188.292969 240.953125 191.320312 Z M 240.953125 191.320312 " fill-opacity="0.3" fill-rule="nonzero"/><path fill="#78471f" d="M 121.105469 253.789062 C 189.515625 262.289062 223.960938 230.597656 231.492188 185.210938 C 222.765625 228.671875 188.394531 258.511719 121.792969 250.238281 C 54.179688 241.835938 28.355469 179.832031 37.175781 126.328125 C 26.582031 180.605469 51.984375 245.199219 121.105469 253.789062 Z M 121.105469 253.789062 " fill-opacity="0.3" fill-rule="nonzero"/></g></g></g><path fill="#ffb65e" d="M 345.324219 189.671875 C 345.324219 167.519531 340.625 146.492188 332.285156 127.414062 C 332.484375 173.652344 325.007812 247.925781 279.652344 287.734375 C 210.652344 348.296875 81.746094 322.085938 61.464844 238.933594 C 44.070312 167.613281 89.359375 83.222656 102.605469 60.632812 C 61.226562 88.605469 34.019531 135.960938 34.019531 189.671875 C 34.019531 275.636719 103.707031 345.320312 189.671875 345.320312 C 275.636719 345.320312 345.324219 275.636719 345.324219 189.671875 Z M 345.324219 189.671875 " fill-opacity="0.4" fill-rule="nonzero"/><path fill="#ffb65e" d="M 106.152344 74.707031 C 106.152344 74.707031 82.199219 131.847656 88.058594 200.804688 C 93.917969 269.761719 155.046875 310.371094 232.175781 292.5 C 309.304688 274.628906 296.949219 133.386719 296.949219 133.386719 C 296.949219 133.386719 385.023438 326.921875 197.351562 323.304688 C 29.015625 320.058594 54.746094 145.546875 72.507812 121.050781 C 90.265625 96.558594 106.152344 74.707031 106.152344 74.707031 Z M 106.152344 74.707031 " fill-opacity="0.2" fill-rule="nonzero"/><path fill="#ffb65e" d="M 133.621094 113.988281 C 133.621094 113.988281 89.046875 143.207031 85.804688 192.285156 C 82.558594 241.367188 106.207031 291.847656 196.195312 299.058594 C 286.183594 306.269531 300.382812 205.960938 296.730469 199.730469 C 293.082031 193.503906 287.660156 148.996094 285.492188 152.128906 C 283.320312 155.261719 284.15625 239.75 229.804688 259.621094 C 175.449219 279.496094 119.503906 255.253906 108.273438 200.703125 C 97.042969 146.152344 133.621094 113.988281 133.621094 113.988281 Z M 133.621094 113.988281 " fill-opacity="0.2" fill-rule="nonzero"/><path fill="#ffb65e" d="M 145.191406 146.726562 C 145.191406 146.726562 110.667969 167.65625 108.78125 194.980469 C 106.898438 222.304688 120.441406 266.941406 187.085938 268.757812 C 253.734375 270.574219 265.117188 207.042969 265.117188 207.042969 C 265.117188 207.042969 251.175781 234.042969 209.863281 234.867188 C 168.554688 235.6875 137.992188 229.773438 136.234375 195.210938 C 134.480469 160.644531 145.191406 146.726562 145.191406 146.726562 Z M 145.191406 146.726562 " fill-opacity="0.2" fill-rule="nonzero"/><path fill="#ffb65e" d="M 166.523438 162.882812 C 122.714844 178.089844 137.925781 225.441406 175.550781 233.609375 C 213.171875 241.773438 240.875 231.632812 244 218.292969 C 247.125 204.953125 241.820312 197.582031 241.820312 197.582031 C 241.820312 197.582031 226.035156 193.203125 202.769531 199.03125 C 179.503906 204.859375 167.742188 202.226562 165.308594 191.578125 C 162.875 180.929688 166.523438 162.882812 166.523438 162.882812 Z M 166.523438 162.882812 " fill-opacity="0.2" fill-rule="nonzero"/><path fill="#a82424" d="M 240.535156 311.011719 C 231.085938 314.621094 221.261719 317.253906 211.257812 318.851562 C 224.335938 318.46875 232.433594 315.496094 240.535156 311.011719 Z M 240.535156 311.011719 " fill-opacity="0.2" fill-rule="nonzero"/><path fill="#a82424" d="M 304.042969 290.722656 C 325.699219 268.816406 322.945312 230.6875 325.859375 209.820312 C 326.355469 206.25 326.375 201.6875 326.066406 196.539062 C 323.964844 207.078125 321.175781 217.636719 317.582031 227.910156 C 315.988281 241.976562 314.027344 255.914062 311.820312 262.171875 C 307.082031 275.605469 288.265625 298.023438 269.707031 311.410156 C 251.148438 324.796875 200.648438 326.316406 180.472656 326.46875 C 160.300781 326.617188 129.054688 323.984375 113.640625 317.089844 C 98.226562 310.191406 77.539062 290.316406 69.019531 272.804688 C 60.5 255.289062 43.871094 206.757812 45.898438 190.238281 C 47.925781 173.71875 58.070312 145.914062 64.152344 129.6875 C 70.238281 113.460938 72.265625 105.753906 66.585938 105.753906 C 60.90625 105.753906 58.070312 113.054688 51.222656 134.101562 C 44.378906 155.148438 45.898438 156.457031 39.003906 179.703125 C 35.699219 190.84375 34.871094 201.46875 35.707031 211.363281 C 36.636719 218.027344 37.972656 224.550781 39.722656 230.917969 C 40.828125 234.277344 42.046875 237.542969 43.464844 240.613281 C 47.742188 249.859375 57.976562 269.421875 68.304688 287 C 82.496094 304.671875 100.488281 319.082031 121.011719 329.203125 C 140.191406 331.011719 170.308594 330.785156 220.320312 329.746094 C 239.027344 329.355469 252.675781 328.433594 262.8125 327.039062 C 274.9375 320.574219 286.019531 312.476562 295.960938 303.160156 C 297.460938 299.328125 299.648438 295.167969 304.042969 290.722656 Z M 304.042969 290.722656 " fill-opacity="0.2" fill-rule="nonzero"/><path fill="#a82424" d="M 61.820312 164.652344 C 60.609375 168.957031 59.890625 173.167969 59.664062 177.332031 C 60.269531 173.070312 60.984375 168.84375 61.820312 164.652344 Z M 61.820312 164.652344 " fill-opacity="0.2" fill-rule="nonzero"/><path fill="#ffe5c4" d="M 189.671875 185.925781 C 168.957031 186.605469 177.535156 169.917969 185.609375 168.867188 C 193.683594 167.816406 201.015625 161.394531 216.511719 172.933594 C 232.003906 184.472656 253.734375 208.714844 235.074219 215.710938 C 216.417969 222.707031 201.640625 213.175781 179.621094 216.929688 C 157.601562 220.679688 142.59375 207.503906 143.808594 187.125 C 145.027344 166.75 147.144531 168.890625 149.535156 157.265625 C 151.921875 145.640625 177.746094 137.816406 188.582031 128.382812 C 199.417969 118.945312 224.125 125.261719 226.960938 130.988281 C 229.800781 136.714844 232.351562 123.335938 249.933594 144.875 C 267.515625 166.417969 266.421875 178.199219 260.6875 194.980469 C 254.953125 211.757812 269.945312 219.441406 249.46875 234.867188 C 228.992188 250.292969 237.601562 262.851562 201.253906 262.859375 C 164.902344 262.867188 149.894531 244.5 138.128906 241.71875 C 126.367188 238.933594 110.273438 219.753906 112.234375 202.976562 C 114.199219 186.203125 118.253906 174.300781 117.039062 161.1875 C 115.820312 148.074219 119.378906 128.199219 127.941406 128.199219 C 136.507812 128.199219 135.984375 118.027344 151.75 112.019531 C 167.511719 106.011719 188.429688 94.53125 221.691406 106.699219 C 254.953125 118.867188 263.382812 114.78125 276.609375 137.105469 C 289.835938 159.429688 280.539062 193.78125 283.160156 213.316406 C 285.78125 232.851562 295.109375 230.820312 281.722656 249.886719 C 268.335938 268.949219 272.800781 288.015625 225.746094 290.855469 C 178.695312 293.695312 154.355469 293.695312 137.726562 282.335938 C 121.09375 270.976562 105.273438 251.808594 99.191406 229.550781 C 93.105469 207.292969 95.6875 192.539062 96.753906 168.328125 C 97.824219 144.117188 84.730469 125.394531 103.128906 116.675781 C 121.527344 107.953125 122.515625 94.863281 148.171875 85.976562 C 173.824219 77.085938 208.40625 64.890625 241.820312 81.738281 C 275.234375 98.585938 311.996094 127.074219 310.042969 155.21875 C 308.089844 183.363281 315.277344 202.609375 307.019531 233.347656 C 298.757812 264.082031 279.636719 285.640625 259.789062 297.171875 C 239.941406 308.703125 232.523438 317.222656 202.769531 315.597656 C 173.015625 313.976562 158.320312 314.023438 127.941406 299.804688 C 97.566406 285.582031 69.578125 263.972656 67.144531 241.71875 C 64.710938 219.464844 60.394531 192.902344 60.914062 175.441406 C 61.433594 157.976562 71.40625 139.804688 85.515625 116.839844 C 99.625 93.875 88.953125 80.492188 127.941406 70.269531 C 166.929688 60.050781 209.460938 52.078125 237.851562 62.195312 C 266.246094 72.316406 300.480469 81.585938 309.035156 107.265625 C 317.589844 132.945312 330.140625 185.84375 327.226562 206.710938 C 324.3125 227.578125 327.070312 265.707031 305.410156 287.609375 C 283.75 309.515625 315.390625 324.6875 221.691406 326.632812 C 127.988281 328.578125 103.714844 327.757812 91.515625 315.796875 C 79.3125 303.835938 52.503906 254.082031 44.835938 237.5 C 37.167969 220.917969 33.476562 199.832031 40.371094 176.589844 C 47.269531 153.347656 45.75 152.035156 52.59375 130.988281 C 59.4375 109.941406 62.277344 102.644531 67.957031 102.644531 C 73.632812 102.644531 71.605469 110.351562 65.523438 126.574219 C 59.4375 142.800781 49.296875 170.609375 47.269531 187.125 C 45.242188 203.644531 61.871094 252.175781 70.390625 269.691406 C 78.90625 287.203125 99.59375 307.082031 115.007812 313.976562 C 130.421875 320.871094 161.667969 323.507812 181.84375 323.355469 C 202.015625 323.203125 252.519531 321.683594 271.074219 308.296875 C 289.632812 294.910156 308.449219 272.496094 313.1875 259.0625 C 317.925781 245.628906 321.546875 196.835938 322.78125 187.3125 C 324.011719 177.785156 310.320312 138.863281 301.800781 124.101562 C 293.285156 109.335938 279.59375 87.734375 247.648438 76.175781 C 215.707031 64.613281 161.25 71.003906 135.695312 81.652344 C 110.140625 92.300781 83.171875 122.417969 80.835938 137.628906 C 78.503906 152.839844 81.1875 194.316406 83.496094 215.714844 C 85.800781 237.109375 89.421875 264.699219 103.128906 276.15625 C 116.835938 287.609375 144.484375 304.117188 158.800781 306.511719 C 173.117188 308.90625 215.917969 308.472656 237.855469 302.820312 C 259.789062 297.171875 286.503906 264.792969 290.046875 252.625 C 293.585938 240.457031 298.574219 211.296875 297.90625 197.582031 C 297.238281 183.867188 297.761719 167.386719 290.046875 146.726562 C 282.332031 126.066406 269.617188 105.847656 238.554688 95.117188 C 207.492188 84.386719 166.421875 91.386719 149.691406 98.078125 C 132.957031 104.773438 124.441406 115.417969 116.53125 134.890625 C 108.621094 154.359375 101.3125 173.265625 105.269531 201.84375 C 109.226562 230.417969 130.21875 258.0625 153.339844 267.054688 C 176.460938 276.050781 237.609375 275.707031 251.300781 261.273438 C 264.992188 246.84375 273.203125 240.554688 272.292969 218.753906 C 271.378906 196.953125 274.574219 188.644531 272.367188 170.4375 C 270.164062 152.230469 265.175781 133.371094 237.855469 126.980469 C 210.535156 120.589844 200.953125 109.648438 177.90625 115.273438 C 154.863281 120.894531 123.527344 149.960938 125.046875 169.199219 C 126.570312 188.433594 129.003906 205.261719 142.996094 218.753906 C 156.992188 232.242188 152.277344 240.148438 177.90625 240.148438 C 203.539062 240.148438 230.308594 240.457031 240.042969 228.589844 C 249.78125 216.726562 257.386719 203.226562 247.042969 188.527344 C 236.699219 173.832031 239.332031 160.589844 210.332031 158.539062 C 181.328125 156.488281 166.207031 153.96875 158.710938 169.527344 C 151.210938 185.085938 160.375 210.074219 184.695312 205.488281 C 209.015625 200.90625 212.5625 198.511719 210.332031 189.667969 C 208.101562 180.828125 189.671875 185.925781 189.671875 185.925781 Z M 189.671875 185.925781 " fill-opacity="1" fill-rule="nonzero"/><g mask="url(#b682d65bd7)"><g transform="matrix(1, 0, 0, 1, 36, 64)"><g clip-path="url(#783b1b9de8)"><path fill="#ffe5c4" d="M 81.039062 97.183594 C 82.253906 110.300781 78.199219 122.199219 76.234375 138.976562 C 75.820312 142.53125 76.351562 146.179688 77.339844 149.769531 C 78.824219 153.695312 80.535156 157.523438 82.550781 161.214844 C 87.917969 169.582031 95.636719 176.179688 102.128906 177.714844 C 113.890625 180.5 128.902344 198.867188 165.25 198.855469 C 201.601562 198.847656 192.992188 186.289062 213.46875 170.863281 C 219.253906 166.503906 222.152344 162.773438 223.539062 159.269531 C 221.90625 161.191406 219.777344 163.207031 216.882812 165.390625 C 196.402344 180.8125 205.015625 193.371094 168.664062 193.378906 C 132.3125 193.390625 117.304688 175.023438 105.542969 172.238281 C 93.78125 169.457031 77.6875 150.273438 79.648438 133.5 C 81.609375 116.722656 85.667969 104.824219 84.449219 91.707031 C 83.714844 83.769531 84.757812 73.410156 87.570312 66.425781 C 82.234375 71.839844 80.058594 86.621094 81.039062 97.183594 Z M 81.039062 97.183594 " fill-opacity="1" fill-rule="nonzero"/><path fill="#ffe5c4" d="M 239.707031 149.277344 C 238.792969 127.472656 241.988281 119.167969 239.78125 100.960938 C 237.574219 82.753906 232.585938 63.894531 205.265625 57.503906 C 177.949219 51.113281 168.363281 40.171875 145.320312 45.796875 C 127.847656 50.058594 105.636719 67.796875 96.570312 84.515625 C 107.015625 69.574219 126.335938 55.070312 141.90625 51.273438 C 155.457031 47.964844 164.394531 50.429688 174.976562 54.285156 C 183.417969 54.886719 191.21875 57.757812 193.667969 60.761719 C 195.726562 61.375 197.914062 61.964844 200.203125 62.53125 C 201.523438 62.535156 203.179688 62.90625 205.285156 64.078125 C 229.398438 71.246094 234.265625 89.074219 236.367188 106.4375 C 238.574219 124.644531 235.378906 132.949219 236.292969 154.75 C 236.703125 164.5625 235.179688 171.175781 232.226562 176.859375 C 237.464844 169.839844 240.253906 162.355469 239.707031 149.277344 Z M 239.707031 149.277344 " fill-opacity="1" fill-rule="nonzero"/><path fill="#ffe5c4" d="M 249.136719 180.410156 C 247.914062 182.152344 246.871094 183.890625 245.890625 185.621094 C 247.675781 183.066406 248.992188 180.929688 250.019531 179.035156 C 249.683594 179.53125 249.503906 179.886719 249.136719 180.410156 Z M 249.136719 180.410156 " fill-opacity="1" fill-rule="nonzero"/><path fill="#ffe5c4" d="M 117.21875 87.191406 C 115.414062 89.121094 113.976562 91.109375 113.535156 93.265625 C 111.144531 104.890625 109.027344 102.75 107.808594 123.125 C 106.59375 143.5 121.601562 156.679688 143.621094 152.929688 C 165.640625 149.175781 180.417969 158.707031 199.078125 151.710938 C 203.484375 150.058594 205.578125 147.421875 206.09375 144.238281 C 205.101562 144.992188 203.960938 145.683594 202.488281 146.234375 C 183.828125 153.230469 169.054688 143.699219 147.035156 147.453125 C 125.015625 151.203125 110.007812 138.023438 111.222656 117.648438 C 112.441406 97.273438 114.558594 99.414062 116.949219 87.789062 C 116.988281 87.582031 117.164062 87.398438 117.21875 87.191406 Z M 117.21875 87.191406 " fill-opacity="1" fill-rule="nonzero"/><path fill="#ffe5c4" d="M 177.746094 120.191406 C 175.515625 111.351562 157.085938 116.449219 157.085938 116.449219 C 145.886719 116.820312 143.285156 112.113281 144.5 107.542969 C 139.1875 112.496094 137.554688 122.457031 153.671875 121.925781 C 153.671875 121.925781 172.101562 116.828125 174.332031 125.667969 C 174.726562 127.230469 174.839844 128.535156 174.792969 129.742188 C 178.507812 127.457031 178.867188 124.644531 177.746094 120.191406 Z M 177.746094 120.191406 " fill-opacity="1" fill-rule="nonzero"/><path fill="#ffe5c4" d="M 214.453125 119.050781 C 204.109375 104.355469 206.746094 91.113281 177.746094 89.0625 C 148.742188 87.011719 133.621094 84.492188 126.125 100.050781 C 126.0625 100.175781 126.027344 100.308594 125.96875 100.433594 C 134.296875 90.617188 149.027344 92.75 174.332031 94.539062 C 203.332031 96.589844 200.699219 109.828125 211.042969 124.527344 C 218.292969 134.832031 216.644531 144.53125 211.699219 153.507812 C 219.066406 143.054688 223.207031 131.488281 214.453125 119.050781 Z M 214.453125 119.050781 " fill-opacity="1" fill-rule="nonzero"/><g clip-path="url(#e108e2bc9a)"><path fill="#ffe5c4" d="M 280.601562 189.582031 C 285.339844 176.148438 288.960938 127.359375 290.191406 117.835938 C 290.21875 117.628906 290.199219 117.332031 290.214844 117.101562 C 289.6875 113.101562 289.03125 108.921875 288.28125 104.632812 C 284.355469 88.941406 275.425781 65.386719 269.214844 54.625 C 260.699219 39.859375 247.007812 18.261719 215.0625 6.699219 C 183.121094 -4.863281 128.664062 1.527344 103.109375 12.175781 C 82.5 20.761719 60.992188 42.003906 52.207031 57.886719 C 62.382812 42.90625 81.378906 25.285156 99.699219 17.652344 C 110.957031 12.960938 127.832031 9.101562 145.914062 7.234375 C 164.082031 3.007812 184.101562 1.671875 203.914062 9.867188 C 206.597656 10.546875 209.210938 11.292969 211.652344 12.175781 C 232.148438 19.59375 245.082031 31.140625 254.003906 42.367188 C 268.539062 55.726562 278.496094 70.777344 277.457031 85.742188 C 277.4375 86.03125 277.445312 86.292969 277.429688 86.578125 C 282.992188 101.71875 287.507812 117.667969 286.78125 123.3125 C 285.550781 132.835938 281.925781 181.628906 277.1875 195.0625 C 276.375 197.371094 275.019531 200.007812 273.445312 202.757812 C 276.710938 197.929688 279.261719 193.382812 280.601562 189.582031 Z M 280.601562 189.582031 " fill-opacity="1" fill-rule="nonzero"/></g><path fill="#ffe5c4" d="M 60.753906 104.328125 C 59.6875 128.539062 57.105469 143.292969 63.191406 165.550781 C 69.273438 187.808594 85.09375 206.976562 101.722656 218.335938 C 118.355469 229.695312 142.695312 229.695312 189.746094 226.855469 C 220.691406 224.988281 229.339844 216.085938 235.453125 204.796875 C 229.1875 213.402344 218.894531 219.824219 193.160156 221.378906 C 146.105469 224.21875 121.769531 224.21875 105.136719 212.859375 C 88.507812 201.5 72.6875 182.332031 66.601562 160.074219 C 60.519531 137.820312 63.101562 123.0625 64.167969 98.851562 C 64.949219 81.15625 58.214844 66.417969 61.6875 56.347656 C 51.75 66.09375 61.691406 83.101562 60.753906 104.328125 Z M 60.753906 104.328125 " fill-opacity="1" fill-rule="nonzero"/><path fill="#ffe5c4" d="M 189.101562 257.15625 C 188.480469 257.167969 187.933594 257.179688 187.316406 257.191406 C 171.109375 258.902344 155.207031 259.285156 145.84375 259.355469 C 137.152344 259.421875 126.410156 258.929688 115.757812 257.839844 C 80.5 257.253906 67 254.234375 58.925781 246.320312 C 46.726562 234.359375 19.917969 184.605469 12.25 168.023438 C 4.582031 151.441406 0.890625 130.355469 7.785156 107.113281 C 14.683594 83.871094 13.164062 82.558594 20.007812 61.511719 C 23.125 51.921875 25.402344 45.304688 27.503906 40.8125 C 24.261719 44.242188 21.421875 52.148438 16.59375 66.988281 C 9.75 88.035156 11.269531 89.34375 4.371094 112.589844 C -2.523438 135.832031 1.167969 156.917969 8.835938 173.5 C 16.503906 190.082031 43.3125 239.835938 55.515625 251.796875 C 67.714844 263.757812 91.988281 264.578125 185.6875 262.632812 C 244.574219 261.410156 253.957031 254.960938 258.175781 244.902344 C 251.789062 251.804688 236.464844 256.171875 189.101562 257.15625 Z M 189.101562 257.15625 " fill-opacity="1" fill-rule="nonzero"/><path fill="#ffe5c4" d="M 272.824219 218.132812 C 269.640625 221.351562 267.628906 224.417969 266.179688 227.324219 C 267.109375 226.109375 268.164062 224.871094 269.410156 223.609375 C 272.996094 219.980469 275.863281 215.878906 278.246094 211.511719 C 276.617188 213.832031 274.859375 216.074219 272.824219 218.132812 Z M 272.824219 218.132812 " fill-opacity="1" fill-rule="nonzero"/><path fill="#ffe5c4" d="M 31.144531 177.71875 C 33.578125 199.96875 61.566406 221.582031 91.941406 235.800781 C 122.320312 250.023438 137.015625 249.976562 166.769531 251.597656 C 196.523438 253.21875 203.945312 244.703125 223.789062 233.171875 C 237.019531 225.484375 249.847656 213.242188 259.429688 196.898438 C 250.308594 210.507812 238.910156 220.890625 227.203125 227.695312 C 207.355469 239.226562 199.9375 247.742188 170.183594 246.121094 C 157.761719 245.445312 147.988281 245.003906 138.582031 243.75 C 132.011719 243.546875 126.464844 243.125 122.800781 242.511719 C 113.851562 241.015625 99.691406 234 86.984375 226.15625 C 60.011719 212.0625 36.765625 192.425781 34.558594 172.242188 C 32.125 149.988281 27.8125 123.425781 28.328125 105.960938 C 28.847656 88.496094 38.824219 70.324219 52.933594 47.363281 C 59.597656 36.511719 60.761719 27.816406 64.21875 20.566406 C 57.585938 28.816406 57.953125 39.109375 49.519531 52.839844 C 35.410156 75.800781 25.433594 93.972656 24.917969 111.4375 C 24.398438 128.902344 28.710938 155.464844 31.144531 177.71875 Z M 31.144531 177.71875 " fill-opacity="1" fill-rule="nonzero"/><path fill="#ffe5c4" d="M 265.320312 128.105469 C 264.652344 114.394531 265.175781 97.910156 257.460938 77.25 C 249.746094 56.589844 237.03125 36.371094 205.96875 25.640625 C 174.90625 14.914062 133.835938 21.910156 117.105469 28.601562 C 104.503906 33.644531 96.5625 40.933594 90.03125 52.539062 C 95.9375 44.03125 103.199219 38.273438 113.691406 34.078125 C 130.421875 27.386719 171.492188 20.386719 202.554688 31.117188 C 233.617188 41.847656 246.332031 62.066406 254.046875 82.726562 C 261.761719 103.386719 261.238281 119.867188 261.90625 133.582031 C 262.574219 147.296875 257.589844 176.457031 254.046875 188.625 C 253.554688 190.316406 252.574219 192.429688 251.257812 194.78125 C 254.394531 190.175781 256.609375 186.070312 257.460938 183.148438 C 261 170.980469 265.988281 141.820312 265.320312 128.105469 Z M 265.320312 128.105469 " fill-opacity="1" fill-rule="nonzero"/></g></g></g><g mask="url(#a96a4366bb)"><g transform="matrix(1, 0, 0, 1, 36, 60)"><g clip-path="url(#b82f3a9ca4)"><path fill="#ffe5c4" d="M 81.039062 101.183594 C 82.246094 114.238281 78.242188 126.109375 76.265625 142.761719 C 79.851562 156.078125 86.894531 168.640625 95.78125 178.773438 C 97.949219 180.128906 100.105469 181.238281 102.128906 181.71875 C 113.894531 184.5 128.902344 202.867188 165.253906 202.855469 C 201.601562 202.847656 192.992188 190.289062 213.46875 174.867188 C 220.417969 169.628906 223.238281 165.292969 224.210938 161.179688 C 222.699219 162.792969 220.835938 164.480469 218.449219 166.277344 C 197.972656 181.703125 206.582031 194.257812 170.234375 194.269531 C 133.882812 194.277344 118.875 175.910156 107.113281 173.125 C 95.347656 170.34375 79.253906 151.160156 81.21875 134.386719 C 83.179688 117.609375 87.234375 105.707031 86.019531 92.59375 C 85.363281 85.511719 86.148438 76.539062 88.3125 69.707031 C 82.421875 74.425781 80.011719 90.136719 81.039062 101.183594 Z M 81.039062 101.183594 " fill-opacity="1" fill-rule="nonzero"/><path fill="#ffe5c4" d="M 241.273438 150.164062 C 240.363281 128.363281 243.554688 120.054688 241.347656 101.847656 C 239.144531 83.640625 234.15625 64.777344 206.835938 58.390625 C 179.515625 52 169.933594 41.058594 146.886719 46.683594 C 128.363281 51.203125 104.511719 70.871094 96.648438 88.40625 C 107.113281 73.507812 126.375 59.0625 141.90625 55.273438 C 151.898438 52.835938 159.363281 53.59375 166.835938 55.664062 C 178.636719 53.304688 193.757812 57.988281 195.945312 62.398438 C 198.585938 67.722656 200.992188 56.574219 215.4375 72.277344 C 230.835938 80.953125 234.601562 95.847656 236.367188 110.4375 C 238.574219 128.644531 235.378906 136.949219 236.292969 158.753906 C 236.632812 166.890625 235.695312 172.863281 233.683594 177.910156 C 238.996094 170.839844 241.824219 163.34375 241.273438 150.164062 Z M 241.273438 150.164062 " fill-opacity="1" fill-rule="nonzero"/><path fill="#ffe5c4" d="M 113.535156 97.265625 C 111.144531 108.890625 109.027344 106.75 107.808594 127.125 C 106.59375 147.5 121.601562 160.679688 143.621094 156.929688 C 165.640625 153.175781 180.417969 162.707031 199.078125 155.710938 C 204.449219 153.695312 206.398438 150.226562 206.1875 146.066406 C 205.519531 146.433594 204.875 146.816406 204.058594 147.121094 C 185.398438 154.117188 170.621094 144.585938 148.601562 148.339844 C 126.582031 152.089844 111.574219 138.910156 112.789062 118.535156 C 113.945312 99.179688 115.921875 100.011719 118.164062 90.191406 C 115.824219 92.414062 114.054688 94.738281 113.535156 97.265625 Z M 113.535156 97.265625 " fill-opacity="1" fill-rule="nonzero"/><path fill="#ffe5c4" d="M 251.171875 180.570312 C 250.988281 180.835938 250.898438 181.019531 250.703125 181.296875 C 248.527344 184.398438 246.84375 187.492188 245.3125 190.519531 C 245.457031 190.308594 245.574219 190.097656 245.722656 189.886719 C 248.476562 185.964844 250.082031 183.078125 251.171875 180.570312 Z M 251.171875 180.570312 " fill-opacity="1" fill-rule="nonzero"/><path fill="#ffe5c4" d="M 216.023438 119.9375 C 205.679688 105.242188 208.316406 92 179.3125 89.949219 C 150.3125 87.898438 135.191406 85.378906 127.691406 100.9375 C 127.21875 101.921875 126.8125 102.9375 126.472656 103.984375 C 133.789062 95.964844 145.847656 96.433594 165.226562 97.867188 C 168.042969 97.433594 171.136719 97.4375 174.808594 98.585938 C 203.273438 100.753906 200.757812 113.914062 211.042969 128.527344 C 217.410156 137.574219 216.949219 146.164062 213.402344 154.203125 C 220.679688 143.796875 224.722656 132.296875 216.023438 119.9375 Z M 216.023438 119.9375 " fill-opacity="1" fill-rule="nonzero"/><path fill="#ffe5c4" d="M 179.3125 121.078125 C 177.082031 112.238281 158.652344 117.335938 158.652344 117.335938 C 149.148438 117.648438 145.851562 114.296875 145.804688 110.484375 C 139.542969 114.875 136.296875 126.496094 153.671875 125.925781 C 153.671875 125.925781 172.101562 120.828125 174.332031 129.667969 C 174.496094 130.320312 174.550781 130.867188 174.648438 131.453125 C 179.820312 129.011719 180.578125 126.089844 179.3125 121.078125 Z M 179.3125 121.078125 " fill-opacity="1" fill-rule="nonzero"/><path fill="#ffe5c4" d="M 261.949219 196.429688 C 252.683594 210.734375 240.878906 221.546875 228.769531 228.582031 C 209.015625 240.058594 201.539062 248.535156 172.125 247.011719 C 152.628906 248.40625 131.925781 248.035156 122.800781 246.511719 C 108.484375 244.117188 80.835938 227.609375 67.128906 216.152344 C 65.070312 214.429688 63.300781 212.253906 61.667969 209.878906 C 47.578125 198.71875 37.539062 186.035156 36.125 173.125 C 33.691406 150.871094 29.378906 124.3125 29.898438 106.847656 C 30.285156 93.820312 35.941406 80.394531 44.640625 64.886719 C 33.164062 84.136719 25.371094 100.066406 24.914062 115.4375 C 24.402344 132.675781 28.59375 158.769531 31.042969 180.847656 C 34.003906 188.898438 36.902344 195.964844 39.222656 200.785156 C 50.101562 215.902344 70.394531 229.710938 91.941406 239.800781 C 116.714844 251.398438 131.167969 253.488281 151.753906 254.753906 C 162.097656 254.660156 179.515625 254.191406 196.707031 252.113281 C 205.769531 248.769531 212.96875 243.457031 223.789062 237.167969 C 238.207031 228.792969 252.183594 215.0625 261.949219 196.429688 Z M 261.949219 196.429688 " fill-opacity="1" fill-rule="nonzero"/><path fill="#ffe5c4" d="M 212.078125 257.246094 C 189.5 262.433594 160.109375 263.246094 145.84375 263.355469 C 129.335938 263.476562 105.539062 261.691406 88.945312 257.273438 C 73.75 255.625 65.914062 252.515625 60.496094 247.207031 C 56.46875 243.257812 50.835938 235.152344 44.835938 225.515625 C 40.609375 220.292969 36.921875 214.898438 34.390625 209.6875 C 33.269531 207.382812 32 204.515625 30.660156 201.28125 C 23.378906 188.175781 16.96875 175.730469 13.816406 168.910156 C 6.148438 152.328125 2.457031 131.242188 9.351562 108 C 16.25 84.753906 14.730469 83.445312 21.574219 62.398438 C 24.101562 54.628906 26.078125 48.757812 27.855469 44.414062 C 24.460938 47.625 21.59375 55.609375 16.59375 70.988281 C 9.75 92.035156 11.269531 93.34375 4.371094 116.589844 C -2.523438 139.832031 1.167969 160.917969 8.835938 177.5 C 16.503906 194.082031 43.3125 243.835938 55.511719 255.796875 C 67.714844 267.757812 91.988281 268.578125 185.6875 266.632812 C 249.273438 265.3125 255.136719 257.894531 259.109375 246.425781 C 253.542969 251.8125 241.765625 255.5625 212.078125 257.246094 Z M 212.078125 257.246094 " fill-opacity="1" fill-rule="nonzero"/><path fill="#ffe5c4" d="M 274.390625 219.019531 C 270.21875 223.238281 268.035156 227.203125 266.539062 230.878906 C 267.386719 229.804688 268.3125 228.71875 269.410156 227.609375 C 273.875 223.09375 277.261719 217.863281 279.914062 212.257812 C 278.257812 214.628906 276.46875 216.917969 274.390625 219.019531 Z M 274.390625 219.019531 " fill-opacity="1" fill-rule="nonzero"/><path fill="#ffe5c4" d="M 52.09375 52.222656 C 52.898438 50.894531 53.664062 49.609375 54.5 48.25 C 60.402344 38.644531 61.980469 30.730469 64.660156 24.003906 C 58.351562 31.40625 58.078125 40.46875 52.09375 52.222656 Z M 52.09375 52.222656 " fill-opacity="1" fill-rule="nonzero"/><path fill="#ffe5c4" d="M 290.90625 126.914062 C 289.59375 114.246094 286.695312 98.960938 283.292969 84.398438 C 279.257812 73.132812 274.523438 61.992188 270.785156 55.507812 C 262.265625 40.746094 248.574219 19.144531 216.632812 7.585938 C 184.6875 -3.976562 130.234375 2.414062 104.679688 13.0625 C 82.671875 22.230469 59.664062 45.8125 52.191406 61.90625 C 62.367188 46.921875 81.371094 29.285156 99.695312 21.652344 C 106.898438 18.648438 116.4375 16.011719 127.074219 13.992188 C 151.355469 5.921875 181.527344 -1.613281 210.800781 13.148438 C 244.214844 29.996094 280.980469 58.484375 279.023438 86.628906 C 278.84375 89.269531 278.804688 91.769531 278.761719 94.269531 C 283.691406 108.234375 287.449219 122.125 286.78125 127.308594 C 285.546875 136.835938 281.925781 185.625 277.1875 199.058594 C 276.746094 200.308594 276.070312 201.703125 275.394531 203.089844 C 278.480469 198.46875 280.878906 194.125 282.167969 190.46875 C 286.082031 179.375 289.230469 144.203125 290.90625 126.914062 Z M 290.90625 126.914062 " fill-opacity="1" fill-rule="nonzero"/><path fill="#ffe5c4" d="M 60.753906 108.328125 C 59.6875 132.539062 57.105469 147.292969 63.191406 169.550781 C 69.273438 191.808594 85.09375 210.976562 101.722656 222.335938 C 118.355469 233.695312 142.695312 233.695312 189.746094 230.855469 C 223.664062 228.808594 230.8125 218.316406 237.171875 205.484375 C 230.921875 214.191406 220.664062 220.699219 194.730469 222.265625 C 147.675781 225.105469 123.335938 225.105469 106.707031 213.746094 C 90.074219 202.390625 74.257812 183.21875 68.171875 160.960938 C 62.085938 138.703125 64.667969 123.949219 65.738281 99.738281 C 66.460938 83.378906 60.742188 69.539062 62.621094 59.585938 C 51.265625 69.1875 61.71875 86.519531 60.753906 108.328125 Z M 60.753906 108.328125 " fill-opacity="1" fill-rule="nonzero"/><path fill="#ffe5c4" d="M 266.886719 128.992188 C 266.222656 115.28125 266.742188 98.796875 259.027344 78.136719 C 251.3125 57.476562 238.597656 37.257812 207.539062 26.527344 C 176.476562 15.796875 135.40625 22.796875 118.671875 29.488281 C 104.902344 34.996094 96.71875 43.273438 89.835938 56.851562 C 95.78125 48.183594 103.078125 42.324219 113.691406 38.078125 C 130.421875 31.386719 171.492188 24.386719 202.554688 35.117188 C 216.660156 39.992188 226.847656 46.878906 234.636719 54.820312 C 238.359375 57.886719 241.78125 62.085938 245.589844 68.515625 C 245.917969 69.066406 246.074219 69.703125 246.375 70.269531 C 249.453125 75.609375 251.960938 81.140625 254.046875 86.726562 C 261.761719 107.386719 261.238281 123.867188 261.90625 137.582031 C 262.574219 151.292969 257.589844 180.453125 254.046875 192.625 C 253.796875 193.480469 253.410156 194.453125 252.941406 195.492188 C 256.015625 190.960938 258.1875 186.917969 259.027344 184.035156 C 262.570312 171.863281 267.554688 142.707031 266.886719 128.992188 Z M 266.886719 128.992188 " fill-opacity="1" fill-rule="nonzero"/></g></g></g><g clip-path="url(#a13fb87fd0)"><path fill="#0b142a" d="M 248.375 190.761719 C 241.054688 188.617188 233.734375 186.476562 226.441406 184.332031 C 224.515625 183.765625 224.105469 181.027344 225.875 180.019531 C 231.347656 176.894531 236.84375 173.746094 242.3125 170.621094 C 244.960938 169.125 247.320312 173.203125 244.703125 174.699219 C 240.824219 176.921875 236.945312 179.140625 233.066406 181.335938 C 238.589844 182.964844 244.113281 184.566406 249.632812 186.191406 C 252.511719 187.042969 251.277344 191.613281 248.375 190.761719 Z M 149.445312 179.867188 C 143.972656 176.714844 138.476562 173.566406 133.007812 170.414062 C 130.363281 168.890625 128 172.972656 130.617188 174.496094 C 134.496094 176.714844 138.375 178.960938 142.253906 181.183594 C 136.707031 182.78125 131.183594 184.382812 125.664062 185.957031 C 122.761719 186.785156 123.992188 191.355469 126.921875 190.527344 C 134.242188 188.410156 141.558594 186.292969 148.878906 184.175781 C 150.804688 183.636719 151.214844 180.898438 149.445312 179.867188 Z M 171.453125 185.496094 C 172.046875 182.34375 176.824219 183.6875 176.230469 186.8125 C 174.820312 194.351562 180.828125 201.296875 188.378906 201.0625 C 196.035156 200.832031 201.296875 193.316406 199.449219 185.957031 C 198.679688 182.859375 203.429688 181.542969 204.226562 184.640625 C 206.871094 195.203125 199.269531 205.6875 188.378906 206.046875 C 177.386719 206.382812 169.453125 196.054688 171.453125 185.496094 Z M 171.453125 185.496094 " fill-opacity="1" fill-rule="nonzero"/></g></svg>