<svg xmlns="http://www.w3.org/2000/svg" xmlns:xlink="http://www.w3.org/1999/xlink" width="500" zoomAndPan="magnify" viewBox="0 0 375 374.999991" height="500" preserveAspectRatio="xMidYMid meet" version="1.0"><defs><clipPath id="4e6e83e863"><path d="M 5.59375 43 L 333 43 L 333 370.15625 L 5.59375 370.15625 Z M 5.59375 43 " clip-rule="nonzero"/></clipPath></defs><path fill="#eaaf6d" d="M 315.601562 165.671875 C 312.773438 160.308594 309.847656 154.757812 307.601562 149.335938 C 306.417969 146.472656 305.269531 143.332031 303.875 139.152344 C 303.28125 137.367188 301.761719 136.035156 299.917969 135.679688 C 299.835938 135.664062 299.761719 135.652344 299.691406 135.644531 C 285.023438 129.742188 271.679688 121.355469 260.019531 110.71875 C 247.707031 99.484375 237.730469 86.148438 230.371094 71.082031 C 229.804688 69.917969 228.816406 69.003906 227.609375 68.523438 L 226.316406 68.023438 C 220.914062 65.785156 215.378906 62.863281 209.988281 60.023438 C 197.101562 53.21875 183.769531 46.183594 168.847656 46.183594 C 153.925781 46.183594 140.59375 53.21875 127.671875 60.035156 C 122.316406 62.855469 116.78125 65.777344 111.378906 68.023438 C 105.71875 70.371094 99.578125 72.316406 93.585938 74.207031 C 79.085938 78.792969 65.398438 83.132812 55.300781 93.234375 C 45.195312 103.339844 40.867188 117.039062 36.261719 131.605469 C 34.378906 137.539062 32.4375 143.675781 30.09375 149.328125 C 27.847656 154.75 24.921875 160.300781 22.09375 165.664062 C 15.292969 178.558594 8.261719 191.890625 8.261719 206.820312 C 8.261719 221.746094 15.292969 235.082031 22.085938 247.972656 C 24.914062 253.335938 27.839844 258.882812 30.085938 264.308594 C 32.4375 269.992188 34.386719 276.140625 36.269531 282.101562 C 40.859375 296.605469 45.1875 310.304688 55.285156 320.40625 C 65.390625 330.515625 79.085938 334.84375 93.585938 339.429688 C 99.527344 341.3125 105.675781 343.253906 111.363281 345.617188 C 116.765625 347.859375 122.304688 350.773438 127.6875 353.617188 C 140.582031 360.417969 153.910156 367.453125 168.832031 367.453125 C 183.753906 367.453125 197.085938 360.417969 210.007812 353.601562 C 215.363281 350.773438 220.898438 347.859375 226.304688 345.617188 C 231.960938 343.269531 238.101562 341.320312 244.09375 339.429688 C 258.59375 334.84375 272.28125 330.507812 282.378906 320.40625 C 292.484375 310.296875 296.820312 296.589844 301.425781 282.027344 C 303.308594 276.097656 305.242188 269.964844 307.585938 264.308594 C 309.839844 258.882812 312.761719 253.335938 315.585938 247.972656 C 322.386719 235.082031 329.417969 221.746094 329.417969 206.820312 C 329.417969 191.890625 322.386719 178.558594 315.59375 165.664062 Z M 315.601562 165.671875 " fill-opacity="1" fill-rule="nonzero"/><path fill="#462810" d="M 208.011719 138.0625 C 206.914062 143.726562 205.292969 148.738281 203.210938 153.101562 C 202.976562 153.59375 202.738281 154.066406 202.503906 154.539062 C 200.050781 159.210938 197.050781 163.046875 193.476562 166.027344 C 191.199219 167.910156 186.085938 171.585938 180.578125 171.585938 C 179.121094 171.585938 177.628906 171.324219 176.140625 170.699219 C 171.882812 168.929688 168.863281 164.617188 167.140625 157.859375 C 166.539062 155.460938 166.09375 153.003906 165.890625 150.550781 C 165.105469 143.371094 165.863281 136.035156 168.136719 129.039062 C 168.628906 127.445312 169.886719 126.191406 171.476562 125.671875 C 173.066406 125.148438 174.820312 125.441406 176.175781 126.429688 C 183.433594 131.726562 193.007812 133.789062 201.828125 131.96875 C 203.523438 131.605469 205.324219 132.125 206.550781 133.347656 C 207.800781 134.574219 208.351562 136.347656 208.011719 138.070312 Z M 208.011719 138.0625 " fill-opacity="1" fill-rule="nonzero"/><path fill="#f5f5f5" d="M 99.832031 190.882812 C 101.597656 191.042969 103.320312 190.273438 104.402344 188.871094 C 105.484375 187.464844 105.78125 185.613281 105.195312 183.941406 L 102.011719 174.917969 C 101.082031 172.292969 99.1875 170.179688 96.660156 168.972656 C 94.160156 167.78125 91.277344 167.628906 88.695312 168.542969 C 86.066406 169.472656 83.960938 171.371094 82.753906 173.882812 C 81.546875 176.40625 81.394531 179.238281 82.324219 181.863281 L 84.324219 187.53125 C 85.0625 189.632812 87.046875 191.011719 89.242188 191.011719 C 89.414062 191.011719 89.589844 191.003906 89.765625 190.984375 C 92.96875 190.65625 96.179688 190.605469 99.296875 190.824219 L 99.839844 190.867188 Z M 99.832031 190.882812 " fill-opacity="1" fill-rule="nonzero"/><path fill="#f5f5f5" d="M 118.707031 222.246094 L 115.78125 213.949219 C 115.257812 212.464844 114.09375 211.304688 112.621094 210.773438 C 111.144531 210.25 109.511719 210.410156 108.160156 211.214844 C 106.480469 212.226562 104.902344 212.929688 103.96875 213.351562 C 102.949219 213.808594 101.917969 214.222656 100.878906 214.640625 L 99.355469 215.257812 C 96.78125 216.316406 95.496094 219.203125 96.417969 221.820312 L 99.382812 230.210938 C 100.035156 232.074219 101.6875 233.402344 103.640625 233.648438 C 103.867188 233.679688 104.082031 233.691406 104.308594 233.691406 C 106.023438 233.691406 107.648438 232.84375 108.632812 231.398438 C 109.363281 230.3125 110.054688 229.363281 110.730469 228.496094 C 111.027344 228.585938 111.320312 228.671875 111.609375 228.757812 L 112.300781 228.96875 C 114.179688 229.535156 116.222656 228.992188 117.574219 227.566406 C 118.925781 226.144531 119.367188 224.078125 118.714844 222.226562 Z M 118.707031 222.246094 " fill-opacity="1" fill-rule="nonzero"/><path fill="#eaaf6d" d="M 148.652344 258.015625 C 147.234375 250.867188 143.152344 244.027344 137.167969 238.765625 C 131.214844 233.535156 123.609375 229.644531 113.222656 226.519531 C 111.109375 225.875 108.8125 226.652344 107.503906 228.4375 C 99.992188 238.707031 96.359375 251.875 97.539062 264.558594 C 97.667969 265.960938 98.367188 267.253906 99.464844 268.140625 C 100.394531 268.886719 101.546875 269.296875 102.730469 269.296875 C 102.941406 269.296875 103.160156 269.28125 103.371094 269.257812 L 144.164062 264.222656 C 145.601562 264.046875 146.902344 263.277344 147.75 262.101562 C 148.601562 260.921875 148.921875 259.449219 148.636719 258.023438 Z M 148.652344 258.015625 " fill-opacity="1" fill-rule="nonzero"/><path fill="#f5f5f5" d="M 364.003906 92.898438 C 362.277344 85.40625 356.078125 79.308594 348.21875 77.105469 C 352.824219 72.738281 360.082031 64.082031 360.582031 52.535156 C 361.035156 42.230469 355.910156 31.265625 346.882812 23.191406 C 337.78125 15.058594 326.199219 11.164062 315.914062 12.792969 C 305.058594 14.5 297.476562 21.964844 293.507812 26.949219 C 291.835938 18.859375 285.320312 11.832031 277.257812 9.890625 C 268.089844 7.675781 257.703125 12.226562 253.117188 20.496094 C 248.808594 28.265625 250.242188 39.199219 256.261719 46.0625 C 251.679688 49.722656 247.082031 53.683594 242.539062 57.609375 C 238.574219 61.03125 234.476562 64.5625 230.394531 67.878906 C 228.484375 69.425781 227.910156 72.105469 229.027344 74.300781 C 236.410156 88.792969 246.246094 101.699219 258.253906 112.652344 C 269.621094 123.019531 282.589844 131.304688 296.777344 137.273438 C 297.433594 137.546875 298.113281 137.679688 298.796875 137.679688 C 300.105469 137.679688 301.382812 137.191406 302.371094 136.261719 C 306.164062 132.695312 309.738281 129.15625 313.203125 125.722656 C 316.972656 121.996094 320.867188 118.144531 324.964844 114.320312 C 332.535156 120.324219 342.640625 121.558594 351.023438 117.410156 C 359.332031 113.289062 366.460938 103.550781 363.996094 92.898438 Z M 364.003906 92.898438 " fill-opacity="1" fill-rule="nonzero"/><path fill="#f5f5f5" d="M 226.929688 251.375 L 91.078125 268.140625 C 89.613281 268.320312 88.28125 269.121094 87.441406 270.335938 C 86.589844 271.554688 86.300781 273.074219 86.640625 274.511719 C 93.636719 304.273438 114.136719 330.035156 141.472656 343.429688 C 142.195312 343.777344 142.976562 343.957031 143.769531 343.957031 C 144.003906 343.957031 144.226562 343.945312 144.453125 343.914062 L 197.671875 336.859375 C 198.878906 336.699219 199.992188 336.125 200.820312 335.230469 C 209.078125 326.300781 215.921875 316.140625 221.167969 305.050781 C 221.769531 303.777344 221.835938 302.316406 221.34375 301.003906 C 220.847656 299.6875 219.851562 298.617188 218.566406 298.042969 C 218.09375 297.832031 217.6875 297.601562 217.300781 297.339844 C 214.875 295.625 213.582031 292.332031 213.925781 288.742188 C 214.273438 285.066406 216.167969 281.679688 217.773438 279.140625 C 221.210938 273.734375 225.539062 268.886719 230.640625 264.738281 C 231.765625 263.824219 232.457031 262.484375 232.558594 261.046875 C 232.660156 259.601562 232.738281 258.148438 232.769531 256.695312 C 232.8125 255.175781 232.1875 253.714844 231.0625 252.691406 C 229.9375 251.671875 228.4375 251.1875 226.914062 251.375 Z M 226.929688 251.375 " fill-opacity="1" fill-rule="nonzero"/><path fill="#804e2d" d="M 265.007812 214.269531 C 263.855469 202.050781 252.464844 195.25 242.183594 192.953125 C 241.007812 192.691406 239.699219 192.554688 238.289062 192.554688 C 234.25 192.554688 228.375 193.730469 223.972656 197.039062 C 219.996094 200.015625 218.980469 203.441406 218.828125 205.789062 C 218.601562 209.296875 220.359375 212.4375 222.34375 215.605469 L 229.230469 226.621094 C 230.304688 228.335938 231.527344 230.285156 233.378906 231.644531 C 235.753906 233.386719 238.640625 233.824219 241.464844 233.824219 C 242.589844 233.824219 243.710938 233.757812 244.785156 233.671875 C 249.078125 233.335938 253.589844 232.8125 257.394531 230.453125 C 262.5625 227.246094 265.621094 220.742188 265.003906 214.277344 Z M 265.007812 214.269531 " fill-opacity="1" fill-rule="nonzero"/><path fill="#804e2d" d="M 64.695312 120.570312 C 60.046875 121.921875 56.0625 125.8125 53.78125 131.234375 C 51.792969 135.949219 51.253906 141.226562 50.773438 145.875 C 50.257812 150.863281 50.246094 155.917969 53.527344 159.167969 C 55.773438 161.40625 58.75 161.996094 61.257812 161.996094 C 62.878906 161.996094 64.300781 161.746094 65.195312 161.542969 C 71.878906 160.03125 77.859375 155.550781 81.183594 149.5625 C 85.144531 142.445312 84.265625 131.125 79.265625 124.84375 C 75.722656 120.398438 70.542969 118.878906 64.695312 120.570312 Z M 64.695312 120.570312 " fill-opacity="1" fill-rule="nonzero"/><path fill="#804e2d" d="M 155.167969 193.914062 C 152.398438 193.136719 148.113281 192.910156 143.464844 196.214844 C 138.722656 199.59375 137.921875 206.214844 139.59375 211.011719 C 141.054688 215.191406 144.234375 219.050781 149.320312 222.785156 C 151.128906 224.113281 154.457031 226.5625 158.589844 226.5625 C 158.675781 226.5625 158.769531 226.5625 158.859375 226.5625 C 163.160156 226.410156 167.226562 223.132812 168.746094 218.585938 C 169.980469 214.863281 169.625 210.402344 167.730469 206.019531 C 165.136719 199.996094 160.320312 195.351562 155.167969 193.914062 Z M 155.167969 193.914062 " fill-opacity="1" fill-rule="nonzero"/><path fill="#ff7880" d="M 203.210938 153.101562 C 202.976562 153.59375 202.738281 154.066406 202.503906 154.539062 C 200.050781 159.210938 197.050781 163.046875 193.476562 166.027344 C 191.199219 167.910156 186.085938 171.585938 180.578125 171.585938 C 179.121094 171.585938 177.628906 171.324219 176.140625 170.699219 C 171.882812 168.929688 168.863281 164.617188 167.140625 157.859375 C 166.539062 155.460938 166.09375 153.003906 165.890625 150.550781 C 170.117188 147.519531 175.515625 145.460938 181.285156 144.777344 C 188.019531 144.023438 194.230469 145.351562 198.769531 148.566406 C 200.542969 149.816406 202.03125 151.386719 203.210938 153.105469 Z M 203.210938 153.101562 " fill-opacity="1" fill-rule="nonzero"/><path fill="#804e2d" d="M 180.992188 67.820312 C 175.261719 66.4375 167.109375 69.863281 163.582031 75.152344 C 161.058594 78.929688 161.132812 83.03125 163.804688 86.699219 C 166.988281 91.074219 172.8125 91.917969 178.058594 92.367188 C 179.460938 92.484375 180.957031 92.613281 182.484375 92.613281 C 183.835938 92.613281 185.207031 92.511719 186.550781 92.222656 C 193.410156 90.726562 194.484375 86.421875 194.507812 83.996094 C 194.578125 77.609375 187.757812 69.445312 181 67.820312 Z M 180.992188 67.820312 " fill-opacity="1" fill-rule="nonzero"/><path fill="#804e2d" d="M 60.664062 241.460938 C 60.089844 241.402344 59.542969 241.375 59.027344 241.375 C 53.769531 241.375 49.800781 244.433594 48.691406 249.363281 C 47.46875 254.726562 50.050781 261.789062 57.21875 264.316406 C 59.027344 264.957031 60.953125 265.277344 62.878906 265.277344 C 64.324219 265.277344 65.769531 265.09375 67.164062 264.730469 C 74.414062 262.828125 75.175781 258.175781 74.980469 255.574219 C 74.507812 249.179688 67.417969 242.195312 60.664062 241.460938 Z M 60.664062 241.460938 " fill-opacity="1" fill-rule="nonzero"/><path fill="#804e2d" d="M 288.824219 249.253906 C 286.5625 244.609375 282.675781 242.023438 277.714844 241.957031 C 272.128906 241.957031 266.410156 245.457031 263.816406 250.472656 C 261.574219 254.804688 261.988281 259.46875 264.988281 263.605469 C 267.441406 267 271.679688 268.832031 275.964844 268.832031 C 278.679688 268.832031 281.414062 268.097656 283.722656 266.554688 C 289.359375 262.804688 291.648438 255.039062 288.824219 249.246094 Z M 288.824219 249.253906 " fill-opacity="1" fill-rule="nonzero"/><path fill="#ff7880" d="M 132.457031 138.128906 C 132.457031 138.675781 132.433594 139.21875 132.378906 139.761719 C 132.324219 140.304688 132.246094 140.84375 132.140625 141.378906 C 132.03125 141.914062 131.898438 142.441406 131.742188 142.964844 C 131.582031 143.488281 131.398438 144 131.191406 144.503906 C 130.984375 145.007812 130.75 145.5 130.492188 145.980469 C 130.234375 146.460938 129.957031 146.929688 129.652344 147.382812 C 129.351562 147.835938 129.023438 148.273438 128.679688 148.695312 C 128.332031 149.117188 127.96875 149.523438 127.582031 149.90625 C 127.195312 150.292969 126.792969 150.660156 126.371094 151.003906 C 125.949219 151.351562 125.511719 151.675781 125.058594 151.980469 C 124.605469 152.28125 124.136719 152.5625 123.65625 152.820312 C 123.175781 153.078125 122.683594 153.308594 122.179688 153.519531 C 121.675781 153.726562 121.164062 153.910156 120.640625 154.070312 C 120.121094 154.226562 119.589844 154.359375 119.058594 154.464844 C 118.523438 154.574219 117.984375 154.652344 117.441406 154.707031 C 116.898438 154.757812 116.355469 154.785156 115.808594 154.785156 C 115.261719 154.785156 114.71875 154.757812 114.175781 154.707031 C 113.632812 154.652344 113.09375 154.574219 112.558594 154.464844 C 112.023438 154.359375 111.496094 154.226562 110.976562 154.070312 C 110.453125 153.910156 109.941406 153.726562 109.4375 153.519531 C 108.933594 153.308594 108.441406 153.078125 107.960938 152.820312 C 107.476562 152.5625 107.011719 152.28125 106.558594 151.980469 C 106.105469 151.675781 105.667969 151.351562 105.246094 151.003906 C 104.824219 150.660156 104.421875 150.292969 104.035156 149.90625 C 103.648438 149.523438 103.285156 149.117188 102.9375 148.695312 C 102.589844 148.273438 102.265625 147.835938 101.964844 147.382812 C 101.660156 146.929688 101.382812 146.460938 101.125 145.980469 C 100.867188 145.5 100.632812 145.007812 100.425781 144.503906 C 100.214844 144 100.03125 143.488281 99.875 142.964844 C 99.714844 142.441406 99.585938 141.914062 99.476562 141.378906 C 99.371094 140.84375 99.292969 140.304688 99.238281 139.761719 C 99.183594 139.21875 99.15625 138.675781 99.15625 138.128906 C 99.15625 137.585938 99.183594 137.039062 99.238281 136.496094 C 99.292969 135.953125 99.371094 135.414062 99.476562 134.878906 C 99.585938 134.34375 99.714844 133.816406 99.875 133.292969 C 100.03125 132.773438 100.214844 132.257812 100.425781 131.753906 C 100.632812 131.25 100.867188 130.757812 101.125 130.277344 C 101.382812 129.796875 101.660156 129.328125 101.964844 128.875 C 102.265625 128.421875 102.589844 127.984375 102.9375 127.5625 C 103.285156 127.140625 103.648438 126.738281 104.035156 126.351562 C 104.421875 125.964844 104.824219 125.601562 105.246094 125.253906 C 105.667969 124.90625 106.105469 124.582031 106.558594 124.28125 C 107.011719 123.976562 107.476562 123.695312 107.960938 123.441406 C 108.441406 123.183594 108.933594 122.949219 109.4375 122.742188 C 109.941406 122.53125 110.453125 122.347656 110.976562 122.191406 C 111.496094 122.03125 112.023438 121.898438 112.558594 121.792969 C 113.09375 121.6875 113.632812 121.605469 114.175781 121.554688 C 114.71875 121.5 115.261719 121.472656 115.808594 121.472656 C 116.355469 121.472656 116.898438 121.5 117.441406 121.554688 C 117.984375 121.605469 118.523438 121.6875 119.058594 121.792969 C 119.589844 121.898438 120.121094 122.03125 120.640625 122.191406 C 121.164062 122.347656 121.675781 122.53125 122.179688 122.742188 C 122.683594 122.949219 123.175781 123.183594 123.65625 123.441406 C 124.136719 123.695312 124.605469 123.976562 125.058594 124.28125 C 125.511719 124.582031 125.949219 124.90625 126.371094 125.253906 C 126.792969 125.601562 127.195312 125.964844 127.582031 126.351562 C 127.96875 126.738281 128.332031 127.140625 128.679688 127.5625 C 129.023438 127.984375 129.351562 128.421875 129.652344 128.875 C 129.957031 129.328125 130.234375 129.796875 130.492188 130.277344 C 130.75 130.757812 130.984375 131.25 131.191406 131.753906 C 131.398438 132.257812 131.582031 132.773438 131.742188 133.292969 C 131.898438 133.816406 132.03125 134.34375 132.140625 134.878906 C 132.246094 135.414062 132.324219 135.953125 132.378906 136.496094 C 132.433594 137.039062 132.457031 137.585938 132.457031 138.128906 Z M 132.457031 138.128906 " fill-opacity="1" fill-rule="nonzero"/><path fill="#ff7880" d="M 275.929688 168.382812 C 275.929688 168.929688 275.902344 169.472656 275.847656 170.015625 C 275.792969 170.558594 275.714844 171.097656 275.609375 171.632812 C 275.503906 172.167969 275.371094 172.695312 275.210938 173.21875 C 275.054688 173.738281 274.871094 174.253906 274.660156 174.757812 C 274.453125 175.261719 274.21875 175.753906 273.960938 176.234375 C 273.707031 176.714844 273.425781 177.183594 273.121094 177.636719 C 272.820312 178.089844 272.496094 178.527344 272.148438 178.949219 C 271.804688 179.371094 271.4375 179.773438 271.050781 180.160156 C 270.664062 180.546875 270.261719 180.914062 269.839844 181.257812 C 269.417969 181.605469 268.980469 181.929688 268.527344 182.230469 C 268.074219 182.535156 267.609375 182.816406 267.125 183.074219 C 266.644531 183.328125 266.152344 183.5625 265.648438 183.769531 C 265.144531 183.980469 264.632812 184.164062 264.109375 184.320312 C 263.589844 184.480469 263.0625 184.613281 262.527344 184.71875 C 261.992188 184.824219 261.453125 184.90625 260.910156 184.960938 C 260.367188 185.011719 259.824219 185.039062 259.277344 185.039062 C 258.734375 185.039062 258.1875 185.011719 257.644531 184.960938 C 257.101562 184.90625 256.5625 184.824219 256.03125 184.71875 C 255.496094 184.613281 254.964844 184.480469 254.445312 184.320312 C 253.921875 184.164062 253.410156 183.980469 252.90625 183.769531 C 252.402344 183.5625 251.910156 183.328125 251.429688 183.074219 C 250.949219 182.816406 250.480469 182.535156 250.027344 182.230469 C 249.574219 181.929688 249.136719 181.605469 248.714844 181.257812 C 248.292969 180.914062 247.890625 180.546875 247.503906 180.160156 C 247.117188 179.773438 246.753906 179.371094 246.40625 178.949219 C 246.0625 178.527344 245.734375 178.089844 245.433594 177.636719 C 245.128906 177.183594 244.851562 176.714844 244.59375 176.234375 C 244.335938 175.753906 244.101562 175.261719 243.894531 174.757812 C 243.6875 174.253906 243.503906 173.738281 243.34375 173.21875 C 243.1875 172.695312 243.054688 172.167969 242.945312 171.632812 C 242.839844 171.097656 242.761719 170.558594 242.707031 170.015625 C 242.652344 169.472656 242.628906 168.929688 242.628906 168.382812 C 242.628906 167.835938 242.652344 167.292969 242.707031 166.75 C 242.761719 166.207031 242.839844 165.667969 242.945312 165.132812 C 243.054688 164.597656 243.1875 164.070312 243.34375 163.546875 C 243.503906 163.027344 243.6875 162.511719 243.894531 162.007812 C 244.101562 161.503906 244.335938 161.011719 244.59375 160.53125 C 244.851562 160.050781 245.128906 159.582031 245.433594 159.128906 C 245.734375 158.675781 246.0625 158.238281 246.40625 157.816406 C 246.753906 157.394531 247.117188 156.992188 247.503906 156.605469 C 247.890625 156.21875 248.292969 155.851562 248.714844 155.507812 C 249.136719 155.160156 249.574219 154.835938 250.027344 154.535156 C 250.480469 154.230469 250.949219 153.949219 251.429688 153.691406 C 251.910156 153.4375 252.402344 153.203125 252.90625 152.996094 C 253.410156 152.785156 253.921875 152.601562 254.445312 152.445312 C 254.964844 152.285156 255.496094 152.152344 256.03125 152.046875 C 256.5625 151.941406 257.101562 151.859375 257.644531 151.808594 C 258.1875 151.753906 258.734375 151.726562 259.277344 151.726562 C 259.824219 151.726562 260.367188 151.753906 260.910156 151.808594 C 261.453125 151.859375 261.992188 151.941406 262.527344 152.046875 C 263.0625 152.152344 263.589844 152.285156 264.109375 152.445312 C 264.632812 152.601562 265.144531 152.785156 265.648438 152.996094 C 266.152344 153.203125 266.644531 153.4375 267.125 153.691406 C 267.609375 153.949219 268.074219 154.230469 268.527344 154.535156 C 268.980469 154.835938 269.417969 155.160156 269.839844 155.507812 C 270.261719 155.851562 270.664062 156.21875 271.050781 156.605469 C 271.4375 156.992188 271.804688 157.394531 272.148438 157.816406 C 272.496094 158.238281 272.820312 158.675781 273.121094 159.128906 C 273.425781 159.582031 273.707031 160.050781 273.960938 160.53125 C 274.21875 161.011719 274.453125 161.503906 274.660156 162.007812 C 274.871094 162.511719 275.054688 163.027344 275.210938 163.546875 C 275.371094 164.070312 275.503906 164.597656 275.609375 165.132812 C 275.714844 165.667969 275.792969 166.207031 275.847656 166.75 C 275.902344 167.292969 275.929688 167.835938 275.929688 168.382812 Z M 275.929688 168.382812 " fill-opacity="1" fill-rule="nonzero"/><g clip-path="url(#4e6e83e863)"><path fill="#462810" d="M 317.910156 164.457031 C 314.984375 158.898438 312.214844 153.644531 310.015625 148.339844 C 307.855469 143.128906 306.03125 137.460938 304.273438 131.921875 C 302.320312 133.996094 299.464844 135.09375 296.851562 134.410156 C 298.644531 140.070312 300.511719 145.867188 302.785156 151.339844 C 305.125 156.980469 308.101562 162.640625 310.996094 168.113281 C 317.496094 180.445312 324.222656 193.199219 324.222656 206.832031 C 324.222656 220.46875 317.503906 233.222656 310.996094 245.554688 C 308.109375 251.027344 305.125 256.6875 302.785156 262.324219 C 300.34375 268.207031 298.367188 274.476562 296.449219 280.53125 C 292.0625 294.410156 287.914062 307.527344 278.710938 316.734375 C 269.511719 325.941406 256.402344 330.085938 242.527344 334.480469 C 236.46875 336.402344 230.203125 338.382812 224.320312 340.820312 C 218.683594 343.160156 213.023438 346.140625 207.554688 349.03125 C 195.226562 355.535156 182.476562 362.265625 168.847656 362.265625 C 155.21875 362.265625 142.46875 355.535156 130.132812 349.03125 C 124.664062 346.144531 119.011719 343.160156 113.375 340.828125 C 107.492188 338.382812 101.226562 336.402344 95.167969 334.488281 C 81.292969 330.101562 68.1875 325.949219 58.984375 316.742188 C 49.789062 307.535156 45.640625 294.425781 41.25 280.546875 C 39.332031 274.484375 37.351562 268.21875 34.917969 262.339844 C 32.578125 256.703125 29.597656 251.039062 26.707031 245.566406 C 20.207031 233.234375 13.480469 220.480469 13.480469 206.847656 C 13.480469 193.214844 20.199219 180.460938 26.707031 168.128906 C 29.589844 162.65625 32.578125 156.996094 34.917969 151.355469 C 37.359375 145.46875 39.339844 139.203125 41.257812 133.144531 C 45.648438 119.265625 49.792969 106.152344 58.992188 96.953125 C 68.1875 87.746094 81.300781 83.605469 95.175781 79.207031 C 101.234375 77.289062 107.496094 75.304688 113.382812 72.871094 C 119.019531 70.53125 124.679688 67.550781 130.140625 64.664062 C 142.46875 58.160156 155.226562 51.433594 168.855469 51.433594 C 182.484375 51.433594 195.234375 58.160156 207.5625 64.664062 C 213.03125 67.550781 218.691406 70.539062 224.328125 72.878906 C 227.015625 73.988281 229.785156 75 232.574219 75.964844 C 230.929688 73.328125 230.683594 69.925781 232.035156 67.46875 C 230.4375 66.882812 228.851562 66.277344 227.320312 65.644531 C 222.015625 63.445312 216.765625 60.675781 211.207031 57.746094 C 198.035156 50.800781 184.414062 43.613281 168.847656 43.613281 C 153.28125 43.613281 139.660156 50.800781 126.488281 57.746094 C 120.929688 60.675781 115.683594 63.445312 110.382812 65.644531 C 104.816406 67.957031 98.714844 69.890625 92.816406 71.75 C 78.648438 76.234375 64.003906 80.871094 53.457031 91.421875 C 42.902344 101.976562 38.273438 116.625 33.789062 130.789062 C 31.921875 136.691406 29.992188 142.796875 27.679688 148.367188 C 25.480469 153.675781 22.710938 158.929688 19.785156 164.488281 C 12.839844 177.664062 5.65625 191.289062 5.65625 206.863281 C 5.65625 222.4375 12.839844 236.0625 19.785156 249.238281 C 22.710938 254.796875 25.480469 260.050781 27.679688 265.355469 C 29.992188 270.921875 31.917969 277.027344 33.785156 282.929688 C 38.265625 297.09375 42.894531 311.742188 53.449219 322.300781 C 64.003906 332.863281 78.640625 337.5 92.808594 341.976562 C 98.707031 343.84375 104.808594 345.769531 110.375 348.078125 C 115.675781 350.28125 120.929688 353.050781 126.480469 355.980469 C 139.660156 362.925781 153.28125 370.113281 168.839844 370.113281 C 184.402344 370.113281 198.03125 362.925781 211.199219 355.980469 C 216.757812 353.050781 222.003906 350.28125 227.3125 348.078125 C 232.878906 345.769531 238.980469 343.835938 244.878906 341.976562 C 259.046875 337.492188 273.691406 332.855469 284.238281 322.300781 C 294.792969 311.742188 299.429688 297.09375 303.910156 282.929688 C 305.777344 277.027344 307.703125 270.929688 310.015625 265.355469 C 312.214844 260.050781 314.984375 254.796875 317.910156 249.238281 C 324.855469 236.0625 332.039062 222.4375 332.039062 206.863281 C 332.039062 191.289062 324.855469 177.671875 317.910156 164.488281 Z M 317.910156 164.457031 " fill-opacity="1" fill-rule="nonzero"/></g><path fill="#462810" d="M 299.640625 140.941406 C 299.152344 140.941406 298.660156 140.855469 298.195312 140.664062 C 282.773438 134.523438 268.742188 125.746094 256.496094 114.578125 C 243.433594 102.660156 232.921875 88.515625 225.242188 72.535156 C 224.449219 70.886719 224.910156 68.902344 226.347656 67.769531 C 231.214844 63.929688 236.140625 59.679688 240.90625 55.566406 C 244.734375 52.261719 248.664062 48.867188 252.625 45.640625 C 247.347656 37.980469 246.433594 27.144531 250.820312 19.230469 C 255.949219 9.980469 267.566406 4.878906 277.847656 7.355469 C 285.269531 9.144531 291.519531 14.777344 294.546875 21.746094 C 299.285156 16.796875 306.238281 11.671875 315.484375 10.21875 C 326.535156 8.484375 338.921875 12.601562 348.597656 21.25 C 358.199219 29.832031 363.648438 41.578125 363.167969 52.652344 C 362.726562 62.789062 357.691406 70.726562 352.898438 76.046875 C 359.769531 79.183594 364.855469 85.09375 366.527344 92.316406 C 369.292969 104.285156 361.398438 115.179688 352.164062 119.757812 C 343.527344 124.039062 333.269531 123.171875 325.152344 117.714844 C 321.652344 121.03125 318.28125 124.359375 315.011719 127.597656 C 310.953125 131.617188 306.753906 135.773438 302.277344 139.910156 C 301.542969 140.59375 300.585938 140.949219 299.617188 140.949219 Z M 233.683594 71.925781 C 240.78125 85.855469 250.21875 98.246094 261.777344 108.785156 C 272.71875 118.761719 285.160156 126.710938 298.804688 132.453125 C 302.515625 128.957031 306.078125 125.441406 309.527344 122.019531 C 313.589844 118 317.789062 113.84375 322.261719 109.707031 C 323.730469 108.347656 325.980469 108.3125 327.484375 109.628906 C 333.550781 114.894531 341.875 116.109375 348.710938 112.730469 C 355.183594 109.527344 360.773438 102.085938 358.917969 94.074219 C 357.472656 87.824219 351.808594 82.847656 344.8125 81.691406 C 343.308594 81.445312 342.082031 80.339844 341.679688 78.867188 C 341.273438 77.390625 341.769531 75.820312 342.929688 74.832031 C 346.503906 71.816406 354.875 63.582031 355.359375 52.304688 C 355.746094 43.546875 351.269531 34.121094 343.394531 27.078125 C 335.449219 19.980469 325.480469 16.554688 316.710938 17.945312 C 305.65625 19.6875 298.425781 28.75 295.832031 32.566406 C 294.882812 33.96875 293.136719 34.59375 291.511719 34.128906 C 289.882812 33.65625 288.742188 32.195312 288.683594 30.503906 C 288.445312 23.445312 282.878906 16.621094 276.015625 14.964844 C 269.148438 13.300781 261.09375 16.855469 257.664062 23.023438 C 254.265625 29.15625 255.726562 38.300781 260.917969 43.410156 C 261.71875 44.199219 262.148438 45.289062 262.082031 46.417969 C 262.015625 47.542969 261.480469 48.582031 260.59375 49.28125 C 255.71875 53.125 250.777344 57.382812 246.003906 61.496094 C 241.972656 64.976562 237.832031 68.554688 233.664062 71.933594 Z M 233.683594 71.925781 " fill-opacity="1" fill-rule="nonzero"/><path fill="#462810" d="M 152.859375 111.71875 C 151.390625 111.71875 149.980469 110.886719 149.3125 109.46875 C 147.960938 106.589844 144.925781 104.488281 141.765625 104.242188 C 138.570312 103.980469 135.277344 105.59375 133.496094 108.226562 C 132.285156 110.019531 129.851562 110.484375 128.0625 109.269531 C 126.269531 108.058594 125.804688 105.625 127.019531 103.835938 C 130.382812 98.871094 136.390625 95.980469 142.382812 96.4375 C 148.355469 96.910156 153.859375 100.710938 156.402344 106.140625 C 157.324219 108.09375 156.484375 110.425781 154.523438 111.351562 C 153.984375 111.605469 153.417969 111.71875 152.859375 111.71875 Z M 152.859375 111.71875 " fill-opacity="1" fill-rule="nonzero"/><path fill="#462810" d="M 254.054688 138.738281 C 252.347656 138.738281 250.777344 137.613281 250.292969 135.890625 C 249.425781 132.832031 246.769531 130.273438 243.6875 129.511719 C 240.59375 128.753906 237.070312 129.792969 234.882812 132.105469 C 233.394531 133.675781 230.925781 133.738281 229.347656 132.257812 C 227.777344 130.769531 227.707031 128.289062 229.195312 126.71875 C 233.3125 122.367188 239.734375 120.476562 245.546875 121.910156 C 251.367188 123.339844 256.183594 127.984375 257.816406 133.753906 C 258.40625 135.832031 257.199219 138 255.121094 138.585938 C 254.765625 138.6875 254.402344 138.738281 254.054688 138.738281 Z M 254.054688 138.738281 " fill-opacity="1" fill-rule="nonzero"/><path fill="#462810" d="M 180.558594 174.175781 C 178.667969 174.175781 176.851562 173.824219 175.152344 173.121094 C 170.074219 171.007812 166.539062 166.078125 164.625 158.484375 C 161.597656 146.472656 162.714844 134 167.859375 122.433594 C 168.390625 121.242188 169.472656 120.398438 170.75 120.164062 C 172.03125 119.941406 173.34375 120.359375 174.246094 121.296875 C 182.199219 129.523438 195.648438 132.285156 206.203125 127.867188 C 207.488281 127.332031 208.960938 127.519531 210.074219 128.355469 C 211.1875 129.199219 211.765625 130.5625 211.601562 131.945312 C 210.234375 143.296875 206.273438 158.769531 195.136719 168.027344 C 190.285156 172.066406 185.199219 174.167969 180.550781 174.167969 Z M 173.097656 130.636719 C 170.375 139.117188 170.0625 147.992188 172.21875 156.582031 C 173.097656 160.0625 174.839844 164.507812 178.167969 165.898438 C 182.679688 167.78125 188.476562 163.40625 190.140625 162.015625 C 197.535156 155.863281 201.140625 145.90625 202.882812 137.0625 C 192.632812 139.199219 181.554688 136.820312 173.097656 130.636719 Z M 173.097656 130.636719 " fill-opacity="1" fill-rule="nonzero"/><path fill="#462810" d="M 219.191406 296.613281 C 213.953125 309.585938 206.515625 321.371094 196.984375 331.683594 L 143.761719 338.742188 C 117.902344 326.066406 98.300781 301.34375 91.710938 273.320312 L 227.558594 256.554688 C 227.496094 259.054688 227.320312 261.542969 227.09375 264.019531 C 227.125 263.996094 227.144531 263.960938 227.167969 263.941406 C 228.28125 262.898438 229.265625 262.171875 230.691406 261.484375 C 231.089844 261.285156 232.109375 260.429688 231.445312 261.214844 C 232.59375 259.847656 233.925781 259.046875 235.304688 258.65625 C 235.398438 256.46875 235.441406 254.28125 235.421875 252.078125 C 235.40625 250.96875 234.917969 249.90625 234.085938 249.171875 C 233.25 248.4375 232.144531 248.097656 231.027344 248.234375 L 86.515625 266.070312 C 85.441406 266.199219 84.476562 266.773438 83.835938 267.644531 C 83.199219 268.519531 82.949219 269.613281 83.148438 270.675781 C 89.242188 303.167969 111.574219 332.148438 141.429688 346.3125 C 141.953125 346.558594 142.527344 346.691406 143.109375 346.691406 C 143.285156 346.691406 143.449219 346.675781 143.625 346.65625 L 199.386719 339.265625 C 200.273438 339.148438 201.09375 338.726562 201.710938 338.074219 C 212.457031 326.722656 220.789062 313.648438 226.574219 299.207031 C 223.871094 299.527344 221.253906 298.757812 219.175781 296.613281 Z M 219.191406 296.613281 " fill-opacity="1" fill-rule="nonzero"/><path fill="#462810" d="M 222.925781 304.082031 C 220.0625 304.082031 216.996094 303.503906 214.300781 301.605469 C 210.351562 298.816406 208.214844 293.699219 208.738281 288.242188 C 209.195312 283.453125 211.460938 279.367188 213.378906 276.34375 C 218.960938 267.566406 226.652344 260.160156 235.636719 254.933594 C 237.5 253.84375 239.902344 254.476562 240.992188 256.351562 C 242.074219 258.21875 241.441406 260.617188 239.574219 261.703125 C 231.671875 266.300781 224.894531 272.820312 219.984375 280.546875 C 217.824219 283.945312 216.757812 286.546875 216.523438 288.988281 C 216.277344 291.570312 217.199219 294.070312 218.804688 295.210938 C 220.457031 296.371094 223.152344 296.554688 227.074219 295.777344 C 234.957031 294.222656 242.539062 290.871094 248.992188 286.074219 C 250.726562 284.789062 253.175781 285.152344 254.460938 286.890625 C 255.746094 288.625 255.390625 291.082031 253.648438 292.367188 C 246.265625 297.847656 237.601562 301.683594 228.578125 303.464844 C 226.9375 303.792969 224.972656 304.089844 222.910156 304.089844 Z M 222.925781 304.082031 " fill-opacity="1" fill-rule="nonzero"/><path fill="#462810" d="M 68.203125 229.914062 C 66.367188 229.914062 64.722656 228.605469 64.359375 226.730469 C 63.953125 224.609375 65.347656 222.550781 67.46875 222.144531 C 79.660156 219.8125 91.582031 216.046875 102.90625 210.96875 C 108.988281 208.234375 112.183594 205.292969 112.402344 202.21875 C 112.5625 200.011719 111.050781 197.503906 108.636719 195.960938 C 106.394531 194.539062 103.371094 193.730469 99.128906 193.433594 C 90.933594 192.859375 82.59375 194.195312 74.996094 197.292969 C 72.992188 198.113281 70.710938 197.140625 69.894531 195.140625 C 69.082031 193.136719 70.042969 190.851562 72.046875 190.039062 C 80.75 186.492188 90.300781 184.972656 99.671875 185.621094 C 103.191406 185.867188 108.382812 186.523438 112.828125 189.347656 C 117.683594 192.429688 120.582031 197.707031 120.210938 202.785156 C 119.535156 212.082031 109.429688 216.617188 106.109375 218.105469 C 94.230469 223.433594 81.730469 227.378906 68.945312 229.828125 C 68.695312 229.878906 68.449219 229.898438 68.203125 229.898438 Z M 68.203125 229.914062 " fill-opacity="1" fill-rule="nonzero"/><path fill="#462810" d="M 90.296875 188.796875 L 87.238281 180.132812 C 86.277344 177.421875 87.707031 174.429688 90.425781 173.46875 C 90.984375 173.273438 91.574219 173.171875 92.148438 173.171875 C 92.917969 173.171875 93.679688 173.347656 94.398438 173.6875 C 95.664062 174.292969 96.613281 175.34375 97.082031 176.660156 L 101.410156 188.921875 C 103.117188 188.890625 104.832031 188.847656 106.539062 188.832031 C 107.75 188.816406 108.847656 189.007812 109.851562 189.3125 L 104.46875 174.050781 C 103.304688 170.765625 100.929688 168.128906 97.777344 166.625 C 94.632812 165.128906 91.09375 164.929688 87.816406 166.09375 C 81.03125 168.492188 77.464844 175.960938 79.855469 182.75 L 82.886719 191.324219 C 85.109375 189.488281 87.652344 188.921875 90.296875 188.804688 Z M 90.296875 188.796875 " fill-opacity="1" fill-rule="nonzero"/><path fill="#462810" d="M 100.296875 217.132812 C 97.800781 217.917969 95.242188 218.757812 92.632812 218.933594 L 99.238281 237.648438 C 100.035156 239.914062 101.453125 241.816406 103.210938 243.277344 C 103.167969 242.996094 103.089844 242.726562 103.089844 242.429688 C 103.074219 239.128906 104.113281 235.902344 106.039062 233.386719 L 100.296875 217.125 Z M 100.296875 217.132812 " fill-opacity="1" fill-rule="nonzero"/><path fill="#462810" d="M 123.84375 228.957031 L 115.75 206.011719 C 115.207031 207.261719 114.5 208.441406 113.585938 209.457031 C 112.453125 210.730469 111.160156 211.769531 109.816406 212.71875 L 115.445312 228.679688 C 117.675781 228.644531 119.863281 229.136719 121.902344 230.089844 C 122.789062 230.496094 123.632812 231.011719 124.46875 231.527344 C 124.351562 230.664062 124.140625 229.804688 123.84375 228.957031 Z M 123.84375 228.957031 " fill-opacity="1" fill-rule="nonzero"/><path fill="#462810" d="M 103.371094 268.5625 C 100.894531 255.921875 103.894531 242.21875 111.71875 231.519531 C 121.34375 234.414062 128.375 237.996094 133.714844 242.691406 C 139.8125 248.046875 143.550781 255.253906 143.945312 262.117188 C 146.539062 261.78125 149.117188 261.425781 151.6875 261.054688 C 151.019531 252.277344 146.472656 243.480469 138.882812 236.8125 C 132.160156 230.910156 123.394531 226.601562 111.289062 223.257812 C 109.792969 222.84375 108.203125 223.351562 107.222656 224.550781 C 96.667969 237.429688 92.554688 254.738281 95.800781 270.582031 C 98.300781 269.847656 100.820312 269.179688 103.371094 268.574219 Z M 103.371094 268.5625 " fill-opacity="1" fill-rule="nonzero"/><path fill="#462810" d="M 108.222656 230.386719 C 107.890625 230.570312 107.542969 230.664062 107.191406 230.773438 C 110.089844 242.699219 114.117188 254.339844 119.273438 265.480469 C 121.960938 265.050781 124.648438 264.652344 127.351562 264.289062 C 121.757812 252.601562 117.464844 240.320312 114.492188 227.710938 C 112.414062 228.375 110.367188 229.230469 108.222656 230.394531 Z M 108.222656 230.386719 " fill-opacity="1" fill-rule="nonzero"/><path fill="#462810" d="M 241.523438 236.441406 C 238.539062 236.441406 234.859375 235.96875 231.839844 233.75 C 229.566406 232.085938 228.148438 229.8125 227.007812 227.988281 L 220.128906 216.984375 C 218.355469 214.144531 215.921875 210.257812 216.21875 205.621094 C 216.488281 201.46875 218.625 197.777344 222.402344 194.945312 C 227.816406 190.882812 236.378906 188.972656 242.75 190.402344 C 253.921875 192.902344 266.316406 200.417969 267.601562 214.019531 C 268.308594 221.457031 264.753906 228.949219 258.777344 232.660156 C 254.476562 235.335938 249.609375 235.910156 244.996094 236.265625 C 244.050781 236.339844 242.859375 236.433594 241.53125 236.433594 Z M 238.28125 197.777344 C 234.722656 197.777344 230.191406 198.890625 227.089844 201.214844 C 225.175781 202.648438 224.144531 204.304688 224.03125 206.121094 C 223.898438 208.082031 225.191406 210.320312 226.761719 212.835938 L 233.640625 223.839844 C 234.511719 225.226562 235.40625 226.660156 236.460938 227.4375 C 238.332031 228.808594 241.53125 228.695312 244.378906 228.46875 C 248.03125 228.183594 251.824219 227.761719 254.636719 226.019531 C 258.101562 223.867188 260.222656 219.238281 259.800781 214.769531 C 258.914062 205.34375 249.519531 199.953125 241.035156 198.054688 C 240.238281 197.875 239.292969 197.785156 238.277344 197.785156 Z M 238.28125 197.777344 " fill-opacity="1" fill-rule="nonzero"/><path fill="#462810" d="M 49.453125 157.894531 C 47.355469 153.636719 47.871094 148.601562 48.175781 145.609375 C 48.675781 140.765625 49.234375 135.289062 51.371094 130.214844 C 53.972656 124.058594 58.5625 119.628906 63.96875 118.066406 C 70.898438 116.058594 77.050781 117.890625 81.300781 123.222656 C 86.980469 130.367188 87.949219 142.746094 83.457031 150.832031 C 79.777344 157.460938 73.15625 162.417969 65.761719 164.09375 C 60.066406 165.382812 54.9375 164.261719 51.683594 161.027344 C 50.722656 160.070312 49.996094 159.015625 49.445312 157.902344 Z M 66.15625 125.585938 C 63.066406 126.480469 60.242188 129.351562 58.59375 133.261719 C 56.914062 137.25 56.433594 141.910156 55.96875 146.40625 C 55.589844 150.089844 55.484375 153.753906 57.21875 155.46875 C 58.746094 156.988281 61.746094 156.972656 64.046875 156.449219 C 69.308594 155.257812 74.007812 151.734375 76.628906 147.023438 C 79.566406 141.75 78.875 132.730469 75.191406 128.101562 C 72.960938 125.296875 70.003906 124.472656 66.160156 125.585938 Z M 66.15625 125.585938 " fill-opacity="1" fill-rule="nonzero"/><path fill="#462810" d="M 158.511719 229.179688 C 154.164062 229.179688 150.496094 226.90625 147.765625 224.894531 C 142.238281 220.832031 138.757812 216.570312 137.121094 211.878906 C 134.804688 205.214844 136.832031 197.734375 141.9375 194.09375 C 146.285156 191 151.105469 190.066406 155.867188 191.398438 C 161.757812 193.046875 167.21875 198.25 170.125 204.988281 C 172.269531 209.964844 172.652344 215.082031 171.214844 219.414062 C 169.371094 224.972656 164.320312 228.984375 158.945312 229.179688 C 158.800781 229.179688 158.65625 229.1875 158.503906 229.1875 Z M 146.488281 200.476562 C 143.957031 202.269531 143.5 206.375 144.519531 209.296875 C 145.613281 212.453125 148.195312 215.488281 152.40625 218.585938 C 154.210938 219.90625 156.410156 221.40625 158.675781 221.347656 C 160.785156 221.273438 162.976562 219.375 163.792969 216.933594 C 164.621094 214.433594 164.320312 211.296875 162.933594 208.082031 C 160.980469 203.542969 157.375 199.953125 153.757812 198.941406 C 151.296875 198.25 148.914062 198.753906 146.488281 200.476562 Z M 146.488281 200.476562 " fill-opacity="1" fill-rule="nonzero"/><path fill="#462810" d="M 182.484375 95.230469 C 180.847656 95.230469 179.265625 95.09375 177.789062 94.96875 C 173.613281 94.613281 165.847656 93.953125 161.691406 88.238281 C 158.386719 83.691406 158.277344 78.394531 161.410156 73.707031 C 165.621094 67.398438 174.671875 63.617188 181.605469 65.28125 C 189.507812 67.1875 197.195312 76.46875 197.113281 84.023438 C 197.085938 86.613281 196.054688 92.824219 187.105469 94.78125 C 185.542969 95.121094 183.988281 95.238281 182.484375 95.238281 Z M 168.027344 83.632812 C 169.914062 86.234375 174.40625 86.824219 178.457031 87.164062 C 180.855469 87.367188 183.324219 87.585938 185.433594 87.121094 C 189.253906 86.285156 189.277344 84.644531 189.28125 83.9375 C 189.328125 80.019531 184.082031 73.929688 179.773438 72.890625 C 176.121094 72.011719 170.242188 74.570312 167.917969 78.050781 C 166.625 79.984375 166.660156 81.757812 168.019531 83.632812 Z M 168.027344 83.632812 " fill-opacity="1" fill-rule="nonzero"/><path fill="#462810" d="M 62.871094 267.886719 C 60.648438 267.886719 58.433594 267.515625 56.347656 266.78125 C 47.753906 263.75 44.671875 255.246094 46.140625 248.789062 C 47.410156 243.191406 52.476562 237.960938 60.945312 238.867188 C 68.929688 239.730469 77.015625 247.753906 77.589844 255.378906 C 78.019531 261.105469 74.371094 265.546875 67.824219 267.253906 C 66.21875 267.675781 64.550781 267.886719 62.878906 267.886719 Z M 59.019531 246.59375 C 55.257812 246.59375 54.117188 249 53.769531 250.515625 C 53.050781 253.683594 54.625 257.871094 58.949219 259.398438 C 61.140625 260.167969 63.582031 260.269531 65.835938 259.679688 C 69.96875 258.597656 69.832031 256.753906 69.773438 255.960938 C 69.511719 252.398438 64.671875 247.144531 60.097656 246.652344 C 59.71875 246.605469 59.355469 246.59375 59.019531 246.59375 Z M 59.019531 246.59375 " fill-opacity="1" fill-rule="nonzero"/><path fill="#462810" d="M 275.914062 271.488281 C 270.84375 271.488281 265.859375 269.273438 262.875 265.144531 C 259.320312 260.234375 258.820312 254.449219 261.5 249.28125 C 264.566406 243.351562 271.367188 239.164062 277.910156 239.355469 C 283.65625 239.417969 288.488281 242.617188 291.167969 248.113281 C 294.554688 255.042969 291.867188 264.296875 285.175781 268.742188 C 282.378906 270.601562 279.132812 271.488281 275.921875 271.488281 Z M 277.714844 247.179688 C 274.113281 247.179688 270.136719 249.617188 268.453125 252.886719 C 267.128906 255.445312 267.386719 258.023438 269.214844 260.558594 C 271.621094 263.882812 277.15625 264.671875 280.839844 262.222656 C 284.261719 259.949219 285.800781 254.964844 284.128906 251.550781 C 282.734375 248.6875 280.613281 247.226562 277.808594 247.1875 L 277.714844 247.1875 Z M 277.714844 247.179688 " fill-opacity="1" fill-rule="nonzero"/></svg>